<svg width="20" height="20" viewBox="0 0 20 20" fill="none" xmlns="http://www.w3.org/2000/svg">
<g clip-path="url(#clip0_1129_1107)">
<path d="M14.5834 5.41663H14.5917M5.83341 1.66663H14.1667C16.4679 1.66663 18.3334 3.53211 18.3334 5.83329V14.1666C18.3334 16.4678 16.4679 18.3333 14.1667 18.3333H5.83341C3.53223 18.3333 1.66675 16.4678 1.66675 14.1666V5.83329C1.66675 3.53211 3.53223 1.66663 5.83341 1.66663ZM13.3334 9.47496C13.4363 10.1685 13.3178 10.8768 12.9949 11.4991C12.672 12.1215 12.161 12.6261 11.5348 12.9414C10.9085 13.2566 10.1988 13.3663 9.50657 13.2549C8.81435 13.1435 8.17488 12.8167 7.67911 12.3209C7.18335 11.8252 6.85653 11.1857 6.74514 10.4935C6.63375 9.80125 6.74347 9.09154 7.05869 8.46527C7.3739 7.839 7.87857 7.32808 8.5009 7.00516C9.12323 6.68224 9.83154 6.56378 10.5251 6.66663C11.2325 6.77153 11.8875 7.10118 12.3932 7.60688C12.8989 8.11258 13.2285 8.76752 13.3334 9.47496Z" stroke="#090A0A" stroke-width="1.5" stroke-linecap="round" stroke-linejoin="round"/>
</g>
<defs>
<clipPath id="clip0_1129_1107">
<rect width="20" height="20" fill="white"/>
</clipPath>
</defs>
</svg>
