<svg width="93" height="28" viewBox="0 0 93 28" fill="none" xmlns="http://www.w3.org/2000/svg">
<path d="M13.0534 14.6181C13.0534 15.2774 12.9803 15.9573 12.8343 16.6578C12.6882 17.3584 12.4378 17.9971 12.083 18.574C11.7491 19.1508 11.3004 19.6247 10.737 19.9956C10.1944 20.3664 9.52657 20.5519 8.73356 20.5519C8.33705 20.5519 7.95098 20.5004 7.57535 20.3974C7.22058 20.3149 6.86581 20.1913 6.51104 20.0265C6.51104 20.933 6.49017 21.819 6.44844 22.6843C6.4067 23.5703 6.38583 24.4665 6.38583 25.3731C6.38583 25.9912 6.31279 26.4753 6.16671 26.8256C6.0415 27.1965 5.83281 27.4643 5.54065 27.6291C5.26935 27.794 4.91458 27.897 4.47634 27.9382C4.05897 27.9794 3.56855 28 3.0051 28C2.79641 28 2.55642 27.9897 2.28513 27.9691C2.0347 27.9691 1.78428 27.9279 1.53385 27.8455C1.3043 27.7631 1.10604 27.6394 0.939093 27.4746C0.793011 27.3304 0.719971 27.1141 0.719971 26.8256C0.719971 26.5372 0.81388 26.2693 1.0017 26.0221C1.21039 25.7748 1.42951 25.5688 1.65906 25.404C1.65906 23.0552 1.6695 20.727 1.69037 18.4194C1.71124 16.0912 1.72167 13.7528 1.72167 11.404C1.72167 11.2391 1.71124 11.0743 1.69037 10.9095C1.69037 10.7241 1.67993 10.5489 1.65906 10.3841C1.22082 10.3429 0.834749 10.1781 0.500849 9.88962C0.16695 9.60118 0 9.23032 0 8.77704C0 8.30316 0.177384 7.9323 0.532152 7.66446C0.907789 7.39662 1.34603 7.20088 1.84688 7.07726C2.34773 6.95364 2.85902 6.88153 3.38073 6.86093C3.92332 6.81972 4.372 6.79912 4.72677 6.79912C5.20675 6.79912 5.62412 6.88153 5.97889 7.04636C6.33366 7.19058 6.56321 7.53054 6.66756 8.06623C7.33536 7.48933 8.1075 7.20088 8.98399 7.20088C10.0066 7.20088 10.7891 7.44812 11.3317 7.94261C11.8952 8.43709 12.3021 9.05519 12.5525 9.79691C12.803 10.5386 12.949 11.3422 12.9908 12.2075C13.0325 13.0728 13.0534 13.8764 13.0534 14.6181ZM8.23271 13.0419C8.23271 12.9183 8.22228 12.7432 8.20141 12.5166C8.18054 12.2899 8.1388 12.0736 8.0762 11.8675C8.03446 11.6409 7.95098 11.4555 7.82577 11.3113C7.72143 11.1464 7.57535 11.064 7.38753 11.064C7.22058 11.064 7.06406 11.1258 6.91798 11.2494C6.7719 11.3525 6.65712 11.4658 6.57365 11.5894C6.57365 12.496 6.58408 13.3922 6.60495 14.2781C6.64669 15.1641 6.66756 16.0603 6.66756 16.9669L7.01189 16.9978C7.28318 16.9978 7.49187 16.8948 7.63795 16.6887C7.8049 16.4621 7.93011 16.2046 8.01359 15.9161C8.09706 15.6277 8.14924 15.3289 8.1701 15.0199C8.21184 14.6902 8.23271 14.4327 8.23271 14.2472V13.0419ZM8.48314 8.37528C8.1075 8.62252 7.64839 8.94187 7.1058 9.33333C6.56321 9.70419 6.02063 10.106 5.47804 10.5386C4.93545 10.9507 4.42417 11.3731 3.94419 11.8057C3.46421 12.2178 3.08857 12.5887 2.81728 12.9183L2.78597 13.0728V13.1965L2.87988 13.1038C3.75637 12.1766 4.74763 11.3319 5.85368 10.5695C6.95972 9.80721 8.02402 9.06549 9.04659 8.34437L8.48314 8.37528ZM6.19801 18.0486L5.75977 17.8322C5.25892 18.2031 4.72677 18.6152 4.16331 19.0684C3.62072 19.5011 3.14074 19.9544 2.72337 20.4283V20.8918C3.24509 20.3974 3.80854 19.9235 4.41373 19.4702C5.0398 18.9963 5.63456 18.5327 6.19801 18.0795V18.0486ZM6.73016 18.8521C7.06406 18.5224 7.4397 18.2237 7.85707 17.9559C8.29532 17.6674 8.74399 17.3996 9.20311 17.1523C9.66222 16.9051 10.1109 16.6578 10.5491 16.4106C11.0083 16.1634 11.4361 15.8955 11.8326 15.6071L11.8952 15.1435C11.3526 15.4731 10.8204 15.8131 10.2987 16.1634C9.79787 16.493 9.27615 16.8124 8.73356 17.1214C8.56661 17.4099 8.33706 17.6468 8.04489 17.8322C7.7736 18.0177 7.46057 18.1207 7.1058 18.1413L6.41713 18.6358L6.73016 18.8521ZM2.69207 17.1523C3.10944 16.7403 3.55812 16.2973 4.0381 15.8234C4.51808 15.3289 4.99806 14.9065 5.47804 14.5563V14.0618C5.39457 14.0824 5.21718 14.206 4.94589 14.4327C4.67459 14.6593 4.38243 14.9169 4.0694 15.2053C3.77724 15.4731 3.49551 15.741 3.22422 16.0088C2.95292 16.2561 2.77554 16.4209 2.69207 16.5033V17.1523ZM7.73186 19.2539L11.6134 16.8433V16.4415C11.3004 16.6681 10.9456 16.8845 10.5491 17.0905C10.1526 17.2965 9.75613 17.5026 9.35962 17.7086C8.98398 17.9146 8.60835 18.131 8.23271 18.3576C7.87794 18.5843 7.56491 18.8315 7.29362 19.0993L7.73186 19.2539ZM2.69207 18.4503C3.17205 18.0177 3.64159 17.5953 4.1007 17.1832C4.55982 16.7712 5.02936 16.3591 5.50934 15.947C5.48847 15.844 5.47804 15.741 5.47804 15.638C5.47804 15.535 5.47804 15.4319 5.47804 15.3289C5.01893 15.741 4.55982 16.184 4.1007 16.6578C3.64159 17.1317 3.17205 17.5438 2.69207 17.894V18.4503ZM5.29022 22.0662C4.87285 22.3753 4.44504 22.6946 4.00679 23.0243C3.56855 23.3539 3.16161 23.6939 2.78597 24.0442V24.5695C3.20335 24.2605 3.62072 23.9617 4.0381 23.6733C4.47634 23.3848 4.88328 23.0655 5.25892 22.7152L5.29022 22.128V22.0662ZM2.75467 23.3024C3.17205 22.9522 3.59985 22.6122 4.0381 22.2826C4.47634 21.9529 4.90415 21.6026 5.32152 21.2318L5.35283 20.5828C4.97719 21.0155 4.54938 21.3966 4.0694 21.7263C3.58942 22.0559 3.15118 22.4268 2.75467 22.8389V23.3024ZM9.32832 15.0199C9.74569 14.7314 10.1631 14.4636 10.5804 14.2163C11.0187 13.9691 11.4465 13.7116 11.8639 13.4437L11.8326 12.8256C11.3943 13.0935 10.9769 13.3819 10.5804 13.6909C10.1839 14 9.777 14.2884 9.35962 14.5563L9.32832 15.0199ZM2.72337 19.6247C3.09901 19.2127 3.53725 18.8109 4.0381 18.4194C4.55982 18.0074 5.05023 17.6262 5.50934 17.2759V16.7196C5.05023 17.0905 4.60155 17.5026 4.16331 17.9559C3.72507 18.4091 3.26596 18.8109 2.78597 19.1611L2.72337 19.1921V19.6247ZM5.44674 12.8256C5.02936 13.1759 4.53895 13.5776 3.97549 14.0309C3.43291 14.4636 3.01553 14.9065 2.72337 15.3598L2.69207 15.7307C3.17205 15.3804 3.62072 14.989 4.0381 14.5563C4.47634 14.1236 4.94589 13.7322 5.44674 13.3819V12.8256ZM5.44674 11.7439C4.96676 12.1148 4.50764 12.496 4.0694 12.8874C3.65203 13.2583 3.21378 13.6497 2.75467 14.0618L2.72337 14.4945C3.20335 14.206 3.66246 13.8249 4.1007 13.351C4.53895 12.8771 4.98763 12.465 5.44674 12.1148V11.7439ZM5.32152 19.532C4.88328 19.8617 4.4346 20.2016 3.97549 20.5519C3.51638 20.9021 3.09901 21.2833 2.72337 21.6954V22.0971C3.18248 21.7469 3.62072 21.3554 4.0381 20.9227C4.45547 20.4901 4.89372 20.1192 5.35283 19.8102L5.32152 19.532ZM9.32832 12.362L9.35962 12.7947C9.73526 12.5063 10.1213 12.2384 10.5178 11.9912C10.9143 11.7439 11.3108 11.4761 11.7074 11.1876L11.6134 10.6932L9.32832 12.362ZM11.05 9.24062C11.0083 9.17881 10.9561 9.117 10.8935 9.05519C10.8309 8.99338 10.7578 8.94187 10.6744 8.90066C10.4031 9.16851 10.0796 9.45695 9.70396 9.766C9.32832 10.0545 8.98399 10.2914 8.67095 10.4768L8.89008 10.7859C9.28658 10.621 9.64135 10.3738 9.95438 10.0442C10.2674 9.69389 10.6326 9.42605 11.05 9.24062ZM9.1405 16.1943C9.59961 15.9058 10.0483 15.6174 10.4865 15.3289C10.9456 15.0405 11.4152 14.752 11.8952 14.4636V14.0927C11.4569 14.4018 10.9978 14.6902 10.5178 14.9581C10.0587 15.2053 9.62048 15.504 9.20311 15.8543L9.1405 16.1943ZM2.81728 25.713C3.21378 25.3834 3.62072 25.0743 4.0381 24.7859C4.45547 24.4974 4.86241 24.1884 5.25892 23.8587V23.457C4.84154 23.766 4.41373 24.0648 3.97549 24.3532C3.55812 24.6623 3.17205 25.0022 2.81728 25.3731V25.713ZM11.3317 9.7351C10.9352 9.98234 10.5596 10.2502 10.2048 10.5386C9.87091 10.8271 9.51614 11.0949 9.1405 11.3422L9.23441 11.6821C9.61005 11.4143 9.97525 11.1567 10.33 10.9095C10.7057 10.6416 11.0813 10.3738 11.4569 10.106L11.3317 9.7351ZM5.54065 8.31347C5.1024 8.70493 4.62242 9.08609 4.1007 9.45695C3.59985 9.82781 3.18248 10.2605 2.84858 10.755V11.0331C3.26596 10.6004 3.7042 10.1884 4.16331 9.79691C4.64329 9.40545 5.1024 9.01398 5.54065 8.62252V8.31347ZM2.84858 12.0839C3.28682 11.6512 3.75637 11.2391 4.25722 10.8477C4.75807 10.4356 5.24848 10.0338 5.72847 9.64238C5.68673 9.60118 5.65542 9.55997 5.63456 9.51876C5.61369 9.47756 5.58238 9.43635 5.54065 9.39514C5.08153 9.80721 4.62242 10.209 4.16331 10.6004C3.7042 10.9919 3.26596 11.404 2.84858 11.8366V12.0839ZM9.82917 8.46799C9.72482 8.5298 9.55788 8.63282 9.32832 8.77704C9.11963 8.92127 8.90051 9.07579 8.67095 9.24062C8.4414 9.38484 8.22228 9.52907 8.01359 9.67329C7.82577 9.79691 7.71099 9.88962 7.66926 9.95144L8.20141 10.1369C8.53531 9.88963 8.85877 9.63208 9.1718 9.36424C9.48483 9.07579 9.8083 8.81825 10.1422 8.59161L9.82917 8.46799ZM11.2691 17.7395C10.81 17.9868 10.3405 18.234 9.86047 18.4812C9.40136 18.7285 8.97355 19.0272 8.57705 19.3775L9.1405 19.3466C9.43266 19.1611 9.72482 18.986 10.017 18.8212C10.33 18.6564 10.6326 18.4812 10.9248 18.2958L11.2691 17.7395ZM9.39093 13.8146C9.8083 13.5673 10.2048 13.2892 10.5804 12.9801C10.9769 12.6711 11.3839 12.4032 11.8013 12.1766L11.77 11.8057C11.3526 12.0942 10.9352 12.3723 10.5178 12.6402C10.1213 12.908 9.73526 13.2171 9.35962 13.5673L9.39093 13.8146ZM2.69207 26.8565C3.10944 26.5063 3.53725 26.1766 3.97549 25.8675C4.41373 25.5585 4.84154 25.2288 5.25892 24.8786V24.5695C4.77894 24.961 4.28852 25.3319 3.78767 25.6821C3.28682 26.053 2.79641 26.4444 2.31643 26.8565H2.69207ZM3.38073 8.03532C3.13031 8.20015 2.90075 8.38558 2.69207 8.59161C2.50425 8.77704 2.31643 8.98308 2.12861 9.20971L2.47294 9.30243L2.50425 9.33333H2.53555C2.76511 9.1067 2.99466 8.88006 3.22422 8.65342C3.45377 8.40618 3.69376 8.17954 3.94419 7.97351L3.38073 8.03532ZM4.0694 26.8256C4.25722 26.6814 4.44504 26.5269 4.63286 26.362C4.82067 26.1972 5.02936 26.0633 5.25892 25.9603V25.5894C5.21718 25.5894 5.11284 25.6409 4.94589 25.7439C4.79981 25.8675 4.63286 26.0015 4.44504 26.1457C4.25722 26.3105 4.0694 26.4547 3.88158 26.5784C3.71463 26.7226 3.61029 26.8153 3.56855 26.8565L4.0694 26.8256ZM4.85198 7.97351C4.78937 8.01472 4.67459 8.11773 4.50764 8.28256C4.34069 8.42678 4.16331 8.58131 3.97549 8.74614C3.74594 8.95217 3.50595 9.16851 3.25552 9.39514L2.87988 9.79691C3.21378 9.44665 3.57899 9.1376 3.97549 8.86976C4.372 8.58131 4.74763 8.28256 5.1024 7.97351H4.85198ZM1.40864 9.1479C1.53385 8.98308 1.6695 8.82855 1.81558 8.68433C1.96166 8.5401 2.10774 8.38558 2.25382 8.22075C2.21208 8.24135 2.13904 8.25166 2.0347 8.25166C1.88862 8.37528 1.74254 8.4989 1.59646 8.62252C1.47125 8.74614 1.34603 8.88006 1.22082 9.02428L1.40864 9.1479Z" fill="#E08D22"/>
<path d="M19.4206 20.8918C18.4398 20.8918 17.5946 20.6858 16.8851 20.2737C16.1964 19.8823 15.6225 19.3672 15.1634 18.7285C14.7043 18.0692 14.36 17.3274 14.1304 16.5033C13.9217 15.6792 13.8174 14.8447 13.8174 14C13.8174 13.2171 13.9426 12.3826 14.193 11.4967C14.4643 10.6107 14.8399 9.79691 15.3199 9.05519C15.8208 8.31347 16.4364 7.70567 17.1668 7.23179C17.8972 6.73731 18.732 6.49007 19.6711 6.49007C20.2762 6.49007 20.8501 6.60338 21.3927 6.83002C21.9353 7.05666 22.4153 7.37601 22.8327 7.78808C23.25 8.17954 23.5735 8.64312 23.8031 9.17881C24.0535 9.7145 24.1787 10.2811 24.1787 10.8786C24.1787 11.3113 24.1057 11.7645 23.9596 12.2384C23.8135 12.6917 23.5944 13.1141 23.3022 13.5055C23.0309 13.8764 22.697 14.1854 22.3005 14.4327C21.904 14.6593 21.4553 14.7726 20.9545 14.7726C20.5788 14.7726 20.2241 14.6902 19.8902 14.5254C19.5563 14.34 19.3059 14.0721 19.1389 13.7219V13.8764C19.1389 14.1854 19.1702 14.546 19.2328 14.9581C19.3163 15.3495 19.4311 15.7204 19.5771 16.0706C19.7441 16.4003 19.9528 16.6887 20.2032 16.936C20.4745 17.1626 20.8084 17.2759 21.2049 17.2759C21.4762 17.2759 21.6953 17.1729 21.8623 16.9669C22.0292 16.7609 22.1857 16.5342 22.3318 16.287C22.4988 16.0397 22.6657 15.8131 22.8327 15.6071C23.0205 15.401 23.2709 15.298 23.5839 15.298C24.0013 15.298 24.3039 15.4525 24.4917 15.7616C24.6795 16.0706 24.7735 16.4003 24.7735 16.7506C24.7735 17.3687 24.5961 17.9352 24.2413 18.4503C23.9074 18.9448 23.4692 19.3775 22.9266 19.7483C22.4049 20.0986 21.831 20.3767 21.2049 20.5828C20.5788 20.7888 19.9841 20.8918 19.4206 20.8918ZM19.2328 12.4238C19.3789 12.2796 19.5041 12.1869 19.6084 12.1457C19.7337 12.0839 19.8484 12.0427 19.9528 12.0221C20.078 12.0015 20.2032 11.9912 20.3284 11.9912C20.4745 11.9706 20.631 11.9397 20.798 11.8985C20.944 11.6924 21.0171 11.4658 21.0171 11.2185C21.0171 10.9301 20.9649 10.7138 20.8606 10.5695C20.7562 10.4047 20.558 10.2708 20.2658 10.1678H20.2345C20.0676 10.2502 19.9215 10.3841 19.7963 10.5695C19.6919 10.755 19.598 10.961 19.5145 11.1876C19.4519 11.3937 19.3893 11.61 19.3267 11.8366C19.285 12.0633 19.2537 12.259 19.2328 12.4238ZM17.9807 13.5364C18.0016 13.4334 18.012 13.3304 18.012 13.2274C18.012 13.1038 18.012 12.9904 18.012 12.8874C17.532 13.3407 17.0416 13.7837 16.5407 14.2163C16.0399 14.6284 15.5703 15.0817 15.1321 15.5762L15.1947 15.8852C15.633 15.4525 16.0921 15.0611 16.572 14.7108C17.0729 14.34 17.5424 13.9485 17.9807 13.5364ZM20.3597 7.75717C19.8797 8.00442 19.4102 8.30316 18.9511 8.65342C18.5128 8.98308 18.085 9.34364 17.6677 9.7351C17.2503 10.1266 16.8329 10.518 16.4155 10.9095C16.019 11.301 15.6225 11.6821 15.226 12.053L15.1321 12.3929C15.6121 11.9191 16.0921 11.4658 16.572 11.0331C17.052 10.5798 17.5424 10.1472 18.0433 9.7351C18.4607 9.38484 18.8885 9.07579 19.3267 8.80795C19.765 8.5195 20.1928 8.21045 20.6101 7.88079L20.6728 7.81898L20.3597 7.75717ZM15.5077 16.936C15.9251 16.5651 16.3425 16.2149 16.7599 15.8852C17.1772 15.535 17.605 15.1847 18.0433 14.8344L18.012 14.34C17.5737 14.6902 17.1146 15.0405 16.6347 15.3907C16.1755 15.7204 15.7477 16.0912 15.3512 16.5033L15.5077 16.936ZM14.9756 13.6909C15.6643 13.0316 16.3738 12.3723 17.1042 11.713C17.8346 11.0537 18.5024 10.3635 19.1076 9.64238C18.3563 10.1781 17.6468 10.7756 16.979 11.4349C16.3321 12.0736 15.6747 12.7123 15.0069 13.351L14.9756 13.6909ZM18.2624 11.3731C17.7198 11.8882 17.1772 12.4135 16.6347 12.9492C16.0921 13.4643 15.539 13.9691 14.9756 14.4636L15.0069 14.8035C15.4869 14.3091 15.9877 13.8352 16.5094 13.3819C17.052 12.9286 17.5946 12.4754 18.1372 12.0221L18.2624 11.3731ZM17.1981 19.0684C17.5111 18.8006 17.8346 18.5533 18.1685 18.3267C18.5024 18.0795 18.8363 17.8219 19.1702 17.5541C19.1285 17.5129 19.0867 17.4614 19.045 17.3996C19.0033 17.3377 18.972 17.2759 18.9511 17.2141C18.6381 17.5232 18.2937 17.8013 17.9181 18.0486C17.5424 18.2958 17.1877 18.5637 16.8538 18.8521L17.1981 19.0684ZM16.4155 18.4503C16.7703 18.1207 17.1355 17.8322 17.5111 17.585C17.9076 17.3171 18.2833 17.0287 18.6381 16.7196L18.4502 16.3179C18.1789 16.6269 17.8137 16.9669 17.3546 17.3377C16.9164 17.688 16.5303 17.9765 16.1964 18.2031L16.4155 18.4503ZM15.8834 17.7086C16.259 17.379 16.666 17.0596 17.1042 16.7506C17.5633 16.4209 17.9389 16.0706 18.2311 15.6998L18.1685 15.4834C17.3129 16.1428 16.5094 16.8124 15.7582 17.4923L15.8834 17.7086ZM18.2311 19.532C18.5024 19.2848 18.7737 19.0581 19.045 18.8521C19.3372 18.6255 19.6293 18.3988 19.9215 18.1722L19.6084 17.9559C19.3163 18.1825 19.0137 18.4194 18.7007 18.6667C18.3876 18.8933 18.0746 19.1199 17.7616 19.3466L18.2311 19.532ZM23.3961 17.5541C23.3961 17.5747 23.3961 17.585 23.3961 17.585C23.417 17.5644 23.4274 17.5438 23.4274 17.5232C23.4274 17.5026 23.4379 17.482 23.4587 17.4614L23.5839 17.0596C23.0622 17.5129 22.5405 17.9455 22.0188 18.3576C21.4971 18.7491 20.9649 19.1611 20.4223 19.5938L21.0797 19.3466C21.4553 19.0169 21.8414 18.7182 22.2379 18.4503C22.6553 18.1825 23.0414 17.8837 23.3961 17.5541ZM20.5788 18.4194C20.2867 18.5843 19.9945 18.78 19.7024 19.0066C19.4311 19.2333 19.1806 19.4599 18.9511 19.6865L19.3893 19.7174C19.6398 19.4908 19.8902 19.2745 20.1406 19.0684C20.391 18.8624 20.6519 18.6564 20.9232 18.4503L20.5788 18.4194ZM22.7701 12.2075C22.3944 12.3929 22.0292 12.599 21.6745 12.8256C21.3197 13.0522 20.9753 13.2892 20.6415 13.5364L20.9232 13.5982C21.1736 13.4128 21.424 13.248 21.6745 13.1038C21.9457 12.9389 22.2275 12.7741 22.5196 12.6093L22.7701 12.2075ZM19.2015 7.69537C19.0346 7.86019 18.7633 8.08683 18.3876 8.37528C18.0329 8.64312 17.6572 8.93157 17.2607 9.24062C16.8851 9.52907 16.5407 9.81751 16.2277 10.106C15.9147 10.3738 15.7269 10.5901 15.6643 10.755C16.2903 10.2605 16.8955 9.7351 17.4798 9.17881C18.0642 8.62252 18.6902 8.12804 19.358 7.69537H19.2015ZM21.9562 8.56071C21.6431 8.70493 21.3301 8.91096 21.0171 9.17881L21.3927 9.36424C21.5388 9.26122 21.664 9.15821 21.7684 9.05519C21.8936 8.95217 22.0292 8.84915 22.1753 8.74614L21.9562 8.56071ZM22.9266 10.0442L22.0814 10.6004L22.144 10.9404C22.2692 10.8374 22.4049 10.7447 22.5509 10.6623C22.7179 10.5798 22.8744 10.4974 23.0205 10.415L22.9266 10.0442ZM22.5509 9.20971C22.4049 9.31273 22.2692 9.41575 22.144 9.51876C22.0397 9.62178 21.9144 9.7145 21.7684 9.79691L21.8936 10.0132C22.0397 9.93083 22.1753 9.84842 22.3005 9.766C22.4257 9.66299 22.5509 9.55997 22.6761 9.45695L22.5509 9.20971ZM23.0518 11.064C22.8848 11.1052 22.7283 11.1876 22.5822 11.3113C22.4362 11.4349 22.2901 11.5482 22.144 11.6512L22.0814 11.9294C22.3527 11.7645 22.6553 11.61 22.9892 11.4658L23.0518 11.064ZM21.2988 8.09713C21.0693 8.26196 20.8293 8.42678 20.5788 8.59161C20.3493 8.73584 20.1197 8.89036 19.8902 9.05519L20.3284 8.96247C20.5162 8.85946 20.6936 8.73584 20.8606 8.59161C21.0484 8.42678 21.2362 8.28256 21.424 8.15894L21.2988 8.09713Z" fill="#E08D22"/>
<path d="M44.1322 6.73731C44.5913 6.73731 44.9983 6.87123 45.353 7.13907C45.7287 7.40692 45.9165 7.78808 45.9165 8.28256C45.9165 8.63282 45.7913 8.95217 45.5409 9.24062C45.3113 9.50846 45.0191 9.68359 44.6644 9.766C44.5809 10.0132 44.4139 10.4356 44.1635 11.0331C43.9131 11.6306 43.6105 12.3002 43.2557 13.0419C42.9218 13.7837 42.5566 14.5666 42.1601 15.3907C41.7636 16.1943 41.3775 16.936 41.0019 17.6159C40.6471 18.2958 40.3237 18.8727 40.0315 19.3466C39.7393 19.8205 39.5307 20.0883 39.4054 20.1501C39.1968 20.2531 38.9776 20.3046 38.7481 20.3046C38.4559 20.3046 38.1951 20.2325 37.9655 20.0883C37.8403 20.0059 37.642 19.7277 37.3707 19.2539C37.1203 18.78 36.8282 18.2134 36.4943 17.5541C36.1812 16.8742 35.8473 16.1325 35.4926 15.3289C35.1378 14.5254 34.7935 13.7528 34.4596 13.011C34.1465 12.2693 33.8648 11.5997 33.6144 11.0022C33.364 10.4047 33.1761 9.96174 33.0509 9.67329C32.6753 9.63208 32.3101 9.52907 31.9553 9.36424C31.6214 9.17881 31.4545 8.84915 31.4545 8.37528C31.4545 7.922 31.6318 7.56144 31.9866 7.2936C32.3414 7.02575 32.7692 6.83002 33.27 6.7064C33.7709 6.58278 34.2717 6.52097 34.7726 6.52097C35.2943 6.52097 35.7117 6.56218 36.0247 6.64459C36.1291 6.60339 36.2438 6.59308 36.369 6.61369C36.5151 6.61369 36.6403 6.61369 36.7447 6.61369C36.9951 6.61369 37.2455 6.63429 37.496 6.6755C37.7673 6.7167 38.0072 6.79912 38.2159 6.92274C38.4455 7.02575 38.6333 7.18028 38.7794 7.38631C38.9255 7.57174 38.9985 7.80868 38.9985 8.09713C38.9985 8.40618 38.8837 8.68433 38.6542 8.93157C38.4455 9.17881 38.2055 9.36424 37.9342 9.48786C38.289 10.1884 38.6229 10.8683 38.9359 11.5276C39.2489 12.1869 39.6246 12.8462 40.0628 13.5055C40.3758 12.8668 40.6576 12.2178 40.908 11.5585C41.1584 10.8786 41.3984 10.209 41.628 9.54967C41.2941 9.48786 40.9602 9.35394 40.6263 9.1479C40.3132 8.92127 40.1567 8.61222 40.1567 8.22075C40.1567 7.87049 40.2611 7.60265 40.4697 7.41722C40.6784 7.21118 40.9289 7.06696 41.221 6.98455C41.5341 6.88153 41.8575 6.81972 42.1914 6.79912C42.5253 6.77851 42.8175 6.76821 43.0679 6.76821L44.1322 6.73731ZM40.7202 15.5762C40.2402 15.8646 39.7393 16.1737 39.2176 16.5033C38.7168 16.833 38.2472 17.1729 37.809 17.5232L37.9342 17.8013C38.3307 17.5129 38.7272 17.245 39.1237 16.9978C39.5202 16.7299 39.9376 16.493 40.3758 16.287L40.7202 15.5762ZM34.6161 10.2914C34.7204 10.1678 34.9082 9.98234 35.1795 9.7351C35.4508 9.46726 35.7221 9.19941 35.9934 8.93157C36.2856 8.66372 36.5464 8.42678 36.776 8.22075C37.0055 7.99411 37.1412 7.84989 37.1829 7.78808L36.8699 7.75717C36.4525 8.12804 36.056 8.5092 35.6804 8.90066C35.3047 9.29213 34.9082 9.68359 34.4909 10.0751L34.5535 10.1369L34.6161 10.2914ZM41.3462 14.2781C41.3045 14.3194 41.2315 14.3709 41.1271 14.4327C41.0228 14.4945 40.908 14.5666 40.7828 14.649C40.6784 14.7314 40.5741 14.8035 40.4697 14.8653C40.3654 14.9065 40.3028 14.9272 40.2819 14.9272L40.1567 15.0199H40.0941C39.6559 15.3083 39.2176 15.6071 38.7794 15.9161C38.3411 16.2046 37.9238 16.5239 37.5273 16.8742L37.5586 16.9978C38.1429 16.5445 38.7376 16.1325 39.3428 15.7616C39.9689 15.3907 40.5845 14.9993 41.1897 14.5872L41.3462 14.2781ZM38.4977 13.1965C38.0803 13.3613 37.7255 13.5982 37.4334 13.9073C37.1412 14.2163 36.8073 14.4636 36.4317 14.649L36.5569 14.8962C36.6195 14.8756 36.6925 14.8241 36.776 14.7417C37.0681 14.5151 37.3812 14.3091 37.7151 14.1236C38.049 13.9176 38.362 13.6909 38.6542 13.4437L38.6229 13.351L38.4977 13.1965ZM37.2142 10.7241C36.9221 10.9919 36.6195 11.2598 36.3064 11.5276C36.0143 11.7954 35.7221 12.0736 35.43 12.362L35.5239 12.6093C35.7952 12.3414 36.0978 12.0736 36.4317 11.8057C36.7656 11.5379 37.089 11.3113 37.4021 11.1258L37.2142 10.7241ZM36.1812 14.1545C36.536 13.9279 36.8595 13.6806 37.1516 13.4128C37.4438 13.1244 37.7881 12.8874 38.1846 12.702L38.0281 12.3929C37.6733 12.6196 37.3394 12.8668 37.0264 13.1347C36.7134 13.3819 36.4004 13.6497 36.0873 13.9382L36.1812 14.1545ZM35.8369 13.3819C36.1708 13.1347 36.4838 12.8874 36.776 12.6402C37.0681 12.3723 37.4021 12.1251 37.7777 11.8985L37.6525 11.6512C37.2977 11.8779 36.9638 12.1251 36.6508 12.3929C36.3586 12.6402 36.056 12.908 35.743 13.1965L35.8369 13.3819ZM37.2768 16.3488C37.6316 16.0603 37.9864 15.7925 38.3411 15.5453C38.6959 15.2774 39.0611 15.0199 39.4367 14.7726C39.395 14.752 39.3637 14.7211 39.3428 14.6799C39.3428 14.6387 39.3324 14.5975 39.3115 14.5563C38.9776 14.8447 38.6229 15.1126 38.2472 15.3598C37.8716 15.5865 37.5168 15.844 37.1829 16.1325L37.2768 16.3488ZM38.9672 13.9382C38.6124 14.206 38.2472 14.4533 37.8716 14.6799C37.5168 14.9065 37.1621 15.1641 36.8073 15.4525L36.9012 15.6071C37.256 15.3392 37.6212 15.092 37.9968 14.8653C38.3724 14.6387 38.7168 14.3709 39.0298 14.0618L38.9672 13.9382ZM35.2108 11.8057C35.4821 11.5173 35.7743 11.2391 36.0873 10.9713C36.4004 10.7035 36.6925 10.4253 36.9638 10.1369L36.8699 9.88962C36.5777 10.1781 36.2856 10.4665 35.9934 10.755C35.7221 11.0434 35.4508 11.3422 35.1795 11.6512L35.2108 11.8057ZM34.9604 11.0331L36.6195 9.33333L36.5882 9.1479C36.296 9.41575 36.0038 9.69389 35.7117 9.98234C35.4404 10.2708 35.1587 10.5592 34.8665 10.8477L34.9604 11.0331ZM35.9621 7.78808H35.6804C35.3882 8.03532 35.1274 8.29286 34.8978 8.56071C34.6682 8.80795 34.4178 9.07579 34.1465 9.36424L34.2404 9.51876L35.9621 7.78808ZM42.8801 9.30243C43.1931 9.1376 43.4957 8.98308 43.7879 8.83885C44.1009 8.69463 44.4139 8.55041 44.727 8.40618L44.7583 8.37528L44.6957 8.12804C44.4661 8.31347 44.174 8.4886 43.8192 8.65342C43.4644 8.79765 43.1514 8.95217 42.8801 9.117V9.30243ZM39.9376 17.1523C39.6454 17.3377 39.3533 17.5438 39.0611 17.7704C38.769 17.9765 38.4768 18.1619 38.1846 18.3267L38.2159 18.4194C38.4664 18.2546 38.7063 18.1001 38.9359 17.9559C39.1863 17.8116 39.4576 17.6983 39.7498 17.6159L39.9376 17.1523ZM33.7396 8.62252L33.8961 8.77704C34.1674 8.44739 34.47 8.11773 34.8039 7.78808H34.6161L33.7396 8.62252ZM42.6923 8.56071C42.7131 8.56071 42.7757 8.5298 42.8801 8.46799C43.0053 8.40618 43.1305 8.34437 43.2557 8.28256C43.4018 8.20015 43.5375 8.12804 43.6627 8.06623C43.7879 7.98381 43.8714 7.9323 43.9131 7.9117H43.7566L43.5061 7.94261C43.3392 8.04562 43.1827 8.13834 43.0366 8.22075C42.9114 8.30316 42.7757 8.39588 42.6297 8.4989L42.6923 8.56071ZM33.5831 7.81898C33.4787 7.922 33.364 8.03532 33.2387 8.15894C33.1135 8.26196 32.9987 8.37528 32.8944 8.4989H33.0509C33.1761 8.37528 33.2909 8.25166 33.3953 8.12804C33.5205 8.00442 33.6561 7.8911 33.8022 7.78808L33.5831 7.81898ZM39.3741 18.3576C39.0402 18.543 38.7481 18.7388 38.4977 18.9448L38.5603 19.0066C38.769 18.8624 38.9881 18.7388 39.2176 18.6358L39.3741 18.3576ZM37.7777 8.00442C37.7151 8.08683 37.6525 8.16924 37.5899 8.25166C37.5273 8.31347 37.4438 8.36497 37.3394 8.40618C37.5481 8.36497 37.7255 8.26196 37.8716 8.09713L37.7777 8.00442ZM43.1305 10.5077L42.3166 10.9713L42.2853 11.0331L43.0366 10.6623L43.1305 10.5077ZM41.628 12.7638V12.7947C41.6697 12.7947 41.7532 12.7638 41.8784 12.702C42.0036 12.6402 42.0871 12.599 42.1288 12.5784L42.1914 12.4238L41.6593 12.7329L41.628 12.7638ZM43.5061 9.58057C43.3809 9.66299 43.2557 9.7351 43.1305 9.79691C43.0053 9.85872 42.8905 9.93083 42.7862 10.0132L43.4748 9.67329L43.5061 9.58057ZM41.2523 13.66C41.3358 13.6188 41.4193 13.5776 41.5028 13.5364C41.5862 13.4746 41.6697 13.4128 41.7532 13.351L41.2836 13.5982L41.2523 13.66ZM42.5984 11.5276C42.4523 11.6306 42.2853 11.7336 42.0975 11.8366L42.5984 11.5894V11.5276ZM41.8158 8.40618L41.8784 8.34437L41.7845 8.37528L41.8158 8.40618Z" fill="#E08D22"/>
<path d="M46.4976 18.8521C46.4976 18.5018 46.6019 18.2134 46.8106 17.9868C47.0401 17.7395 47.301 17.5644 47.5932 17.4614C47.5097 16.2664 47.4992 15.0611 47.5619 13.8455C47.6453 12.6299 47.6245 11.4349 47.4993 10.2605C47.2071 10.1369 46.9567 9.96174 46.748 9.7351C46.5393 9.48786 46.4349 9.19941 46.4349 8.86976C46.4349 8.56071 46.5289 8.30317 46.7167 8.09713C46.9045 7.87049 47.1236 7.69536 47.374 7.57174C47.6453 7.44812 47.9375 7.35541 48.2505 7.2936C48.5636 7.23179 48.8453 7.20088 49.0957 7.20088C49.4087 7.20088 49.8052 7.22149 50.2852 7.26269C50.7652 7.3039 51.2243 7.38631 51.6626 7.50993C52.1008 7.63355 52.4764 7.82929 52.7895 8.09713C53.1234 8.34437 53.2903 8.68433 53.2903 9.117C53.2903 9.44665 53.186 9.7454 52.9773 10.0132C52.7895 10.2605 52.5495 10.4562 52.2573 10.6004C52.2365 11.1773 52.226 11.7542 52.226 12.3311C52.226 12.8874 52.226 13.454 52.226 14.0309L52.2573 17.4305C52.5495 17.5129 52.7895 17.6777 52.9773 17.9249C53.186 18.1516 53.2903 18.4194 53.2903 18.7285C53.2903 19.0787 53.1547 19.3775 52.8834 19.6247C52.6121 19.8514 52.2782 20.0265 51.8817 20.1501C51.4852 20.2943 51.0782 20.3871 50.6609 20.4283C50.2435 20.4901 49.8992 20.521 49.6279 20.521C49.3357 20.521 49.0122 20.5004 48.6575 20.4592C48.3027 20.4386 47.9584 20.3767 47.6245 20.2737C47.3114 20.1707 47.0401 20.0059 46.8106 19.7792C46.6019 19.5526 46.4976 19.2436 46.4976 18.8521ZM49.8783 6.73731C49.5235 6.73731 49.2105 6.65489 48.9392 6.49007C48.6679 6.30464 48.4383 6.078 48.2505 5.81015C48.0627 5.54231 47.9166 5.25386 47.8123 4.94481C47.7079 4.61516 47.6558 4.29581 47.6558 3.98675C47.6558 3.38926 47.8332 2.82266 48.1879 2.28698C48.5427 1.75129 49.0227 1.40103 49.6279 1.2362L49.7531 1.26711C49.92 1.2259 50.0452 1.2053 50.1287 1.2053C50.5043 1.2053 50.8382 1.28771 51.1304 1.45254C51.4434 1.59676 51.7043 1.7925 51.913 2.03974C52.1425 2.28698 52.3095 2.57542 52.4138 2.90508C52.539 3.23473 52.6017 3.57469 52.6017 3.92495C52.6017 4.2752 52.5286 4.62546 52.3825 4.97572C52.2365 5.30537 52.0382 5.60412 51.7878 5.87197C51.5374 6.13981 51.2452 6.35614 50.9113 6.52097C50.5983 6.66519 50.2539 6.73731 49.8783 6.73731ZM51.0678 14.4945C50.6922 14.8447 50.2957 15.1847 49.8783 15.5143C49.4818 15.844 49.1061 16.1943 48.7514 16.5651V16.7506C49.1061 16.4415 49.4818 16.1428 49.8783 15.8543C50.2748 15.5453 50.6713 15.2465 51.0678 14.9581V14.4945ZM51.1617 8.56071C50.7443 8.86976 50.327 9.18911 49.9096 9.51876C49.4922 9.82782 49.0957 10.1575 48.7201 10.5077V10.7859C49.2001 10.4356 49.6592 10.0751 50.0974 9.7042C50.5565 9.33333 51.0156 8.97277 51.4747 8.62252L51.1617 8.56071ZM48.7201 14.8344C49.1374 14.4842 49.5235 14.1339 49.8783 13.7837C50.2539 13.4334 50.6504 13.1038 51.0678 12.7947V12.5784C50.6504 12.8668 50.2331 13.1656 49.8157 13.4746C49.3983 13.7631 49.0331 14.1133 48.7201 14.5254V14.8344ZM48.7827 17.8013C48.8244 17.7395 48.9601 17.6159 49.1896 17.4305C49.44 17.245 49.7009 17.0493 49.9722 16.8433C50.2435 16.6372 50.4835 16.4518 50.6922 16.287C50.9217 16.1015 51.0574 16.0088 51.0991 16.0088V15.6998C50.6817 15.947 50.2748 16.2355 49.8783 16.5651C49.4818 16.8742 49.1061 17.1935 48.7514 17.5232L48.7827 17.8013ZM48.7514 11.6821C49.3148 11.2701 49.8574 10.8374 50.3791 10.3841C50.9217 9.93083 51.4956 9.51876 52.1008 9.1479L52.0382 8.96247C51.746 9.1273 51.4643 9.33333 51.193 9.58057C50.9217 9.82782 50.6504 10.0751 50.3791 10.3223C50.1078 10.5695 49.8365 10.8065 49.5653 11.0331C49.294 11.2597 49.0227 11.4349 48.7514 11.5585V11.6821ZM48.1879 19.2539C48.6053 18.8418 49.0644 18.4606 49.5653 18.1104C50.0661 17.7395 50.567 17.3893 51.0678 17.0596V16.7815C50.8591 16.9463 50.6191 17.142 50.3478 17.3687C50.0974 17.5953 49.8365 17.8219 49.5653 18.0486C49.294 18.2752 49.0227 18.4915 48.7514 18.6976C48.4801 18.883 48.2297 19.0375 48.0001 19.1611L48.1879 19.2539ZM51.0678 10.5695C50.6713 10.8786 50.2644 11.1979 49.847 11.5276C49.4505 11.8366 49.0853 12.1766 48.7514 12.5475V12.7638C49.1479 12.496 49.534 12.1766 49.9096 11.8057C50.3061 11.4349 50.6922 11.0949 51.0678 10.7859V10.5695ZM51.3182 3.36865C50.9635 3.6777 50.6191 3.98675 50.2852 4.29581C49.9722 4.60486 49.6592 4.93451 49.3461 5.28477L49.44 5.37748C49.7322 5.06843 50.0557 4.79029 50.4104 4.54305C50.7861 4.2752 51.12 3.98675 51.4121 3.6777L51.3182 3.36865ZM48.8766 3.89404C49.1479 3.6262 49.4192 3.37896 49.6905 3.15232C49.9826 2.92568 50.2435 2.66814 50.473 2.37969L50.3165 2.34879L50.0035 2.4415C49.8365 2.60633 49.6592 2.78146 49.4713 2.96689C49.3044 3.13172 49.1374 3.29654 48.9705 3.46137C48.9705 3.48197 48.9601 3.52318 48.9392 3.58499C48.9183 3.6262 48.8975 3.6262 48.8766 3.58499V3.89404ZM50.0661 8.43709C49.8365 8.62252 49.5966 8.81825 49.3461 9.02428C49.0957 9.20971 48.8453 9.38484 48.5949 9.54967L48.6575 9.766C48.9288 9.53937 49.1896 9.32303 49.44 9.117C49.7113 8.91096 49.9931 8.69463 50.2852 8.46799L50.0661 8.43709ZM50.9426 2.71965C50.6087 3.0287 50.2748 3.33775 49.9409 3.6468C49.607 3.95585 49.2835 4.2855 48.9705 4.63576L49.0331 4.79029C49.3461 4.44003 49.6696 4.11038 50.0035 3.80133C50.3374 3.47167 50.6817 3.16262 51.0365 2.87417L50.9426 2.71965ZM51.0678 13.5364C50.6504 13.8455 50.2435 14.1854 49.847 14.5563C49.4713 14.9272 49.1061 15.2877 48.7514 15.638V15.7616C49.1061 15.3907 49.4818 15.0508 49.8783 14.7417C50.2748 14.4121 50.6504 14.0721 51.0052 13.7219L51.0678 13.66V13.5364ZM51.0365 11.5585C50.6817 11.8469 50.3374 12.1457 50.0035 12.4547C49.6696 12.7432 49.3357 13.0522 49.0018 13.3819C49.3148 13.0935 49.6383 12.8256 49.9722 12.5784C50.327 12.3311 50.6817 12.0839 51.0365 11.8366V11.5585ZM49.1583 19.3775C49.7218 18.78 50.3478 18.2752 51.0365 17.8631L51.0678 17.8013V17.7395C50.6922 17.9868 50.327 18.2443 49.9722 18.5121C49.6174 18.78 49.2731 19.0684 48.9392 19.3775H49.1583ZM50.4104 19.2848C50.5774 19.1405 50.7443 19.0169 50.9113 18.9139C51.0782 18.8109 51.2452 18.6873 51.4121 18.543L51.193 18.4503C51.0052 18.574 50.8069 18.7182 50.5983 18.883C50.4104 19.0272 50.2331 19.1818 50.0661 19.3466L50.4104 19.2848ZM48.814 8.34437C48.6679 8.4886 48.5114 8.62252 48.3444 8.74614C48.1775 8.86976 48.0314 9.01398 47.9062 9.17881L48.0001 9.20971H48.1253C48.3131 9.1067 48.4905 8.97277 48.6575 8.80795C48.8453 8.62252 49.0331 8.46799 49.2209 8.34437H48.814ZM50.4104 5.43929C50.5357 5.27447 50.6609 5.13024 50.7861 5.00662C50.9113 4.8624 51.0574 4.73878 51.2243 4.63576L51.2869 4.51214L51.2556 4.54305C51.0469 4.70787 50.8382 4.8727 50.6296 5.03753C50.4417 5.20235 50.2644 5.37748 50.0974 5.56291H50.1287L50.4104 5.43929ZM48.7201 13.66L48.9705 13.4128L48.7201 13.6291V13.66ZM52.0695 18.8212L51.9443 18.9139L52.0695 18.8521V18.8212Z" fill="#E08D22"/>
<path d="M53.8648 18.8521C53.8648 18.5018 53.9691 18.2134 54.1778 17.9868C54.4074 17.7395 54.6682 17.5644 54.9604 17.4614C54.8769 16.2664 54.8665 15.0611 54.9291 13.8455C55.0126 12.6299 54.9917 11.4349 54.8665 10.2605C54.5743 10.1369 54.3239 9.96174 54.1152 9.7351C53.9065 9.48786 53.8022 9.19941 53.8022 8.86976C53.8022 8.56071 53.8961 8.30317 54.0839 8.09713C54.2717 7.87049 54.4908 7.69536 54.7413 7.57174C55.0126 7.44812 55.3047 7.35541 55.6178 7.2936C55.9308 7.23179 56.2125 7.20088 56.4629 7.20088C56.776 7.20088 57.1725 7.22149 57.6525 7.26269C58.1324 7.3039 58.5915 7.38631 59.0298 7.50993C59.468 7.63355 59.8437 7.82929 60.1567 8.09713C60.4906 8.34437 60.6576 8.68433 60.6576 9.117C60.6576 9.44665 60.5532 9.7454 60.3445 10.0132C60.1567 10.2605 59.9167 10.4562 59.6245 10.6004C59.6037 11.1773 59.5932 11.7542 59.5932 12.3311C59.5932 12.8874 59.5932 13.454 59.5932 14.0309L59.6245 17.4305C59.9167 17.5129 60.1567 17.6777 60.3445 17.9249C60.5532 18.1516 60.6576 18.4194 60.6576 18.7285C60.6576 19.0787 60.5219 19.3775 60.2506 19.6247C59.9793 19.8514 59.6454 20.0265 59.2489 20.1501C58.8524 20.2943 58.4455 20.3871 58.0281 20.4283C57.6107 20.4901 57.2664 20.521 56.9951 20.521C56.7029 20.521 56.3795 20.5004 56.0247 20.4592C55.6699 20.4386 55.3256 20.3767 54.9917 20.2737C54.6787 20.1707 54.4074 20.0059 54.1778 19.7792C53.9691 19.5526 53.8648 19.2436 53.8648 18.8521ZM57.2455 6.73731C56.8907 6.73731 56.5777 6.65489 56.3064 6.49007C56.0351 6.30464 55.8056 6.078 55.6178 5.81015C55.4299 5.54231 55.2839 5.25386 55.1795 4.94481C55.0752 4.61516 55.023 4.29581 55.023 3.98675C55.023 3.38926 55.2004 2.82266 55.5551 2.28698C55.9099 1.75129 56.3899 1.40103 56.9951 1.2362L57.1203 1.26711C57.2873 1.2259 57.4125 1.2053 57.4959 1.2053C57.8716 1.2053 58.2055 1.28771 58.4976 1.45254C58.8107 1.59676 59.0715 1.7925 59.2802 2.03974C59.5098 2.28698 59.6767 2.57542 59.7811 2.90508C59.9063 3.23473 59.9689 3.57469 59.9689 3.92495C59.9689 4.2752 59.8958 4.62546 59.7498 4.97572C59.6037 5.30537 59.4054 5.60412 59.155 5.87197C58.9046 6.13981 58.6124 6.35614 58.2785 6.52097C57.9655 6.66519 57.6212 6.73731 57.2455 6.73731ZM58.435 14.4945C58.0594 14.8447 57.6629 15.1847 57.2455 15.5143C56.849 15.844 56.4734 16.1943 56.1186 16.5651V16.7506C56.4734 16.4415 56.849 16.1428 57.2455 15.8543C57.642 15.5453 58.0385 15.2465 58.435 14.9581V14.4945ZM58.5289 8.56071C58.1116 8.86976 57.6942 9.18911 57.2768 9.51876C56.8594 9.82782 56.4629 10.1575 56.0873 10.5077V10.7859C56.5673 10.4356 57.0264 10.0751 57.4646 9.7042C57.9237 9.33333 58.3829 8.97277 58.842 8.62252L58.5289 8.56071ZM56.0873 14.8344C56.5047 14.4842 56.8907 14.1339 57.2455 13.7837C57.6212 13.4334 58.0177 13.1038 58.435 12.7947V12.5784C58.0177 12.8668 57.6003 13.1656 57.1829 13.4746C56.7655 13.7631 56.4003 14.1133 56.0873 14.5254V14.8344ZM56.1499 17.8013C56.1916 17.7395 56.3273 17.6159 56.5568 17.4305C56.8073 17.245 57.0681 17.0493 57.3394 16.8433C57.6107 16.6372 57.8507 16.4518 58.0594 16.287C58.289 16.1015 58.4246 16.0088 58.4663 16.0088V15.6998C58.049 15.947 57.642 16.2355 57.2455 16.5651C56.849 16.8742 56.4734 17.1935 56.1186 17.5232L56.1499 17.8013ZM56.1186 11.6821C56.6821 11.2701 57.2246 10.8374 57.7464 10.3841C58.289 9.93083 58.8628 9.51876 59.468 9.1479L59.4054 8.96247C59.1133 9.1273 58.8315 9.33333 58.5602 9.58057C58.289 9.82782 58.0177 10.0751 57.7464 10.3223C57.4751 10.5695 57.2038 10.8065 56.9325 11.0331C56.6612 11.2597 56.3899 11.4349 56.1186 11.5585V11.6821ZM55.5551 19.2539C55.9725 18.8418 56.4316 18.4606 56.9325 18.1104C57.4333 17.7395 57.9342 17.3893 58.435 17.0596V16.7815C58.2263 16.9463 57.9864 17.142 57.7151 17.3687C57.4646 17.5953 57.2038 17.8219 56.9325 18.0486C56.6612 18.2752 56.3899 18.4915 56.1186 18.6976C55.8473 18.883 55.5969 19.0375 55.3673 19.1611L55.5551 19.2539ZM58.435 10.5695C58.0385 10.8786 57.6316 11.1979 57.2142 11.5276C56.8177 11.8366 56.4525 12.1766 56.1186 12.5475V12.7638C56.5151 12.496 56.9012 12.1766 57.2768 11.8057C57.6733 11.4349 58.0594 11.0949 58.435 10.7859V10.5695ZM58.6855 3.36865C58.3307 3.6777 57.9864 3.98675 57.6525 4.29581C57.3394 4.60486 57.0264 4.93451 56.7134 5.28477L56.8073 5.37748C57.0994 5.06843 57.4229 4.79029 57.7777 4.54305C58.1533 4.2752 58.4872 3.98675 58.7794 3.6777L58.6855 3.36865ZM56.2438 3.89404C56.5151 3.6262 56.7864 3.37896 57.0577 3.15232C57.3499 2.92568 57.6107 2.66814 57.8403 2.37969L57.6838 2.34879L57.3707 2.4415C57.2038 2.60633 57.0264 2.78146 56.8386 2.96689C56.6716 3.13172 56.5047 3.29654 56.3377 3.46137C56.3377 3.48197 56.3273 3.52318 56.3064 3.58499C56.2855 3.6262 56.2647 3.6262 56.2438 3.58499V3.89404ZM57.4333 8.43709C57.2038 8.62252 56.9638 8.81825 56.7134 9.02428C56.4629 9.20971 56.2125 9.38484 55.9621 9.54967L56.0247 9.766C56.296 9.53937 56.5568 9.32303 56.8073 9.117C57.0786 8.91096 57.3603 8.69463 57.6525 8.46799L57.4333 8.43709ZM58.3098 2.71965C57.9759 3.0287 57.642 3.33775 57.3081 3.6468C56.9742 3.95585 56.6508 4.2855 56.3377 4.63576L56.4003 4.79029C56.7134 4.44003 57.0368 4.11038 57.3707 3.80133C57.7046 3.47167 58.049 3.16262 58.4037 2.87417L58.3098 2.71965ZM58.435 13.5364C58.0177 13.8455 57.6107 14.1854 57.2142 14.5563C56.8386 14.9272 56.4734 15.2877 56.1186 15.638V15.7616C56.4734 15.3907 56.849 15.0508 57.2455 14.7417C57.642 14.4121 58.0177 14.0721 58.3724 13.7219L58.435 13.66V13.5364ZM58.4037 11.5585C58.049 11.8469 57.7046 12.1457 57.3707 12.4547C57.0368 12.7432 56.7029 13.0522 56.369 13.3819C56.6821 13.0935 57.0055 12.8256 57.3394 12.5784C57.6942 12.3311 58.049 12.0839 58.4037 11.8366V11.5585ZM56.5255 19.3775C57.089 18.78 57.7151 18.2752 58.4037 17.8631L58.435 17.8013V17.7395C58.0594 17.9868 57.6942 18.2443 57.3394 18.5121C56.9847 18.78 56.6403 19.0684 56.3064 19.3775H56.5255ZM57.7777 19.2848C57.9446 19.1405 58.1116 19.0169 58.2785 18.9139C58.4455 18.8109 58.6124 18.6873 58.7794 18.543L58.5602 18.4503C58.3724 18.574 58.1742 18.7182 57.9655 18.883C57.7777 19.0272 57.6003 19.1818 57.4333 19.3466L57.7777 19.2848ZM56.1812 8.34437C56.0351 8.4886 55.8786 8.62252 55.7117 8.74614C55.5447 8.86976 55.3986 9.01398 55.2734 9.17881L55.3673 9.20971H55.4925C55.6804 9.1067 55.8577 8.97277 56.0247 8.80795C56.2125 8.62252 56.4003 8.46799 56.5881 8.34437H56.1812ZM57.7777 5.43929C57.9029 5.27447 58.0281 5.13024 58.1533 5.00662C58.2785 4.8624 58.4246 4.73878 58.5915 4.63576L58.6542 4.51214L58.6229 4.54305C58.4142 4.70787 58.2055 4.8727 57.9968 5.03753C57.809 5.20235 57.6316 5.37748 57.4646 5.56291H57.4959L57.7777 5.43929ZM56.0873 13.66L56.3377 13.4128L56.0873 13.6291V13.66ZM59.4367 18.8212L59.3115 18.9139L59.4367 18.8521V18.8212Z" fill="#E08D22"/>
<path d="M68.813 6.45916C69.0634 6.45916 69.2617 6.52097 69.4077 6.64459C69.5747 6.74761 69.6999 6.89183 69.7834 7.07726C69.8877 7.24209 69.9503 7.42752 69.9712 7.63355C70.0129 7.83959 70.0338 8.04562 70.0338 8.25166C70.0338 8.66372 69.9503 8.99338 69.7834 9.24062C69.6373 9.48786 69.4286 9.68359 69.1573 9.82782C68.9069 9.97204 68.6147 10.0751 68.2808 10.1369C67.9678 10.1987 67.6443 10.2605 67.3104 10.3223C67.3313 10.7344 67.3209 11.1361 67.2791 11.5276C67.2583 11.8985 67.2478 12.2899 67.2478 12.702C67.2478 13.4231 67.2687 14.1545 67.3104 14.8962C67.3522 15.6174 67.373 16.3385 67.373 17.0596C67.5191 16.936 67.6756 16.8227 67.8426 16.7196C68.0095 16.6166 68.1869 16.5651 68.3747 16.5651C68.7086 16.5651 68.9695 16.7093 69.1573 16.9978C69.366 17.2862 69.4703 17.5747 69.4703 17.8631C69.4703 18.2134 69.3764 18.5637 69.1886 18.9139C69.0217 19.2642 68.7921 19.5835 68.5 19.872C68.2078 20.1398 67.8843 20.3561 67.5296 20.521C67.1748 20.7064 66.82 20.7991 66.4653 20.7991C65.4009 20.7991 64.5975 20.5004 64.0549 19.9029C63.5123 19.3054 63.1158 18.574 62.8654 17.7086C62.6358 16.8433 62.5106 15.9367 62.4898 14.989C62.4689 14.0412 62.4585 13.2171 62.4585 12.5166C62.4585 12.1251 62.4585 11.7336 62.4585 11.3422C62.4585 10.9301 62.4793 10.5386 62.5211 10.1678C62.1037 10.0854 61.7907 9.89993 61.582 9.61148C61.3733 9.30243 61.2689 8.94187 61.2689 8.5298C61.2689 8.15894 61.3941 7.82929 61.6446 7.54084C61.8741 7.25239 62.1767 7.05666 62.5524 6.95364L62.5837 3.21413C62.3124 3.15232 62.062 3.0287 61.8324 2.84327C61.582 2.65784 61.4568 2.4209 61.4568 2.13245C61.4568 1.76159 61.655 1.44224 62.0515 1.17439C62.4689 0.90655 62.9489 0.690214 63.4915 0.525387C64.034 0.339956 64.5766 0.206034 65.1192 0.123621C65.6618 0.0412068 66.0687 0 66.34 0C66.7574 0 67.1122 0.123621 67.4043 0.370862C67.7174 0.618103 67.8739 0.958058 67.8739 1.39073C67.8739 1.88521 67.7069 2.34879 67.373 2.78146C67.3939 2.88447 67.3835 2.98749 67.3417 3.09051C67.3209 3.17292 67.3104 3.26564 67.3104 3.36865L67.3417 7.13907H67.5922C67.78 6.97425 67.9574 6.81972 68.1243 6.6755C68.3121 6.53127 68.5417 6.45916 68.813 6.45916ZM63.8358 17.0287C64.2114 16.7815 64.6184 16.4827 65.0566 16.1325C65.4949 15.7822 65.8705 15.4319 66.1835 15.0817V14.4945C65.7662 14.8447 65.3488 15.1847 64.9314 15.5143C64.5349 15.8234 64.1488 16.184 63.7732 16.596L63.8045 16.6578L63.8358 17.0287ZM66.4653 1.2053C65.9853 1.59676 65.5157 1.99853 65.0566 2.4106C64.6184 2.80206 64.1801 3.21413 63.7419 3.6468V4.07947C63.888 3.89404 64.0862 3.68801 64.3366 3.46137C64.5871 3.21413 64.8479 2.96689 65.1192 2.71965C65.4114 2.47241 65.6931 2.24577 65.9644 2.03974C66.2566 1.8131 66.507 1.64827 66.7157 1.54525V1.29801L66.4966 1.2053H66.4653ZM66.1835 5.77925C66.0166 5.88227 65.7348 6.0883 65.3383 6.39735C64.9418 6.7064 64.5349 7.04636 64.1175 7.41722C63.721 7.76748 63.3558 8.08683 63.0219 8.37528C62.7089 8.66372 62.5524 8.83885 62.5524 8.90066C62.5524 8.96247 62.5837 8.99338 62.6463 8.99338C63.2515 8.5195 63.8358 8.02502 64.3992 7.50993C64.9836 6.99485 65.5783 6.49007 66.1835 5.99559V5.77925ZM66.2461 2.59603C65.8914 3.0081 65.474 3.38926 64.994 3.73952C64.5349 4.08977 64.1071 4.46063 63.7106 4.8521V5.22296C64.0653 4.8727 64.4514 4.52244 64.8688 4.17219C65.2862 3.82193 65.714 3.50258 66.1522 3.21413L66.2461 2.59603ZM66.747 8.46799L66.6531 8.43709C66.1313 8.84915 65.6096 9.29213 65.0879 9.766C64.5871 10.2193 64.0966 10.6829 63.6167 11.1567V11.4349C64.1384 10.9198 64.6705 10.4253 65.2131 9.95144C65.7766 9.47756 66.3296 8.97277 66.8722 8.43709L66.747 8.46799ZM66.1209 12.1457C65.7244 12.5578 65.307 12.9389 64.8688 13.2892C64.4514 13.6394 64.0445 14.0206 63.648 14.4327C63.648 14.4945 63.648 14.5563 63.648 14.6181C63.6688 14.6799 63.6793 14.7417 63.6793 14.8035C64.0758 14.4121 64.4723 14.0309 64.8688 13.66C65.2862 13.2686 65.7035 12.8977 66.1209 12.5475V12.1457ZM63.6167 13.66C63.8045 13.557 64.0027 13.4025 64.2114 13.1965C64.441 12.9904 64.6601 12.7741 64.8688 12.5475C65.0984 12.3208 65.3175 12.0942 65.5262 11.8675C65.7557 11.6409 65.9748 11.4555 66.1835 11.3113V10.9404C65.7662 11.3319 65.3175 11.7336 64.8375 12.1457C64.3575 12.5372 63.9506 12.9698 63.6167 13.4437V13.66ZM63.7106 15.8234C64.0653 15.4731 64.4827 15.1332 64.9627 14.8035C65.4427 14.4739 65.8288 14.1236 66.1209 13.7528V13.3201C65.7035 13.6909 65.2862 14.0618 64.8688 14.4327C64.4514 14.8035 64.0653 15.195 63.7106 15.6071V15.8234ZM66.1835 6.73731C65.8705 7.10817 65.4427 7.49963 64.9001 7.9117C64.3575 8.30316 63.9088 8.67403 63.5541 9.02428L63.648 9.17881C64.0654 8.82855 64.4723 8.46799 64.8688 8.09713C65.2862 7.72627 65.7244 7.39662 66.1835 7.10817V6.73731ZM64.0862 17.9559C64.3784 17.6262 64.7227 17.3274 65.1192 17.0596C65.5157 16.7712 65.8809 16.4827 66.2148 16.1943V15.8543C65.8601 16.1634 65.4844 16.4621 65.0879 16.7506C64.7123 17.039 64.3471 17.348 63.9923 17.6777L64.0862 17.9559ZM63.648 10.2914C64.0654 9.92053 64.5036 9.55997 64.9627 9.20971C65.4218 8.83885 65.8392 8.44739 66.2148 8.03532C66.194 7.99411 66.1835 7.922 66.1835 7.81898C65.7453 8.14864 65.3175 8.4886 64.9001 8.83885C64.4827 9.18911 64.0654 9.53937 63.648 9.88962V10.2914ZM66.1209 9.98234C65.7035 10.3738 65.2757 10.7447 64.8375 11.0949C64.4201 11.4452 64.0027 11.8263 63.5854 12.2384V12.5475C63.961 12.1354 64.3992 11.7439 64.9001 11.3731C65.4218 11.0022 65.8288 10.5901 66.1209 10.1369V9.98234ZM63.6793 7.04636L63.7732 6.95364C64.128 6.60339 64.5036 6.27373 64.9001 5.96468C65.3175 5.63503 65.7453 5.34658 66.1835 5.09934V4.79029C65.7244 5.09934 65.2862 5.43929 64.8688 5.81015C64.4723 6.18102 64.0758 6.56218 63.6793 6.95364V7.04636ZM64.5245 18.574C64.8166 18.3473 65.0984 18.1207 65.3696 17.894C65.6409 17.6468 65.9227 17.3996 66.2148 17.1523V16.936C66.1522 16.9978 66.027 17.1111 65.8392 17.2759C65.6514 17.4202 65.4531 17.585 65.2444 17.7704C65.0357 17.9352 64.8479 18.0898 64.681 18.234C64.514 18.3782 64.4201 18.4503 64.3992 18.4503L64.5245 18.574ZM65.3383 1.35982C65.2757 1.40103 65.2027 1.43194 65.1192 1.45254C65.0357 1.47314 64.9523 1.49375 64.8688 1.51435L63.7106 2.62693C63.7106 2.66814 63.7106 2.69904 63.7106 2.71965C63.7314 2.74025 63.7419 2.77116 63.7419 2.81236C63.9923 2.54452 64.2532 2.29728 64.5245 2.07064C64.7958 1.8234 65.067 1.58646 65.3383 1.35982ZM63.7106 6.15011C64.0862 5.77925 64.4723 5.41869 64.8688 5.06843C65.2653 4.69757 65.7035 4.37822 66.1835 4.11038V3.92495C65.7453 4.2546 65.307 4.59455 64.8688 4.94481C64.4514 5.29507 64.0653 5.67623 63.7106 6.0883V6.15011ZM68.7817 7.63355C68.6773 7.73657 68.5626 7.83959 68.4373 7.94261C68.333 8.04562 68.2078 8.12804 68.0617 8.18985C67.8948 8.37528 67.7069 8.55041 67.4983 8.71523C67.2896 8.85946 67.1017 9.02428 66.9348 9.20971L67.2478 9.117C67.5191 8.86976 67.7695 8.62252 67.9991 8.37528C68.2495 8.12804 68.5208 7.8911 68.813 7.66446L68.7817 7.63355ZM66.4653 19.6247C66.6739 19.4599 66.8618 19.2642 67.0287 19.0375C67.1957 18.8109 67.3835 18.6152 67.5922 18.4503H67.5609C67.3313 18.6152 67.1017 18.7903 66.8722 18.9757C66.6635 19.1611 66.4653 19.3672 66.2774 19.5938L66.4653 19.6247ZM65.6514 19.4393C65.8183 19.2333 65.9853 19.0478 66.1522 18.883C66.34 18.6976 66.5279 18.5224 66.7157 18.3576L66.6844 18.3267C66.4757 18.4915 66.2774 18.6667 66.0896 18.8521C65.9018 19.0169 65.7244 19.1921 65.5575 19.3775L65.6514 19.4393ZM65.0566 19.0684C65.2653 18.8418 65.474 18.6358 65.6827 18.4503C65.8914 18.2443 66.1105 18.0486 66.34 17.8631H66.3087C66.0792 18.028 65.8496 18.2031 65.6201 18.3885C65.4114 18.574 65.1923 18.7697 64.9627 18.9757L65.0566 19.0684ZM68.3121 8.93157C68.4582 8.89036 68.5834 8.83885 68.6878 8.77704C68.7921 8.69463 68.8547 8.57101 68.8756 8.40618L68.3121 8.93157ZM63.6167 1.76159L63.2723 2.13245L63.3662 2.16336L63.8045 1.73068L63.6167 1.76159ZM68.3121 17.9868L68.3434 17.8631C68.26 17.8837 68.1869 17.9249 68.1243 17.9868C68.0617 18.0486 68.0095 18.1001 67.9678 18.1413L68.3121 17.9868ZM67.78 18.2649V18.2958L67.9678 18.1413L67.78 18.2649Z" fill="#E08D22"/>
<path d="M76.1482 20.6755C75.1882 20.6755 74.3117 20.5004 73.5187 20.1501C72.7257 19.7999 72.037 19.3157 71.4527 18.6976C70.8893 18.0795 70.451 17.3687 70.138 16.5651C69.825 15.741 69.6684 14.8653 69.6684 13.9382C69.6684 12.9904 69.8041 12.0633 70.0754 11.1567C70.3675 10.2502 70.7849 9.43635 71.3275 8.71523C71.8701 7.99411 72.5379 7.41722 73.3309 6.98455C74.1448 6.53127 75.0839 6.30464 76.1482 6.30464C77.1499 6.30464 78.0159 6.50037 78.7463 6.89183C79.4976 7.26269 80.1237 7.76748 80.6245 8.40618C81.1254 9.02428 81.4906 9.7557 81.7201 10.6004C81.9706 11.4246 82.0958 12.2899 82.0958 13.1965C82.0958 14.1648 81.9914 15.1023 81.7827 16.0088C81.574 16.8948 81.2297 17.688 80.7497 18.3885C80.2906 19.0684 79.6854 19.6247 78.9342 20.0574C78.1829 20.4695 77.2542 20.6755 76.1482 20.6755ZM76.5238 9.05519C76.1899 9.117 75.9291 9.37454 75.7412 9.82782C75.5743 10.2811 75.4491 10.7962 75.3656 11.3731C75.2821 11.95 75.2299 12.5166 75.2091 13.0728C75.2091 13.6291 75.2091 14.0412 75.2091 14.3091C75.2091 14.9478 75.2404 15.5968 75.303 16.2561C75.3865 16.8948 75.6369 17.482 76.0543 18.0177L76.2421 17.894C76.4716 17.3377 76.6282 16.7712 76.7116 16.1943C76.816 15.6174 76.8786 15.0302 76.8995 14.4327C76.9412 13.8352 76.9516 13.2377 76.9308 12.6402C76.9099 12.0427 76.8995 11.4452 76.8995 10.8477C76.8995 10.621 76.8786 10.312 76.8368 9.92053C76.7951 9.50846 76.6908 9.22001 76.5238 9.05519ZM76.023 7.47903C75.7099 7.72627 75.3134 8.05592 74.8334 8.46799C74.3535 8.85946 73.8735 9.28183 73.3935 9.7351C72.9135 10.1678 72.4544 10.6004 72.0162 11.0331C71.5779 11.4452 71.2545 11.8057 71.0458 12.1148L71.0145 12.3311C71.6823 11.7542 72.3292 11.167 72.9553 10.5695C73.5813 9.97204 74.2387 9.40545 74.9274 8.86976C75.0943 8.62252 75.2613 8.42678 75.4282 8.28256C75.616 8.13834 75.8456 8.01472 76.1169 7.9117C76.263 7.76748 76.4299 7.63355 76.6177 7.50993L76.023 7.47903ZM71.1084 15.7616C71.1918 15.6586 71.3901 15.4731 71.7031 15.2053C72.037 14.9169 72.3709 14.6181 72.7048 14.3091C73.0596 14 73.3726 13.7322 73.6439 13.5055C73.9152 13.2583 74.0613 13.1141 74.0822 13.0728V12.6711C73.5396 13.0831 72.997 13.5158 72.4544 13.9691C71.9118 14.4018 71.4318 14.8859 71.0145 15.4216L71.1084 15.7616ZM80.7497 11.404C80.3115 11.7542 79.8524 12.0942 79.3724 12.4238C78.9133 12.7329 78.475 13.0935 78.0577 13.5055V13.8146C78.475 13.4849 78.9237 13.1553 79.4037 12.8256C79.8837 12.496 80.3637 12.2178 80.8436 11.9912C80.8228 11.8882 80.8123 11.7439 80.8123 11.5585L80.7497 11.404ZM80.4993 15.4834C80.6036 15.3186 80.6558 15.1435 80.6558 14.9581C80.1758 15.1847 79.7063 15.4422 79.2472 15.7307C78.8089 15.9985 78.3707 16.287 77.9324 16.596L77.8699 16.9669C78.2872 16.6784 78.715 16.4312 79.1533 16.2252C79.6124 15.9985 80.0611 15.7513 80.4993 15.4834ZM70.8893 14.649C71.3484 14.1133 71.8596 13.6291 72.4231 13.1965C73.0074 12.7432 73.5709 12.3105 74.1135 11.8985L74.1761 11.404C73.5918 11.8779 73.0283 12.362 72.4857 12.8565C71.964 13.351 71.4318 13.8558 70.8893 14.3709V14.649ZM77.4003 18.2958C77.7759 18.0074 78.2246 17.7292 78.7463 17.4614C79.2681 17.1935 79.748 16.9875 80.1863 16.8433C80.228 16.7402 80.2489 16.6372 80.2489 16.5342C80.2697 16.4312 80.301 16.3282 80.3428 16.2252C80.1341 16.3282 79.8837 16.4621 79.5915 16.6269C79.2994 16.7712 79.0072 16.936 78.715 17.1214C78.4229 17.2862 78.1516 17.4717 77.9011 17.6777C77.6716 17.8837 77.5046 18.0898 77.4003 18.2958ZM80.468 10.3841L78.0577 12.362V12.702C78.475 12.3517 78.8924 12.0221 79.3098 11.713C79.748 11.404 80.1863 11.0949 80.6245 10.7859L80.468 10.3841ZM80.9062 12.6402C80.4263 12.9286 79.9358 13.2377 79.435 13.5673C78.9342 13.8764 78.475 14.2163 78.0577 14.5872V14.8344C78.5585 14.5666 79.0385 14.2678 79.4976 13.9382C79.9776 13.5879 80.4471 13.2583 80.9062 12.9492V12.6402ZM70.8893 13.5673C71.3692 13.011 71.9118 12.465 72.517 11.9294C73.1222 11.3937 73.7274 10.9198 74.3326 10.5077C74.3535 10.4253 74.3639 10.3429 74.3639 10.2605C74.3639 10.1781 74.3848 10.0957 74.4265 10.0132C73.8631 10.5489 73.2474 11.0846 72.5796 11.6203C71.9327 12.156 71.3692 12.7226 70.8893 13.3201V13.5673ZM71.4214 16.596C71.8388 16.2458 72.277 15.8852 72.7361 15.5143C73.1953 15.1229 73.6126 14.7211 73.9883 14.3091V13.9382C73.5709 14.3091 73.1118 14.7005 72.6109 15.1126C72.131 15.5247 71.7031 15.9367 71.3275 16.3488L71.4214 16.596ZM80.8123 14.1854C80.8123 14.1442 80.8123 14.0618 80.8123 13.9382C80.8332 13.8146 80.8645 13.7322 80.9062 13.6909C80.4263 13.9794 79.9254 14.2884 79.4037 14.6181C78.9028 14.9272 78.4437 15.2568 78.0264 15.6071V15.7925C78.4437 15.5247 78.9133 15.2671 79.435 15.0199C79.9776 14.752 80.4367 14.4739 80.8123 14.1854ZM71.891 17.3687C72.204 17.0184 72.5483 16.6887 72.924 16.3797C73.3205 16.0706 73.7065 15.7719 74.0822 15.4834L74.0196 15.1126C73.6439 15.4628 73.2579 15.7925 72.8614 16.1015C72.4649 16.4106 72.0892 16.7506 71.7344 17.1214L71.891 17.3687ZM79.4976 18.1413C79.5602 18.0589 79.6124 17.9765 79.6541 17.894C79.7167 17.8116 79.7793 17.7189 79.8419 17.6159C79.2994 17.8837 78.7881 18.1619 78.3081 18.4503C77.8281 18.7388 77.3481 19.0581 76.8681 19.4084L77.2125 19.3466C77.5672 19.1199 77.9324 18.9036 78.3081 18.6976C78.7046 18.4915 79.1011 18.3061 79.4976 18.1413ZM74.8021 7.63355C74.6143 7.86019 74.3535 8.10743 74.0196 8.37528C73.6857 8.62252 73.3413 8.89036 72.9866 9.17881C72.6318 9.44665 72.3083 9.7351 72.0162 10.0442C71.724 10.3326 71.5257 10.6107 71.4214 10.8786V10.9404C72.0475 10.4459 72.6318 9.89993 73.1744 9.30243C73.7378 8.70493 74.3326 8.13834 74.9587 7.60265L74.8021 7.63355ZM80.0924 9.61148C79.7167 9.85872 79.362 10.1266 79.0281 10.415C78.6942 10.7035 78.3811 11.0125 78.089 11.3422V11.5585C78.4229 11.2701 78.7881 10.9919 79.1846 10.7241C79.5811 10.4356 79.9254 10.1369 80.2176 9.82782L80.0924 9.61148ZM72.4544 17.9868C72.7048 17.6983 72.9761 17.4305 73.2683 17.1832C73.5813 16.9154 73.8839 16.6681 74.1761 16.4415L74.1448 16.1943C73.8109 16.4415 73.4874 16.7093 73.1744 16.9978C72.8614 17.2656 72.5588 17.5438 72.2666 17.8322L72.4544 17.9868ZM79.6228 9.02428C79.3515 9.20971 79.0802 9.39514 78.8089 9.58057C78.5585 9.766 78.3081 9.96174 78.0577 10.1678C78.0785 10.209 78.089 10.3017 78.089 10.4459C78.5898 9.99264 79.1324 9.54967 79.7167 9.117L79.6228 9.02428ZM78.9968 8.4989C78.8298 8.64312 78.6524 8.77704 78.4646 8.90066C78.2768 9.00368 78.0994 9.117 77.9324 9.24062L77.9951 9.48786C78.1829 9.32303 78.3707 9.17881 78.5585 9.05519C78.7672 8.93157 78.9655 8.78734 79.1533 8.62252L78.9968 8.4989ZM73.6752 18.883C73.8213 18.7182 73.9674 18.574 74.1135 18.4503C74.2804 18.3061 74.4474 18.1619 74.6143 18.0177L74.5204 17.8322C74.4787 17.8734 74.4056 17.9455 74.3013 18.0486C74.197 18.1516 74.0926 18.2649 73.9883 18.3885C73.8839 18.4915 73.7796 18.5946 73.6752 18.6976C73.5918 18.78 73.55 18.8212 73.55 18.8212L73.6752 18.883ZM77.7133 8.65342C77.8385 8.5504 77.9638 8.45769 78.089 8.37528C78.2142 8.29286 78.3498 8.21045 78.4959 8.12804L78.2142 7.94261L77.6194 8.4989L77.7133 8.65342ZM72.9866 18.4812C73.2161 18.2958 73.4248 18.0898 73.6126 17.8631C73.8213 17.6159 74.0613 17.4099 74.3326 17.245L74.3013 17.1214C74.0717 17.3274 73.8213 17.5438 73.55 17.7704C73.2996 17.9765 73.0805 18.1928 72.8927 18.4194L72.9866 18.4812ZM75.616 19.5011L76.0856 19.223C76.023 19.2436 75.9186 19.2436 75.7725 19.223C75.6473 19.1818 75.5639 19.1405 75.5221 19.0993L75.1152 19.4393L75.616 19.5011ZM74.4265 19.223C74.5309 19.1199 74.6352 19.0375 74.7395 18.9757C74.8647 18.9139 74.9691 18.8315 75.0526 18.7285L74.9274 18.574C74.6561 18.78 74.4369 18.9757 74.27 19.1611L74.4265 19.223ZM77.4003 7.63355L76.9621 7.97351L77.1499 8.06623L77.5881 7.69537L77.4003 7.63355Z" fill="#E08D22"/>
<path d="M88.4923 12.053C88.4297 12.1972 88.3671 12.4238 88.3045 12.7329C88.2628 13.0213 88.2211 13.3304 88.1793 13.66C88.1584 13.9897 88.1376 14.3091 88.1167 14.6181C88.0958 14.9272 88.0854 15.1641 88.0854 15.3289V17.4923C88.3984 17.5747 88.6802 17.7189 88.9306 17.9249C89.2019 18.131 89.3375 18.4091 89.3375 18.7594C89.3375 19.1714 89.1915 19.4908 88.8993 19.7174C88.6071 19.9235 88.2524 20.078 87.835 20.181C87.4176 20.284 86.9898 20.3458 86.5516 20.3664C86.1133 20.3871 85.7586 20.3974 85.4873 20.3974C85.2368 20.3974 84.9342 20.3871 84.5795 20.3664C84.2247 20.3664 83.8804 20.3252 83.5465 20.2428C83.2334 20.1604 82.9621 20.0265 82.7326 19.8411C82.503 19.6556 82.3882 19.3878 82.3882 19.0375C82.3882 18.7285 82.4822 18.4606 82.67 18.234C82.8578 18.0074 83.0978 17.8425 83.39 17.7395C83.39 16.3797 83.3691 15.0405 83.3273 13.7219C83.3065 12.4032 83.2543 11.064 83.1708 9.7042C82.8369 9.60118 82.5239 9.43635 82.2317 9.20971C81.9396 8.98308 81.7935 8.66372 81.7935 8.25166C81.7935 7.81898 81.9604 7.48933 82.2943 7.26269C82.6491 7.01545 83.0665 6.84032 83.5465 6.73731C84.0473 6.63429 84.5482 6.57248 85.049 6.55188C85.5499 6.53127 85.9568 6.52097 86.2698 6.52097C86.8124 6.52097 87.2402 6.6652 87.5533 6.95364C87.8663 7.24209 88.075 7.64386 88.1793 8.15894C88.4923 7.74687 88.8471 7.39662 89.2436 7.10817C89.661 6.81972 90.141 6.6755 90.6836 6.6755C91.4348 6.6755 92.0087 6.95364 92.4052 7.50993C92.8017 8.04562 93 8.65342 93 9.33333C93 9.55997 92.9687 9.82782 92.9061 10.1369C92.8435 10.4253 92.7391 10.7035 92.5931 10.9713C92.447 11.2185 92.2696 11.4349 92.0609 11.6203C91.8522 11.7851 91.6018 11.8675 91.3096 11.8675C91.1427 11.8675 90.9862 11.8366 90.8401 11.7748C90.694 11.6924 90.5479 11.61 90.4018 11.5276C90.2558 11.4452 90.1201 11.3731 89.9949 11.3113C89.8906 11.2288 89.8071 11.1876 89.7445 11.1876C89.4523 11.1876 89.2123 11.301 89.0245 11.5276C88.8576 11.7336 88.6802 11.9088 88.4923 12.053ZM84.5482 18.0486C84.9655 17.6983 85.3725 17.3481 85.769 16.9978C86.1655 16.6269 86.5516 16.2561 86.9272 15.8852V15.4216C86.5098 15.7719 86.0924 16.1221 85.6751 16.4724C85.2786 16.8021 84.9029 17.1729 84.5482 17.585V18.0486ZM90.6523 7.88079C90.1514 8.29286 89.6714 8.77704 89.2123 9.33333C88.7741 9.88962 88.3463 10.4047 87.9289 10.8786L88.0228 10.8477C88.5654 10.3738 89.0871 9.88962 89.588 9.39514C90.0888 8.90066 90.6105 8.41648 91.1531 7.94261L90.6523 7.88079ZM84.4856 13.5055C84.9864 12.9904 85.4873 12.465 85.9881 11.9294C86.5098 11.3937 87.042 10.8786 87.5846 10.3841C87.5428 10.3635 87.5115 10.3429 87.4907 10.3223C87.4698 10.3017 87.4385 10.2914 87.3967 10.2914C86.8542 10.7653 86.3429 11.2598 85.8629 11.7748C85.4038 12.2693 84.9447 12.7844 84.4856 13.3201V13.5055ZM87.0837 8.4989C86.6037 8.82855 86.1342 9.22001 85.6751 9.67329C85.216 10.106 84.7986 10.5386 84.423 10.9713V11.3422C84.8403 10.8889 85.289 10.4562 85.769 10.0442C86.2698 9.61148 86.7185 9.16851 87.115 8.71523L87.0837 8.4989ZM87.3967 11.6821C87.4176 11.5997 87.4698 11.4761 87.5533 11.3113V11.2804C87.0733 11.7954 86.562 12.3002 86.0194 12.7947C85.4768 13.2686 84.976 13.7734 84.5169 14.3091V14.7108L87.3967 11.6821ZM86.9898 14C86.5933 14.4327 86.1968 14.8756 85.8003 15.3289C85.4246 15.7822 85.0073 16.1943 84.5482 16.5651V16.7506C84.9238 16.3797 85.3412 16.0294 85.8003 15.6998C86.2803 15.3495 86.6663 14.9684 86.9585 14.5563L86.9898 14.1545V14ZM84.4856 12.4547C84.9029 11.9809 85.3307 11.5173 85.769 11.064C86.2072 10.5901 86.6663 10.1472 87.1463 9.7351V9.48786C86.6663 9.92053 86.2072 10.3635 85.769 10.8168C85.3307 11.2494 84.8925 11.7027 84.4542 12.1766L84.4856 12.4547ZM87.1463 12.7638C87.0628 12.8668 86.875 13.0625 86.5829 13.351C86.3116 13.6394 86.0194 13.9485 85.7064 14.2781C85.4142 14.5872 85.1429 14.8756 84.8925 15.1435C84.6629 15.4113 84.5482 15.5659 84.5482 15.6071V15.7925L84.5795 15.7307C85.0594 15.3392 85.4768 14.8962 85.8316 14.4018C86.2072 13.9073 86.635 13.4643 87.115 13.0728L87.1463 12.7638ZM84.5169 19.1921C84.9134 18.8006 85.2994 18.4297 85.6751 18.0795C86.0716 17.7086 86.4994 17.3584 86.9585 17.0287C86.9585 16.9669 86.9481 16.9051 86.9272 16.8433C86.9272 16.7815 86.9272 16.7299 86.9272 16.6887C86.489 17.1008 86.0403 17.5232 85.5812 17.9559C85.1429 18.3679 84.6838 18.7594 84.2038 19.1302L84.5169 19.1921ZM91.5914 8.34437C91.2992 8.61222 91.007 8.89036 90.7149 9.17881C90.4436 9.44665 90.1618 9.7248 89.8697 10.0132C89.9114 10.0132 89.9636 10.0132 90.0262 10.0132C90.1097 10.0132 90.1723 10.0338 90.214 10.0751L91.6853 8.59161L91.5914 8.34437ZM85.5812 7.75717C85.0594 8.10743 84.6003 8.5092 84.2038 8.96247L84.2351 8.99338L84.2977 9.17881C84.5899 8.93157 84.8716 8.69463 85.1429 8.46799C85.4351 8.22075 85.7272 7.97351 86.0194 7.72627L85.5812 7.75717ZM91.8418 9.27152C91.654 9.45695 91.4661 9.64238 91.2783 9.82782C91.1114 10.0132 90.934 10.1884 90.7462 10.3532C90.8088 10.4356 90.8923 10.4871 90.9966 10.5077C91.1218 10.3635 91.247 10.2399 91.3722 10.1369C91.5183 10.0132 91.6644 9.88962 91.8105 9.766L91.8418 9.27152ZM86.7707 7.81898C86.3951 8.18985 85.9881 8.5401 85.5499 8.86976C85.1325 9.19941 84.736 9.55997 84.3603 9.95144V10.1678C84.7569 9.77631 85.1534 9.38484 85.5499 8.99338C85.9672 8.60191 86.4055 8.25166 86.8646 7.94261L86.7707 7.81898ZM85.5812 19.223C85.8107 19.0169 86.0403 18.8109 86.2698 18.6049C86.4994 18.3988 86.7289 18.1928 86.9585 17.9868V17.7704C86.3533 18.2443 85.8003 18.7285 85.2994 19.223H85.5812ZM87.0211 19.1302C87.1881 18.9654 87.3654 18.8212 87.5533 18.6976L87.522 18.6667L87.1776 18.543C87.0524 18.6461 86.9272 18.7491 86.802 18.8521C86.6976 18.9551 86.5933 19.0684 86.489 19.1921L87.0211 19.1302ZM84.1099 7.88079C84.0056 7.98381 83.8908 8.09713 83.7656 8.22075C83.6404 8.32377 83.5256 8.43709 83.4212 8.56071L83.703 8.62252H83.7343C83.9221 8.37528 84.1725 8.11773 84.4856 7.84989L84.1099 7.88079Z" fill="#E08D22"/>
</svg>
