<svg width="161" height="170" viewBox="0 0 161 170" fill="none" xmlns="http://www.w3.org/2000/svg">
<path d="M76.7932 84.1812C72.6432 84.1812 68.5972 85.4807 65.223 87.8975C61.8488 90.3142 59.3157 93.7269 57.9789 97.6567C57.3643 99.4663 54.7942 99.4822 54.1363 97.6876C50.8067 88.5957 48.9868 72.3443 72.6483 71.3598C83.612 70.9039 83.1847 84.1812 76.7932 84.1812Z" fill="#79132D"/>
<path d="M81.7595 84.1812C85.9095 84.1813 89.9553 85.4809 93.3294 87.8976C96.7035 90.3143 99.2367 93.727 100.573 97.6567C101.188 99.4663 103.758 99.4822 104.416 97.6876C107.745 88.5957 109.566 72.3443 85.9038 71.3598C74.9407 70.9039 75.3683 84.1812 81.7595 84.1812Z" fill="#79132D"/>
<path d="M90.8422 156.667L66.6497 153.556L72.0209 41.25H85.3607L90.8422 156.667Z" fill="#F0F3F6"/>
<path d="M144.258 153.45C143.581 153.451 142.905 153.535 142.237 153.7C141.219 148.266 139.398 143.23 136.902 138.954C134.407 134.677 131.3 131.265 127.804 128.962C124.307 126.659 120.508 125.522 116.678 125.632C112.848 125.742 109.082 127.098 105.649 129.6C104.695 125.369 102.903 121.654 100.503 118.932C98.1033 116.21 95.2055 114.605 92.1816 114.324C89.1576 114.042 86.1455 115.097 83.5318 117.352C80.918 119.607 78.822 122.96 77.5127 126.98C76.8172 122.731 75.1694 118.951 72.835 116.248C70.5006 113.545 67.6156 112.078 64.6451 112.083C64.3208 112.083 64.0008 112.099 63.6829 112.134C60.9429 112.429 58.3331 113.971 56.215 116.545C54.0969 119.12 52.5755 122.6 51.8613 126.503C49.0696 124.999 46.0811 124.453 43.1242 124.908C40.1672 125.362 37.3199 126.805 34.7998 129.126C32.2796 131.447 30.1533 134.584 28.583 138.299C27.0128 142.013 26.0403 146.207 25.7396 150.559C23.6636 150.793 21.6675 151.837 19.9565 153.583C18.2454 155.328 16.881 157.713 16.0036 160.491C14.5548 159.546 12.9909 159.044 11.4063 159.013C9.82176 158.983 8.24948 159.426 6.78443 160.314C5.31939 161.203 3.992 162.52 2.88245 164.184C1.77289 165.849 0.904203 167.827 0.328857 170H156.329C156.114 165.506 154.749 161.299 152.509 158.228C150.268 155.156 147.32 153.449 144.258 153.45Z" fill="#F0F3F6"/>
<path d="M89.4804 88.134H67.5071V95.398H89.4804V88.134Z" fill="#6B7481"/>
<path d="M96.7633 52.2239C96.7633 64.6053 93.3186 81.8311 90.8239 90.7826H66.5027C64.0079 81.8311 60.5632 64.6053 60.5632 52.2239C60.5632 23.3814 78.6644 0 78.6644 0C78.6644 0 96.7633 23.3814 96.7633 52.2239Z" fill="#032239"/>
<path d="M78.6632 53.6679C84.2859 53.6679 88.844 49.1086 88.844 43.4845C88.844 37.8604 84.2859 33.3012 78.6632 33.3012C73.0405 33.3012 68.4824 37.8604 68.4824 43.4845C68.4824 49.1086 73.0405 53.6679 78.6632 53.6679Z" fill="white"/>
<path d="M78.6631 51.0025C82.8141 51.0025 86.1792 47.6366 86.1792 43.4845C86.1792 39.3325 82.8141 35.9665 78.6631 35.9665C74.512 35.9665 71.147 39.3325 71.147 43.4845C71.147 47.6366 74.512 51.0025 78.6631 51.0025Z" fill="#E08C22"/>
<path d="M91.0502 23.0595H66.2761C71.5817 9.1485 78.6641 0 78.6641 0C78.6641 0 85.7466 9.1485 91.0502 23.0595Z" fill="#79132D"/>
</svg>
