<svg width="462" height="321" viewBox="0 0 462 321" fill="none" xmlns="http://www.w3.org/2000/svg">
<mask id="mask0_2014_263" style="mask-type:luminance" maskUnits="userSpaceOnUse" x="57" y="0" width="322" height="321">
<path d="M378.105 0H57.1052V321H378.105V0Z" fill="white"/>
</mask>
<g mask="url(#mask0_2014_263)">
<path d="M228.043 246.774C258.177 246.774 282.605 263.251 282.605 283.575C282.605 303.9 258.177 320.377 228.043 320.377C197.909 320.377 173.48 303.9 173.48 283.575C173.48 263.251 197.909 246.774 228.043 246.774Z" fill="#FF855E"/>
<path opacity="0.1" d="M173.48 283.561C173.48 288.163 174.727 292.549 177.014 296.619C216.862 269.969 240.929 288.939 257.568 314.523C272.613 307.909 282.605 296.546 282.605 283.561C282.605 263.258 258.176 246.783 228.043 246.783C197.91 246.783 173.48 263.258 173.48 283.561Z" fill="black"/>
<path d="M171.555 283.581C171.949 298.312 180.779 305.386 184.021 308.705C208.089 328.087 233.113 327.287 257.51 317.863C293.624 302.43 293.727 264.781 257.51 248.621C233.1 239.318 208.077 239.197 184.002 258.313C180.669 261.753 171.949 268.754 171.536 283.46L171.555 283.581ZM171.62 283.581C172.007 269.239 180.869 262.116 184.061 259.088C193.672 251.286 203.503 248.185 213.309 246.441C228.034 243.745 242.793 245.236 257.458 250.899C293.107 265.895 293.23 301.219 257.458 316.942C237.884 324.247 218.163 324.15 198.594 316.651C193.705 314.808 188.846 311.953 184.041 308.099C180.76 304.998 172.007 297.924 171.6 283.581L171.62 283.581Z" fill="#FF855E"/>
<path d="M286.176 283.575C285.821 267.464 277.133 259.469 273.613 255.617C248.783 233.57 222.752 234.539 197.515 245.199C160.593 262.57 160.49 304.556 197.515 322.605C217.806 331.873 238.325 331.751 258.608 322.242C263.672 319.846 268.692 316.278 273.639 311.558C277.23 307.536 285.821 299.711 286.228 283.575H286.176ZM286.112 283.575C285.712 299.396 277.024 307.27 273.542 310.904C263.633 319.843 253.44 323.405 243.286 325.44C228.027 328.553 212.724 326.86 197.54 320.376C161.071 303.417 160.955 263.757 197.54 246.144C217.809 237.749 238.262 237.847 258.524 246.435C263.584 248.511 268.606 251.747 273.561 256.126C277.114 259.808 285.724 267.706 286.131 283.479L286.112 283.575Z" fill="#FF855E"/>
<path d="M167.895 250.891C168.198 235.542 168.204 218.654 167.895 203.314C167.592 218.654 167.592 235.542 167.895 250.891Z" fill="#FF855E"/>
<path d="M207.703 237.847C208.007 222.499 208.013 205.611 207.703 190.27C207.394 205.611 207.4 222.499 207.703 237.847Z" fill="#FF855E"/>
<path d="M279.299 250.891C279.602 225.666 279.602 197.362 279.299 172.137C278.996 197.362 278.996 225.666 279.299 250.891Z" fill="#FF855E"/>
<path d="M172.989 245.788C173.293 226.825 173.299 205.541 172.989 186.57C172.686 205.541 172.692 226.817 172.989 245.788Z" fill="#FF855E"/>
<path d="M250.996 234.549C251.305 223.055 251.299 210.981 250.996 199.479C250.686 210.981 250.68 223.055 250.996 234.549Z" fill="#FF855E"/>
<path d="M192.682 240.065C192.985 225.994 192.985 210.498 192.682 196.42C192.373 210.498 192.379 225.994 192.682 240.065Z" fill="#FF855E"/>
<path d="M268.555 244.237C268.858 225.275 268.864 203.99 268.555 185.02C268.252 203.982 268.258 225.267 268.555 244.237Z" fill="#FF855E"/>
<path d="M167.895 180.915C167.579 186.798 167.579 192.702 167.895 198.585C168.214 192.702 168.214 186.798 167.895 180.915Z" fill="#FF855E"/>
<path d="M260.448 216.878C260.132 222.762 260.132 228.665 260.448 234.549C260.766 228.665 260.766 222.762 260.448 216.878Z" fill="#FF855E"/>
<path d="M180.192 207.049C179.877 212.932 179.877 218.836 180.192 224.719C180.512 218.836 180.512 212.932 180.192 207.049Z" fill="#FF855E"/>
<path d="M241.607 219.049C241.288 224.933 241.288 230.836 241.607 236.719C241.922 230.836 241.922 224.933 241.607 219.049Z" fill="#FF855E"/>
<path d="M198.376 217.762C198.057 223.645 198.057 229.549 198.376 235.432C198.691 229.548 198.691 223.645 198.376 217.762Z" fill="#FF855E"/>
<path d="M245.261 305.348C247.118 305.58 261.368 307.453 253.929 309.907C249.874 311.238 243.682 311.602 239.409 312.074C244.324 311.811 249.286 311.702 254.046 310.27C255.036 309.969 257.42 308.993 256.05 307.732C255.004 307.027 253.819 306.554 252.575 306.346C250.164 305.836 247.72 305.502 245.261 305.348Z" fill="white"/>
<path d="M231.692 304.727C235.121 304.99 238.526 305.099 241.963 305.068C238.562 304.571 235.117 304.457 231.692 304.727Z" fill="white"/>
<path d="M213.04 306.041C215.351 305.913 217.65 305.626 219.921 305.182C217.596 305.098 215.273 305.389 213.04 306.041Z" fill="white"/>
<path d="M231.693 312.26C227.467 312.105 223.249 311.935 219.046 311.532C216.941 311.347 214.843 311.099 212.769 310.758C210.996 310.402 209.069 310.178 207.529 309.156C207.422 309.083 207.331 308.988 207.263 308.877C207.195 308.767 207.151 308.643 207.134 308.514C207.142 308.647 207.179 308.777 207.242 308.894C207.305 309.012 207.392 309.114 207.498 309.195C208.984 310.333 210.934 310.635 212.715 311.053C214.797 311.471 216.902 311.718 219.007 311.935C223.225 312.308 227.461 312.421 231.693 312.275V312.26Z" fill="white"/>
<path d="M241.438 306.657C242.615 306.835 253.048 307.973 247.545 309.273C244.232 310.086 240.618 310.21 237.22 310.589C241.09 310.419 245.192 310.589 248.915 309.204C252.011 307.207 242.429 306.665 241.438 306.657Z" fill="white"/>
<path d="M231.693 306.287C234.137 306.622 236.61 306.692 239.069 306.496C236.62 306.166 234.142 306.098 231.678 306.295L231.693 306.287Z" fill="white"/>
<path d="M218.263 307.067C219.931 307.163 221.603 306.994 223.217 306.564C221.549 306.463 219.876 306.633 218.263 307.067Z" fill="white"/>
<path d="M231.692 310.695C228.689 310.409 225.67 310.463 222.667 310.153C220.306 309.875 216.537 309.882 214.354 308.899C214.207 308.807 214.029 308.69 214.006 308.497C214.023 308.59 214.06 308.679 214.115 308.757C214.17 308.834 214.241 308.899 214.323 308.946C216.87 310.254 219.857 310.177 222.636 310.54C225.647 310.803 228.673 310.726 231.692 310.695Z" fill="white"/>
<path d="M65.0049 320.8C165.445 320.32 278.122 320.32 378.562 320.8C278.122 321.272 165.445 321.272 65.0049 320.8Z" fill="#263238"/>
<path d="M218.158 5.3432C254.265 5.3432 283.536 10.6072 283.536 17.1002C283.536 23.5932 254.265 28.8572 218.158 28.8572C182.05 28.8572 152.779 23.5932 152.779 17.1002C152.779 10.6072 182.05 5.3432 218.158 5.3432Z" fill="#455A64"/>
<path opacity="0.1" d="M281.671 17.1082C281.671 15.6372 280.177 14.2362 277.438 12.9362C229.69 21.4502 200.851 15.3892 180.914 7.21619C162.864 9.31319 150.913 12.9592 150.913 17.1082C150.913 23.5942 180.186 28.8572 216.293 28.8572C252.399 28.8572 281.671 23.5942 281.671 17.1082Z" fill="black"/>
<path d="M150.471 17.0992C150.944 21.8042 161.524 24.0652 165.409 25.1332C194.248 31.3252 224.232 31.0612 253.466 28.0512C296.74 23.1282 296.863 11.0922 253.466 5.93819C224.217 2.95818 194.233 2.91919 165.386 9.03419C161.392 10.1332 150.944 12.3772 150.448 17.0682L150.471 17.0992ZM150.549 17.0992C151.013 12.5242 161.632 10.2412 165.456 9.27419C176.973 6.78118 188.753 5.79119 200.502 5.24119C218.146 4.37718 235.831 4.85118 253.404 6.65819C296.12 11.4492 296.267 22.7412 253.404 27.7642C229.949 30.0992 206.319 30.0652 182.871 27.6642C177.019 27.0802 171.205 26.1712 165.456 24.9392C161.524 23.9482 151.036 21.6882 150.549 17.1062V17.0992Z" fill="#455A64"/>
<path d="M287.816 17.1022C287.359 11.9552 276.933 9.43221 272.73 8.17021C242.978 1.12721 211.787 1.43721 181.547 4.85021C137.306 10.3922 137.182 23.8052 181.547 29.5792C205.861 32.5412 230.447 32.4992 254.751 29.4552C260.82 28.6942 266.835 27.5542 272.761 26.0422C277.065 24.7572 287.359 22.2652 287.846 17.1022H287.816ZM287.738 17.1022C287.258 22.1562 276.848 24.6802 272.676 25.8412C260.803 28.6972 248.59 29.8342 236.423 30.4852C218.139 31.4822 199.803 30.9432 181.609 28.8752C137.909 23.4572 137.77 10.7792 181.609 5.16021C205.894 2.47021 230.403 2.50121 254.681 5.25321C260.745 5.91621 266.762 6.95021 272.7 8.34921C276.956 9.52521 287.274 12.0482 287.761 17.0792L287.738 17.1022Z" fill="#455A64"/>
<path d="M287.817 17.1022C287.438 32.4502 287.43 49.3392 287.817 64.6792C288.196 49.3392 288.196 32.4502 287.817 17.1022Z" fill="#455A64"/>
<path d="M238.032 30.1462C237.653 45.4862 237.645 62.3752 238.032 77.7232C238.419 62.3752 238.411 45.4862 238.032 30.1462Z" fill="#455A64"/>
<path d="M148.498 17.0972C148.119 42.3212 148.119 70.6262 148.498 95.8502C148.878 70.6262 148.878 42.3212 148.498 17.0972Z" fill="#455A64"/>
<path d="M281.445 22.1982C281.066 41.1612 281.059 62.4462 281.445 81.4162C281.825 62.4462 281.817 41.1692 281.445 22.1982Z" fill="#455A64"/>
<path d="M183.892 33.4552C183.505 44.9492 183.512 57.0232 183.892 68.5322C184.279 57.0232 184.286 44.9492 183.892 33.4552Z" fill="#455A64"/>
<path d="M256.857 27.9322C256.478 42.0112 256.478 57.4982 256.857 71.5772C257.244 57.4982 257.236 42.0112 256.857 27.9322Z" fill="#455A64"/>
<path d="M161.935 23.7582C161.555 42.7292 161.548 64.0062 161.935 82.9762C162.314 64.0132 162.306 42.7292 161.935 23.7582Z" fill="#455A64"/>
<path d="M287.817 87.0732C288.212 81.1902 288.212 75.2862 287.817 69.4032C287.418 75.2862 287.418 81.1902 287.817 87.0732Z" fill="#455A64"/>
<path d="M172.074 51.1192C172.469 45.2362 172.469 39.3322 172.074 33.4492C171.676 39.3322 171.676 45.2362 172.074 51.1192Z" fill="#455A64"/>
<path d="M272.438 60.9492C272.833 55.0632 272.833 49.1572 272.438 43.2712C272.039 49.1572 272.039 55.0632 272.438 60.9492Z" fill="#455A64"/>
<path d="M195.635 48.9392C196.034 43.0552 196.034 37.1522 195.635 31.2692C195.241 37.1522 195.241 43.0552 195.635 48.9392Z" fill="#455A64"/>
<path d="M249.698 50.2362C250.097 44.3502 250.097 38.4442 249.698 32.5582C249.303 38.4442 249.303 44.3502 249.698 50.2362Z" fill="#455A64"/>
<path d="M244.999 8.40118C246.856 8.63318 261.113 10.4992 253.667 12.9602C249.612 14.2832 243.42 14.6472 239.147 15.1272C244.062 14.8562 249.031 14.7562 253.784 13.3242C254.774 13.0222 257.158 12.0392 255.788 10.7852C254.742 10.0802 253.557 9.60818 252.313 9.40018C249.902 8.88918 247.458 8.55618 244.999 8.40118Z" fill="white"/>
<path d="M231.47 7.7822C234.898 8.0452 238.304 8.1462 241.74 8.1232C238.34 7.6272 234.895 7.5122 231.47 7.7822Z" fill="white"/>
<path d="M212.816 9.09421C215.127 8.96721 217.426 8.68021 219.697 8.23521C217.372 8.15221 215.049 8.44221 212.816 9.09421Z" fill="white"/>
<path d="M231.471 15.3152C227.245 15.1612 223.026 14.9902 218.824 14.5882C216.718 14.4022 214.621 14.1542 212.547 13.8142C210.774 13.4502 208.847 13.2332 207.315 12.2122C207.204 12.1392 207.111 12.0442 207.041 11.9312C206.972 11.8192 206.928 11.6932 206.912 11.5622C206.921 11.6962 206.958 11.8282 207.022 11.9472C207.087 12.0662 207.176 12.1692 207.284 12.2502C208.77 13.3882 210.712 13.6902 212.492 14.1082C214.575 14.5262 216.68 14.7742 218.785 14.9832C223.002 15.3582 227.239 15.4742 231.471 15.3312V15.3152Z" fill="white"/>
<path d="M241.214 9.71021C242.39 9.88921 252.823 11.0262 247.32 12.3192C244.008 13.1392 240.393 13.2552 236.995 13.6422C240.865 13.4722 244.967 13.6422 248.69 12.2572C251.786 10.2522 242.204 9.71821 241.214 9.71021Z" fill="white"/>
<path d="M231.47 9.34421C233.922 9.67821 236.403 9.74621 238.869 9.54521C236.417 9.21621 233.936 9.14821 231.47 9.34421Z" fill="white"/>
<path d="M218.041 10.1082C219.708 10.2112 221.381 10.0432 222.994 9.6122C221.327 9.5132 219.655 9.6802 218.041 10.1082Z" fill="white"/>
<path d="M231.47 13.7522C228.466 13.4652 225.448 13.5192 222.453 13.2102C220.084 12.9312 216.315 12.9312 214.14 11.9482C214.053 11.9152 213.975 11.8612 213.913 11.7912C213.851 11.7212 213.806 11.6372 213.784 11.5462C213.799 11.6422 213.837 11.7332 213.893 11.8122C213.95 11.8912 214.023 11.9562 214.109 12.0022C216.648 13.3102 219.635 13.2332 222.422 13.5972C225.425 13.8602 228.459 13.7752 231.47 13.7522Z" fill="white"/>
<path d="M267.967 173.29C267.967 173.29 276.636 188.375 282.479 196.726C288.323 205.078 294.739 223.282 295.978 225.046C297.216 226.811 299.383 314.427 299.383 314.427C299.383 314.427 285.188 316.191 282.216 316.354C279.244 316.516 265.088 320.177 265.088 320.177L293.725 317.855L282.301 320.177C282.301 320.177 301.357 319.349 302.27 319.272C303.183 319.194 309.909 319.612 310.234 319.372C310.559 319.132 311.566 317.662 311.272 317.05C310.977 316.439 305.606 314.187 305.606 314.187C305.606 314.187 307.386 228.576 307.27 227.074C307.154 225.573 308.818 223.328 307.858 221.834C306.898 220.341 303.733 218.94 303.261 217.872C302.789 216.803 298.307 188.22 297.843 175.38C297.665 169.706 270.854 165.333 267.967 173.29Z" fill="#FF855E"/>
<path opacity="0.7" d="M267.967 173.29C267.967 173.29 276.636 188.375 282.479 196.726C288.323 205.078 294.739 223.282 295.978 225.046C297.216 226.811 299.383 314.427 299.383 314.427C299.383 314.427 285.188 316.191 282.216 316.354C279.244 316.516 265.088 320.177 265.088 320.177L293.725 317.855L282.301 320.177C282.301 320.177 301.357 319.349 302.27 319.272C303.183 319.194 309.909 319.612 310.234 319.372C310.559 319.132 311.566 317.662 311.272 317.05C310.977 316.439 305.606 314.187 305.606 314.187C305.606 314.187 307.386 228.576 307.27 227.074C307.154 225.573 308.818 223.328 307.858 221.834C306.898 220.341 303.733 218.94 303.261 217.872C302.789 216.803 298.307 188.22 297.843 175.38C297.665 169.706 270.854 165.333 267.967 173.29Z" fill="white"/>
<path d="M299.722 194.628L271.48 179.288C269.39 175.789 267.966 173.305 267.966 173.305C270.853 165.325 297.656 169.706 297.872 175.387C298.051 180.309 298.817 187.531 299.722 194.628Z" fill="#FF855E"/>
<path d="M303.361 242.043C303.361 242.043 304.793 242.205 307.068 242.407C307.068 242.283 307.068 242.159 307.068 242.043H303.361ZM292.208 216.362C292.332 216.648 292.456 216.935 292.572 217.221C294.833 217.115 297.082 216.827 299.298 216.362H292.208ZM298.818 186.997C298.818 186.997 298.818 186.912 298.818 186.873H294.793C294.793 186.873 295.42 186.951 296.511 187.051L298.833 187.268C298.841 187.175 298.826 187.09 298.818 186.997ZM285.01 200.867C285.079 201.006 285.157 201.145 285.234 201.285C286.008 201.169 286.782 201.029 287.51 200.867H285.01ZM300.49 200.449H298.431C298.431 200.449 299.205 200.542 300.513 200.666L300.49 200.449ZM301.372 206.641H293.4C293.4 206.641 296.805 207.035 301.488 207.337C301.418 207.082 301.418 206.85 301.418 206.618L301.372 206.641ZM282.332 196.579L282.463 196.765L282.719 197.136L282.974 197.515C285.835 197.462 288.684 197.148 291.488 196.579H282.332ZM300.799 252.082C300.799 252.082 303.199 252.298 306.867 252.531C306.867 252.376 306.867 252.236 306.867 252.082H300.799ZM301.89 280.208C303.349 280.546 304.824 280.804 306.31 280.982C306.31 280.742 306.31 280.479 306.31 280.208H301.89ZM285.846 193.057C285.846 193.057 290.838 195.302 293.361 193.057H285.846ZM299.313 255.046C299.313 255.046 304.298 257.291 306.821 255.046H299.313ZM296.573 230.836C296.573 231.161 296.62 231.494 296.635 231.834C298.55 231.897 300.456 231.556 302.231 230.836H296.573ZM296.805 234.984C296.805 235.054 296.805 235.116 296.805 235.185L298.268 234.953L296.805 234.984ZM299.127 304.542C299.127 304.666 299.127 304.798 299.127 304.922C300.048 304.813 300.923 304.682 301.751 304.542H299.127ZM302.107 270.58C302.107 270.58 303.794 270.727 306.519 270.913C306.519 270.804 306.519 270.688 306.519 270.58H302.107ZM298.918 296.609C298.918 296.779 298.918 296.942 298.918 297.104C300.219 296.965 301.449 296.803 302.572 296.609H298.918ZM298.756 290.974V291.748C301.072 291.621 303.38 291.362 305.668 290.974H298.756Z" fill="#FF855E"/>
<path d="M285.668 173.289C285.668 173.289 298.88 189.721 304.723 198.057C310.567 206.392 323.531 223.265 324.777 225.03C326.024 226.795 344.762 314.441 344.762 314.441C344.762 314.441 330.567 316.206 327.595 316.368C324.623 316.531 310.459 320.192 310.459 320.192L339.096 317.87L327.68 320.192C327.68 320.192 346.736 319.364 347.649 319.286C348.562 319.209 355.288 319.627 355.613 319.387C355.938 319.147 356.937 317.676 356.643 317.065C356.348 316.453 350.985 314.201 350.985 314.201C350.985 314.201 336.248 228.59 336.101 227.089C335.954 225.587 337.649 223.343 336.689 221.849C335.729 220.355 332.556 218.954 332.084 217.886C331.612 216.818 316.047 188.235 315.575 175.394C315.35 169.705 288.563 165.332 285.668 173.289Z" fill="#FF855E"/>
<path opacity="0.7" d="M285.668 173.289C285.668 173.289 298.88 189.721 304.723 198.057C310.567 206.392 323.531 223.265 324.777 225.03C326.024 226.795 344.762 314.441 344.762 314.441C344.762 314.441 330.567 316.206 327.595 316.368C324.623 316.531 310.459 320.192 310.459 320.192L339.096 317.87L327.68 320.192C327.68 320.192 346.736 319.364 347.649 319.286C348.562 319.209 355.288 319.627 355.613 319.387C355.938 319.147 356.937 317.676 356.643 317.065C356.348 316.453 350.985 314.201 350.985 314.201C350.985 314.201 336.248 228.59 336.101 227.089C335.954 225.587 337.649 223.343 336.689 221.849C335.729 220.355 332.556 218.954 332.084 217.886C331.612 216.818 316.047 188.235 315.575 175.394C315.35 169.705 288.563 165.332 285.668 173.289Z" fill="white"/>
<path d="M338.569 242.042H336.023C336.023 242.042 336.99 242.151 338.608 242.298C338.631 242.213 338.616 242.127 338.569 242.042ZM318.19 216.361C318.386 216.609 318.572 216.867 318.747 217.135C320.479 216.999 322.199 216.74 323.894 216.361H318.19ZM317.857 186.083C317.852 186.065 317.852 186.047 317.857 186.029L317.788 185.828H313.801C313.801 185.828 314.955 185.959 316.851 186.137L317.935 186.23C317.913 186.183 317.898 186.134 317.888 186.083H317.857ZM305.698 199.512C305.853 199.736 306.023 199.976 306.201 200.208L306.294 200.34C308.394 200.22 310.482 199.944 312.54 199.512H305.698ZM327.896 209.713H324.645C324.645 209.713 325.953 209.868 328.066 210.046C328.035 209.937 327.981 209.829 327.927 209.713H327.896ZM303.6 196.555C303.833 196.872 304.057 197.182 304.266 197.484C307.046 197.421 309.815 197.11 312.54 196.555H303.6ZM340.357 252.507C340.256 252.352 340.14 252.213 340.024 252.058H333.476C333.476 252.058 336.224 252.305 340.372 252.561C340.372 252.561 340.411 252.522 340.388 252.507H340.357ZM346.828 290.115H343.066C343.066 290.115 344.513 290.239 346.882 290.409C346.897 290.316 346.882 290.215 346.859 290.115H346.828ZM349.8 307.313C349.8 307.173 349.745 307.026 349.722 306.879H344.552C346.304 307.277 348.08 307.562 349.869 307.731L349.8 307.313ZM347.532 294.155H341.503C343.541 294.612 345.611 294.917 347.694 295.068C347.663 294.805 347.609 294.48 347.563 294.17L347.532 294.155ZM319.521 190.727C319.459 190.572 319.405 190.425 319.351 190.27H309.243C312.031 190.936 314.89 191.264 317.757 191.246L318.438 191.207C318.84 191.207 319.212 191.145 319.63 191.091L319.521 190.727ZM332.006 255.045C332.006 255.045 336.998 257.29 339.521 255.045H332.006ZM292.904 182.438L293.678 183.413C295.269 183.499 296.864 183.395 298.43 183.103C298.818 183.032 299.201 182.934 299.576 182.809C299.901 182.71 300.219 182.588 300.528 182.445L292.904 182.438ZM326.332 230.835C326.387 231.059 326.441 231.284 326.503 231.516L326.549 231.717C329.374 231.957 332.679 231.903 334.924 230.835H326.332ZM327.315 234.984C327.315 235.138 327.393 235.309 327.431 235.471C328.693 235.34 329.885 235.177 330.984 234.984H327.315ZM343.492 270.587H334.808L335.272 270.626C336.417 270.719 339.521 270.974 343.577 271.191C343.561 270.982 343.523 270.811 343.492 270.579V270.587ZM335.945 273.683L336.015 273.993C336.712 273.9 337.369 273.799 338.012 273.683H335.945ZM342.439 303.536C342.485 303.763 342.532 303.979 342.578 304.186C344.482 304.031 346.255 303.822 347.841 303.536H342.439ZM337.16 279.186C337.215 279.418 337.261 279.65 337.315 279.883C339.444 279.72 341.425 279.496 343.182 279.186H337.16Z" fill="#FF855E"/>
<path d="M242.509 219.955C242.509 225.961 242.462 231.637 242.369 236.982C242.013 258.298 241.015 274.583 239.985 286.293C238.902 298.584 237.772 305.844 237.307 308.584C234.25 308.754 231.116 308.886 227.865 308.971C228.399 306.409 229.978 298.367 231.394 285.86C233.1 270.333 233.95 254.723 233.941 239.103C233.941 235.744 233.904 232.292 233.832 228.747C233.781 225.93 233.695 223.056 233.577 220.125C233.577 220.055 233.577 219.993 233.577 219.924L242.509 219.955Z" fill="#FF855E"/>
<path opacity="0.7" d="M242.509 219.955C242.509 225.961 242.462 231.637 242.369 236.982C242.013 258.298 241.015 274.583 239.985 286.293C238.902 298.584 237.772 305.844 237.307 308.584C234.25 308.754 231.116 308.886 227.865 308.971C228.399 306.409 229.978 298.367 231.394 285.86C233.1 270.333 233.95 254.723 233.941 239.103C233.941 235.744 233.904 232.292 233.832 228.747C233.781 225.93 233.695 223.056 233.577 220.125C233.577 220.055 233.577 219.993 233.577 219.924L242.509 219.955Z" fill="white"/>
<path d="M228.941 292.571C230.31 291.813 231.343 290.567 231.836 289.081C231.984 288.575 232.085 288.057 232.137 287.533C232.137 287.455 232.029 287.448 232.014 287.533C231.888 288.017 231.712 288.486 231.487 288.934C231.28 289.378 231.037 289.805 230.76 290.211C230.223 291.019 229.568 291.741 228.817 292.355C228.709 292.478 228.825 292.641 228.941 292.571Z" fill="#FF855E"/>
<path d="M232.036 284.394C232.748 284.063 233.342 283.523 233.739 282.846C233.935 282.517 234.091 282.167 234.204 281.801C234.333 281.45 234.391 281.076 234.374 280.702C234.374 280.64 234.281 280.648 234.258 280.702C234.111 281.02 234.018 281.36 233.863 281.685C233.707 282.005 233.523 282.311 233.314 282.598C233.112 282.877 232.903 283.148 232.679 283.372C232.439 283.648 232.18 283.906 231.905 284.146C231.872 284.164 231.847 284.194 231.837 284.229C231.826 284.265 231.829 284.303 231.847 284.336C231.864 284.369 231.894 284.393 231.93 284.404C231.965 284.415 232.004 284.412 232.036 284.394Z" fill="white"/>
<path d="M239.128 284.439C239.516 285.179 240.125 285.78 240.87 286.158C240.913 286.182 240.964 286.189 241.012 286.178C241.06 286.166 241.102 286.136 241.129 286.094C241.155 286.053 241.165 286.002 241.156 285.954C241.147 285.905 241.119 285.862 241.079 285.833C240.531 285.305 240.015 284.747 239.531 284.161C239.056 283.555 238.702 282.864 238.486 282.125C238.486 282.063 238.354 282.087 238.37 282.125C238.47 282.939 238.728 283.725 239.128 284.439Z" fill="#FF855E"/>
<path d="M237.177 278.132C237.243 278.473 237.334 278.81 237.448 279.138C237.567 279.748 237.919 280.287 238.431 280.64C238.686 280.771 238.849 280.392 238.616 280.245C238.408 280.093 238.245 279.887 238.144 279.649C238.01 279.397 237.888 279.139 237.781 278.875C237.672 278.589 237.556 278.302 237.463 278.008C237.37 277.714 237.285 277.397 237.177 277.103C237.177 277.086 237.17 277.07 237.159 277.059C237.147 277.047 237.131 277.041 237.115 277.041C237.099 277.041 237.083 277.047 237.071 277.059C237.06 277.07 237.053 277.086 237.053 277.103C237.056 277.449 237.097 277.795 237.177 278.132Z" fill="white"/>
<path d="M242.532 277.099C242.741 277.169 242.819 276.851 242.649 276.751C241.049 275.904 239.848 274.46 239.305 272.734C239.305 272.664 239.181 272.687 239.189 272.734C239.27 273.705 239.628 274.633 240.221 275.406C240.814 276.18 241.616 276.768 242.532 277.099Z" fill="#FF855E"/>
<path d="M240.158 272.279C240.305 272.434 240.568 272.194 240.436 272.032C239.643 271.13 239.23 269.957 239.283 268.758C239.283 268.741 239.277 268.726 239.265 268.714C239.253 268.702 239.238 268.696 239.221 268.696C239.205 268.696 239.189 268.702 239.178 268.714C239.166 268.726 239.159 268.741 239.159 268.758C239.048 269.382 239.08 270.023 239.253 270.633C239.426 271.243 239.736 271.806 240.158 272.279Z" fill="white"/>
<path d="M231.558 275.251C232.343 274.959 233.034 274.459 233.555 273.803C234.086 273.147 234.48 272.392 234.716 271.582C234.716 271.505 234.631 271.481 234.6 271.582C234.302 272.326 233.857 273.003 233.292 273.571C233.027 273.843 232.748 274.102 232.456 274.345C232.139 274.601 231.791 274.802 231.458 275.034C231.342 275.073 231.396 275.297 231.558 275.251Z" fill="#FF855E"/>
<path d="M232.254 277.099C232.618 276.806 232.947 276.474 233.237 276.108C233.518 275.736 233.776 275.349 234.011 274.947C234.014 274.934 234.013 274.921 234.008 274.908C234.003 274.896 233.995 274.886 233.983 274.879C233.972 274.872 233.959 274.869 233.946 274.87C233.933 274.871 233.92 274.876 233.91 274.885C233.369 275.626 232.752 276.308 232.068 276.921C232.045 276.945 232.032 276.978 232.033 277.012C232.033 277.046 232.047 277.079 232.072 277.102C232.097 277.126 232.13 277.139 232.164 277.138C232.198 277.138 232.23 277.123 232.254 277.099Z" fill="#FF855E"/>
<path d="M231.032 266.248C231.878 265.715 232.584 264.988 233.091 264.128C233.595 263.17 233.98 262.153 234.237 261.101C234.237 261.032 234.144 261.001 234.121 261.101C233.769 262.07 233.32 263.001 232.782 263.88C232.252 264.695 231.614 265.435 230.885 266.078C230.878 266.1 230.877 266.123 230.882 266.145C230.886 266.167 230.896 266.188 230.911 266.205C230.926 266.222 230.945 266.235 230.966 266.242C230.987 266.25 231.01 266.252 231.032 266.248Z" fill="#FF855E"/>
<path d="M231.512 268.633C232.099 268.185 232.591 267.624 232.959 266.984C233.317 266.34 233.578 265.646 233.733 264.926C233.733 264.848 233.641 264.833 233.617 264.926C233.375 265.597 233.041 266.233 232.627 266.814C232.237 267.389 231.799 267.93 231.319 268.432C231.187 268.532 231.373 268.741 231.512 268.633Z" fill="#FF855E"/>
<path d="M237.719 267.319C237.797 267.42 237.99 267.32 237.928 267.211C237.138 265.853 236.749 264.3 236.806 262.73C236.806 262.652 236.698 262.629 236.69 262.73C236.527 264.293 236.643 266.05 237.719 267.319Z" fill="white"/>
<path d="M241.821 261.206C241.852 261.226 241.89 261.235 241.927 261.231C241.964 261.227 241.999 261.211 242.026 261.186C242.054 261.16 242.072 261.126 242.078 261.09C242.084 261.053 242.078 261.015 242.061 260.982C241.37 260.022 240.737 259.021 240.164 257.987C239.609 256.928 239.178 255.808 238.879 254.651C238.879 254.581 238.763 254.612 238.763 254.651C238.884 257.152 239.982 259.506 241.821 261.206Z" fill="#FF855E"/>
<path d="M239.871 262.346C239.995 262.439 240.204 262.284 240.08 262.153C239.751 261.81 239.465 261.428 239.229 261.015C238.996 260.583 238.864 260.104 238.842 259.614C238.842 259.537 238.718 259.552 238.718 259.614C238.687 260.127 238.775 260.641 238.975 261.115C239.175 261.589 239.482 262.01 239.871 262.346Z" fill="white"/>
<path d="M234.6 256.495C236.197 254.726 237.032 252.397 236.922 250.016C236.922 249.954 236.813 249.947 236.805 250.016C236.437 252.274 235.649 254.442 234.483 256.409C234.429 256.487 234.538 256.556 234.6 256.495Z" fill="#FF855E"/>
<path d="M236.404 257.651C236.53 257.42 236.631 257.176 236.706 256.923C236.775 256.685 236.824 256.442 236.853 256.196C236.853 255.956 236.899 255.716 236.899 255.476C236.899 255.236 236.899 255.228 236.899 255.104C236.888 254.952 236.888 254.8 236.899 254.648C236.899 254.555 236.76 254.563 236.783 254.648C236.799 254.781 236.799 254.917 236.783 255.05L236.737 255.422C236.698 255.662 236.659 255.909 236.605 256.149C236.551 256.389 236.489 256.629 236.427 256.869C236.365 257.109 236.311 257.349 236.241 257.581C236.172 257.813 236.404 257.759 236.404 257.651Z" fill="white"/>
<path d="M242.502 248.912C242.649 248.982 242.796 248.773 242.664 248.672C241.308 247.43 240.349 245.814 239.909 244.028C239.909 243.966 239.785 243.99 239.793 244.028C240.126 245.932 240.636 248.045 242.502 248.912Z" fill="#FF855E"/>
<path d="M243.834 243.188C243.864 243.183 243.891 243.17 243.913 243.149C243.935 243.128 243.95 243.101 243.956 243.071C243.962 243.042 243.958 243.011 243.946 242.984C243.934 242.956 243.914 242.933 243.888 242.917C243.063 242.651 242.281 242.268 241.566 241.779C240.837 241.256 240.258 240.552 239.886 239.736C239.886 239.666 239.747 239.736 239.778 239.736C240.335 241.493 241.93 243.134 243.834 243.188Z" fill="#FF855E"/>
<path d="M230.21 247.136C231.506 246.295 232.606 245.185 233.435 243.881C234.264 242.578 234.804 241.112 235.017 239.582C235.02 239.572 235.021 239.562 235.02 239.552C235.019 239.542 235.015 239.533 235.01 239.525C235.004 239.517 234.996 239.51 234.987 239.505C234.979 239.501 234.969 239.498 234.959 239.498C234.949 239.498 234.939 239.501 234.93 239.505C234.921 239.51 234.914 239.517 234.908 239.525C234.902 239.533 234.899 239.542 234.897 239.552C234.896 239.562 234.897 239.572 234.901 239.582C234.128 242.497 232.434 245.084 230.071 246.958C230.06 246.979 230.055 247.003 230.057 247.027C230.059 247.05 230.068 247.073 230.083 247.092C230.098 247.111 230.118 247.125 230.14 247.133C230.163 247.141 230.187 247.142 230.21 247.136Z" fill="#FF855E"/>
<path d="M232.115 249.384C232.993 248.999 233.743 248.371 234.274 247.573C234.842 246.806 235.241 245.928 235.443 244.995C235.438 244.982 235.429 244.97 235.418 244.962C235.406 244.953 235.392 244.949 235.377 244.949C235.363 244.949 235.349 244.953 235.337 244.962C235.325 244.97 235.316 244.982 235.311 244.995C234.996 245.864 234.544 246.677 233.972 247.403C233.697 247.753 233.391 248.08 233.059 248.378C232.719 248.695 232.355 248.982 232.022 249.291C231.96 249.314 232.038 249.407 232.115 249.384Z" fill="white"/>
<path d="M232.857 252.886C233.542 252.166 233.965 251.237 234.057 250.247C234.057 250.17 233.957 250.154 233.941 250.247C233.822 250.704 233.656 251.148 233.446 251.571C233.217 251.988 232.958 252.389 232.672 252.77C232.656 252.795 232.651 252.825 232.658 252.853C232.664 252.881 232.682 252.906 232.707 252.921C232.731 252.937 232.761 252.942 232.789 252.935C232.818 252.928 232.842 252.911 232.857 252.886Z" fill="#FF855E"/>
<path d="M237.95 243.228C238.012 243.336 238.198 243.228 238.152 243.119C237.921 242.548 237.732 241.961 237.587 241.362C237.446 240.751 237.394 240.123 237.432 239.497C237.432 239.427 237.316 239.42 237.308 239.497C237.106 240.777 237.332 242.089 237.95 243.228Z" fill="#FF855E"/>
<path d="M242.983 235.318C243.169 235.372 243.239 235.109 243.084 235.016C242.366 234.634 241.724 234.125 241.187 233.515C240.653 232.873 240.314 232.091 240.212 231.262C240.212 231.246 240.206 231.23 240.194 231.219C240.182 231.207 240.167 231.2 240.15 231.2C240.134 231.2 240.118 231.207 240.107 231.219C240.095 231.23 240.088 231.246 240.088 231.262C240.166 232.965 241.265 234.877 242.983 235.318Z" fill="#FF855E"/>
<path d="M332.88 180.17C349.405 182.577 364.838 168.49 368.941 159.907C373.043 151.323 375.86 139.535 374.707 136.587C373.554 133.638 365.736 149.148 365.736 149.148C365.736 149.148 373.422 122.5 370.736 118.529C368.05 114.559 354.978 143.878 354.978 143.878C354.978 143.878 360.79 123.088 358.004 122.663C353.492 121.974 344.699 148.258 344.699 148.258C344.699 148.258 347.284 137.345 344.599 137.988C340.303 139.025 326.805 179.288 332.88 180.17Z" fill="#263238"/>
<path d="M332.882 180.167C343.493 181.645 353.911 176.491 361.519 169.378C364.104 167.001 366.333 164.264 368.137 161.251C369.755 158.137 371.089 154.883 372.123 151.53C373.225 148.201 374.046 144.786 374.576 141.321C374.847 139.837 374.847 138.316 374.576 136.832C374.182 135.168 371.48 139.572 371.117 140.082C369.251 143.047 367.595 146.15 366.008 149.27L365.482 149.068C366.635 144.664 373.33 120.709 370.126 118.519C369.352 118.689 368.71 119.525 368.152 120.152C365.768 123.186 363.973 126.661 362.138 130.059C359.731 134.641 357.495 139.347 355.343 144.037L354.669 143.797C355.807 139.672 356.844 135.516 357.657 131.329C358.096 129.251 358.373 127.141 358.485 125.021C358.485 124.355 358.532 123.473 358.09 123.008C355.869 122.691 353.091 128.705 352.123 130.493C349.368 136.28 346.954 142.224 344.894 148.294L344.584 148.201C347.51 135.462 344.515 134.587 339.468 146.561C337.471 150.763 327.588 178.542 332.92 180.136L332.882 180.167ZM332.882 180.167C327.526 178.619 337.363 150.694 339.314 146.545C344.375 134.053 347.773 135.392 344.855 148.31L344.546 148.225C346.555 142.109 348.92 136.116 351.628 130.276C352.536 128.315 353.611 126.435 354.84 124.657C355.444 123.69 356.315 122.918 357.347 122.435C360.513 121.476 358.446 129.912 358.276 131.452C357.502 135.678 356.442 139.842 355.32 143.983L354.654 143.743C356.782 138.999 359.019 134.308 361.426 129.695C363.663 125.74 365.583 121.375 368.98 118.24C374.22 114.99 370.242 132.095 369.855 134.107C368.756 139.192 367.44 144.223 365.985 149.223L365.467 149.014C366.241 147.76 373.624 132.706 374.94 136.708C375.228 138.242 375.228 139.817 374.94 141.352C373.792 148.317 371.548 155.057 368.292 161.321C361.063 172.783 346.813 182.056 332.897 180.144L332.882 180.167Z" fill="#455A64"/>
<path d="M368.941 159.9C367.638 162.44 365.987 164.784 364.034 166.866C368.624 161.526 372.803 146.433 370.892 145.775C368.98 145.117 362.409 156.255 362.409 156.255C362.409 156.255 364.576 142.486 361.751 141.781C358.926 141.077 352.765 151.99 352.765 151.99C352.765 151.99 353.074 141.023 351.217 141.216C349.359 141.41 343.802 154.544 343.802 154.544C343.802 154.544 343.949 146.719 342.254 146.804C340.559 146.89 336.759 154.421 335.288 157.64C338.384 147.873 342.509 138.538 344.576 138.058C347.192 137.431 344.808 147.756 344.684 148.306C344.978 147.439 353.546 122.052 357.981 122.764C360.698 123.175 355.234 142.942 354.963 143.941C355.489 142.787 368.074 114.715 370.714 118.616C373.353 122.517 365.915 148.523 365.714 149.219C365.938 148.794 373.546 133.74 374.676 136.681C375.806 139.622 373.043 151.317 368.941 159.9Z" fill="#EBEBEB"/>
<path d="M233.587 217.223C229.09 221.131 225.847 230.133 227.093 231.836C228.339 233.538 231.574 225.295 231.574 225.295C231.574 225.295 228.014 243.26 231.334 243.136C233.494 243.058 235.491 233.538 235.491 233.538C235.491 233.538 236.226 248.29 239.972 247.47C242.859 246.828 240.746 233.461 240.746 233.461C240.746 233.461 243.548 241.069 245.707 240.187C247.867 239.304 243.548 228.02 243.548 228.02C243.548 228.02 245.707 232.346 246.907 231.34C248.107 230.334 245.413 219.877 242.48 217.23C239.546 214.583 233.587 217.223 233.587 217.223Z" fill="#EBEBEB"/>
<path d="M233.617 222.257C233.733 225.353 233.493 230.283 234.492 230.16C235.49 230.036 236.125 222.257 236.125 222.257C236.125 222.257 236.744 232.791 237.75 232.791C238.757 232.791 239.887 223.387 239.887 223.387C239.887 223.387 240.289 230.028 241.435 229.78C242.58 229.533 243.308 201.963 242.936 193.403C242.472 182.497 250.304 179.866 262.216 180.493C274.128 181.12 313.369 183.248 324.135 183.124C334.901 183 345.033 180.369 345.327 178.736C345.621 177.103 329.406 134.727 314.731 122.691C300.056 110.656 277.874 99.7581 250.041 101.647C222.209 103.535 216.466 110.934 219.322 132.862C220.87 144.773 229.887 169.045 232.673 191.228C234.407 205.02 233.346 215.136 233.617 222.257Z" fill="#263238"/>
<path d="M268.214 121.639C261.395 129.131 261.333 138.489 277.997 160.339C294.661 182.188 316.991 196.321 319.746 196.066C322.502 195.81 314.328 187.42 314.328 187.42C314.328 187.42 331.256 203.589 333.632 202.467C336.008 201.344 325.892 184.913 325.892 184.913C325.892 184.913 332.695 192.652 334.119 191.43C335.543 190.207 327.153 175.129 327.153 175.129C327.153 175.129 331.023 181.275 332.672 180.547C335.087 179.417 330.443 151.469 320.342 134.882C310.242 118.295 273.988 115.308 268.214 121.639Z" fill="#263238"/>
<path d="M268.215 121.641C262.897 127.168 263.099 134.172 266.001 140.852C268.671 147.198 272.626 152.91 276.705 158.429C284.978 169.447 294.771 179.238 305.792 187.508C309.41 190.314 313.26 192.808 317.301 194.961C318.601 195.549 321.124 196.858 319.561 194.187C317.98 191.816 316.164 189.61 314.143 187.601L314.577 187.221C318.617 191.006 322.727 194.737 327.045 198.197C328.781 199.676 330.68 200.953 332.703 202.005C333.083 202.175 333.57 202.237 333.601 202.105C333.712 201.76 333.712 201.389 333.601 201.045C332.982 198.852 332.112 196.738 331.008 194.745C329.321 191.478 327.471 188.274 325.59 185.116L326.186 184.675C328.085 186.952 330.244 188.999 332.618 190.774C332.974 190.991 333.57 191.339 333.895 191.192C334.112 190.317 333.493 189.056 333.214 188.158C331.362 183.748 329.254 179.45 326.898 175.286L327.409 174.985C327.943 175.836 332.231 182.198 332.827 179.737C333.071 178.007 333.071 176.251 332.827 174.52C332.298 169.821 331.434 165.165 330.242 160.588C327.866 151.463 324.762 142.377 319.801 134.319C317.185 130.38 313.292 127.446 309.135 125.248C300.73 120.898 291.202 118.855 281.767 118.615C279.401 118.561 277.034 118.708 274.693 119.056C272.371 119.466 269.91 119.97 268.199 121.657L268.215 121.641ZM268.215 121.641C269.917 119.946 272.417 119.428 274.701 119.002C277.046 118.645 279.418 118.484 281.79 118.522C294.848 118.84 312.154 122.872 320.064 134.141C325.103 142.222 328.245 151.308 330.683 160.457C331.217 162.531 337.239 186.703 330.196 179.528C328.964 178.22 327.86 176.797 326.898 175.279L327.402 174.969C329.794 179.147 331.937 183.463 333.818 187.895C334.273 188.9 334.536 189.981 334.592 191.084C333.725 194.45 326.628 186.223 325.59 185.139L326.186 184.698C327.858 187.593 335.691 200 334.096 202.5C332.154 205.077 316.434 189.613 314.135 187.577L314.577 187.221C316.606 189.274 318.421 191.527 319.994 193.947C322.99 199.907 312.51 192.794 311.125 191.881C293.956 180.2 279.549 164.908 268.911 147.075C264.314 139.041 260.769 129.226 268.191 121.641H268.215Z" fill="#455A64"/>
<path d="M325.892 184.901C326.171 185.35 336.016 201.332 333.632 202.439C331.248 203.546 315.536 188.546 314.398 187.47C315.172 188.244 322.332 195.806 319.716 196.046C317.556 196.247 303.369 187.594 289.321 173.337C295.513 179.134 307.34 186.588 309.259 186.495C311.178 186.402 309.336 180.86 309.259 180.628C309.576 180.884 320.172 189.374 322.641 188.709C325.11 188.043 320.768 176.975 320.768 176.975C320.768 176.975 326.256 182.393 327.502 182.076C328.748 181.758 323.794 169.521 323.632 169.181C323.756 169.312 328.152 174.018 329.599 173.6C331.921 172.927 330.861 162.525 330.861 162.525L331.031 162.888C333.268 172.362 333.88 179.916 332.641 180.504C331.132 181.216 327.579 175.86 327.169 175.179C327.75 176.24 335.474 190.21 334.135 191.433C332.796 192.656 326.186 185.187 325.892 184.901Z" fill="#EBEBEB"/>
<path d="M238.724 10.6594C237.532 17.8343 235.883 26.6113 234.622 33.1515C234.428 34.1422 234.25 35.0787 234.072 35.9533C233.894 36.8279 233.731 37.7335 233.577 38.492C233.577 38.5617 233.577 38.6236 233.538 38.6855C233.476 39.026 233.406 39.3511 233.352 39.653C233.298 39.9548 233.259 40.1019 233.221 40.3109C233.182 40.5198 233.166 40.5663 233.143 40.6901L232.764 42.6019L223.948 41.5105V41.4099C224.01 41.0539 224.25 39.7846 224.606 37.8728C224.645 37.6948 224.676 37.509 224.715 37.3155L224.807 36.8202C224.846 36.5725 224.893 36.3248 224.947 36.0462C225.094 35.2722 225.249 34.3821 225.419 33.4533C226.595 27.0447 228.228 17.9117 229.451 10.2337C232.663 10.3266 235.759 10.4736 238.724 10.6594Z" fill="#FF855E"/>
<path opacity="0.7" d="M238.724 10.6594C237.532 17.8343 235.883 26.6113 234.622 33.1515C234.428 34.1422 234.25 35.0787 234.072 35.9533C233.894 36.8279 233.731 37.7335 233.577 38.492C233.577 38.5617 233.577 38.6236 233.538 38.6855C233.476 39.026 233.406 39.3511 233.352 39.653C233.298 39.9548 233.259 40.1019 233.221 40.3109C233.182 40.5198 233.166 40.5663 233.143 40.6901L232.764 42.6019L223.948 41.5105V41.4099C224.01 41.0539 224.25 39.7846 224.606 37.8728C224.645 37.6948 224.676 37.509 224.715 37.3155L224.807 36.8202C224.846 36.5725 224.893 36.3248 224.947 36.0462C225.094 35.2722 225.249 34.3821 225.419 33.4533C226.595 27.0447 228.228 17.9117 229.451 10.2337C232.663 10.3266 235.759 10.4736 238.724 10.6594Z" fill="white"/>
<path d="M234.08 35.9543C233.306 39.9635 232.764 42.6028 232.764 42.6028L223.948 41.5115C223.948 41.5115 224.351 39.3908 224.962 36.0936L234.08 35.9543Z" fill="#FF855E"/>
<path d="M237.734 30.0998C236.724 30.4062 235.796 30.9352 235.018 31.6478C234.643 32.0545 234.342 32.5233 234.127 33.0332C234.019 33.2964 233.903 33.5596 233.81 33.8072C233.687 34.1252 233.545 34.4354 233.384 34.736C233.346 34.8057 233.454 34.8599 233.493 34.7902C233.617 34.5184 233.768 34.2592 233.942 34.0162L234.453 33.3351C234.751 32.9066 235.074 32.4957 235.42 32.1045C236.15 31.414 236.97 30.8256 237.858 30.3552C237.878 30.3324 237.89 30.3042 237.894 30.2744C237.898 30.2445 237.893 30.2141 237.88 30.187C237.867 30.1598 237.846 30.1372 237.82 30.1217C237.794 30.1062 237.764 30.0986 237.734 30.0998Z" fill="#FF855E"/>
<path d="M236.798 28.0701C236.064 28.4948 235.425 29.0635 234.917 29.7419C234.667 30.0745 234.439 30.4236 234.236 30.7867C234.044 31.1564 233.878 31.5392 233.74 31.9323C233.74 32.0019 233.826 32.0406 233.856 31.9787C234.054 31.6213 234.271 31.275 234.507 30.9415C234.74 30.6025 234.999 30.2817 235.281 29.9818C235.811 29.3736 236.383 28.8021 236.991 28.2713C237.069 28.1707 236.914 27.9927 236.798 28.0701Z" fill="white"/>
<path d="M224.856 23.0078C224.662 22.9304 224.507 23.2323 224.662 23.3561C226.288 24.6796 227.65 26.4521 227.758 28.5883C227.758 28.6047 227.765 28.6204 227.776 28.6321C227.788 28.6437 227.804 28.6502 227.82 28.6502C227.837 28.6502 227.852 28.6437 227.864 28.6321C227.875 28.6204 227.882 28.6047 227.882 28.5883C228.106 26.3747 227.046 23.8282 224.856 23.0078Z" fill="#FF855E"/>
<path d="M230.737 22.4953C230.627 21.6978 230.264 20.9569 229.7 20.3823C229.676 20.3614 229.646 20.3486 229.615 20.3458C229.584 20.343 229.552 20.3504 229.525 20.3669C229.498 20.3834 229.478 20.4081 229.466 20.4373C229.454 20.4666 229.452 20.4989 229.46 20.5294C229.754 21.2122 230.012 21.9097 230.234 22.6192C230.331 22.9745 230.401 23.3368 230.443 23.7027C230.443 23.8962 230.443 24.082 230.482 24.2755C230.466 24.4428 230.466 24.6112 230.482 24.7786C230.488 24.7882 230.496 24.796 230.507 24.8015C230.517 24.8069 230.528 24.8097 230.54 24.8097C230.551 24.8097 230.562 24.8069 230.573 24.8015C230.583 24.796 230.591 24.7882 230.598 24.7786C230.744 24.4307 230.817 24.0568 230.814 23.6795C230.834 23.2831 230.808 22.8858 230.737 22.4953Z" fill="white"/>
<path d="M238.331 17.2186C237.239 17.8056 236.303 18.6438 235.599 19.6638C234.896 20.6839 234.444 21.8567 234.283 23.0855C234.283 23.1706 234.399 23.2016 234.43 23.1242C234.863 22.034 235.416 20.9956 236.079 20.0282C236.775 19.0665 237.58 18.1887 238.478 17.4121C238.579 17.3038 238.447 17.1644 238.331 17.2186Z" fill="#FF855E"/>
<path d="M235.992 15.8362C235.445 16.2504 235.015 16.7999 234.745 17.4307C234.607 17.7324 234.496 18.0458 234.413 18.3672C234.312 18.6988 234.258 19.0425 234.25 19.3889C234.25 19.4663 234.358 19.474 234.389 19.3889C234.49 19.087 234.552 18.7697 234.668 18.4755C234.788 18.1637 234.93 17.8611 235.094 17.57C235.396 17.005 235.798 16.5096 236.154 15.9678C236.216 15.8904 236.084 15.7666 235.992 15.8362Z" fill="white"/>
<path d="M230.938 15.8519C230.881 15.3022 230.748 14.7631 230.543 14.2498C230.122 13.2335 229.401 12.3696 228.477 11.773C228.368 11.7033 228.252 11.8659 228.345 11.951C229.045 12.6199 229.624 13.4056 230.055 14.273C230.265 14.6997 230.434 15.1455 230.559 15.6042C230.628 15.8588 230.682 16.1173 230.721 16.3782C230.721 16.5872 230.845 16.9664 230.721 17.1522C230.675 17.2141 230.721 17.2915 230.806 17.2373C230.868 17.1654 230.915 17.0818 230.945 16.9914C230.974 16.901 230.985 16.8057 230.976 16.711C230.987 16.4241 230.974 16.1368 230.938 15.8519Z" fill="#FF855E"/>
<path d="M229.886 32.8652C229.845 32.3246 229.621 31.8141 229.251 31.4178C229.135 31.3172 228.91 31.4178 228.972 31.5881C229.184 32.0096 229.363 32.447 229.506 32.8962C229.625 33.3666 229.651 33.8554 229.584 34.3358C229.584 34.3977 229.669 34.4519 229.692 34.3822C229.879 33.8999 229.946 33.3791 229.886 32.8652Z" fill="white"/>
<path d="M225.939 32.5069C225.589 31.9295 225.119 31.4334 224.562 31.0518C224.438 30.9667 224.337 31.1524 224.415 31.2453C224.817 31.7364 225.187 32.2535 225.521 32.7933C225.856 33.3258 226.155 33.8791 226.419 34.4496C226.419 34.5115 226.559 34.4496 226.551 34.4032C226.488 33.734 226.279 33.0867 225.939 32.5069Z" fill="#FF855E"/>
<path d="M241.317 65.5157C240.411 67.3733 242.625 74.6952 240.814 76.4754C235.829 81.3825 225.822 81.3824 220.303 80.3453C214.785 79.3082 205.466 75.7014 202.594 69.2928C201.557 66.9708 206.271 60.9646 206.108 58.9058C205.946 56.847 201.224 55.4306 202.656 48.3486C204.088 41.2667 211.789 37.8456 216.216 37.5825C224.255 37.2331 232.266 38.7373 239.63 41.9787C243.654 43.8363 249.599 49.8192 248.36 56.9322C247.122 64.0451 242.215 63.6659 241.317 65.5157Z" fill="#FF855E"/>
<path opacity="0.7" d="M241.317 65.5157C240.411 67.3733 242.625 74.6952 240.814 76.4754C235.829 81.3825 225.822 81.3824 220.303 80.3453C214.785 79.3082 205.466 75.7014 202.594 69.2928C201.557 66.9708 206.271 60.9646 206.108 58.9058C205.946 56.847 201.224 55.4306 202.656 48.3486C204.088 41.2667 211.789 37.8456 216.216 37.5825C224.255 37.2331 232.266 38.7373 239.63 41.9787C243.654 43.8363 249.599 49.8192 248.36 56.9322C247.122 64.0451 242.215 63.6659 241.317 65.5157Z" fill="white"/>
<path d="M240.204 60.1458L207.766 54.0933C208.176 52.8858 218.548 47.6537 225.521 48.9617C232.495 50.2698 240.274 58.8765 240.204 60.1458Z" fill="#FF855E"/>
<path opacity="0.1" d="M240.204 60.1469L207.766 54.0944C208.093 53.6438 208.523 53.2777 209.02 53.0263C210.942 52.5367 212.934 52.3771 214.91 52.5541C218.679 53.0959 221.404 55.2089 224.252 55.743C227.1 56.277 230.405 55.294 234.113 56.1609C236.014 56.7177 237.809 57.5888 239.422 58.7383C239.792 59.1386 240.06 59.6216 240.204 60.1469Z" fill="black"/>
<path d="M242.472 61.5523C242.341 61.7535 239.175 60.0972 236.427 60.1823C232.449 60.3061 228.393 64.7488 222.743 63.6885C217.093 62.6281 214.934 57.0167 211.265 55.4532C208.742 54.3774 205.181 54.7799 205.135 54.5322C205.089 54.2845 210.986 52.783 214.733 53.3248C218.479 53.8666 221.188 56.1963 224.02 56.7303C226.853 57.2644 230.212 56.1034 233.927 56.9393C237.643 57.7752 242.596 61.3433 242.472 61.5523Z" fill="#FF855E"/>
<path opacity="0.1" d="M220.304 61.4749C218.981 61.6839 217.456 58.7814 218.957 58.4641C220.459 58.1468 221.008 61.3666 220.304 61.4749Z" fill="black"/>
<path opacity="0.1" d="M225.815 62.5188C226.976 63.1922 229.445 61.0405 228.137 60.1969C226.829 59.3532 225.203 62.1628 225.815 62.5188Z" fill="black"/>
<path d="M235.303 67.0781C235.303 67.14 235.442 67.0316 235.45 66.9697C235.744 65.4604 236.324 63.7809 237.772 63.5874C237.818 63.5874 237.834 63.51 237.772 63.5023C236.092 63.3862 235.341 65.5998 235.303 67.0781Z" fill="#263238"/>
<path d="M237.075 69.7649C240.628 70.5853 241.642 65.0126 238.345 64.2464C235.047 63.4801 234.08 69.076 237.075 69.7649Z" fill="#263238"/>
<path d="M238.477 69.7486C239.058 69.5087 239.669 69.0211 240.304 69.0753C240.938 69.1294 241.457 69.8493 241.805 70.5458C241.805 70.6155 241.906 70.5458 241.921 70.4994C242.154 69.3771 241.921 68.1774 240.768 67.7363C239.615 67.2951 238.709 68.2161 238.214 69.2842C238.121 69.4932 238.245 69.8415 238.477 69.7486Z" fill="#263238"/>
<path d="M211.109 62.5348C211.109 62.589 211 62.4419 211.008 62.38C211.287 60.832 211.349 59.0906 210.056 58.3785C210.01 58.3785 210.056 58.2779 210.056 58.2934C211.72 58.781 211.635 61.1416 211.109 62.5348Z" fill="#263238"/>
<path d="M208.486 64.3852C204.879 63.8589 205.955 58.3017 209.306 58.7815C212.658 59.2614 211.52 64.8264 208.486 64.3852Z" fill="#263238"/>
<path d="M207.185 63.8611C206.736 63.4354 206.342 62.7543 205.73 62.5763C205.119 62.3983 204.368 62.8936 203.795 63.4045C203.733 63.4509 203.687 63.4045 203.702 63.3193C203.896 62.1816 204.538 61.1057 205.777 61.1599C207.015 61.2141 207.526 62.3518 207.596 63.536C207.611 63.7605 207.371 64.0391 207.185 63.8611Z" fill="#263238"/>
<path d="M220.041 73.0118C219.391 74.985 218.518 76.878 217.44 78.6541C216.398 80.4425 215.14 82.0958 213.694 83.5767C213.64 83.6309 213.694 83.6928 213.764 83.6541C215.415 82.3272 216.833 80.7341 217.959 78.9405C219.03 77.1179 219.774 75.1219 220.157 73.0427C220.157 73.0289 220.153 73.0154 220.145 73.0044C220.136 72.9934 220.125 72.9854 220.111 72.9819C220.098 72.9783 220.084 72.9793 220.071 72.9847C220.058 72.9902 220.048 72.9997 220.041 73.0118Z" fill="#FF855E"/>
<path d="M221.365 75.8639C220.668 81.0651 218.099 85.9876 214.941 90.1207C214.933 90.1288 214.926 90.1385 214.922 90.1491C214.917 90.1597 214.915 90.1711 214.915 90.1826C214.915 90.1941 214.917 90.2055 214.922 90.2161C214.926 90.2268 214.933 90.2364 214.941 90.2445C214.949 90.2527 214.958 90.2591 214.969 90.2635C214.98 90.2679 214.991 90.2702 215.003 90.2702C215.014 90.2702 215.026 90.2679 215.036 90.2635C215.047 90.2591 215.056 90.2527 215.065 90.2445C219.089 86.4907 221.032 81.2818 221.481 75.8716C221.489 75.8097 221.373 75.771 221.365 75.8639Z" fill="#FF855E"/>
<path d="M220.057 77.2312C219.713 78.2822 219.265 79.2961 218.718 80.2575C218.182 81.2263 217.568 82.1503 216.884 83.0206C216.884 83.067 216.884 83.1135 216.938 83.0748C217.758 82.3023 218.453 81.4066 218.997 80.42C219.523 79.4222 219.918 78.3608 220.173 77.2621C220.173 77.2483 220.169 77.2348 220.161 77.2238C220.152 77.2128 220.141 77.2049 220.127 77.2013C220.114 77.1978 220.1 77.1988 220.087 77.2042C220.074 77.2096 220.064 77.2191 220.057 77.2312Z" fill="white"/>
<path d="M226.286 82.608C224.888 80.8536 223.866 78.8303 223.283 76.6638C223.283 76.6096 223.175 76.6173 223.183 76.6638C223.268 77.8062 223.576 78.9209 224.088 79.9455C224.627 80.9755 225.339 81.905 226.194 82.6931C226.256 82.7705 226.341 82.6776 226.286 82.608Z" fill="#FF855E"/>
<path d="M227.611 76.5374C227.263 75.8021 226.946 75.0746 226.667 74.3161C226.367 73.5713 226.164 72.7908 226.063 71.9941C226.063 71.9012 225.924 71.909 225.908 71.9941C225.756 72.8219 225.82 73.675 226.094 74.4709C226.4 75.2721 226.863 76.0038 227.456 76.6225C227.518 76.6612 227.658 76.6071 227.611 76.5374Z" fill="white"/>
<path d="M217.827 67.7731C217.696 67.9821 217.533 68.1601 217.409 68.369L216.991 69.0037C216.713 69.4217 216.426 69.8241 216.148 70.2266C215.869 70.6291 215.598 71.0006 215.319 71.4031C215.041 71.8056 214.716 72.1771 214.445 72.6182C214.437 72.6356 214.434 72.655 214.437 72.674C214.44 72.6929 214.449 72.7104 214.463 72.7239C214.477 72.7375 214.494 72.7466 214.513 72.7498C214.532 72.7531 214.551 72.7504 214.569 72.7421C215.364 72.1204 216.051 71.3726 216.604 70.5285C216.894 70.1117 217.152 69.6746 217.378 69.2204C217.494 68.9882 217.603 68.7638 217.703 68.5316C217.804 68.2994 217.858 68.0595 217.943 67.8195C217.967 67.7499 217.866 67.7189 217.827 67.7731Z" fill="white"/>
<path d="M215.233 74.4391C215.05 74.6213 214.853 74.7894 214.645 74.9422C214.444 75.1202 214.227 75.2905 214.01 75.4531C213.598 75.7568 213.166 76.0335 212.718 76.2812C211.815 76.7906 210.866 77.2155 209.885 77.5506C209.865 77.5506 209.845 77.5587 209.83 77.5732C209.816 77.5877 209.808 77.6074 209.808 77.628C209.808 77.6485 209.816 77.6682 209.83 77.6827C209.845 77.6972 209.865 77.7054 209.885 77.7054C210.96 77.6226 212.001 77.2915 212.927 76.7379C213.383 76.4608 213.811 76.1393 214.204 75.7781C214.397 75.6001 214.591 75.4066 214.777 75.2054C214.962 75.0041 215.109 74.741 215.295 74.5243C215.373 74.4624 215.28 74.3772 215.233 74.4391Z" fill="#FF855E"/>
<path d="M243.051 77.4309C242.808 77.2182 242.55 77.0241 242.277 76.8505C241.983 76.6415 241.705 76.4093 241.426 76.1771C240.882 75.717 240.365 75.226 239.878 74.7065C239.395 74.1881 238.946 73.6401 238.531 73.0657C238.138 72.4739 237.782 71.8587 237.463 71.2236C237.424 71.1539 237.316 71.2236 237.332 71.2777C237.71 72.714 238.424 74.0402 239.414 75.1477C239.898 75.6778 240.447 76.1458 241.047 76.5409C241.629 77.0028 242.301 77.3377 243.02 77.5238C243.029 77.5207 243.037 77.5156 243.044 77.5088C243.051 77.5021 243.056 77.4939 243.059 77.485C243.062 77.476 243.063 77.4665 243.061 77.4571C243.06 77.4477 243.057 77.4388 243.051 77.4309Z" fill="#FF855E"/>
<path d="M235.861 75.095C234.695 73.466 233.902 71.6004 233.539 69.6307C233.529 69.6038 233.51 69.5811 233.485 69.5666C233.46 69.5522 233.431 69.5468 233.403 69.5513C233.374 69.5559 233.348 69.5702 233.329 69.5917C233.31 69.6132 233.3 69.6407 233.299 69.6694C233.409 71.7414 234.283 73.6989 235.752 75.1647C235.806 75.2189 235.899 75.1492 235.861 75.095Z" fill="white"/>
<path d="M239.335 80.1378C238.355 79.4248 237.421 78.6492 236.541 77.8159C235.679 76.9427 234.887 76.0033 234.173 75.0063C234.163 74.9915 234.151 74.9787 234.137 74.9686C234.123 74.9585 234.107 74.9513 234.09 74.9473C234.074 74.9434 234.056 74.9428 234.039 74.9456C234.022 74.9484 234.005 74.9546 233.991 74.9637C233.976 74.9729 233.963 74.9848 233.953 74.9989C233.943 75.013 233.936 75.0289 233.932 75.0458C233.928 75.0627 233.927 75.0802 233.93 75.0973C233.933 75.1145 233.939 75.1309 233.948 75.1456C234.507 76.284 235.273 77.3078 236.208 78.1642C237.103 79.033 238.153 79.7261 239.304 80.2075C239.335 80.2617 239.381 80.1765 239.335 80.1378Z" fill="#FF855E"/>
<path d="M209.601 65.8619C207.208 67.8767 204.212 69.0368 201.087 69.159C200.986 69.159 200.963 69.3138 201.087 69.3293C204.283 69.8247 207.851 68.6947 209.771 65.9857C209.779 65.916 209.67 65.8077 209.601 65.8619Z" fill="#FF855E"/>
<path d="M212.34 64.5608C212.011 65.2689 211.601 65.9364 211.118 66.55C210.647 67.1672 210.13 67.7469 209.57 68.2837C209.484 68.3611 209.57 68.4927 209.693 68.4385C210.391 68.0227 210.994 67.4666 211.466 66.8054C211.926 66.1384 212.262 65.3937 212.457 64.6073C212.472 64.5453 212.41 64.4989 212.34 64.5608Z" fill="white"/>
<path d="M209.483 69.5718C208.732 70.4355 207.849 71.1748 206.867 71.7622C205.903 72.3698 204.862 72.8437 203.771 73.1709C203.732 73.1709 203.771 73.2405 203.771 73.2328C204.943 73.0932 206.071 72.6997 207.076 72.0795C208.065 71.4357 208.921 70.6081 209.599 69.6415C209.622 69.5718 209.529 69.5176 209.483 69.5718Z" fill="#FF855E"/>
<path d="M232.038 75.9729C231.71 75.3304 231.421 74.6687 231.172 73.9915C231.172 73.9141 231.048 73.9915 231.055 73.9915C231.183 74.7197 231.407 75.4276 231.721 76.0968C232.044 76.7554 232.473 77.3568 232.99 77.8769C233.029 77.9234 233.106 77.8769 233.068 77.815C232.696 77.2423 232.363 76.6076 232.038 75.9729Z" fill="white"/>
<path d="M228.989 72.8219C227.791 70.9933 226.948 68.9559 226.504 66.8157C226.504 66.7538 226.411 66.777 226.404 66.8157C226.332 67.9521 226.529 69.0893 226.976 70.1362C227.428 71.1702 228.08 72.1042 228.896 72.8838C228.906 72.8898 228.917 72.8928 228.929 72.8924C228.941 72.8921 228.952 72.8885 228.962 72.8821C228.971 72.8756 228.979 72.8665 228.984 72.8559C228.989 72.8452 228.99 72.8334 228.989 72.8219Z" fill="#FF855E"/>
<path d="M249.955 56.2499C249.101 57.1745 248.194 58.048 247.238 58.866C246.264 59.6762 245.202 60.3746 244.072 60.9481C243.995 60.9868 244.072 61.1183 244.134 61.0951C246.648 60.3314 248.768 58.6223 250.047 56.3273C250.078 56.2654 250.001 56.2035 249.955 56.2499Z" fill="#FF855E"/>
<path d="M207.045 56.4189C206.573 56.2796 206.07 56.21 205.59 56.0861C205.11 55.9623 204.623 55.8307 204.143 55.6759C203.663 55.5211 203.168 55.3586 202.688 55.1573C202.208 54.9561 201.775 54.7239 201.31 54.5381C201.293 54.5258 201.271 54.5209 201.25 54.5246C201.229 54.5282 201.21 54.5401 201.198 54.5575C201.186 54.5749 201.181 54.5966 201.184 54.6176C201.188 54.6387 201.2 54.6574 201.217 54.6697C202.004 55.3832 202.94 55.912 203.957 56.2177C204.948 56.5735 206.011 56.6824 207.053 56.535C207.115 56.4963 207.1 56.4189 207.045 56.4189Z" fill="#FF855E"/>
<path d="M204.399 53.8151C203.704 53.3037 203.064 52.7228 202.487 52.0814C201.937 51.418 201.452 50.7025 201.04 49.9452C200.993 49.86 200.885 49.9452 200.9 50.0071C201.079 50.9053 201.491 51.7405 202.096 52.4282C202.701 53.1159 203.477 53.6317 204.345 53.9235C204.358 53.9271 204.373 53.9258 204.386 53.9199C204.399 53.9141 204.409 53.9039 204.416 53.8912C204.422 53.8785 204.424 53.8641 204.421 53.8502C204.418 53.8363 204.41 53.824 204.399 53.8151Z" fill="#FF855E"/>
<path d="M248.671 49.9935C248.671 49.9239 248.54 49.9393 248.54 49.9935C248.59 51.1502 248.443 52.3069 248.106 53.4145C247.794 54.5579 247.228 55.6161 246.45 56.5105C246.443 56.5224 246.44 56.5363 246.441 56.5501C246.443 56.5639 246.449 56.5768 246.459 56.5866C246.469 56.5964 246.482 56.6027 246.495 56.6043C246.509 56.606 246.523 56.6029 246.535 56.5956C246.982 56.1811 247.389 55.725 247.75 55.2334C248.08 54.7177 248.34 54.1608 248.524 53.5771C248.926 52.4232 248.977 51.1764 248.671 49.9935Z" fill="#FF855E"/>
<path d="M215.203 38.4804C214.979 38.2413 214.718 38.04 214.429 37.8844C214.14 37.7253 213.83 37.608 213.508 37.5362C213.464 37.5187 213.415 37.5195 213.371 37.5384C213.328 37.5572 213.294 37.5926 213.276 37.6368C213.259 37.6809 213.259 37.7302 213.278 37.7737C213.297 37.8173 213.333 37.8515 213.377 37.869C213.645 37.9935 213.904 38.1384 214.151 38.3024C214.391 38.4649 214.631 38.6197 214.855 38.8055C215.32 39.1885 215.717 39.6462 216.031 40.16C216.042 40.1691 216.054 40.175 216.068 40.177C216.081 40.179 216.095 40.177 216.107 40.1712C216.12 40.1654 216.13 40.1562 216.137 40.1445C216.144 40.1329 216.148 40.1194 216.148 40.1058C215.974 39.4936 215.649 38.9348 215.203 38.4804Z" fill="#FF855E"/>
<path d="M205.188 41.2279C205.192 41.2022 205.187 41.1759 205.174 41.1533C205.161 41.1306 205.141 41.113 205.117 41.1032C205.093 41.0934 205.066 41.0919 205.041 41.0991C205.016 41.1063 204.994 41.1217 204.979 41.1428C204.494 42.0202 204.256 43.0125 204.29 44.0143C204.336 44.9991 204.6 45.9614 205.064 46.8316C205.073 46.8415 205.084 46.8484 205.097 46.8513C205.11 46.8542 205.123 46.853 205.135 46.8479C205.147 46.8427 205.157 46.8339 205.164 46.8226C205.171 46.8113 205.174 46.7982 205.172 46.7852C204.663 44.9671 204.668 43.0432 205.188 41.2279Z" fill="#FF855E"/>
<path d="M206.536 45.6999C206.536 45.6424 206.513 45.5873 206.472 45.5466C206.431 45.506 206.376 45.4832 206.319 45.4832C206.261 45.4832 206.206 45.506 206.166 45.5466C206.125 45.5873 206.102 45.6424 206.102 45.6999C206.083 46.4025 206.211 47.1013 206.478 47.7516C206.744 48.402 207.144 48.9896 207.65 49.4769C207.704 49.5234 207.782 49.4769 207.743 49.3995C207.086 48.2644 206.675 47.004 206.536 45.6999Z" fill="white"/>
<path d="M223.832 42.1748C223.813 42.1456 223.783 42.1243 223.749 42.1149C223.715 42.1054 223.679 42.1085 223.647 42.1235C223.616 42.1385 223.59 42.1644 223.576 42.1966C223.561 42.2287 223.559 42.2649 223.569 42.2987C223.807 43.1598 223.998 44.0331 224.142 44.9147C224.258 45.8166 224.258 46.7296 224.142 47.6314C224.142 47.6934 224.227 47.7475 224.258 47.6779C224.645 46.7962 224.808 45.8329 224.734 44.8731C224.66 43.9133 224.35 42.9865 223.832 42.1748Z" fill="#FF855E"/>
<path d="M227.888 40.5376C227.297 41.1985 226.846 41.9727 226.564 42.8131C226.297 43.6603 226.151 44.5411 226.131 45.4292C226.131 45.4457 226.137 45.4614 226.149 45.473C226.161 45.4846 226.176 45.4911 226.193 45.4911C226.209 45.4911 226.225 45.4846 226.237 45.473C226.248 45.4614 226.255 45.4457 226.255 45.4292C226.415 44.5832 226.661 43.7559 226.99 42.9602C227.307 42.1862 227.632 41.4122 228.012 40.6382C228.019 40.5531 227.888 40.468 227.888 40.5376Z" fill="white"/>
<path d="M228.956 43.8905C228.396 44.6584 227.972 45.5172 227.703 46.4292C227.703 46.4911 227.788 46.5376 227.811 46.4756C228.201 45.6278 228.654 44.8103 229.165 44.0298C229.235 43.9215 229.049 43.7744 228.956 43.8905Z" fill="#FF855E"/>
<path d="M236.868 39.6422C235.849 39.8227 234.892 40.2536 234.081 40.8961C233.294 41.5656 232.676 42.4116 232.278 43.3651C232.27 43.3795 232.268 43.3965 232.272 43.4125C232.276 43.4284 232.287 43.442 232.301 43.4502C232.315 43.4584 232.333 43.4606 232.348 43.4563C232.364 43.4519 232.378 43.4414 232.386 43.427C232.925 42.5969 233.603 41.8664 234.391 41.2676C235.153 40.6444 236.003 40.1384 236.914 39.7661C236.93 39.7599 236.944 39.7475 236.951 39.7315C236.958 39.7155 236.959 39.6973 236.953 39.6809C236.947 39.6645 236.934 39.6512 236.918 39.6439C236.902 39.6367 236.884 39.6361 236.868 39.6422Z" fill="#FF855E"/>
<path d="M246.226 53.5721C245.924 54.083 245.583 54.5783 245.251 55.0659C244.921 55.5682 244.528 56.026 244.082 56.4282C244.035 56.4282 244.082 56.5597 244.159 56.521C244.648 56.1543 245.102 55.7423 245.514 55.2904C245.92 54.8333 246.245 54.3096 246.474 53.7424C246.535 53.5412 246.319 53.4096 246.226 53.5721Z" fill="white"/>
<path d="M246.634 47.7142C246.588 47.5207 246.324 47.5903 246.317 47.7606C246.317 48.0702 246.317 48.3798 246.317 48.6816C246.297 48.9933 246.258 49.3035 246.201 49.6104C246.077 50.224 245.858 50.8143 245.55 51.3596C245.55 51.4138 245.605 51.4835 245.651 51.4293C246.042 50.9052 246.335 50.3154 246.518 49.6878C246.727 49.0511 246.767 48.371 246.634 47.7142Z" fill="#FF855E"/>
<path d="M240.063 50.3798C239.634 51.5142 239.064 52.5906 238.368 53.5841C238.322 53.646 238.368 53.7234 238.453 53.6692C239.384 52.8177 240.032 51.7025 240.311 50.4727C240.334 50.3333 240.133 50.225 240.063 50.3798Z" fill="white"/>
<path d="M239.173 46.4555C239.003 47.1057 238.841 47.7636 238.639 48.4137C238.436 49.0694 238.177 49.7064 237.865 50.3177C237.856 50.3342 237.854 50.3536 237.859 50.3717C237.864 50.3899 237.876 50.4053 237.893 50.4145C237.909 50.4237 237.928 50.4261 237.947 50.421C237.965 50.4159 237.98 50.4038 237.989 50.3874C238.839 49.2572 239.373 47.9217 239.537 46.5175C239.56 46.2775 239.228 46.2543 239.173 46.4555Z" fill="#FF855E"/>
<path d="M236.705 43.7581C236.117 44.1624 235.626 44.6909 235.265 45.3061C234.891 45.9001 234.609 46.5473 234.429 47.2256C234.428 47.2386 234.431 47.2517 234.437 47.263C234.444 47.2743 234.454 47.2831 234.466 47.2883C234.478 47.2934 234.492 47.2946 234.504 47.2917C234.517 47.2888 234.529 47.2819 234.537 47.272C234.847 46.6592 235.212 46.0763 235.629 45.5305C236.031 44.981 236.488 44.4857 236.906 43.9826C236.952 43.8432 236.836 43.673 236.705 43.7581Z" fill="white"/>
<path d="M216.341 43.1626C216.022 42.2213 215.409 41.4075 214.592 40.8406C214.53 40.8019 214.437 40.8948 214.484 40.9567C214.763 41.3317 215.021 41.7218 215.258 42.1254C215.513 42.5202 215.761 42.8994 215.977 43.3483C216.405 44.1879 216.71 45.0846 216.883 46.0109C216.883 46.0273 216.89 46.043 216.901 46.0546C216.913 46.0663 216.929 46.0728 216.945 46.0728C216.961 46.0728 216.977 46.0663 216.989 46.0546C217 46.043 217.007 46.0273 217.007 46.0109C216.946 45.0309 216.721 44.0681 216.341 43.1626Z" fill="#FF855E"/>
<path d="M212.502 42.5304C212.358 42.2477 212.198 41.9738 212.022 41.71C211.709 41.1566 211.265 40.6888 210.729 40.3477C210.707 40.3354 210.681 40.3309 210.655 40.3348C210.63 40.3387 210.607 40.3509 210.589 40.3694C210.572 40.388 210.56 40.4119 210.558 40.4373C210.555 40.4628 210.561 40.4884 210.574 40.5103C210.891 40.9941 211.246 41.4521 211.635 41.8802C211.813 42.1124 211.991 42.3369 212.161 42.5768C212.246 42.7007 212.331 42.8245 212.409 42.9561C212.512 43.0835 212.593 43.2274 212.649 43.3818C212.649 43.4437 212.772 43.4359 212.765 43.3818C212.733 43.0836 212.643 42.7945 212.502 42.5304Z" fill="white"/>
<path d="M218.733 38.6656C218.188 37.785 217.443 37.0452 216.558 36.5062C216.546 36.4997 216.531 36.4977 216.518 36.5005C216.504 36.5033 216.491 36.5107 216.482 36.5216C216.473 36.5324 216.468 36.546 216.468 36.5601C216.468 36.5742 216.472 36.5879 216.481 36.5991C217.229 37.2857 217.884 38.0661 218.431 38.921C218.995 39.7628 219.412 40.6946 219.662 41.6764C219.662 41.7538 219.786 41.6764 219.778 41.6764C219.642 40.6112 219.287 39.5859 218.733 38.6656Z" fill="white"/>
<path d="M224.344 71.0306C224.02 70.3417 223.761 69.624 223.57 68.8867C223.364 68.1596 223.219 67.4166 223.137 66.6653C223.131 66.6462 223.119 66.6294 223.103 66.6174C223.087 66.6055 223.068 66.599 223.048 66.599C223.028 66.599 223.008 66.6055 222.992 66.6174C222.976 66.6294 222.964 66.6462 222.959 66.6653C222.873 67.4441 222.936 68.232 223.144 68.9873C223.375 69.7435 223.745 70.4497 224.236 71.0693C224.29 71.1622 224.375 71.1235 224.344 71.0306Z" fill="white"/>
<path d="M221.394 67.6619C221.084 68.3198 220.708 68.9447 220.272 69.5272C219.853 70.1246 219.376 70.6793 218.848 71.1836C218.848 71.1836 218.848 71.2687 218.902 71.2455C219.565 70.8782 220.143 70.3744 220.597 69.7672C221.043 69.1537 221.352 68.4516 221.503 67.7084C221.518 67.6464 221.418 67.6 221.394 67.6619Z" fill="#FF855E"/>
<path d="M146.288 96.1779C146.747 91.7927 148.415 87.6212 151.107 84.1289C153.798 80.6365 157.407 77.9608 161.531 76.4003C165.654 74.8397 170.131 74.4557 174.46 75.2912C178.789 76.1267 182.801 78.1487 186.048 81.1316L197.952 79.3824L191.992 89.6765C193.483 93.2991 194.044 97.2367 193.625 101.131C193.341 104.272 192.436 107.325 190.961 110.113C189.487 112.901 187.474 115.368 185.038 117.371C182.602 119.373 179.792 120.872 176.772 121.78C173.752 122.687 170.582 122.986 167.445 122.658C164.309 122.329 161.269 121.381 158.502 119.868C155.735 118.355 153.297 116.307 151.328 113.843C149.36 111.379 147.901 108.549 147.035 105.516C146.17 102.484 145.916 99.3095 146.288 96.1779Z" fill="white"/>
<path d="M146.288 96.1777C146.747 91.7929 148.408 87.62 151.087 84.1189C152.389 82.3427 153.955 80.7765 155.731 79.475C157.483 78.1452 159.413 77.0691 161.466 76.2784C163.521 75.47 165.677 74.9491 167.875 74.7305C168.973 74.6286 170.078 74.6079 171.18 74.6685C172.286 74.693 173.389 74.8069 174.477 75.0091C178.864 75.8164 182.941 77.8291 186.249 80.8217L185.963 80.7366L197.859 78.91L198.718 78.7784L198.285 79.5524L192.364 89.8619V89.4594C193.752 92.8395 194.351 96.4917 194.116 100.138C193.88 103.785 192.816 107.329 191.005 110.503C189.194 113.676 186.682 116.395 183.662 118.452C180.642 120.509 177.193 121.851 173.577 122.374C169.96 122.898 166.272 122.59 162.793 121.474C159.313 120.357 156.134 118.463 153.497 115.933C150.86 113.404 148.835 110.306 147.575 106.876C146.315 103.446 145.854 99.774 146.226 96.139L146.288 96.1777ZM146.288 96.1777C145.936 99.7703 146.403 103.396 147.654 106.782C148.905 110.169 150.907 113.227 153.51 115.729C156.127 118.196 159.263 120.047 162.689 121.147C166.115 122.198 169.734 122.462 173.277 121.92C176.803 121.396 180.163 120.072 183.099 118.051C186.005 116.017 188.435 113.376 190.22 110.311C191.974 107.228 193.006 103.788 193.238 100.249C193.462 96.7102 192.891 93.1663 191.566 89.8774L191.481 89.6684L191.597 89.4749L197.588 79.2041L198.014 79.831L186.094 81.4642H185.932L185.816 81.3558C182.638 78.378 178.692 76.3462 174.423 75.489C173.356 75.2723 172.274 75.1403 171.187 75.0942C170.105 75.0168 169.019 75.0168 167.936 75.0942C165.763 75.2581 163.624 75.7271 161.582 76.4874C159.525 77.2302 157.59 78.2735 155.839 79.5834C154.065 80.8533 152.498 82.3912 151.195 84.1422C148.479 87.6233 146.78 91.7894 146.288 96.1777Z" fill="#263238"/>
<path d="M171.567 102.299V105.178C171.574 105.467 171.521 105.755 171.414 106.023C171.306 106.292 171.145 106.536 170.94 106.741C170.735 106.945 170.491 107.107 170.223 107.214C169.954 107.322 169.666 107.374 169.377 107.368C168.795 107.368 168.238 107.138 167.825 106.727C167.413 106.317 167.181 105.759 167.179 105.178V100.534C167.179 100.487 167.225 100.487 167.225 100.449C167.225 100.41 167.179 100.402 167.179 100.356C167.208 99.7873 167.451 99.2507 167.858 98.8533C168.266 98.4558 168.808 98.2267 169.377 98.2119C170.052 98.2384 170.725 98.1284 171.356 97.8885C171.987 97.6486 172.563 97.2837 173.05 96.8157C173.537 96.3478 173.924 95.7863 174.189 95.165C174.453 94.5438 174.59 93.8755 174.59 93.2003C174.59 92.5251 174.453 91.8568 174.189 91.2356C173.924 90.6143 173.537 90.0529 173.05 89.5849C172.563 89.1169 171.987 88.752 171.356 88.5121C170.725 88.2722 170.052 88.1622 169.377 88.1887C168.508 88.1869 167.654 88.4133 166.9 88.8453C166.146 89.2772 165.519 89.8995 165.081 90.65C164.934 90.9019 164.738 91.122 164.504 91.2975C164.271 91.473 164.005 91.6005 163.722 91.6725C163.439 91.7445 163.145 91.7596 162.856 91.7169C162.567 91.6743 162.29 91.5747 162.04 91.424C161.791 91.2794 161.573 91.0868 161.4 90.8574C161.226 90.6281 161.099 90.3666 161.027 90.088C160.955 89.8094 160.939 89.5192 160.98 89.2344C161.021 88.9496 161.118 88.6757 161.266 88.4287C162.047 87.0829 163.15 85.9522 164.476 85.1382C165.803 84.3242 167.31 83.8523 168.864 83.7649C170.418 83.6775 171.969 83.9773 173.378 84.6375C174.787 85.2976 176.01 86.2974 176.937 87.547C177.865 88.7967 178.467 90.2571 178.691 91.7971C178.914 93.3371 178.752 94.9084 178.218 96.3701C177.684 97.8318 176.795 99.1379 175.632 100.171C174.468 101.205 173.066 101.933 171.552 102.291L171.567 102.299ZM171.567 112.097V112.871C171.574 113.161 171.521 113.448 171.414 113.717C171.306 113.985 171.145 114.229 170.94 114.434C170.735 114.639 170.491 114.8 170.223 114.908C169.954 115.016 169.666 115.068 169.377 115.062C168.795 115.062 168.238 114.831 167.825 114.421C167.413 114.01 167.181 113.453 167.179 112.871V112.097C167.189 111.518 167.424 110.966 167.834 110.557C168.245 110.148 168.798 109.915 169.377 109.907C169.666 109.904 169.952 109.958 170.219 110.067C170.486 110.176 170.729 110.337 170.933 110.541C171.137 110.745 171.298 110.988 171.407 111.255C171.516 111.522 171.571 111.809 171.567 112.097Z" fill="#FF855E"/>
</g>
<path fill-rule="evenodd" clip-rule="evenodd" d="M3.13432 299.817C3.88932 301.114 5.31632 301.785 6.81832 301.785H56.2853V315.985C56.2853 318.746 58.5233 320.985 61.2853 320.985H82.9653C85.7263 320.985 87.9654 318.746 87.9654 315.985V301.785H95.2854C98.0464 301.785 100.289 299.546 100.289 296.785V278.585C100.289 276.376 98.4943 274.585 96.2853 274.585H87.9654V210.785C87.9654 208.024 85.7263 205.785 82.9653 205.785H68.0503H56.1663C54.5363 205.785 53.0083 206.58 52.0723 207.915L41.1513 223.496L43.8463 235.285L33.8853 233.862L33.5683 234.315L39.8463 249.285L25.8733 245.293L4.44533 275.865C-3.09067 286.311 0.815323 295.835 3.13432 299.817ZM56.8503 243.923C57.3973 243.096 58.6853 243.483 58.6853 244.474V273.585C58.6853 274.137 58.2373 274.585 57.6853 274.585H38.4633C37.6673 274.585 37.1903 273.699 37.6293 273.034L56.8503 243.923Z" fill="#FF855E"/>
<path fill-rule="evenodd" clip-rule="evenodd" d="M364.811 299.787C365.566 301.084 366.993 301.755 368.495 301.755H417.962V315.955C417.962 318.716 420.2 320.955 422.962 320.955H444.642C447.403 320.955 449.642 318.716 449.642 315.955V301.755H456.962C459.723 301.755 461.966 299.516 461.966 296.755V278.555C461.966 276.346 460.171 274.555 457.962 274.555H449.642V210.755C449.642 207.994 447.403 205.755 444.642 205.755H429.727H417.843C416.213 205.755 414.685 206.55 413.749 207.885L402.828 223.466L405.523 235.255L395.562 233.832L395.245 234.285L401.523 249.255L387.55 245.263L366.122 275.835C358.586 286.281 362.492 295.805 364.811 299.787ZM418.527 243.893C419.074 243.066 420.362 243.453 420.362 244.444V273.555C420.362 274.107 419.914 274.555 419.362 274.555H400.14C399.344 274.555 398.867 273.669 399.306 273.004L418.527 243.893Z" fill="#FF855E"/>
</svg>
