<svg width="97" height="29" viewBox="0 0 97 29" fill="none" xmlns="http://www.w3.org/2000/svg">
<g clip-path="url(#clip0_2_2)">
<mask id="mask0_2_2" style="mask-type:luminance" maskUnits="userSpaceOnUse" x="0" y="0" width="97" height="29">
<path d="M97 0H0V29H97V0Z" fill="white"/>
</mask>
<g mask="url(#mask0_2_2)">
<path d="M13.6148 15.1412C13.6148 15.824 13.5386 16.5282 13.3863 17.2537C13.2339 17.9794 12.9728 18.6409 12.6027 19.2384C12.2544 19.8358 11.7864 20.3266 11.1988 20.7108C10.6329 21.0948 9.93632 21.2869 9.1092 21.2869C8.69563 21.2869 8.29296 21.2336 7.90117 21.1269C7.53114 21.0415 7.16111 20.9134 6.79109 20.7428C6.79109 21.6816 6.76932 22.5993 6.72579 23.4955C6.68226 24.4131 6.66049 25.3413 6.66049 26.2803C6.66049 26.9205 6.58431 27.4219 6.43195 27.7847C6.30135 28.1688 6.08368 28.4462 5.77896 28.6169C5.49599 28.7877 5.12596 28.8943 4.66887 28.937C4.23355 28.9797 3.72204 29.001 3.13435 29.001C2.91669 29.001 2.66637 28.9904 2.38342 28.969C2.12221 28.969 1.86102 28.9263 1.59982 28.841C1.3604 28.7557 1.15361 28.6275 0.979484 28.4569C0.827119 28.3075 0.750938 28.0835 0.750938 27.7847C0.750938 27.486 0.848886 27.2085 1.04478 26.9525C1.26245 26.6964 1.49099 26.483 1.73042 26.3123C1.73042 23.8796 1.74131 21.4683 1.76307 19.0783C1.78484 16.6669 1.79572 14.245 1.79572 11.8123C1.79572 11.6415 1.78484 11.4708 1.76307 11.3001C1.76307 11.1081 1.75219 10.9267 1.73042 10.756C1.27333 10.7133 0.870652 10.5426 0.522391 10.2438C0.174131 9.9451 0 9.561 0 9.09153C0 8.60072 0.185013 8.21662 0.55504 7.93921C0.946834 7.66181 1.40392 7.45908 1.92632 7.33104C2.44871 7.20301 2.98199 7.12832 3.52614 7.10699C4.09207 7.0643 4.56004 7.04297 4.93007 7.04297C5.4307 7.04297 5.86602 7.12832 6.23605 7.29904C6.60608 7.44841 6.8455 7.80051 6.95434 8.35533C7.65086 7.75783 8.45621 7.45908 9.3704 7.45908C10.437 7.45908 11.2531 7.71515 11.8191 8.2273C12.4068 8.73944 12.8312 9.37961 13.0924 10.1478C13.3537 10.916 13.5059 11.7483 13.5495 12.6445C13.593 13.5407 13.6148 14.373 13.6148 15.1412ZM8.58681 13.5087C8.58681 13.3807 8.57593 13.1993 8.55416 12.9646C8.53239 12.7298 8.48886 12.5058 8.42356 12.2924C8.38003 12.0577 8.29296 11.8656 8.16236 11.7163C8.05354 11.5455 7.90117 11.4602 7.70527 11.4602C7.53114 11.4602 7.36789 11.5242 7.21553 11.6522C7.06317 11.759 6.94345 11.8763 6.85639 12.0043C6.85639 12.9433 6.86727 13.8715 6.88903 14.7891C6.93257 15.7067 6.95434 16.6349 6.95434 17.5739L7.31348 17.6059C7.59644 17.6059 7.8141 17.4992 7.96646 17.2857C8.1406 17.0511 8.27119 16.7844 8.35826 16.4856C8.44532 16.1869 8.49975 15.8774 8.5215 15.5573C8.56504 15.2159 8.58681 14.9492 8.58681 14.7571V13.5087ZM8.84801 8.67542C8.45621 8.93149 7.97735 9.26225 7.41143 9.66769C6.8455 10.0518 6.27958 10.468 5.71366 10.916C5.14773 11.3428 4.61446 11.7803 4.11383 12.2284C3.61321 12.6552 3.22141 13.0393 2.93845 13.3807L2.9058 13.5407V13.6688L3.00375 13.5728C3.91793 12.6125 4.95183 11.7376 6.10545 10.948C7.25906 10.1585 8.36914 9.39028 9.43569 8.64341L8.84801 8.67542ZM6.46459 18.6942L6.0075 18.4701C5.48511 18.8542 4.93007 19.2811 4.34238 19.7504C3.77645 20.1986 3.27583 20.6681 2.8405 21.1589V21.639C3.38466 21.1269 3.97235 20.6361 4.60357 20.1666C5.25657 19.6758 5.87691 19.1956 6.46459 18.7262V18.6942ZM7.01963 19.5264C7.36789 19.1849 7.75969 18.8756 8.19501 18.5982C8.65211 18.2994 9.12008 18.022 9.59894 17.7659C10.0778 17.5099 10.5458 17.2537 11.0028 16.9977C11.4818 16.7417 11.928 16.4642 12.3415 16.1655L12.4068 15.6854C11.8409 16.0267 11.2858 16.3789 10.7417 16.7417C10.2193 17.0831 9.67512 17.4139 9.1092 17.7339C8.93507 18.0327 8.69564 18.2781 8.39091 18.4701C8.10795 18.6622 7.78146 18.7689 7.41143 18.7902L6.69314 19.3024L7.01963 19.5264ZM2.80786 17.7659C3.24318 17.3392 3.71116 16.8804 4.21178 16.3895C4.71241 15.8774 5.21303 15.4399 5.71366 15.0772V14.565C5.6266 14.5864 5.44158 14.7144 5.15862 14.9492C4.87565 15.1839 4.57092 15.4507 4.24443 15.7494C3.9397 16.0267 3.64585 16.3042 3.3629 16.5816C3.07993 16.8377 2.89492 17.0084 2.80786 17.0937V17.7659ZM8.06441 19.9426L12.1129 17.4459V17.0297C11.7864 17.2644 11.4164 17.4885 11.0028 17.7019C10.5893 17.9153 10.1757 18.1287 9.76219 18.3421C9.37039 18.5554 8.9786 18.7796 8.58681 19.0143C8.21678 19.249 7.89028 19.5051 7.60732 19.7824L8.06441 19.9426ZM2.80786 19.1103C3.30848 18.6622 3.79822 18.2247 4.27707 17.7979C4.75594 17.3712 5.24568 16.9444 5.7463 16.5176C5.72453 16.4109 5.71366 16.3042 5.71366 16.1975C5.71366 16.0908 5.71366 15.9841 5.71366 15.8774C5.2348 16.3042 4.75594 16.763 4.27707 17.2537C3.79822 17.7446 3.30848 18.1714 2.80786 18.5341V19.1103ZM5.51776 22.8553C5.08244 23.1754 4.63623 23.5061 4.17913 23.8476C3.72204 24.189 3.29759 24.5411 2.9058 24.9039V25.448C3.34113 25.128 3.77645 24.8185 4.21178 24.5198C4.66887 24.221 5.09331 23.8903 5.48511 23.5275L5.51776 22.9193V22.8553ZM2.87315 24.1357C3.30848 23.7729 3.75468 23.4208 4.21178 23.0794C4.66887 22.738 5.11508 22.3751 5.5504 21.9911L5.58306 21.3189C5.19126 21.7671 4.74505 22.1618 4.24443 22.5033C3.7438 22.8446 3.28671 23.2288 2.87315 23.6556V24.1357ZM9.72954 15.5573C10.1649 15.2585 10.6002 14.9812 11.0355 14.725C11.4926 14.469 11.9388 14.2023 12.3742 13.9249L12.3415 13.2847C11.8844 13.5621 11.449 13.8608 11.0355 14.1809C10.6219 14.501 10.1975 14.7997 9.76219 15.0772L9.72954 15.5573ZM2.8405 20.3266C3.2323 19.8999 3.68939 19.4837 4.21178 19.0783C4.75594 18.6515 5.26744 18.2567 5.7463 17.8939V17.3178C5.26744 17.7019 4.79947 18.1287 4.34238 18.5982C3.88529 19.0676 3.40643 19.4837 2.9058 19.8464L2.8405 19.8786V20.3266ZM5.68101 13.2847C5.24568 13.6475 4.73417 14.0635 4.14648 14.533C3.58056 14.9812 3.14523 15.4399 2.8405 15.9094L2.80786 16.2935C3.30848 15.9307 3.77645 15.5253 4.21178 15.0772C4.66887 14.629 5.15862 14.2237 5.68101 13.8608V13.2847ZM5.68101 12.1643C5.18038 12.5485 4.70152 12.9433 4.24443 13.3487C3.80911 13.7328 3.35201 14.1382 2.87315 14.565L2.8405 15.0132C3.34113 14.7144 3.81999 14.3197 4.27707 13.8288C4.73417 13.338 5.20215 12.9112 5.68101 12.5485V12.1643ZM5.5504 20.2306C5.09331 20.5721 4.62534 20.9241 4.14648 21.2869C3.66762 21.6496 3.2323 22.0444 2.8405 22.4713V22.8873C3.31936 22.5246 3.77645 22.1191 4.21178 21.671C4.6471 21.2229 5.1042 20.8388 5.58306 20.5187L5.5504 20.2306ZM9.72954 12.8045L9.76219 13.2527C10.154 12.954 10.5566 12.6765 10.9702 12.4205C11.3837 12.1643 11.7973 11.887 12.2109 11.5882L12.1129 11.0761L9.72954 12.8045ZM11.5253 9.57166C11.4818 9.50765 11.4273 9.44363 11.362 9.37961C11.2967 9.3156 11.2205 9.26225 11.1335 9.21956C10.8505 9.49698 10.5131 9.79572 10.1213 10.1158C9.72954 10.4146 9.3704 10.66 9.04389 10.852L9.27245 11.1721C9.686 11.0013 10.056 10.7453 10.3825 10.4039C10.709 10.0411 11.0899 9.76372 11.5253 9.57166ZM9.53364 16.7737C10.0125 16.4749 10.4805 16.1762 10.9375 15.8774C11.4164 15.5787 11.9062 15.2799 12.4068 14.9812V14.597C11.9497 14.9172 11.4708 15.2159 10.9702 15.4933C10.4913 15.7494 10.0343 16.0587 9.59894 16.4215L9.53364 16.7737ZM2.93845 26.6323C3.35201 26.291 3.77645 25.9708 4.21178 25.6721C4.6471 25.3733 5.07155 25.0533 5.48511 24.7118V24.2958C5.04978 24.6158 4.60357 24.9253 4.14648 25.224C3.71116 25.5441 3.30848 25.8962 2.93845 26.2803V26.6323ZM11.8191 10.0838C11.4055 10.3399 11.0138 10.6173 10.6437 10.916C10.2955 11.2148 9.92544 11.4922 9.53364 11.7483L9.63159 12.1003C10.0234 11.823 10.4043 11.5562 10.7743 11.3001C11.1662 11.0227 11.5579 10.7453 11.9497 10.468L11.8191 10.0838ZM5.77896 8.6114C5.32186 9.01684 4.82123 9.41162 4.27707 9.79572C3.75468 10.1798 3.31936 10.628 2.9711 11.1401V11.4282C3.40643 10.98 3.86352 10.5533 4.34238 10.1478C4.843 9.74238 5.32186 9.33693 5.77896 8.93149V8.6114ZM2.9711 12.5165C3.42819 12.0683 3.91793 11.6415 4.44033 11.2361C4.96272 10.8093 5.47422 10.3932 5.97486 9.98777C5.93132 9.9451 5.89866 9.90242 5.87691 9.85974C5.85514 9.81707 5.82248 9.77439 5.77896 9.7317C5.30009 10.1585 4.82123 10.5746 4.34238 10.98C3.86352 11.3855 3.40643 11.8123 2.9711 12.2604V12.5165ZM10.2519 8.77144C10.1431 8.83546 9.96897 8.94216 9.72954 9.09153C9.51187 9.24091 9.28333 9.40095 9.04389 9.57166C8.80447 9.72104 8.57593 9.87042 8.35826 10.0198C8.16236 10.1478 8.04265 10.2438 7.99912 10.3079L8.55416 10.5C8.90242 10.2439 9.23979 9.97711 9.56629 9.6997C9.89278 9.40095 10.2302 9.13421 10.5784 8.89948L10.2519 8.77144ZM11.7538 18.3741C11.2749 18.6302 10.7853 18.8862 10.2846 19.1423C9.80572 19.3984 9.35951 19.7078 8.94596 20.0706L9.53364 20.0386C9.83837 19.8464 10.1431 19.6651 10.4478 19.4944C10.7743 19.3237 11.0899 19.1423 11.3947 18.9502L11.7538 18.3741ZM9.79484 14.309C10.2302 14.0529 10.6437 13.7648 11.0355 13.4447C11.449 13.1247 11.8735 12.8472 12.3089 12.6125L12.2762 12.2284C11.8409 12.5272 11.4055 12.8152 10.9702 13.0927C10.5566 13.37 10.154 13.6902 9.76219 14.0529L9.79484 14.309ZM2.80786 27.8167C3.24318 27.454 3.68939 27.1125 4.14648 26.7924C4.60357 26.4723 5.04978 26.1308 5.48511 25.7681V25.448C4.98449 25.8535 4.47297 26.2376 3.95058 26.6003C3.42819 26.9845 2.91669 27.3899 2.41606 27.8167H2.80786ZM3.52614 8.32332C3.26495 8.49404 3.02551 8.68609 2.80786 8.89948C2.61196 9.09153 2.41606 9.30493 2.22016 9.53965L2.5793 9.63568L2.61196 9.66769H2.64461C2.88404 9.43296 3.12346 9.19823 3.3629 8.96349C3.60232 8.70742 3.85263 8.47269 4.11383 8.2593L3.52614 8.32332ZM4.24443 27.7847C4.44033 27.6353 4.63623 27.4753 4.83212 27.3045C5.02801 27.1338 5.24568 26.9952 5.48511 26.8885V26.5043C5.44158 26.5043 5.33275 26.5577 5.15862 26.6643C5.00625 26.7924 4.83212 26.9311 4.63623 27.0805C4.44033 27.2512 4.24443 27.4005 4.04853 27.5287C3.8744 27.678 3.76557 27.774 3.72204 27.8167L4.24443 27.7847ZM5.06067 8.2593C4.99537 8.30198 4.87565 8.40867 4.70152 8.57939C4.52739 8.72876 4.34238 8.88881 4.14648 9.05952C3.90706 9.27291 3.65674 9.49698 3.39554 9.7317L3.00375 10.1478C3.35201 9.78505 3.73293 9.46497 4.14648 9.18756C4.56004 8.88881 4.95183 8.57939 5.32186 8.2593H5.06067ZM1.46923 9.47563C1.59982 9.30493 1.74131 9.14488 1.89367 8.99551C2.04603 8.84613 2.1984 8.68609 2.35076 8.51537C2.30722 8.53671 2.23104 8.54739 2.12221 8.54739C1.96985 8.67542 1.81749 8.80346 1.66513 8.93149C1.53453 9.05953 1.40392 9.19823 1.27333 9.3476L1.46923 9.47563Z" fill="#28536B"/>
<path d="M20.2563 21.6387C19.2333 21.6387 18.3518 21.4254 17.6118 20.9986C16.8934 20.5932 16.2948 20.0597 15.816 19.3982C15.3372 18.7153 14.978 17.947 14.7386 17.0935C14.5209 16.24 14.4121 15.3757 14.4121 14.5008C14.4121 13.6899 14.5427 12.8256 14.8039 11.9081C15.0868 10.9905 15.4786 10.1476 15.9792 9.37939C16.5017 8.61118 17.1438 7.98167 17.9056 7.49087C18.6674 6.97873 19.5381 6.72266 20.5176 6.72266C21.1487 6.72266 21.7473 6.84001 22.3132 7.07475C22.8792 7.30948 23.3798 7.64024 23.8152 8.06702C24.2504 8.47246 24.5878 8.9526 24.8273 9.50742C25.0885 10.0622 25.2191 10.6491 25.2191 11.2679C25.2191 11.7161 25.1429 12.1855 24.9905 12.6763C24.8382 13.1458 24.6096 13.5833 24.3049 13.9886C24.0219 14.3728 23.6736 14.6928 23.2601 14.949C22.8465 15.1836 22.3785 15.301 21.8562 15.301C21.4643 15.301 21.0944 15.2156 20.7461 15.045C20.3978 14.8529 20.1367 14.5755 19.9625 14.2128V14.3728C19.9625 14.6928 19.9951 15.0663 20.0604 15.4931C20.1475 15.8985 20.2673 16.2826 20.4195 16.6453C20.5937 16.9868 20.8114 17.2855 21.0726 17.5417C21.3555 17.7763 21.7038 17.8937 22.1174 17.8937C22.4003 17.8937 22.6288 17.787 22.803 17.5737C22.9771 17.3603 23.1403 17.1255 23.2927 16.8695C23.4669 16.6133 23.641 16.3787 23.8152 16.1653C24.011 15.9518 24.2722 15.8452 24.5987 15.8452C25.034 15.8452 25.3496 16.0052 25.5455 16.3253C25.7414 16.6453 25.8394 16.9868 25.8394 17.3496C25.8394 17.9898 25.6544 18.5765 25.2844 19.11C24.9361 19.6222 24.479 20.0704 23.9131 20.4544C23.369 20.8172 22.7704 21.1052 22.1174 21.3187C21.4643 21.5321 20.844 21.6387 20.2563 21.6387ZM20.0604 12.8683C20.2128 12.719 20.3434 12.6229 20.4522 12.5803C20.5829 12.5163 20.7025 12.4736 20.8114 12.4523C20.942 12.4309 21.0726 12.4203 21.2032 12.4203C21.3555 12.3989 21.5188 12.3669 21.693 12.3242C21.8452 12.1108 21.9215 11.8761 21.9215 11.62C21.9215 11.3213 21.867 11.0972 21.7582 10.9478C21.6494 10.7771 21.4426 10.6384 21.1379 10.5317H21.1052C20.9311 10.6171 20.7788 10.7558 20.6482 10.9478C20.5393 11.1399 20.4413 11.3533 20.3542 11.588C20.289 11.8014 20.2237 12.0254 20.1584 12.2601C20.1149 12.4949 20.0822 12.6976 20.0604 12.8683ZM18.7545 14.0206C18.7763 13.914 18.7871 13.8073 18.7871 13.7006C18.7871 13.5726 18.7871 13.4551 18.7871 13.3485C18.2865 13.818 17.775 14.2768 17.2525 14.7248C16.7302 15.1516 16.2404 15.6211 15.7834 16.1333L15.8486 16.4533C16.3058 16.0052 16.7846 15.5998 17.2852 15.237C17.8076 14.8529 18.2973 14.4475 18.7545 14.0206ZM21.2358 8.03501C20.7352 8.29109 20.2455 8.6005 19.7666 8.96327C19.3095 9.3047 18.8633 9.67814 18.428 10.0836C17.9927 10.4891 17.5573 10.8944 17.122 11.2999C16.7084 11.7054 16.2948 12.1001 15.8813 12.4843L15.7834 12.8363C16.284 12.3456 16.7846 11.8761 17.2852 11.4279C17.7858 10.9584 18.2973 10.5104 18.8198 10.0836C19.2551 9.72081 19.7013 9.40072 20.1584 9.12332C20.6155 8.82457 21.0617 8.50448 21.497 8.16305L21.5624 8.09903L21.2358 8.03501ZM16.1751 17.5417C16.6105 17.1575 17.0458 16.7948 17.4812 16.4533C17.9164 16.0906 18.3626 15.7278 18.8198 15.365L18.7871 14.8529C18.33 15.2156 17.8511 15.5785 17.3506 15.9412C16.8716 16.2826 16.4254 16.6667 16.0119 17.0935L16.1751 17.5417ZM15.6201 14.1807C16.3384 13.4978 17.0785 12.815 17.8403 12.1321C18.6021 11.4493 19.2986 10.7344 19.9298 9.98755C19.1462 10.5424 18.4062 11.1612 17.7097 11.8441C17.035 12.5056 16.3493 13.1671 15.6528 13.8286L15.6201 14.1807ZM19.0483 11.7801C18.4824 12.3136 17.9164 12.8576 17.3506 13.4125C16.7846 13.946 16.2078 14.4688 15.6201 14.981L15.6528 15.333C16.1534 14.8209 16.6758 14.3301 17.2199 13.8606C17.7858 13.3911 18.3518 12.9217 18.9177 12.4523L19.0483 11.7801ZM17.9382 19.7502C18.2647 19.4728 18.6021 19.2167 18.9504 18.982C19.2986 18.726 19.6469 18.4592 19.9951 18.1818C19.9516 18.1392 19.908 18.0858 19.8646 18.0218C19.8211 17.9577 19.7884 17.8937 19.7666 17.8297C19.4402 18.1498 19.0809 18.4379 18.6892 18.694C18.2973 18.95 17.9274 19.2275 17.5791 19.5262L17.9382 19.7502ZM17.122 19.11C17.492 18.7687 17.8729 18.4699 18.2647 18.2138C18.6782 17.9364 19.0701 17.6377 19.4402 17.3175L19.2442 16.9015C18.9612 17.2215 18.5803 17.5737 18.1014 17.9577C17.6444 18.3205 17.2417 18.6193 16.8934 18.854L17.122 19.11ZM16.567 18.3418C16.9587 18.0005 17.3832 17.6697 17.8403 17.3496C18.3191 17.0082 18.7109 16.6453 19.0156 16.2613L18.9504 16.0372C18.058 16.7201 17.2199 17.4136 16.4364 18.1178L16.567 18.3418ZM19.0156 20.2304C19.2986 19.9743 19.5816 19.7395 19.8646 19.5262C20.1693 19.2915 20.474 19.0567 20.7788 18.822L20.4522 18.598C20.1475 18.8327 19.8319 19.078 19.5054 19.3342C19.1789 19.5689 18.8524 19.8036 18.526 20.0383L19.0156 20.2304ZM24.4028 18.1818C24.4028 18.2032 24.4028 18.2138 24.4028 18.2138C24.4246 18.1925 24.4354 18.1712 24.4354 18.1498C24.4354 18.1285 24.4464 18.1072 24.4681 18.0858L24.5987 17.6697C24.0545 18.1392 23.5104 18.5872 22.9663 19.014C22.4221 19.4195 21.867 19.8462 21.3011 20.2944L21.9868 20.0383C22.3785 19.6969 22.7812 19.3875 23.1948 19.11C23.6301 18.8327 24.0328 18.5232 24.4028 18.1818ZM21.4643 19.078C21.1597 19.2488 20.8549 19.4515 20.5502 19.6862C20.2673 19.921 20.006 20.1557 19.7666 20.3904L20.2237 20.4224C20.4849 20.1877 20.7461 19.9637 21.0073 19.7502C21.2684 19.5369 21.5406 19.3235 21.8235 19.11L21.4643 19.078ZM23.7499 12.6443C23.358 12.8363 22.9771 13.0498 22.6071 13.2845C22.2371 13.5191 21.8779 13.7646 21.5297 14.0206L21.8235 14.0846C22.0847 13.8926 22.3459 13.7219 22.6071 13.5726C22.89 13.4018 23.1839 13.2311 23.4886 13.0604L23.7499 12.6443ZM20.0278 7.971C19.8537 8.14171 19.5707 8.37644 19.1789 8.6752C18.8089 8.9526 18.4171 9.25135 18.0035 9.57144C17.6118 9.87019 17.2525 10.1689 16.9261 10.4677C16.5996 10.7451 16.4037 10.9691 16.3384 11.1399C16.9914 10.6277 17.6226 10.0836 18.232 9.50742C18.8416 8.93127 19.4945 8.41913 20.191 7.971H20.0278ZM22.901 8.86725C22.5744 9.01662 22.2479 9.23001 21.9215 9.50742L22.3132 9.69948C22.4656 9.59278 22.5962 9.48609 22.7051 9.37939C22.8357 9.27269 22.9771 9.16599 23.1295 9.0593L22.901 8.86725ZM23.9131 10.4037L23.0316 10.9798L23.0968 11.3319C23.2274 11.2252 23.369 11.1292 23.5212 11.0439C23.6954 10.9584 23.8587 10.8731 24.011 10.7878L23.9131 10.4037ZM23.5212 9.53943C23.369 9.64613 23.2274 9.75282 23.0968 9.85951C22.9881 9.96621 22.8574 10.0622 22.7051 10.1476L22.8357 10.3716C22.9881 10.2863 23.1295 10.2009 23.2601 10.1156C23.3907 10.0089 23.5212 9.9022 23.6518 9.7955L23.5212 9.53943ZM24.0437 11.4599C23.8695 11.5026 23.7063 11.588 23.5539 11.7161C23.4016 11.8441 23.2492 11.9614 23.0968 12.0681L23.0316 12.3562C23.3145 12.1855 23.6301 12.0254 23.9784 11.8761L24.0437 11.4599ZM22.2153 8.38711C21.9759 8.55783 21.7256 8.72853 21.4643 8.89925C21.225 9.04863 20.9855 9.20867 20.7461 9.37939L21.2032 9.28336C21.399 9.17667 21.5841 9.04863 21.7582 8.89925C21.9541 8.72853 22.15 8.57916 22.3459 8.45113L22.2153 8.38711Z" fill="#28536B"/>
<path d="M46.0306 6.97797C46.5094 6.97797 46.9339 7.11668 47.3039 7.39408C47.6958 7.6715 47.8916 8.06627 47.8916 8.57841C47.8916 8.94118 47.7611 9.27193 47.4999 9.57069C47.2604 9.84809 46.9556 10.0295 46.5857 10.1148C46.4986 10.3709 46.3244 10.8083 46.0632 11.4272C45.8021 12.046 45.4865 12.7395 45.1164 13.5077C44.7681 14.276 44.3872 15.0869 43.9737 15.9404C43.5601 16.7727 43.1574 17.5409 42.7657 18.2451C42.3956 18.9493 42.0583 19.5468 41.7535 20.0376C41.4488 20.5284 41.2312 20.8058 41.1005 20.8698C40.8829 20.9765 40.6543 21.0298 40.4149 21.0298C40.1102 21.0298 39.8381 20.9551 39.5987 20.8058C39.4681 20.7204 39.2612 20.4323 38.9783 19.9416C38.7171 19.4508 38.4124 18.8639 38.0642 18.1811C37.7376 17.4769 37.3894 16.7087 37.0194 15.8764C36.6493 15.0442 36.2902 14.244 35.942 13.4757C35.6154 12.7075 35.3216 12.014 35.0604 11.3952C34.7992 10.7763 34.6033 10.3176 34.4727 10.0188C34.0809 9.97613 33.7 9.86944 33.33 9.69872C32.9817 9.50667 32.8076 9.16524 32.8076 8.67444C32.8076 8.20497 32.9925 7.83154 33.3626 7.55413C33.7327 7.27671 34.1789 7.07399 34.7012 6.94596C35.2236 6.81792 35.746 6.75391 36.2684 6.75391C36.8126 6.75391 37.2479 6.79659 37.5744 6.88194C37.6833 6.83927 37.8029 6.82859 37.9335 6.84994C38.0859 6.84994 38.2165 6.84994 38.3254 6.84994C38.5865 6.84994 38.8477 6.87127 39.109 6.91396C39.3919 6.95663 39.6422 7.04199 39.8598 7.17003C40.0993 7.27671 40.2952 7.43676 40.4476 7.65015C40.5999 7.8422 40.6761 8.08761 40.6761 8.38636C40.6761 8.70645 40.5564 8.99453 40.317 9.2506C40.0993 9.50667 39.849 9.69872 39.566 9.82676C39.9361 10.5523 40.2843 11.2565 40.6108 11.9393C40.9373 12.6222 41.3291 13.305 41.7862 13.9879C42.1126 13.3264 42.4065 12.6542 42.6677 11.9713C42.9289 11.2672 43.1792 10.5737 43.4187 9.89077C43.0704 9.82676 42.7222 9.68805 42.3739 9.47466C42.0473 9.23993 41.8841 8.91984 41.8841 8.51439C41.8841 8.15162 41.993 7.87422 42.2106 7.68217C42.4282 7.46877 42.6895 7.3194 42.9942 7.23404C43.3207 7.12734 43.6581 7.06333 44.0063 7.04199C44.3546 7.02064 44.6593 7.00998 44.9205 7.00998L46.0306 6.97797ZM42.4718 16.1325C41.9712 16.4312 41.4488 16.7514 40.9046 17.0927C40.3823 17.4342 39.8925 17.7863 39.4354 18.1491L39.566 18.4371C39.9796 18.1384 40.3931 17.8609 40.8067 17.6049C41.2202 17.3274 41.6556 17.0821 42.1126 16.8687L42.4718 16.1325ZM36.1052 10.659C36.214 10.531 36.4099 10.3389 36.6928 10.0828C36.9758 9.80542 37.2588 9.52801 37.5417 9.2506C37.8465 8.97318 38.1185 8.72778 38.358 8.51439C38.5974 8.27966 38.7389 8.13029 38.7824 8.06627L38.4559 8.03426C38.0206 8.41837 37.607 8.81314 37.2153 9.21859C36.8234 9.62404 36.4099 10.0295 35.9746 10.435L36.0399 10.499L36.1052 10.659ZM43.1248 14.7881C43.0813 14.8309 43.0051 14.8842 42.8962 14.9482C42.7875 15.0122 42.6677 15.0869 42.5371 15.1722C42.4282 15.2576 42.3195 15.3322 42.2106 15.3962C42.1018 15.4389 42.0365 15.4604 42.0147 15.4604L41.8841 15.5564H41.8188C41.3618 15.8551 40.9046 16.1645 40.4476 16.4846C39.9904 16.7834 39.5552 17.1141 39.1416 17.4769L39.1743 17.6049C39.7837 17.1354 40.404 16.7087 41.0352 16.3246C41.6882 15.9404 42.3303 15.535 42.9615 15.1082L43.1248 14.7881ZM40.1537 13.6678C39.7184 13.8385 39.3483 14.0839 39.0437 14.404C38.7389 14.7241 38.3906 14.9802 37.9989 15.1722L38.1295 15.4283C38.1948 15.4069 38.2709 15.3536 38.358 15.2682C38.6627 15.0335 38.9892 14.8202 39.3375 14.6281C39.6858 14.4147 40.0122 14.1799 40.317 13.9239L40.2843 13.8279L40.1537 13.6678ZM38.815 11.1071C38.5104 11.3845 38.1948 11.662 37.8682 11.9393C37.5635 12.2167 37.2588 12.5048 36.9541 12.8035L37.052 13.0597C37.335 12.7822 37.6506 12.5048 37.9989 12.2274C38.3472 11.95 38.6845 11.7153 39.011 11.5232L38.815 11.1071ZM37.7376 14.6601C38.1077 14.4254 38.4451 14.1692 38.7498 13.8919C39.0545 13.5932 39.4136 13.3477 39.8272 13.1557L39.664 12.8355C39.2939 13.0703 38.9456 13.3264 38.6192 13.6038C38.2927 13.8599 37.9662 14.1372 37.6397 14.436L37.7376 14.6601ZM37.3785 13.8599C37.7268 13.6038 38.0532 13.3477 38.358 13.0917C38.6627 12.8142 39.011 12.5582 39.4028 12.3235L39.2722 12.0674C38.9021 12.3022 38.5539 12.5582 38.2274 12.8355C37.9226 13.0917 37.607 13.369 37.2806 13.6678L37.3785 13.8599ZM38.8803 16.9327C39.2504 16.6339 39.6205 16.3566 39.9904 16.1005C40.3605 15.8231 40.7414 15.5564 41.1331 15.3002C41.0896 15.2789 41.057 15.2469 41.0352 15.2042C41.0352 15.1616 41.0244 15.1189 41.0026 15.0762C40.6543 15.3749 40.2843 15.6524 39.8925 15.9084C39.5007 16.1432 39.1307 16.4099 38.7824 16.7087L38.8803 16.9327ZM40.6434 14.436C40.2734 14.7134 39.8925 14.9695 39.5007 15.2042C39.1307 15.4389 38.7607 15.7057 38.3906 16.0044L38.4886 16.1645C38.8586 15.8871 39.2396 15.631 39.6313 15.3962C40.0231 15.1616 40.3823 14.8842 40.7087 14.5641L40.6434 14.436ZM36.7255 12.2274C37.0084 11.9287 37.3132 11.6405 37.6397 11.3632C37.9662 11.0858 38.2709 10.7977 38.5539 10.499L38.4559 10.2429C38.1512 10.5416 37.8465 10.8403 37.5417 11.1392C37.2588 11.4379 36.9758 11.7473 36.6928 12.0674L36.7255 12.2274ZM36.4643 11.4272L38.1948 9.66671L38.1621 9.47466C37.8574 9.75207 37.5526 10.0401 37.2479 10.3389C36.965 10.6377 36.6711 10.9364 36.3664 11.2352L36.4643 11.4272ZM37.5091 8.06627H37.2153C36.9105 8.32234 36.6385 8.58908 36.399 8.86649C36.1595 9.12256 35.8984 9.39997 35.6154 9.69872L35.7133 9.85876L37.5091 8.06627ZM44.7246 9.6347C45.0511 9.46399 45.3667 9.30395 45.6715 9.15457C45.9979 9.0052 46.3244 8.85583 46.651 8.70645L46.6836 8.67444L46.6183 8.41837C46.3789 8.61042 46.0742 8.79181 45.7041 8.96252C45.3341 9.1119 45.0076 9.27193 44.7246 9.44265V9.6347ZM41.6556 17.7649C41.3508 17.9569 41.0462 18.1704 40.7414 18.4051C40.4367 18.6186 40.132 18.8106 39.8272 18.9813L39.8598 19.0773C40.1211 18.9066 40.3713 18.7466 40.6108 18.5972C40.872 18.4478 41.1549 18.3304 41.4597 18.2451L41.6556 17.7649ZM35.191 8.93051L35.3542 9.09055C35.6372 8.74913 35.9528 8.40769 36.3011 8.06627H36.1052L35.191 8.93051ZM44.5288 8.86649C44.5505 8.86649 44.6158 8.83448 44.7246 8.77046C44.8552 8.70645 44.9858 8.64243 45.1164 8.57841C45.2688 8.49306 45.4103 8.41837 45.5409 8.35435C45.6715 8.26899 45.7586 8.21564 45.8021 8.19431H45.6388L45.3776 8.22632C45.2035 8.33301 45.0403 8.42904 44.8879 8.51439C44.7573 8.59975 44.6157 8.69578 44.4635 8.80248L44.5288 8.86649ZM35.0278 8.09827C34.9189 8.20497 34.7992 8.32234 34.6686 8.45038C34.538 8.55708 34.4182 8.67444 34.3094 8.80248H34.4727C34.6033 8.67444 34.723 8.54641 34.8319 8.41837C34.9625 8.29034 35.1039 8.17297 35.2563 8.06627L35.0278 8.09827ZM41.0678 19.0133C40.7196 19.2053 40.4149 19.4081 40.1537 19.6214L40.219 19.6855C40.4367 19.5361 40.6652 19.4081 40.9046 19.3014L41.0678 19.0133ZM39.4028 8.29034C39.3375 8.37569 39.2722 8.46104 39.2069 8.54641C39.1416 8.61042 39.0545 8.66376 38.9456 8.70645C39.1633 8.66376 39.3483 8.55707 39.5007 8.38636L39.4028 8.29034ZM44.9858 10.883L44.1369 11.3632L44.1043 11.4272L44.8879 11.0431L44.9858 10.883ZM43.4187 13.2197V13.2517C43.4622 13.2517 43.5493 13.2197 43.6799 13.1557C43.8104 13.0917 43.8975 13.049 43.941 13.0277L44.0063 12.8676L43.4513 13.1877L43.4187 13.2197ZM45.3776 9.92278C45.247 10.0081 45.1164 10.0828 44.9858 10.1468C44.8552 10.2109 44.7355 10.2855 44.6267 10.3709L45.3449 10.0188L45.3776 9.92278ZM43.0268 14.1479C43.1139 14.1052 43.201 14.0626 43.2881 14.0199C43.3751 13.9559 43.4622 13.8919 43.5493 13.8279L43.0595 14.0839L43.0268 14.1479ZM44.4308 11.9393C44.2784 12.046 44.1043 12.1527 43.9084 12.2594L44.4308 12.0034V11.9393ZM43.6146 8.70645L43.6799 8.64243L43.5819 8.67444L43.6146 8.70645Z" fill="#28536B"/>
<path d="M48.497 19.527C48.497 19.1642 48.6058 18.8655 48.8235 18.6308C49.0629 18.3747 49.335 18.1934 49.6398 18.0867C49.5527 16.849 49.5417 15.6006 49.6071 14.3416C49.6941 13.0826 49.6724 11.8449 49.5418 10.6286C49.2371 10.5006 48.9759 10.3192 48.7582 10.0844C48.5405 9.82837 48.4316 9.52961 48.4316 9.18819C48.4316 8.8681 48.5297 8.60137 48.7256 8.38797C48.9214 8.15323 49.15 7.97185 49.4111 7.84381C49.6941 7.71578 49.9989 7.61976 50.3253 7.55574C50.6519 7.49172 50.9457 7.45971 51.2069 7.45971C51.5333 7.45971 51.9469 7.48105 52.4475 7.52373C52.9482 7.56641 53.427 7.65176 53.8842 7.7798C54.3412 7.90783 54.733 8.11056 55.0596 8.38797C55.4078 8.64404 55.5819 8.99614 55.5819 9.44426C55.5819 9.78568 55.4731 10.0951 55.2554 10.3725C55.0596 10.6286 54.8092 10.8313 54.5045 10.9806C54.4828 11.5781 54.4718 12.1756 54.4718 12.7731C54.4718 13.3493 54.4718 13.9362 54.4718 14.5337L54.5045 18.0547C54.8092 18.14 55.0596 18.3107 55.2554 18.5667C55.4731 18.8015 55.5819 19.0789 55.5819 19.399C55.5819 19.7617 55.4405 20.0712 55.1575 20.3272C54.8745 20.562 54.5263 20.7434 54.1127 20.8714C53.6992 21.0208 53.2747 21.1169 52.8394 21.1595C52.4041 21.2235 52.0449 21.2555 51.762 21.2555C51.4572 21.2555 51.1198 21.2342 50.7498 21.1915C50.3798 21.1702 50.0207 21.1061 49.6724 20.9994C49.3458 20.8927 49.0629 20.722 48.8235 20.4873C48.6058 20.2526 48.497 19.9325 48.497 19.527ZM52.0231 6.97958C51.6531 6.97958 51.3266 6.89422 51.0437 6.72351C50.7607 6.53146 50.5212 6.29673 50.3253 6.01931C50.1295 5.7419 49.9771 5.44315 49.8683 5.12306C49.7594 4.78164 49.7051 4.45089 49.7051 4.13079C49.7051 3.51196 49.8901 2.92512 50.26 2.37031C50.6301 1.81549 51.1307 1.45272 51.762 1.282L51.8926 1.31402C52.0666 1.27134 52.1972 1.25 52.2843 1.25C52.6761 1.25 53.0243 1.33535 53.3291 1.50607C53.6556 1.65544 53.9277 1.85817 54.1454 2.11424C54.3847 2.37031 54.5589 2.66905 54.6677 3.01049C54.7983 3.35191 54.8637 3.70401 54.8637 4.06678C54.8637 4.42954 54.7874 4.79231 54.6351 5.15508C54.4828 5.4965 54.2759 5.80592 54.0148 6.08334C53.7536 6.36074 53.4488 6.5848 53.1006 6.75552C52.7741 6.90489 52.4149 6.97958 52.0231 6.97958ZM53.2638 15.0138C52.8721 15.3765 52.4585 15.7287 52.0231 16.07C51.6096 16.4115 51.2177 16.7743 50.8478 17.1584V17.3505C51.2177 17.0304 51.6096 16.721 52.0231 16.4222C52.4367 16.1021 52.8503 15.7927 53.2638 15.494V15.0138ZM53.3617 8.8681C52.9264 9.18819 52.4911 9.51895 52.0558 9.86037C51.6204 10.1805 51.2069 10.5219 50.8151 10.8846V11.1728C51.3158 10.81 51.7946 10.4366 52.2517 10.0524C52.7305 9.66832 53.2094 9.29488 53.6882 8.93212L53.3617 8.8681ZM50.8151 15.3659C51.2504 15.0031 51.6531 14.6403 52.0231 14.2776C52.4149 13.9148 52.8285 13.5734 53.2638 13.2533V13.0293C52.8285 13.328 52.3932 13.6375 51.9579 13.9575C51.5225 14.2563 51.1416 14.619 50.8151 15.0458V15.3659ZM50.8804 18.4387C50.9239 18.3747 51.0655 18.2467 51.3048 18.0547C51.566 17.8625 51.8381 17.6599 52.1211 17.4465C52.4041 17.233 52.6544 17.041 52.8721 16.8703C53.1114 16.6782 53.253 16.5822 53.2965 16.5822V16.2622C52.8611 16.5182 52.4367 16.817 52.0231 17.1584C51.6096 17.4785 51.2177 17.8092 50.8478 18.1507L50.8804 18.4387ZM50.8478 12.101C51.4354 11.6743 52.0013 11.2261 52.5455 10.7566C53.1114 10.2872 53.71 9.86037 54.3412 9.47626L54.2759 9.28421C53.9712 9.45493 53.6774 9.66832 53.3944 9.92439C53.1114 10.1805 52.8285 10.4366 52.5455 10.6926C52.2625 10.9486 51.9795 11.1941 51.6967 11.4288C51.4137 11.6635 51.1307 11.8449 50.8478 11.973V12.101ZM50.26 19.9432C50.6954 19.5164 51.1742 19.1216 51.6967 18.7589C52.219 18.3747 52.7415 18.012 53.2638 17.6705V17.3825C53.0461 17.5532 52.7958 17.7559 52.5128 17.9907C52.2517 18.2254 51.9795 18.46 51.6967 18.6948C51.4137 18.9295 51.1307 19.1536 50.8478 19.367C50.5648 19.559 50.3036 19.7191 50.0642 19.8471L50.26 19.9432ZM53.2638 10.9486C52.8503 11.2688 52.4259 11.5995 51.9905 11.941C51.5769 12.261 51.196 12.6131 50.8478 12.9973V13.2213C51.2613 12.9439 51.664 12.6131 52.0558 12.229C52.4693 11.8449 52.8721 11.4928 53.2638 11.1728V10.9486ZM53.525 3.49061C53.155 3.8107 52.7958 4.13079 52.4475 4.45089C52.1211 4.77097 51.7946 5.1124 51.4681 5.47517L51.566 5.57119C51.8708 5.2511 52.2082 4.96303 52.5781 4.70696C52.97 4.42954 53.3183 4.13079 53.6229 3.8107L53.525 3.49061ZM50.9784 4.03477C51.2613 3.75736 51.5443 3.50129 51.8273 3.26656C52.1319 3.03182 52.4041 2.76508 52.6434 2.46633L52.4802 2.43433L52.1537 2.53035C51.9795 2.70107 51.7946 2.88245 51.5986 3.0745C51.4246 3.24522 51.2504 3.41593 51.0763 3.58664C51.0763 3.60798 51.0655 3.65066 51.0437 3.71468C51.0219 3.75736 51.0002 3.75736 50.9784 3.71468V4.03477ZM52.219 8.74007C51.9795 8.93212 51.7293 9.13484 51.4681 9.34823C51.2069 9.54028 50.9457 9.72167 50.6845 9.89238L50.7498 10.1164C51.0328 9.88171 51.3048 9.65765 51.566 9.44426C51.849 9.23086 52.1429 9.00681 52.4475 8.77207L52.219 8.74007ZM53.1332 2.81843C52.785 3.13852 52.4367 3.45861 52.0884 3.7787C51.7402 4.09878 51.4028 4.44021 51.0763 4.80298L51.1416 4.96303C51.4681 4.60026 51.8055 4.25883 52.1537 3.93875C52.502 3.59731 52.8611 3.27722 53.2312 2.97847L53.1332 2.81843ZM53.2638 14.0215C52.8285 14.3416 52.4041 14.6937 51.9905 15.0778C51.5986 15.462 51.2177 15.8353 50.8478 16.1982V16.3262C51.2177 15.942 51.6096 15.59 52.0231 15.2698C52.4367 14.9285 52.8285 14.5763 53.1985 14.2136L53.2638 14.1495V14.0215ZM53.2312 11.973C52.8611 12.2717 52.502 12.5811 52.1537 12.9012C51.8055 13.2 51.4572 13.52 51.1089 13.8615C51.4354 13.5628 51.7728 13.2853 52.1211 13.0293C52.4911 12.7731 52.8611 12.5171 53.2312 12.261V11.973ZM51.2722 20.0712C51.8599 19.4524 52.5128 18.9295 53.2312 18.5027L53.2638 18.4387V18.3747C52.8721 18.6308 52.4911 18.8975 52.1211 19.1749C51.751 19.4524 51.3919 19.7511 51.0437 20.0712H51.2722ZM52.5781 19.9752C52.7523 19.8257 52.9264 19.6977 53.1006 19.5911C53.2747 19.4844 53.4488 19.3564 53.6229 19.2069L53.3944 19.1109C53.1985 19.239 52.9917 19.3884 52.7741 19.559C52.5781 19.7084 52.3932 19.8685 52.219 20.0392L52.5781 19.9752ZM50.9131 8.64404C50.7607 8.79342 50.5975 8.93212 50.4233 9.06016C50.2492 9.18819 50.0968 9.33756 49.9662 9.50828L50.0642 9.54028H50.1947C50.3906 9.43359 50.5757 9.29488 50.7498 9.12417C50.9457 8.93212 51.1416 8.77207 51.3375 8.64404H50.9131ZM52.5781 5.6352C52.7088 5.4645 52.8394 5.31512 52.97 5.18708C53.1006 5.03771 53.253 4.90968 53.427 4.80298L53.4923 4.67494L53.4597 4.70696C53.242 4.87766 53.0243 5.04838 52.8068 5.2191C52.6108 5.3898 52.4259 5.57119 52.2517 5.76324H52.2843L52.5781 5.6352ZM50.8151 14.1495L51.0763 13.8935L50.8151 14.1175V14.1495ZM54.3086 19.495L54.178 19.5911L54.3086 19.527V19.495Z" fill="#28536B"/>
<path d="M56.1815 19.527C56.1815 19.1642 56.2903 18.8655 56.508 18.6308C56.7474 18.3747 57.0195 18.1934 57.3242 18.0867C57.2371 16.849 57.2263 15.6006 57.2916 14.3416C57.3787 13.0826 57.3569 11.8449 57.2263 10.6286C56.9215 10.5006 56.6603 10.3192 56.4427 10.0844C56.225 9.82837 56.1162 9.52961 56.1162 9.18819C56.1162 8.8681 56.2141 8.60137 56.41 8.38797C56.6059 8.15323 56.8344 7.97185 57.0957 7.84381C57.3787 7.71578 57.6833 7.61976 58.0099 7.55574C58.3364 7.49172 58.6302 7.45971 58.8913 7.45971C59.2179 7.45971 59.6315 7.48105 60.1321 7.52373C60.6327 7.56641 61.1115 7.65176 61.5687 7.7798C62.0257 7.90783 62.4176 8.11056 62.744 8.38797C63.0923 8.64404 63.2665 8.99614 63.2665 9.44426C63.2665 9.78568 63.1576 10.0951 62.9399 10.3725C62.744 10.6286 62.4937 10.8313 62.1889 10.9806C62.1672 11.5781 62.1563 12.1756 62.1563 12.7731C62.1563 13.3493 62.1563 13.9362 62.1563 14.5337L62.1889 18.0547C62.4937 18.14 62.744 18.3107 62.9399 18.5667C63.1576 18.8015 63.2665 19.0789 63.2665 19.399C63.2665 19.7617 63.1249 20.0712 62.842 20.3272C62.559 20.562 62.2107 20.7434 61.7972 20.8714C61.3836 21.0208 60.9592 21.1169 60.5239 21.1595C60.0885 21.2235 59.7294 21.2555 59.4464 21.2555C59.1417 21.2555 58.8044 21.2342 58.4343 21.1915C58.0642 21.1702 57.7051 21.1061 57.3569 20.9994C57.0304 20.8927 56.7474 20.722 56.508 20.4873C56.2903 20.2526 56.1815 19.9325 56.1815 19.527ZM59.7076 6.97958C59.3375 6.97958 59.0111 6.89422 58.7281 6.72351C58.4451 6.53146 58.2058 6.29673 58.0099 6.01931C57.8139 5.7419 57.6616 5.44315 57.5527 5.12306C57.444 4.78164 57.3895 4.45089 57.3895 4.13079C57.3895 3.51196 57.5745 2.92512 57.9445 2.37031C58.3146 1.81549 58.8152 1.45272 59.4464 1.282L59.577 1.31402C59.7512 1.27134 59.8818 1.25 59.9688 1.25C60.3606 1.25 60.7089 1.33535 61.0136 1.50607C61.3401 1.65544 61.6121 1.85817 61.8298 2.11424C62.0693 2.37031 62.2434 2.66905 62.3523 3.01049C62.4829 3.35191 62.5481 3.70401 62.5481 4.06678C62.5481 4.42954 62.4719 4.79231 62.3196 5.15508C62.1672 5.4965 61.9604 5.80592 61.6992 6.08334C61.4381 6.36074 61.1333 6.5848 60.785 6.75552C60.4586 6.90489 60.0995 6.97958 59.7076 6.97958ZM60.9483 15.0138C60.5565 15.3765 60.143 15.7287 59.7076 16.07C59.2941 16.4115 58.9023 16.7743 58.5322 17.1584V17.3505C58.9023 17.0304 59.2941 16.721 59.7076 16.4222C60.1212 16.1021 60.5347 15.7927 60.9483 15.494V15.0138ZM61.0462 8.8681C60.611 9.18819 60.1756 9.51895 59.7403 9.86037C59.3049 10.1805 58.8913 10.5219 58.4996 10.8846V11.1728C59.0002 10.81 59.4791 10.4366 59.9361 10.0524C60.415 9.66832 60.8939 9.29488 61.3728 8.93212L61.0462 8.8681ZM58.4996 15.3659C58.9349 15.0031 59.3375 14.6403 59.7076 14.2776C60.0995 13.9148 60.513 13.5734 60.9483 13.2533V13.0293C60.513 13.328 60.0777 13.6375 59.6423 13.9575C59.207 14.2563 58.8261 14.619 58.4996 15.0458V15.3659ZM58.5649 18.4387C58.6084 18.3747 58.7499 18.2467 58.9893 18.0547C59.2506 17.8625 59.5226 17.6599 59.8055 17.4465C60.0885 17.233 60.3388 17.041 60.5565 16.8703C60.796 16.6782 60.9374 16.5822 60.9809 16.5822V16.2622C60.5457 16.5182 60.1212 16.817 59.7076 17.1584C59.2941 17.4785 58.9023 17.8092 58.5322 18.1507L58.5649 18.4387ZM58.5322 12.101C59.12 11.6743 59.6858 11.2261 60.2301 10.7566C60.796 10.2872 61.3945 9.86037 62.0257 9.47626L61.9604 9.28421C61.6557 9.45493 61.3618 9.66832 61.0789 9.92439C60.796 10.1805 60.513 10.4366 60.2301 10.6926C59.9471 10.9486 59.6641 11.1941 59.3811 11.4288C59.0982 11.6635 58.8152 11.8449 58.5322 11.973V12.101ZM57.9445 19.9432C58.3799 19.5164 58.8587 19.1216 59.3811 18.7589C59.9035 18.3747 60.4259 18.012 60.9483 17.6705V17.3825C60.7306 17.5532 60.4804 17.7559 60.1974 17.9907C59.9361 18.2254 59.6641 18.46 59.3811 18.6948C59.0982 18.9295 58.8152 19.1536 58.5322 19.367C58.2493 19.559 57.9881 19.7191 57.7486 19.8471L57.9445 19.9432ZM60.9483 10.9486C60.5347 11.2688 60.1103 11.5995 59.675 11.941C59.2614 12.261 58.8805 12.6131 58.5322 12.9973V13.2213C58.9458 12.9439 59.3485 12.6131 59.7403 12.229C60.1538 11.8449 60.5565 11.4928 60.9483 11.1728V10.9486ZM61.2095 3.49061C60.8395 3.8107 60.4804 4.13079 60.1321 4.45089C59.8055 4.77097 59.4791 5.1124 59.1526 5.47517L59.2506 5.57119C59.5552 5.2511 59.8926 4.96303 60.2627 4.70696C60.6545 4.42954 61.0027 4.13079 61.3075 3.8107L61.2095 3.49061ZM58.6628 4.03477C58.9458 3.75736 59.2288 3.50129 59.5117 3.26656C59.8165 3.03182 60.0885 2.76508 60.328 2.46633L60.1648 2.43433L59.8382 2.53035C59.6641 2.70107 59.4791 2.88245 59.2832 3.0745C59.109 3.24522 58.9349 3.41593 58.7608 3.58664C58.7608 3.60798 58.7499 3.65066 58.7281 3.71468C58.7063 3.75736 58.6846 3.75736 58.6628 3.71468V4.03477ZM59.9035 8.74007C59.6641 8.93212 59.4138 9.13484 59.1526 9.34823C58.8914 9.54028 58.6302 9.72167 58.369 9.89238L58.4343 10.1164C58.7173 9.88171 58.9893 9.65765 59.2506 9.44426C59.5335 9.23086 59.8273 9.00681 60.1321 8.77207L59.9035 8.74007ZM60.8177 2.81843C60.4694 3.13852 60.1212 3.45861 59.7729 3.7787C59.4246 4.09878 59.0873 4.44021 58.7608 4.80298L58.8261 4.96303C59.1526 4.60026 59.4899 4.25883 59.8382 3.93875C60.1865 3.59731 60.5457 3.27722 60.9156 2.97847L60.8177 2.81843ZM60.9483 14.0215C60.513 14.3416 60.0885 14.6937 59.675 15.0778C59.2832 15.462 58.9023 15.8353 58.5322 16.1982V16.3262C58.9023 15.942 59.2941 15.59 59.7076 15.2698C60.1212 14.9285 60.513 14.5763 60.883 14.2136L60.9483 14.1495V14.0215ZM60.9156 11.973C60.5457 12.2717 60.1865 12.5811 59.8382 12.9012C59.4899 13.2 59.1417 13.52 58.7934 13.8615C59.12 13.5628 59.4573 13.2853 59.8055 13.0293C60.1756 12.7731 60.5457 12.5171 60.9156 12.261V11.973ZM58.9566 20.0712C59.5444 19.4524 60.1974 18.9295 60.9156 18.5027L60.9483 18.4387V18.3747C60.5565 18.6308 60.1756 18.8975 59.8055 19.1749C59.4356 19.4524 59.0764 19.7511 58.7281 20.0712H58.9566ZM60.2627 19.9752C60.4368 19.8257 60.611 19.6977 60.785 19.5911C60.9592 19.4844 61.1333 19.3564 61.3075 19.2069L61.0789 19.1109C60.883 19.239 60.6763 19.3884 60.4586 19.559C60.2627 19.7084 60.0777 19.8685 59.9035 20.0392L60.2627 19.9752ZM58.5975 8.64404C58.4451 8.79342 58.2819 8.93212 58.1078 9.06016C57.9337 9.18819 57.7813 9.33756 57.6507 9.50828L57.7486 9.54028H57.8792C58.0752 9.43359 58.2601 9.29488 58.4343 9.12417C58.6302 8.93212 58.8261 8.77207 59.0219 8.64404H58.5975ZM60.2627 5.6352C60.3933 5.4645 60.5239 5.31512 60.6545 5.18708C60.785 5.03771 60.9374 4.90968 61.1115 4.80298L61.1769 4.67494L61.1443 4.70696C60.9266 4.87766 60.7089 5.04838 60.4912 5.2191C60.2953 5.3898 60.1103 5.57119 59.9361 5.76324H59.9688L60.2627 5.6352ZM58.4996 14.1495L58.7608 13.8935L58.4996 14.1175V14.1495ZM61.9931 19.495L61.8625 19.5911L61.9931 19.527V19.495Z" fill="#28536B"/>
<path d="M71.7729 6.68984C72.034 6.68984 72.2409 6.75386 72.3932 6.8819C72.5673 6.9886 72.6979 7.13797 72.785 7.33002C72.8938 7.50074 72.9591 7.69279 72.9809 7.90618C73.0244 8.11958 73.0462 8.33296 73.0462 8.54636C73.0462 8.97314 72.9591 9.31457 72.785 9.57064C72.6326 9.82671 72.415 10.0294 72.132 10.1788C71.8708 10.3282 71.566 10.4349 71.2178 10.4989C70.8913 10.5629 70.5539 10.6269 70.2056 10.691C70.2274 11.1178 70.2166 11.5338 70.173 11.9393C70.1513 12.3234 70.1404 12.7288 70.1404 13.1556C70.1404 13.9025 70.1622 14.66 70.2056 15.4282C70.2492 16.1752 70.2709 16.922 70.2709 17.6689C70.4233 17.5409 70.5865 17.4235 70.7607 17.3167C70.9348 17.2101 71.1198 17.1567 71.3157 17.1567C71.664 17.1567 71.9361 17.3061 72.132 17.6049C72.3497 17.9036 72.4584 18.2024 72.4584 18.5011C72.4584 18.8639 72.3605 19.2267 72.1646 19.5894C71.9905 19.9522 71.7511 20.2829 71.4464 20.5817C71.1416 20.8591 70.8042 21.0831 70.4343 21.2539C70.0642 21.4459 69.6942 21.5419 69.3242 21.5419C68.214 21.5419 67.3761 21.2326 66.8101 20.6137C66.2442 19.9949 65.8306 19.2374 65.5695 18.3411C65.33 17.4448 65.1994 16.5059 65.1777 15.5243C65.1559 14.5427 65.1451 13.6891 65.1451 12.9636C65.1451 12.5581 65.1451 12.1527 65.1451 11.7473C65.1451 11.3205 65.1668 10.915 65.2104 10.5309C64.775 10.4456 64.4485 10.2535 64.2309 9.95475C64.0132 9.63466 63.9043 9.26122 63.9043 8.83444C63.9043 8.45033 64.0349 8.10891 64.2962 7.81016C64.5355 7.5114 64.8511 7.30868 65.243 7.20198L65.2756 3.32892C64.9927 3.2649 64.7315 3.13687 64.492 2.94482C64.2309 2.75276 64.1003 2.50736 64.1003 2.20861C64.1003 1.8245 64.307 1.49375 64.7206 1.21633C65.1559 0.938927 65.6566 0.714865 66.2225 0.544151C66.7883 0.352097 67.3543 0.213392 67.9202 0.128036C68.4861 0.0426785 68.9105 0 69.1935 0C69.6289 0 69.9989 0.128036 70.3036 0.384107C70.6301 0.640178 70.7934 0.992274 70.7934 1.4404C70.7934 1.95254 70.6192 2.43268 70.2709 2.8808C70.2927 2.98749 70.2819 3.09419 70.2383 3.20089C70.2166 3.28624 70.2056 3.38227 70.2056 3.48896L70.2383 7.39404H70.4996C70.6954 7.22333 70.8805 7.06328 71.0545 6.91391C71.2504 6.76453 71.4899 6.68984 71.7729 6.68984ZM66.5816 17.6369C66.9734 17.3808 67.3979 17.0714 67.8549 16.7087C68.3121 16.3459 68.7038 15.983 69.0303 15.6203V15.0122C68.595 15.3749 68.1597 15.727 67.7243 16.0684C67.3108 16.3885 66.9081 16.762 66.5163 17.1887L66.549 17.2527L66.5816 17.6369ZM69.3242 1.24835C68.8236 1.65379 68.3338 2.06991 67.8549 2.49669C67.3979 2.90213 66.9407 3.32892 66.4837 3.77704V4.22517C66.636 4.03311 66.8428 3.81973 67.1039 3.58499C67.3652 3.32892 67.6372 3.07285 67.9202 2.81678C68.225 2.56071 68.5188 2.32598 68.8018 2.11259C69.1065 1.87785 69.3677 1.70714 69.5854 1.60044V1.34437L69.3568 1.24835H69.3242ZM69.0303 5.98565C68.8562 6.09235 68.5623 6.30574 68.1487 6.62583C67.7352 6.94591 67.3108 7.29802 66.8754 7.68212C66.4619 8.04489 66.081 8.37565 65.7327 8.6744C65.4062 8.97314 65.243 9.15452 65.243 9.21854C65.243 9.28256 65.2756 9.31457 65.3409 9.31457C65.9722 8.82377 66.5816 8.31163 67.1692 7.77814C67.7788 7.24467 68.399 6.72186 69.0303 6.20972V5.98565ZM69.0956 2.68875C68.7256 3.11553 68.2903 3.51031 67.7896 3.87307C67.3108 4.23583 66.8646 4.61994 66.451 5.02539V5.40949C66.821 5.04673 67.2237 4.68396 67.659 4.3212C68.0944 3.95843 68.5406 3.62767 68.9976 3.32892L69.0956 2.68875ZM69.618 8.77042L69.5201 8.73842C68.9758 9.16519 68.4317 9.62399 67.8876 10.1148C67.3652 10.5843 66.8536 11.0644 66.3531 11.5552V11.8433C66.8972 11.3098 67.4522 10.7976 68.0181 10.3068C68.6059 9.81604 69.1827 9.29323 69.7486 8.73842L69.618 8.77042ZM68.965 12.5795C68.5514 13.0063 68.1161 13.401 67.659 13.7638C67.2237 14.1265 66.7993 14.5213 66.3857 14.9482C66.3857 15.0122 66.3857 15.0762 66.3857 15.1402C66.4074 15.2042 66.4184 15.2682 66.4184 15.3322C66.8319 14.9268 67.2455 14.532 67.659 14.1479C68.0944 13.7425 68.5296 13.3583 68.965 12.9956V12.5795ZM66.3531 14.1479C66.549 14.0412 66.7557 13.8812 66.9734 13.6678C67.2128 13.4543 67.4413 13.2303 67.659 12.9956C67.8985 12.7608 68.127 12.5261 68.3447 12.2913C68.5841 12.0566 68.8126 11.8646 69.0303 11.7153V11.3311C68.595 11.7366 68.127 12.1527 67.6264 12.5795C67.1257 12.985 66.7013 13.433 66.3531 13.9238V14.1479ZM66.451 16.3885C66.821 16.0257 67.2563 15.6737 67.757 15.3322C68.2576 14.9908 68.6603 14.628 68.965 14.244V13.7958C68.5296 14.1799 68.0944 14.564 67.659 14.9482C67.2237 15.3322 66.821 15.7377 66.451 16.1645V16.3885ZM69.0303 6.97793C68.7038 7.36203 68.2576 7.76747 67.6917 8.19426C67.1257 8.5997 66.6577 8.98382 66.2878 9.34658L66.3857 9.50663C66.8211 9.14386 67.2455 8.77042 67.659 8.38631C68.0944 8.00221 68.5514 7.66079 69.0303 7.36203V6.97793ZM66.8428 18.5972C67.1475 18.2557 67.5066 17.9462 67.9202 17.6689C68.3338 17.3702 68.7147 17.0714 69.0629 16.7727V16.4205C68.693 16.7407 68.3011 17.05 67.8876 17.3488C67.4958 17.6475 67.1149 17.9676 66.7448 18.309L66.8428 18.5972ZM66.3857 10.659C66.8211 10.2748 67.2781 9.9014 67.757 9.53863C68.2358 9.15452 68.6712 8.74908 69.0629 8.3223C69.0412 8.27962 69.0303 8.20493 69.0303 8.09823C68.5732 8.43966 68.127 8.79177 67.6917 9.15452C67.2563 9.51729 66.8211 9.88006 66.3857 10.2428V10.659ZM68.965 10.3389C68.5296 10.7443 68.0834 11.1284 67.6264 11.4911C67.191 11.854 66.7557 12.2487 66.3204 12.6755V12.9956C66.7122 12.5688 67.1692 12.1633 67.6917 11.7793C68.2358 11.3951 68.6603 10.9683 68.965 10.4989V10.3389ZM66.4184 7.29802L66.5163 7.20198C66.8864 6.83923 67.2781 6.49779 67.6917 6.17771C68.127 5.83628 68.5732 5.53753 69.0303 5.28146V4.96137C68.5514 5.28146 68.0944 5.63355 67.659 6.01766C67.2455 6.40177 66.8319 6.79654 66.4184 7.20198V7.29802ZM67.2999 19.2374C67.6046 19.0026 67.8985 18.7679 68.1814 18.5331C68.4643 18.277 68.7583 18.021 69.0629 17.7649V17.5409C68.9976 17.6049 68.867 17.7222 68.6712 17.8929C68.4753 18.0424 68.2685 18.213 68.0508 18.4051C67.8331 18.5757 67.6372 18.7359 67.4632 18.8852C67.289 19.0346 67.191 19.1092 67.1692 19.1092L67.2999 19.2374ZM68.1487 1.40839C68.0834 1.45107 68.0073 1.48308 67.9202 1.50442C67.8331 1.52575 67.7461 1.5471 67.659 1.56843L66.451 2.72075C66.451 2.76343 66.451 2.79543 66.451 2.81678C66.4727 2.83812 66.4837 2.87013 66.4837 2.9128C66.7448 2.6354 67.0169 2.37933 67.2999 2.14459C67.5829 1.88852 67.8658 1.64312 68.1487 1.40839ZM66.451 6.36976C66.8428 5.98565 67.2455 5.61222 67.659 5.24945C68.0726 4.86534 68.5296 4.53459 69.0303 4.25718V4.06513C68.5732 4.40655 68.1161 4.75864 67.659 5.12141C67.2237 5.48418 66.821 5.87895 66.451 6.30574V6.36976ZM71.7402 7.90618C71.6313 8.01288 71.5117 8.11958 71.381 8.22628C71.2722 8.33296 71.1416 8.41833 70.9893 8.48235C70.8152 8.6744 70.6192 8.85578 70.4016 9.02649C70.1839 9.17587 69.988 9.34658 69.8139 9.53863L70.1404 9.44261C70.4233 9.18654 70.6845 8.93047 70.924 8.6744C71.1851 8.41833 71.4681 8.17293 71.7729 7.93819L71.7402 7.90618ZM69.3242 20.3256C69.5418 20.1549 69.7378 19.9522 69.9118 19.7174C70.086 19.4827 70.2819 19.28 70.4996 19.1092H70.4669C70.2274 19.28 69.988 19.4614 69.7486 19.6534C69.5309 19.8454 69.3242 20.0589 69.1282 20.2936L69.3242 20.3256ZM68.4753 20.1336C68.6494 19.9202 68.8235 19.7281 68.9976 19.5574C69.1935 19.3654 69.3895 19.1839 69.5854 19.0132L69.5527 18.9812C69.335 19.1519 69.1282 19.3334 68.9323 19.5254C68.7365 19.6961 68.5514 19.8775 68.3774 20.0696L68.4753 20.1336ZM67.8549 19.7494C68.0726 19.5147 68.2903 19.3014 68.5079 19.1092C68.7256 18.8959 68.9541 18.6932 69.1935 18.5011H69.1609C68.9215 18.6719 68.682 18.8532 68.4426 19.0452C68.225 19.2374 67.9964 19.44 67.757 19.6534L67.8549 19.7494ZM71.2504 9.25056C71.4028 9.20787 71.5334 9.15452 71.6423 9.09051C71.7511 9.00515 71.8164 8.87712 71.8382 8.7064L71.2504 9.25056ZM66.3531 1.8245L65.9939 2.20861L66.0918 2.24062L66.549 1.79249L66.3531 1.8245ZM71.2504 18.6292L71.2831 18.5011C71.1961 18.5224 71.1198 18.5651 71.0545 18.6292C70.9893 18.6932 70.9348 18.7465 70.8913 18.7892L71.2504 18.6292ZM70.6954 18.9172V18.9492L70.8913 18.7892L70.6954 18.9172Z" fill="#28536B"/>
<path d="M79.4235 21.4154C78.4222 21.4154 77.508 21.234 76.6809 20.8712C75.8538 20.5085 75.1355 20.007 74.5261 19.3668C73.9384 18.7266 73.4813 17.9905 73.1548 17.1582C72.8284 16.3046 72.665 15.3976 72.665 14.4374C72.665 13.4558 72.8066 12.4956 73.0895 11.5566C73.3942 10.6177 73.8296 9.77481 74.3955 9.02793C74.9614 8.28106 75.658 7.68357 76.4851 7.23544C77.334 6.76597 78.3135 6.53125 79.4235 6.53125C80.4683 6.53125 81.3716 6.73397 82.1334 7.13941C82.917 7.52352 83.57 8.04633 84.0924 8.70785C84.6148 9.34802 84.9957 10.1056 85.2351 10.9804C85.4964 11.8341 85.6269 12.7303 85.6269 13.6692C85.6269 14.6721 85.5181 15.6431 85.3004 16.582C85.0827 17.4996 84.7236 18.3212 84.223 19.0467C83.7441 19.7509 83.1129 20.327 82.3294 20.7752C81.5457 21.202 80.5771 21.4154 79.4235 21.4154ZM79.8153 9.38003C79.467 9.44405 79.195 9.71079 78.999 10.1803C78.825 10.6497 78.6944 11.1832 78.6073 11.7807C78.5202 12.3782 78.4657 12.9651 78.444 13.5411C78.444 14.1173 78.444 14.5441 78.444 14.8216C78.444 15.4831 78.4767 16.1553 78.542 16.8381C78.6291 17.4996 78.8902 18.1078 79.3256 18.6626L79.5215 18.5345C79.7608 17.9583 79.9242 17.3716 80.0112 16.7741C80.1201 16.1766 80.1853 15.5684 80.2071 14.9496C80.2506 14.3308 80.2615 13.7119 80.2398 13.0931C80.218 12.4742 80.2071 11.8554 80.2071 11.2366C80.2071 11.0018 80.1854 10.6817 80.1418 10.2763C80.0983 9.84949 79.9895 9.55074 79.8153 9.38003ZM79.293 7.74758C78.9664 8.00365 78.5528 8.34508 78.0522 8.77186C77.5516 9.17731 77.051 9.61477 76.5504 10.0842C76.0497 10.5324 75.5709 10.9804 75.1138 11.4286C74.6567 11.8554 74.3194 12.2288 74.1017 12.5489L74.069 12.7729C74.7656 12.1754 75.4403 11.5673 76.0933 10.9484C76.7462 10.3296 77.4319 9.7428 78.1502 9.18798C78.3243 8.93191 78.4985 8.72918 78.6726 8.57981C78.8684 8.43044 79.1079 8.3024 79.3909 8.1957C79.5433 8.04633 79.7174 7.90762 79.9132 7.77959L79.293 7.74758ZM74.167 16.326C74.254 16.2193 74.4608 16.0272 74.7873 15.7498C75.1355 15.4511 75.4838 15.1416 75.832 14.8216C76.2021 14.5014 76.5286 14.2241 76.8115 13.9893C77.0945 13.7333 77.2469 13.5839 77.2687 13.5411V13.1251C76.7027 13.5518 76.1368 14 75.5709 14.4694C75.0049 14.9176 74.5043 15.419 74.069 15.9738L74.167 16.326ZM84.223 11.8127C83.7659 12.1754 83.2871 12.5276 82.7864 12.869C82.3076 13.1891 81.8504 13.5626 81.4152 13.9893V14.3094C81.8504 13.9679 82.3184 13.6266 82.8191 13.2851C83.3197 12.9437 83.8203 12.6556 84.3209 12.4209C84.2992 12.3142 84.2882 12.1648 84.2882 11.9727L84.223 11.8127ZM83.9618 16.0378C84.0706 15.8671 84.125 15.6858 84.125 15.4938C83.6244 15.7285 83.1347 15.9952 82.6558 16.294C82.1987 16.5713 81.7416 16.8701 81.2845 17.1902L81.2193 17.5743C81.6545 17.2755 82.1007 17.0195 82.5579 16.8061C83.0367 16.5713 83.5047 16.3153 83.9618 16.0378ZM73.9384 15.1736C74.4173 14.6188 74.9505 14.1173 75.5382 13.6692C76.1477 13.1998 76.7354 12.7516 77.3013 12.3249L77.3666 11.8127C76.7572 12.3036 76.1694 12.8049 75.6035 13.3171C75.0594 13.8293 74.5043 14.3521 73.9384 14.8856V15.1736ZM80.7295 18.9507C81.1212 18.652 81.5892 18.3638 82.1334 18.0865C82.6776 17.809 83.1782 17.5956 83.6353 17.4463C83.6788 17.3395 83.7006 17.2328 83.7006 17.1262C83.7223 17.0195 83.7549 16.9128 83.7985 16.8061C83.5809 16.9128 83.3197 17.0515 83.0149 17.2222C82.7103 17.3716 82.4055 17.5423 82.1007 17.7343C81.7961 17.905 81.5131 18.0971 81.2518 18.3105C81.0125 18.5238 80.8383 18.7373 80.7295 18.9507ZM83.9291 10.7564L81.4152 12.8049V13.1571C81.8504 12.7943 82.2858 12.4529 82.7211 12.1328C83.1782 11.8127 83.6353 11.4926 84.0924 11.1726L83.9291 10.7564ZM84.3862 13.0931C83.8856 13.3918 83.374 13.7119 82.8517 14.0533C82.3294 14.3734 81.8504 14.7255 81.4152 15.1096V15.3656C81.9375 15.0883 82.4381 14.7788 82.917 14.4374C83.4176 14.0746 83.9073 13.7333 84.3862 13.4131V13.0931ZM73.9384 14.0533C74.439 13.4771 75.0049 12.9116 75.6362 12.3569C76.2674 11.8021 76.8986 11.3112 77.5298 10.8844C77.5516 10.7991 77.5625 10.7137 77.5625 10.6284C77.5625 10.543 77.5843 10.4577 77.6278 10.3723C77.0402 10.9271 76.398 11.4819 75.7014 12.0368C75.0267 12.5916 74.439 13.1784 73.9384 13.7973V14.0533ZM74.4934 17.1902C74.9288 16.8275 75.3858 16.454 75.8647 16.0698C76.3436 15.6644 76.7789 15.2483 77.1707 14.8216V14.4374C76.7354 14.8216 76.2565 15.227 75.7341 15.6538C75.2336 16.0806 74.7872 16.5073 74.3955 16.9341L74.4934 17.1902ZM84.2882 14.6935C84.2882 14.6508 84.2882 14.5655 84.2882 14.4374C84.31 14.3094 84.3427 14.2241 84.3862 14.1813C83.8856 14.4801 83.3632 14.8001 82.8191 15.1416C82.2966 15.4618 81.8178 15.8031 81.3825 16.1659V16.358C81.8178 16.0806 82.3076 15.8138 82.8517 15.5578C83.4176 15.2803 83.8965 14.9923 84.2882 14.6935ZM74.9832 17.9905C75.3097 17.6276 75.6688 17.2862 76.0607 16.9661C76.4742 16.646 76.8768 16.3366 77.2687 16.0378L77.2034 15.6538C76.8115 16.0165 76.4089 16.358 75.9954 16.678C75.5818 16.9981 75.19 17.3503 74.8199 17.7343L74.9832 17.9905ZM82.917 18.7906C82.9823 18.7053 83.0367 18.62 83.0802 18.5345C83.1455 18.4492 83.2108 18.3532 83.2761 18.2465C82.7103 18.5238 82.177 18.812 81.6763 19.1107C81.1757 19.4095 80.675 19.7402 80.1744 20.103L80.5336 20.039C80.9036 19.8042 81.2845 19.5802 81.6763 19.3668C82.0899 19.1534 82.5034 18.9613 82.917 18.7906ZM78.0195 7.90762C77.8237 8.14236 77.5516 8.39843 77.2034 8.67584C76.8551 8.93191 76.4959 9.20932 76.126 9.50807C75.7559 9.78548 75.4185 10.0842 75.1138 10.4044C74.809 10.7031 74.6022 10.9911 74.4934 11.2686V11.3326C75.1465 10.8204 75.7559 10.2549 76.3218 9.6361C76.9095 9.01726 77.5298 8.43044 78.1829 7.87562L78.0195 7.90762ZM83.5374 9.95619C83.1455 10.2123 82.7756 10.4897 82.4273 10.7884C82.079 11.0872 81.7525 11.4072 81.4478 11.7487V11.9727C81.7961 11.674 82.177 11.3859 82.5905 11.1085C83.0041 10.8097 83.3632 10.5004 83.668 10.1803L83.5374 9.95619ZM75.5709 18.6306C75.832 18.3318 76.115 18.0545 76.4198 17.7983C76.7462 17.521 77.0618 17.2648 77.3666 17.0301L77.334 16.7741C76.9857 17.0301 76.6483 17.3075 76.3218 17.6063C75.9954 17.8837 75.6798 18.1718 75.375 18.4705L75.5709 18.6306ZM83.0476 9.34802C82.7646 9.54007 82.4816 9.73213 82.1987 9.92418C81.9375 10.1162 81.6763 10.319 81.4152 10.5324C81.4369 10.5751 81.4478 10.6711 81.4478 10.8204C81.9701 10.351 82.5361 9.89217 83.1455 9.44405L83.0476 9.34802ZM82.3947 8.80388C82.2205 8.95325 82.0354 9.09195 81.8396 9.21998C81.6437 9.32668 81.4587 9.44405 81.2845 9.57209L81.3499 9.82816C81.5458 9.65744 81.7416 9.50807 81.9375 9.38003C82.1552 9.252 82.362 9.10262 82.5579 8.93191L82.3947 8.80388ZM76.8442 19.5588C76.9966 19.3882 77.1489 19.2388 77.3013 19.1107C77.4754 18.9613 77.6496 18.812 77.8237 18.6626L77.7257 18.4705C77.6822 18.5132 77.606 18.5879 77.4972 18.6946C77.3884 18.8013 77.2795 18.9187 77.1707 19.0467C77.0618 19.1534 76.9531 19.2601 76.8442 19.3668C76.7572 19.4522 76.7136 19.4948 76.7136 19.4948L76.8442 19.5588ZM81.056 8.96392C81.1865 8.85722 81.3172 8.7612 81.4478 8.67584C81.5784 8.59048 81.7198 8.50513 81.8722 8.41977L81.5784 8.22772L80.958 8.80388L81.056 8.96392ZM76.126 19.1427C76.3653 18.9507 76.583 18.7373 76.7789 18.5025C76.9966 18.2465 77.2469 18.0331 77.5298 17.8623L77.4972 17.7343C77.2577 17.9477 76.9966 18.1718 76.7136 18.4065C76.4524 18.62 76.2239 18.844 76.028 19.0787L76.126 19.1427ZM78.8684 20.199L79.3582 19.911C79.293 19.9323 79.1841 19.9323 79.0317 19.911C78.9011 19.8683 78.8141 19.8255 78.7705 19.7829L78.3461 20.135L78.8684 20.199ZM77.6278 19.911C77.7367 19.8042 77.8455 19.7189 77.9542 19.6548C78.0848 19.5908 78.1937 19.5055 78.2808 19.3988L78.1502 19.2388C77.8673 19.4522 77.6386 19.6548 77.4646 19.8469L77.6278 19.911ZM80.7295 7.90762L80.2724 8.25972L80.4683 8.35575L80.9254 7.97165L80.7295 7.90762Z" fill="#28536B"/>
<path d="M92.2984 12.4835C92.2332 12.6329 92.1679 12.8676 92.1026 13.1877C92.0591 13.4864 92.0156 13.8065 91.972 14.1479C91.9502 14.4894 91.9285 14.8202 91.9067 15.1402C91.8849 15.4604 91.874 15.7057 91.874 15.8764V18.1171C92.2005 18.2024 92.4944 18.3518 92.7556 18.5651C93.0386 18.7786 93.18 19.0666 93.18 19.4294C93.18 19.8561 93.0277 20.1869 92.7229 20.4216C92.4182 20.6351 92.0482 20.7951 91.6129 20.9018C91.1775 21.0085 90.7313 21.0725 90.2743 21.0938C89.8171 21.1153 89.4472 21.1259 89.1642 21.1259C88.9029 21.1259 88.5873 21.1153 88.2173 21.0938C87.8473 21.0938 87.4882 21.0511 87.1399 20.9658C86.8134 20.8805 86.5304 20.7418 86.291 20.5498C86.0515 20.3576 85.9318 20.0803 85.9318 19.7175C85.9318 19.3974 86.0298 19.12 86.2257 18.8853C86.4216 18.6506 86.6719 18.4798 86.9767 18.3731C86.9767 16.9647 86.9549 15.5777 86.9113 14.212C86.8896 12.8462 86.8351 11.4592 86.7481 10.0508C86.3998 9.94412 86.0733 9.77341 85.7686 9.53867C85.4639 9.30395 85.3115 8.97318 85.3115 8.54641C85.3115 8.09827 85.4856 7.75685 85.8339 7.52212C86.2039 7.26605 86.6393 7.08466 87.1399 6.97797C87.6623 6.87127 88.1847 6.80726 88.707 6.78592C89.2295 6.76457 89.6539 6.75391 89.9803 6.75391C90.5463 6.75391 90.9925 6.90329 91.3191 7.20203C91.6455 7.50078 91.8632 7.9169 91.972 8.45038C92.2984 8.02359 92.6685 7.66083 93.0821 7.36208C93.5174 7.06333 94.0181 6.91396 94.584 6.91396C95.3675 6.91396 95.9661 7.20203 96.3796 7.77819C96.7932 8.33301 97 8.96252 97 9.66671C97 9.90144 96.9674 10.1789 96.9021 10.499C96.8368 10.7977 96.7279 11.0858 96.5756 11.3632C96.4232 11.6192 96.2382 11.8433 96.0205 12.0354C95.8028 12.206 95.5417 12.2914 95.2369 12.2914C95.0628 12.2914 94.8996 12.2594 94.7472 12.1954C94.5948 12.11 94.4425 12.0247 94.2901 11.9393C94.1378 11.854 93.9963 11.7793 93.8657 11.7153C93.7569 11.6299 93.6698 11.5872 93.6045 11.5872C93.2997 11.5872 93.0494 11.7047 92.8535 11.9393C92.6795 12.1527 92.4944 12.3342 92.2984 12.4835ZM88.1847 18.6932C88.62 18.3304 89.0445 17.9677 89.458 17.6049C89.8716 17.2208 90.2743 16.8367 90.666 16.4526V15.9724C90.2307 16.3352 89.7953 16.6979 89.3601 17.0607C88.9465 17.4022 88.5547 17.7863 88.1847 18.2131V18.6932ZM94.5513 8.16229C94.0289 8.58908 93.5283 9.09055 93.0494 9.66671C92.5924 10.2429 92.1462 10.7763 91.7108 11.2672L91.8087 11.2352C92.3747 10.7443 92.9188 10.2429 93.4413 9.73073C93.9636 9.21859 94.5077 8.71711 95.0737 8.22632L94.5513 8.16229ZM88.1194 13.9879C88.6418 13.4544 89.1642 12.9102 89.6865 12.3555C90.2307 11.8007 90.7858 11.2672 91.3517 10.755C91.3081 10.7337 91.2755 10.7123 91.2538 10.691C91.232 10.6697 91.1993 10.659 91.1557 10.659C90.5899 11.1498 90.0566 11.662 89.5559 12.1954C89.0771 12.7075 88.5983 13.241 88.1194 13.7959V13.9879ZM90.8293 8.80248C90.3286 9.1439 89.8389 9.54934 89.3601 10.0188C88.8812 10.467 88.4459 10.915 88.0541 11.3632V11.7473C88.4894 11.2778 88.9574 10.8297 89.458 10.403C89.9803 9.95479 90.4483 9.496 90.8619 9.02653L90.8293 8.80248ZM91.1557 12.0994C91.1775 12.014 91.232 11.886 91.3191 11.7153V11.6833C90.8184 12.2167 90.2851 12.7395 89.7192 13.2517C89.1532 13.7425 88.6309 14.2654 88.1521 14.8202V15.2362L91.1557 12.0994ZM90.7313 14.5C90.3178 14.9482 89.9042 15.4069 89.4907 15.8764C89.0988 16.3459 88.6636 16.7727 88.1847 17.1568V17.3489C88.5765 16.9647 89.0118 16.6019 89.4907 16.2606C89.9913 15.8977 90.3939 15.503 90.6987 15.0762L90.7313 14.6601V14.5ZM88.1194 12.8996C88.5547 12.4088 89.0009 11.9287 89.458 11.4592C89.9151 10.9684 90.3939 10.5096 90.8945 10.0828V9.82676C90.3939 10.2749 89.9151 10.7337 89.458 11.2032C89.0009 11.6512 88.5438 12.1207 88.0867 12.6115L88.1194 12.8996ZM90.8945 13.2197C90.8075 13.3264 90.6116 13.5291 90.3069 13.8279C90.0239 14.1266 89.7192 14.4467 89.3927 14.7881C89.0879 15.1082 88.805 15.4069 88.5438 15.6844C88.3043 15.9617 88.1847 16.1219 88.1847 16.1645V16.3566L88.2173 16.2926C88.7179 15.8871 89.1532 15.4283 89.5233 14.9162C89.9151 14.404 90.3613 13.9452 90.8619 13.5397L90.8945 13.2197ZM88.1521 19.8776C88.5656 19.4721 88.9682 19.0879 89.3601 18.7252C89.7736 18.3411 90.2198 17.9784 90.6987 17.6369C90.6987 17.5729 90.6878 17.5089 90.666 17.4449C90.666 17.3809 90.666 17.3274 90.666 17.2848C90.209 17.7116 89.741 18.1491 89.2621 18.5972C88.805 19.0239 88.3261 19.4294 87.8255 19.8135L88.1521 19.8776ZM95.5308 8.64243C95.2261 8.91984 94.9213 9.20792 94.6166 9.50667C94.3337 9.78408 94.0397 10.0722 93.7351 10.3709C93.7786 10.3709 93.833 10.3709 93.8983 10.3709C93.9854 10.3709 94.0507 10.3922 94.0942 10.435L95.6288 8.8985L95.5308 8.64243ZM89.2621 8.03426C88.7179 8.39703 88.239 8.81314 87.8255 9.2826L87.8581 9.31462L87.9234 9.50667C88.2282 9.2506 88.522 9.0052 88.805 8.77046C89.1097 8.51439 89.4144 8.25832 89.7192 8.00225L89.2621 8.03426ZM95.792 9.60269C95.5961 9.79474 95.4001 9.9868 95.2043 10.1789C95.0302 10.3709 94.8452 10.5523 94.6493 10.723C94.7146 10.8083 94.8017 10.8617 94.9104 10.883C95.041 10.7337 95.1716 10.6057 95.3022 10.499C95.4546 10.3709 95.607 10.2429 95.7594 10.1148L95.792 9.60269ZM90.5028 8.09827C90.111 8.48239 89.6865 8.84515 89.2295 9.18658C88.7941 9.528 88.3806 9.90144 87.9887 10.3069V10.531C88.4024 10.1255 88.8159 9.72006 89.2295 9.31462C89.6647 8.90917 90.1219 8.54641 90.6007 8.22632L90.5028 8.09827ZM89.2621 19.9096C89.5015 19.6961 89.741 19.4828 89.9803 19.2694C90.2198 19.0559 90.4592 18.8426 90.6987 18.6292V18.4051C90.0674 18.8959 89.4907 19.3974 88.9682 19.9096H89.2621ZM90.764 19.8135C90.9381 19.6428 91.1231 19.4934 91.3191 19.3654L91.2864 19.3334L90.9272 19.2053C90.7966 19.3121 90.666 19.4188 90.5354 19.5254C90.4266 19.6321 90.3178 19.7495 90.209 19.8776L90.764 19.8135ZM87.7276 8.16229C87.6188 8.26899 87.499 8.38636 87.3684 8.51439C87.2379 8.62109 87.1181 8.73846 87.0092 8.86649L87.3032 8.93051H87.3358C87.5317 8.67444 87.7928 8.40769 88.1194 8.13029L87.7276 8.16229Z" fill="#28536B"/>
</g>
</g>
<defs>
<clipPath id="clip0_2_2">
<rect width="97" height="29" fill="white"/>
</clipPath>
</defs>
</svg>
