<svg width="20" height="20" viewBox="0 0 20 20" fill="none" xmlns="http://www.w3.org/2000/svg">
<path d="M13.3334 17.5V4.16667C13.3334 3.72464 13.1578 3.30072 12.8453 2.98816C12.5327 2.67559 12.1088 2.5 11.6667 2.5H8.33342C7.89139 2.5 7.46746 2.67559 7.1549 2.98816C6.84234 3.30072 6.66675 3.72464 6.66675 4.16667V17.5M3.33341 5.83333H16.6667C17.5872 5.83333 18.3334 6.57953 18.3334 7.5V15.8333C18.3334 16.7538 17.5872 17.5 16.6667 17.5H3.33341C2.41294 17.5 1.66675 16.7538 1.66675 15.8333V7.5C1.66675 6.57953 2.41294 5.83333 3.33341 5.83333Z" stroke="#090A0A" stroke-width="1.5" stroke-linecap="round" stroke-linejoin="round"/>
</svg>
