<svg width="84" height="84" viewBox="0 0 84 84" fill="none" xmlns="http://www.w3.org/2000/svg">
<g clip-path="url(#clip0_6_24)">
<mask id="mask0_6_24" style="mask-type:luminance" maskUnits="userSpaceOnUse" x="0" y="0" width="84" height="84">
<path d="M84 0H0V84H84V0Z" fill="white"/>
</mask>
<g mask="url(#mask0_6_24)">
<path d="M-3.97107 85.8516H2.05859V60.3573H-3.97107V85.8516Z" fill="#EBEBEB"/>
<path d="M-0.897339 65.6758H0.935519V62.1438H-0.897339V65.6758Z" fill="white"/>
<path d="M-0.896484 63.3689C-0.896484 63.3809 -0.49717 63.3929 0.0199434 63.3929C0.537057 63.3929 0.936373 63.3809 0.936373 63.3689C0.631617 63.3433 0.325665 63.3346 0.0199434 63.343C-0.285778 63.3345 -0.591731 63.3432 -0.896484 63.3689Z" fill="#E0E0E0"/>
<path d="M-0.908203 64.6327C-0.600709 64.6571 -0.292134 64.6651 0.0162114 64.6566C0.323892 64.665 0.631802 64.657 0.938631 64.6327C0.631802 64.6083 0.323892 64.6003 0.0162114 64.6087C-0.292134 64.6003 -0.600709 64.6083 -0.908203 64.6327Z" fill="#E0E0E0"/>
<path d="M-0.897339 70.2852H0.935519V66.7532H-0.897339V70.2852Z" fill="white"/>
<path d="M-0.896484 67.9822C-0.591658 68.0066 -0.285741 68.0146 0.0199434 68.0062C0.325629 68.0146 0.631544 68.0066 0.936373 67.9822C0.631617 67.9565 0.325665 67.9479 0.0199434 67.9563C-0.285778 67.9478 -0.591731 67.9565 -0.896484 67.9822Z" fill="#E0E0E0"/>
<path d="M-0.908203 69.242C-0.600781 69.2678 -0.29217 69.2764 0.0162114 69.268C0.323928 69.2764 0.631874 69.2677 0.938631 69.242C0.631802 69.2177 0.323892 69.2097 0.0162114 69.2181C-0.292134 69.2097 -0.600709 69.2177 -0.908203 69.242Z" fill="#E0E0E0"/>
<path d="M-0.897339 74.8984H0.935519V71.3665H-0.897339V74.8984Z" fill="white"/>
<path d="M-0.896484 72.5936C-0.591658 72.618 -0.285741 72.626 0.0199434 72.6176C0.325629 72.626 0.631544 72.618 0.936373 72.5936C0.631544 72.5693 0.325629 72.5613 0.0199434 72.5697C-0.285741 72.5612 -0.591658 72.5692 -0.896484 72.5936Z" fill="#E0E0E0"/>
<path d="M-0.908203 73.856C-0.600781 73.8817 -0.29217 73.8904 0.0162114 73.8819C0.323928 73.8904 0.631874 73.8817 0.938631 73.856C0.938631 73.844 0.525339 73.832 0.0162114 73.832C-0.492916 73.832 -0.908203 73.844 -0.908203 73.856Z" fill="#E0E0E0"/>
<path d="M-0.897339 79.5078H0.935519V75.9759H-0.897339V79.5078Z" fill="white"/>
<path d="M-0.896484 77.2069C-0.591658 77.2313 -0.285741 77.2393 0.0199434 77.2309C0.325629 77.2393 0.631544 77.2313 0.936373 77.2069C0.631544 77.1826 0.325629 77.1746 0.0199434 77.1829C-0.285741 77.1745 -0.591658 77.1825 -0.896484 77.2069Z" fill="#E0E0E0"/>
<path d="M-0.908203 78.4693C-0.600781 78.495 -0.29217 78.5037 0.0162114 78.4952C0.323928 78.5036 0.631874 78.495 0.938631 78.4693C0.938631 78.4573 0.525339 78.4453 0.0162114 78.4453C-0.492916 78.4453 -0.908203 78.4573 -0.908203 78.4693Z" fill="#E0E0E0"/>
<path d="M-0.897339 84.1211H0.935519V80.5891H-0.897339V84.1211Z" fill="white"/>
<path d="M-0.896484 81.8163C-0.591658 81.8407 -0.285741 81.8487 0.0199434 81.8402C0.325629 81.8486 0.631544 81.8406 0.936373 81.8163C0.631544 81.7919 0.325629 81.7839 0.0199434 81.7923C-0.285741 81.7839 -0.591658 81.7919 -0.896484 81.8163Z" fill="#E0E0E0"/>
<path d="M-0.908203 83.0838C-0.908203 83.0957 -0.494912 83.1077 0.0162114 83.1077C0.527335 83.1077 0.938631 83.0957 0.938631 83.0838C0.631874 83.0581 0.323928 83.0494 0.0162114 83.0578C-0.29217 83.0494 -0.600781 83.058 -0.908203 83.0838Z" fill="#E0E0E0"/>
<path d="M60.3417 67.8984H67.4355V37.9019H60.3417V67.8984Z" fill="#EBEBEB"/>
<path d="M63.955 44.1562H66.1113V40.0014H63.955V44.1562Z" fill="white"/>
<path d="M64.9733 44.1588C64.9893 44.1588 65.0013 43.2284 65.0013 42.0823C65.0013 40.9363 64.9893 40.0039 64.9733 40.0039C64.9573 40.0039 64.9434 40.9343 64.9434 42.0823C64.9434 43.2304 64.9573 44.1588 64.9733 44.1588Z" fill="#E0E0E0"/>
<path d="M63.9551 41.4459C64.6733 41.4859 65.3932 41.4859 66.1114 41.4459C65.3931 41.4087 64.6734 41.4087 63.9551 41.4459Z" fill="#E0E0E0"/>
<path d="M63.9434 42.9342C64.6676 42.9741 65.3934 42.9741 66.1176 42.9342C65.3934 42.8969 64.6676 42.8969 63.9434 42.9342Z" fill="#E0E0E0"/>
<path d="M63.955 49.582H66.1113V45.4272H63.955V49.582Z" fill="white"/>
<path d="M64.9733 49.5846C64.9893 49.5846 65.0013 48.6542 65.0013 47.5081C65.0013 46.3621 64.9893 45.4297 64.9733 45.4297C64.9573 45.4297 64.9434 46.3601 64.9434 47.5081C64.9434 48.6562 64.9573 49.5846 64.9733 49.5846Z" fill="#E0E0E0"/>
<path d="M63.9551 46.8756C64.6733 46.9155 65.3932 46.9155 66.1114 46.8756C65.3931 46.8383 64.6734 46.8383 63.9551 46.8756Z" fill="#E0E0E0"/>
<path d="M63.9434 48.3561C64.6676 48.396 65.3934 48.396 66.1176 48.3561C65.3934 48.3188 64.6676 48.3188 63.9434 48.3561Z" fill="#E0E0E0"/>
<path d="M63.955 55.0117H66.1113V50.8568H63.955V55.0117Z" fill="white"/>
<path d="M64.9733 55.0103C64.9893 55.0103 65.0013 54.0799 65.0013 52.9339C65.0013 51.7879 64.9893 50.8555 64.9733 50.8555C64.9573 50.8555 64.9434 51.7859 64.9434 52.9339C64.9434 54.0819 64.9573 55.0103 64.9733 55.0103Z" fill="#E0E0E0"/>
<path d="M63.9551 52.3014C64.6734 52.3387 65.3931 52.3387 66.1114 52.3014C65.3931 52.2641 64.6734 52.2641 63.9551 52.3014Z" fill="#E0E0E0"/>
<path d="M63.9434 53.7858C64.6676 53.8257 65.3934 53.8257 66.1176 53.7858C65.3934 53.7485 64.6676 53.7485 63.9434 53.7858Z" fill="#E0E0E0"/>
<path d="M63.955 60.4375H66.1113V56.2826H63.955V60.4375Z" fill="white"/>
<path d="M64.9733 60.44C64.9893 60.44 65.0013 59.5096 65.0013 58.3616C65.0013 57.2136 64.9893 56.2852 64.9733 56.2852C64.9573 56.2852 64.9434 57.2156 64.9434 58.3616C64.9434 59.5076 64.9573 60.44 64.9733 60.44Z" fill="#E0E0E0"/>
<path d="M63.9551 57.7272C64.6734 57.7644 65.3931 57.7644 66.1114 57.7272C65.3931 57.6899 64.6734 57.6899 63.9551 57.7272Z" fill="#E0E0E0"/>
<path d="M63.9434 59.2115C64.6676 59.2515 65.3934 59.2515 66.1176 59.2115C65.3934 59.1743 64.6676 59.1743 63.9434 59.2115Z" fill="#E0E0E0"/>
<path d="M57.325 67.8984H62.4922V37.9019H57.325V67.8984Z" fill="#E0E0E0"/>
<path d="M58.7324 44.1562H60.8887V40.0014H58.7324V44.1562Z" fill="white"/>
<path d="M59.7487 44.1588C59.7646 44.1588 59.7766 43.2284 59.7766 42.0823C59.7766 40.9363 59.7646 40.0039 59.7487 40.0039C59.7327 40.0039 59.7207 40.9343 59.7207 42.0823C59.7207 43.2304 59.7327 44.1588 59.7487 44.1588Z" fill="#E0E0E0"/>
<path d="M58.7305 41.4459C59.4487 41.4859 60.1686 41.4859 60.8868 41.4459C60.1685 41.4087 59.4488 41.4087 58.7305 41.4459Z" fill="#E0E0E0"/>
<path d="M58.7207 42.9342C59.4442 42.9741 60.1694 42.9741 60.893 42.9342C60.1694 42.8969 59.4443 42.8969 58.7207 42.9342Z" fill="#E0E0E0"/>
<path d="M58.7324 49.6289H60.8887V45.474H58.7324V49.6289Z" fill="white"/>
<path d="M59.7487 49.6294C59.7646 49.6294 59.7766 48.699 59.7766 47.553C59.7766 46.407 59.7646 45.4766 59.7487 45.4766C59.7327 45.4766 59.7207 46.405 59.7207 47.553C59.7207 48.701 59.7327 49.6294 59.7487 49.6294Z" fill="#E0E0E0"/>
<path d="M58.7305 46.9186C59.4487 46.9585 60.1686 46.9585 60.8868 46.9186C60.1685 46.8813 59.4488 46.8813 58.7305 46.9186Z" fill="#E0E0E0"/>
<path d="M58.7207 48.4049C59.4443 48.4422 60.1694 48.4422 60.893 48.4049C60.1694 48.365 59.4442 48.365 58.7207 48.4049Z" fill="#E0E0E0"/>
<path d="M58.7324 55.0977H60.8887V50.9428H58.7324V55.0977Z" fill="white"/>
<path d="M59.7487 55.0982C59.7646 55.0982 59.7766 54.1698 59.7766 53.0218C59.7766 51.8737 59.7646 50.9453 59.7487 50.9453C59.7327 50.9453 59.7207 51.8737 59.7207 53.0218C59.7207 54.1698 59.7327 55.0982 59.7487 55.0982Z" fill="#E0E0E0"/>
<path d="M58.7305 52.3893C59.4488 52.4266 60.1685 52.4266 60.8868 52.3893C60.1686 52.3494 59.4487 52.3494 58.7305 52.3893Z" fill="#E0E0E0"/>
<path d="M58.7207 53.8737C59.4443 53.911 60.1694 53.911 60.893 53.8737C60.1694 53.8338 59.4442 53.8338 58.7207 53.8737Z" fill="#E0E0E0"/>
<path d="M58.7324 60.5703H60.8887V56.4154H58.7324V60.5703Z" fill="white"/>
<path d="M59.7487 60.5728C59.7646 60.5728 59.7766 59.6424 59.7766 58.4944C59.7766 57.3464 59.7646 56.418 59.7487 56.418C59.7327 56.418 59.7207 57.3484 59.7207 58.4944C59.7207 59.6404 59.7327 60.5728 59.7487 60.5728Z" fill="#E0E0E0"/>
<path d="M58.7305 57.862C59.4488 57.8992 60.1685 57.8992 60.8868 57.862C60.1686 57.822 59.4487 57.822 58.7305 57.862Z" fill="#E0E0E0"/>
<path d="M58.7207 59.3444C59.4443 59.3816 60.1694 59.3816 60.893 59.3444C60.1694 59.3071 59.4443 59.3071 58.7207 59.3444Z" fill="#E0E0E0"/>
<path d="M63.955 65.8672H66.1113V61.7123H63.955V65.8672Z" fill="white"/>
<path d="M64.9733 65.8658C64.9893 65.8658 65.0013 64.9354 65.0013 63.7874C65.0013 62.6393 64.9893 61.7109 64.9733 61.7109C64.9573 61.7109 64.9434 62.6413 64.9434 63.7874C64.9434 64.9334 64.9573 65.8658 64.9733 65.8658Z" fill="#E0E0E0"/>
<path d="M63.9551 63.151C64.6734 63.1883 65.3931 63.1883 66.1114 63.151C65.3932 63.1111 64.6733 63.1111 63.9551 63.151Z" fill="#E0E0E0"/>
<path d="M63.9434 64.6373C64.6676 64.6746 65.3934 64.6746 66.1176 64.6373C65.3934 64.6001 64.6676 64.6001 63.9434 64.6373Z" fill="#E0E0E0"/>
<path d="M58.7324 66.043H60.8887V61.8881H58.7324V66.043Z" fill="white"/>
<path d="M59.7487 66.0455C59.7646 66.0455 59.7766 65.1151 59.7766 63.9691C59.7766 62.823 59.7646 61.8906 59.7487 61.8906C59.7327 61.8906 59.7207 62.821 59.7207 63.9691C59.7207 65.1171 59.7327 66.0455 59.7487 66.0455Z" fill="#E0E0E0"/>
<path d="M58.7305 63.3326C59.4487 63.3726 60.1686 63.3726 60.8868 63.3326C60.1685 63.2954 59.4488 63.2954 58.7305 63.3326Z" fill="#E0E0E0"/>
<path d="M58.7207 64.817C59.4442 64.8569 60.1694 64.8569 60.893 64.817C60.1694 64.7797 59.4443 64.7797 58.7207 64.817Z" fill="#E0E0E0"/>
<path d="M60.453 85.8477H67.5469V55.8511H60.453V85.8477Z" fill="#EBEBEB"/>
<path d="M64.0703 62.1133H66.2266V57.9584H64.0703V62.1133Z" fill="white"/>
<path d="M65.0865 62.1119C65.1025 62.1119 65.1165 61.1815 65.1165 60.0335C65.1165 58.8854 65.1025 57.957 65.0865 57.957C65.0706 57.957 65.0586 58.8874 65.0586 60.0335C65.0586 61.1795 65.0706 62.1119 65.0865 62.1119Z" fill="#E0E0E0"/>
<path d="M64.0684 59.401C64.7866 59.4383 65.5064 59.4383 66.2247 59.401C65.5065 59.3611 64.7866 59.3611 64.0684 59.401Z" fill="#E0E0E0"/>
<path d="M64.0586 60.8873C64.7828 60.9272 65.5087 60.9272 66.2329 60.8873C65.5086 60.8501 64.7829 60.8501 64.0586 60.8873Z" fill="#E0E0E0"/>
<path d="M64.0703 67.5391H66.2266V63.3842H64.0703V67.5391Z" fill="white"/>
<path d="M65.0865 67.5455C65.1025 67.5455 65.1165 66.6151 65.1165 65.4671C65.1165 64.319 65.1025 63.3906 65.0865 63.3906C65.0706 63.3906 65.0586 64.321 65.0586 65.4671C65.0586 66.6131 65.0706 67.5455 65.0865 67.5455Z" fill="#E0E0E0"/>
<path d="M64.0684 64.8268C64.7866 64.8641 65.5064 64.8641 66.2247 64.8268C65.5065 64.7869 64.7866 64.7869 64.0684 64.8268Z" fill="#E0E0E0"/>
<path d="M64.0586 66.3131C64.7829 66.3504 65.5086 66.3504 66.2329 66.3131C65.5086 66.2758 64.7829 66.2758 64.0586 66.3131Z" fill="#E0E0E0"/>
<path d="M64.0703 72.9648H66.2266V68.81H64.0703V72.9648Z" fill="white"/>
<path d="M65.0865 72.9635C65.1025 72.9635 65.1165 72.0331 65.1165 70.885C65.1165 69.737 65.1025 68.8086 65.0865 68.8086C65.0706 68.8086 65.0586 69.739 65.0586 70.885C65.0586 72.0311 65.0706 72.9635 65.0865 72.9635Z" fill="#E0E0E0"/>
<path d="M64.0684 70.2526C64.7866 70.2899 65.5064 70.2899 66.2247 70.2526C65.5065 70.2127 64.7866 70.2127 64.0684 70.2526Z" fill="#E0E0E0"/>
<path d="M64.0586 71.737C64.7842 71.7744 65.5113 71.7744 66.2369 71.737C65.5127 71.697 64.7868 71.697 64.0626 71.737H64.0586Z" fill="#E0E0E0"/>
<path d="M64.0703 78.3906H66.2266V74.2357H64.0703V78.3906Z" fill="white"/>
<path d="M65.0865 78.3893C65.1025 78.3893 65.1165 77.4589 65.1165 76.3108C65.1165 75.1628 65.1025 74.2344 65.0865 74.2344C65.0706 74.2344 65.0586 75.1648 65.0586 76.3108C65.0586 77.4569 65.0706 78.3893 65.0865 78.3893Z" fill="#E0E0E0"/>
<path d="M64.0684 75.6784C64.7866 75.7157 65.5064 75.7157 66.2247 75.6784C65.5065 75.6385 64.7866 75.6385 64.0684 75.6784Z" fill="#E0E0E0"/>
<path d="M64.0586 77.1667C64.7829 77.2039 65.5086 77.2039 66.2329 77.1667C65.5087 77.1267 64.7828 77.1267 64.0586 77.1667Z" fill="#E0E0E0"/>
<path d="M57.4363 85.8477H62.6055V55.8511H57.4363V85.8477Z" fill="#E0E0E0"/>
<path d="M58.8437 62.1133H61V57.9584H58.8437V62.1133Z" fill="white"/>
<path d="M59.8639 62.1119C59.8799 62.1119 59.8919 61.1815 59.8919 60.0335C59.8919 58.8854 59.8799 57.957 59.8639 57.957C59.848 57.957 59.834 58.8874 59.834 60.0335C59.834 61.1795 59.848 62.1119 59.8639 62.1119Z" fill="#E0E0E0"/>
<path d="M58.8496 59.401C59.5679 59.4383 60.2876 59.4383 61.0059 59.401C60.2877 59.3611 59.5678 59.3611 58.8496 59.401Z" fill="#E0E0E0"/>
<path d="M58.8359 60.8873C59.5595 60.9273 60.2847 60.9273 61.0082 60.8873C60.2846 60.8501 59.5595 60.8501 58.8359 60.8873Z" fill="#E0E0E0"/>
<path d="M58.8437 67.582H61V63.4272H58.8437V67.582Z" fill="white"/>
<path d="M59.8639 67.5807C59.8799 67.5807 59.8919 66.6503 59.8919 65.5042C59.8919 64.3582 59.8799 63.4258 59.8639 63.4258C59.848 63.4258 59.834 64.3562 59.834 65.5042C59.834 66.6523 59.848 67.5807 59.8639 67.5807Z" fill="#E0E0E0"/>
<path d="M58.8496 64.8717C59.5678 64.9116 60.2877 64.9116 61.0059 64.8717C60.2876 64.8344 59.5679 64.8344 58.8496 64.8717Z" fill="#E0E0E0"/>
<path d="M58.8359 66.3561C59.5595 66.396 60.2847 66.396 61.0082 66.3561C60.2846 66.3188 59.5595 66.3188 58.8359 66.3561Z" fill="#E0E0E0"/>
<path d="M58.8437 73.0547H61V68.8998H58.8437V73.0547Z" fill="white"/>
<path d="M59.8639 73.0533C59.8799 73.0533 59.8919 72.1229 59.8919 70.9769C59.8919 69.8308 59.8799 68.8984 59.8639 68.8984C59.848 68.8984 59.834 69.8288 59.834 70.9769C59.834 72.1249 59.848 73.0533 59.8639 73.0533Z" fill="#E0E0E0"/>
<path d="M58.8496 70.3405C59.5678 70.3804 60.2877 70.3804 61.0059 70.3405C60.2876 70.3032 59.5679 70.3032 58.8496 70.3405Z" fill="#E0E0E0"/>
<path d="M58.8359 71.8307C58.8359 71.8447 59.3211 71.8587 59.9221 71.8587C60.523 71.8587 61.0082 71.8447 61.0082 71.8307C60.2847 71.7908 59.5595 71.7908 58.8359 71.8307Z" fill="#E0E0E0"/>
<path d="M58.8437 78.5234H61V74.3686H58.8437V78.5234Z" fill="white"/>
<path d="M59.8639 78.524C59.8799 78.524 59.8919 77.5956 59.8919 76.4475C59.8919 75.2995 59.8799 74.3711 59.8639 74.3711C59.848 74.3711 59.834 75.2995 59.834 76.4475C59.834 77.5956 59.848 78.524 59.8639 78.524Z" fill="#E0E0E0"/>
<path d="M58.8496 75.8112C59.5679 75.8485 60.2876 75.8485 61.0059 75.8112C60.2877 75.7713 59.5678 75.7713 58.8496 75.8112Z" fill="#E0E0E0"/>
<path d="M58.8359 77.2995C59.5595 77.3367 60.2846 77.3367 61.0082 77.2995C60.2847 77.2595 59.5595 77.2595 58.8359 77.2995Z" fill="#E0E0E0"/>
<path d="M64.0703 83.8164H66.2266V79.6615H64.0703V83.8164Z" fill="white"/>
<path d="M65.0865 83.8169C65.1025 83.8169 65.1165 82.8885 65.1165 81.7405C65.1165 80.5925 65.1025 79.6641 65.0865 79.6641C65.0706 79.6641 65.0586 80.5925 65.0586 81.7405C65.0586 82.8885 65.0706 83.8169 65.0865 83.8169Z" fill="#E0E0E0"/>
<path d="M64.0684 81.1042C64.7866 81.1414 65.5064 81.1414 66.2247 81.1042C65.5065 81.0642 64.7866 81.0642 64.0684 81.1042Z" fill="#E0E0E0"/>
<path d="M64.0586 82.5924C64.7829 82.6297 65.5086 82.6297 66.2329 82.5924C65.5087 82.5525 64.7828 82.5525 64.0586 82.5924Z" fill="#E0E0E0"/>
<path d="M58.8437 83.9961H61V79.8412H58.8437V83.9961Z" fill="white"/>
<path d="M59.8639 83.9947C59.8799 83.9947 59.8919 83.0643 59.8919 81.9163C59.8919 80.7683 59.8799 79.8398 59.8639 79.8398C59.848 79.8398 59.834 80.7702 59.834 81.9163C59.834 83.0623 59.848 83.9947 59.8639 83.9947Z" fill="#E0E0E0"/>
<path d="M58.8496 81.2839C59.5679 81.3211 60.2876 81.3211 61.0059 81.2839C60.2877 81.2439 59.5678 81.2439 58.8496 81.2839Z" fill="#E0E0E0"/>
<path d="M58.8359 82.7701C59.5595 82.8074 60.2846 82.8074 61.0082 82.7701C60.2846 82.7329 59.5595 82.7329 58.8359 82.7701Z" fill="#E0E0E0"/>
<path d="M4.76355 85.8086H15.3574V38.3639H4.76355V85.8086Z" fill="#EBEBEB"/>
<path d="M10.1623 47.707H13.3828V41.5017H10.1623V47.707Z" fill="white"/>
<path d="M11.6806 47.7093C11.7046 47.7093 11.7245 46.3117 11.7245 44.6066C11.7245 42.9015 11.7046 41.5039 11.6806 41.5039C11.6566 41.5039 11.6387 42.9015 11.6387 44.6066C11.6387 46.3117 11.6566 47.7093 11.6806 47.7093Z" fill="#E0E0E0"/>
<path d="M10.1621 43.6587C10.6981 43.7011 11.2359 43.7151 11.7733 43.7006C12.3101 43.715 12.8473 43.701 13.3826 43.6587C12.8474 43.615 12.3102 43.6003 11.7733 43.6148C11.2359 43.6003 10.698 43.615 10.1621 43.6587Z" fill="#E0E0E0"/>
<path d="M10.1445 45.8756C10.6844 45.9192 11.2263 45.9339 11.7677 45.9195C12.3092 45.9339 12.8511 45.9192 13.391 45.8756C12.851 45.8332 12.3092 45.8192 11.7677 45.8336C11.2263 45.8192 10.6845 45.8332 10.1445 45.8756Z" fill="#E0E0E0"/>
<path d="M10.1623 55.8125H13.3828V49.6071H10.1623V55.8125Z" fill="white"/>
<path d="M11.6806 55.8108C11.7046 55.8108 11.7245 54.4132 11.7245 52.7082C11.7245 51.0031 11.7046 49.6055 11.6806 49.6055C11.6566 49.6055 11.6387 51.0031 11.6387 52.7082C11.6387 54.4132 11.6566 55.8108 11.6806 55.8108Z" fill="#E0E0E0"/>
<path d="M10.1621 51.774C10.698 51.8177 11.2359 51.8324 11.7733 51.8179C12.3102 51.8323 12.8474 51.8177 13.3826 51.774C12.8473 51.7316 12.3101 51.7176 11.7733 51.7321C11.2359 51.7176 10.6981 51.7316 10.1621 51.774Z" fill="#E0E0E0"/>
<path d="M10.1445 53.9829C10.6846 54.024 11.2263 54.038 11.7677 54.0248C12.3092 54.038 12.8509 54.024 13.391 53.9829C12.8511 53.9392 12.3092 53.9245 11.7677 53.939C11.2263 53.9245 10.6844 53.9392 10.1445 53.9829Z" fill="#E0E0E0"/>
<path d="M10.1623 63.918H13.3828V57.7126H10.1623V63.918Z" fill="white"/>
<path d="M11.6806 63.9202C11.7046 63.9202 11.7245 62.5226 11.7245 60.8175C11.7245 59.1124 11.7046 57.7148 11.6806 57.7148C11.6566 57.7148 11.6387 59.1025 11.6387 60.8175C11.6387 62.5326 11.6566 63.9202 11.6806 63.9202Z" fill="#E0E0E0"/>
<path d="M10.1621 59.8696C10.6981 59.9108 11.2359 59.9248 11.7733 59.9115C12.3101 59.9248 12.8472 59.9108 13.3826 59.8696C12.8474 59.8259 12.3102 59.8113 11.7733 59.8257C11.2359 59.8112 10.698 59.8259 10.1621 59.8696Z" fill="#E0E0E0"/>
<path d="M10.1445 62.0884C10.6844 62.132 11.2263 62.1467 11.7677 62.1323C12.3092 62.1467 12.8511 62.132 13.391 62.0884C12.8511 62.0447 12.3092 62.03 11.7677 62.0444C11.2263 62.03 10.6844 62.0447 10.1445 62.0884Z" fill="#E0E0E0"/>
<path d="M10.1623 72.0234H13.3828V65.8181H10.1623V72.0234Z" fill="white"/>
<path d="M11.6806 72.0218C11.7046 72.0218 11.7245 70.6242 11.7245 68.9191C11.7245 67.214 11.7046 65.8164 11.6806 65.8164C11.6566 65.8164 11.6387 67.214 11.6387 68.9191C11.6387 70.6242 11.6566 72.0218 11.6806 72.0218Z" fill="#E0E0E0"/>
<path d="M10.1621 67.9751C10.698 68.0188 11.2359 68.0335 11.7733 68.019C12.3102 68.0334 12.8474 68.0188 13.3826 67.9751C12.8474 67.9314 12.3102 67.9167 11.7733 67.9312C11.2359 67.9167 10.698 67.9314 10.1621 67.9751Z" fill="#E0E0E0"/>
<path d="M10.1445 70.1913C10.6844 70.235 11.2263 70.2496 11.7677 70.2352C12.3092 70.2496 12.8511 70.235 13.391 70.1913C12.8509 70.1501 12.3092 70.1361 11.7677 70.1493C11.2263 70.1361 10.6846 70.1501 10.1445 70.1913Z" fill="#E0E0E0"/>
<path d="M0.257812 85.8086H7.97658V38.3639H0.257812V85.8086Z" fill="#E0E0E0"/>
<path d="M2.35962 47.707H5.5801V41.5017H2.35962V47.707Z" fill="white"/>
<path d="M3.87982 47.7093C3.90378 47.7093 3.92374 46.3117 3.92374 44.6066C3.92374 42.9015 3.90378 41.5039 3.87982 41.5039C3.85586 41.5039 3.83789 42.9015 3.83789 44.6066C3.83789 46.3117 3.85586 47.7093 3.87982 47.7093Z" fill="#E0E0E0"/>
<path d="M2.35938 43.6587C2.89467 43.701 3.43184 43.715 3.96862 43.7006C4.50606 43.7151 5.04389 43.7011 5.57985 43.6587C5.04396 43.615 4.50609 43.6003 3.96862 43.6148C3.4318 43.6003 2.8946 43.615 2.35938 43.6587Z" fill="#E0E0E0"/>
<path d="M2.3457 45.8756C2.8856 45.9192 3.42745 45.9339 3.96892 45.9195C4.51039 45.9339 5.05224 45.9192 5.59214 45.8756C5.05217 45.8332 4.51035 45.8192 3.96892 45.8336C3.42749 45.8192 2.88567 45.8332 2.3457 45.8756Z" fill="#E0E0E0"/>
<path d="M2.35962 55.8789H5.5801V49.6735H2.35962V55.8789Z" fill="white"/>
<path d="M3.87982 55.8772C3.90378 55.8772 3.92374 54.4796 3.92374 52.7746C3.92374 51.0695 3.90378 49.6719 3.87982 49.6719C3.85586 49.6719 3.83789 51.0595 3.83789 52.7746C3.83789 54.4896 3.85586 55.8772 3.87982 55.8772Z" fill="#E0E0E0"/>
<path d="M2.35938 51.828C2.8946 51.8717 3.4318 51.8864 3.96862 51.8719C4.50609 51.8864 5.04396 51.8717 5.57985 51.828C5.04383 51.7868 4.50606 51.7728 3.96862 51.7861C3.43184 51.7729 2.89473 51.7869 2.35938 51.828Z" fill="#E0E0E0"/>
<path d="M2.3457 54.0493C2.88567 54.0917 3.42749 54.1057 3.96892 54.0912C4.51035 54.1057 5.05217 54.0917 5.59214 54.0493C5.05224 54.0056 4.51039 53.9909 3.96892 54.0054C3.42745 53.9909 2.8856 54.0056 2.3457 54.0493Z" fill="#E0E0E0"/>
<path d="M2.35962 64.0547H5.5801V57.8493H2.35962V64.0547Z" fill="white"/>
<path d="M3.87982 64.0491C3.90378 64.0491 3.92374 62.6615 3.92374 60.9464C3.92374 59.2314 3.90378 57.8438 3.87982 57.8438C3.85586 57.8438 3.83789 59.2413 3.83789 60.9464C3.83789 62.6515 3.85586 64.0491 3.87982 64.0491Z" fill="#E0E0E0"/>
<path d="M2.35938 60.0006C2.8946 60.0442 3.4318 60.0589 3.96862 60.0445C4.50609 60.0589 5.04396 60.0443 5.57985 60.0006C5.04389 59.9582 4.50606 59.9442 3.96862 59.9586C3.43184 59.9442 2.89467 59.9582 2.35938 60.0006Z" fill="#E0E0E0"/>
<path d="M2.3457 62.2212C2.88567 62.2635 3.42749 62.2775 3.96892 62.2631C4.51035 62.2775 5.05217 62.2635 5.59214 62.2212C5.05224 62.1775 4.51039 62.1628 3.96892 62.1772C3.42745 62.1628 2.8856 62.1775 2.3457 62.2212Z" fill="#E0E0E0"/>
<path d="M2.35962 72.2227H5.5801V66.0173H2.35962V72.2227Z" fill="white"/>
<path d="M3.87982 72.2249C3.90378 72.2249 3.92374 70.8273 3.92374 69.1222C3.92374 67.4171 3.90378 66.0195 3.87982 66.0195C3.85586 66.0195 3.83789 67.4171 3.83789 69.1222C3.83789 70.8273 3.85586 72.2249 3.87982 72.2249Z" fill="#E0E0E0"/>
<path d="M2.35938 68.1704C2.89467 68.2128 3.43184 68.2267 3.96862 68.2123C4.50606 68.2268 5.04389 68.2128 5.57985 68.1704C5.04396 68.1267 4.50609 68.112 3.96862 68.1265C3.4318 68.1121 2.8946 68.1267 2.35938 68.1704Z" fill="#E0E0E0"/>
<path d="M2.3457 70.3912C2.8856 70.4349 3.42745 70.4495 3.96892 70.4351C4.51039 70.4495 5.05224 70.4349 5.59214 70.3912C5.05217 70.3488 4.51035 70.3348 3.96892 70.3492C3.42749 70.3348 2.88567 70.3488 2.3457 70.3912Z" fill="#E0E0E0"/>
<path d="M10.1623 80.125H13.3828V73.9196H10.1623V80.125Z" fill="white"/>
<path d="M11.6806 80.1233C11.7046 80.1233 11.7245 78.7257 11.7245 77.0206C11.7245 75.3156 11.7046 73.918 11.6806 73.918C11.6566 73.918 11.6387 75.3056 11.6387 77.0206C11.6387 78.7357 11.6566 80.1233 11.6806 80.1233Z" fill="#E0E0E0"/>
<path d="M10.1621 76.078C10.698 76.1217 11.2359 76.1364 11.7733 76.1219C12.3102 76.1364 12.8474 76.1217 13.3826 76.078C12.8472 76.0369 12.3101 76.0229 11.7733 76.0361C11.2359 76.0228 10.6981 76.0368 10.1621 76.078Z" fill="#E0E0E0"/>
<path d="M10.1445 78.2954C10.6845 78.3377 11.2263 78.3517 11.7677 78.3373C12.3092 78.3517 12.851 78.3377 13.391 78.2954C12.8511 78.2517 12.3092 78.237 11.7677 78.2515C11.2263 78.237 10.6844 78.2517 10.1445 78.2954Z" fill="#E0E0E0"/>
<path d="M2.35962 80.3945H5.5801V74.1892H2.35962V80.3945Z" fill="white"/>
<path d="M3.87982 80.3929C3.90378 80.3929 3.92374 78.9953 3.92374 77.2902C3.92374 75.5851 3.90378 74.1875 3.87982 74.1875C3.85586 74.1875 3.83789 75.5851 3.83789 77.2902C3.83789 78.9953 3.85586 80.3929 3.87982 80.3929Z" fill="#E0E0E0"/>
<path d="M2.35938 76.3462C2.89467 76.3885 3.43184 76.4025 3.96862 76.3881C4.50606 76.4026 5.04389 76.3886 5.57985 76.3462C5.04396 76.3025 4.50609 76.2878 3.96862 76.3023C3.4318 76.2878 2.8946 76.3025 2.35938 76.3462Z" fill="#E0E0E0"/>
<path d="M2.3457 78.563C2.8856 78.6067 3.42745 78.6214 3.96892 78.607C4.51039 78.6214 5.05224 78.6067 5.59214 78.563C5.05217 78.5207 4.51035 78.5067 3.96892 78.5211C3.42749 78.5067 2.88567 78.5207 2.3457 78.563Z" fill="#E0E0E0"/>
<path d="M72.4468 86.1016H82.5176V43.5106H72.4468V86.1016Z" fill="#EBEBEB"/>
<path d="M77.5818 52.3945H80.6426V46.4946H77.5818V52.3945Z" fill="white"/>
<path d="M79.0263 52.4018C79.0482 52.4018 79.0682 51.0821 79.0682 49.4529C79.0682 47.8236 79.0482 46.5039 79.0263 46.5039C79.0043 46.5039 78.9863 47.8236 78.9863 49.4529C78.9863 51.0821 79.0083 52.4018 79.0263 52.4018Z" fill="#E0E0E0"/>
<path d="M77.582 48.5477C78.6015 48.6036 79.6233 48.6036 80.6428 48.5477C79.6232 48.4945 78.6016 48.4945 77.582 48.5477Z" fill="#E0E0E0"/>
<path d="M77.5645 50.6571C78.5919 50.713 79.6217 50.713 80.6492 50.6571C79.6216 50.6039 78.592 50.6039 77.5645 50.6571Z" fill="#E0E0E0"/>
<path d="M77.5818 60.1016H80.6426V54.2017H77.5818V60.1016Z" fill="white"/>
<path d="M79.0263 60.103C79.0482 60.103 79.0682 58.7813 79.0682 57.1541C79.0682 55.5269 79.0482 54.2031 79.0263 54.2031C79.0043 54.2031 78.9863 55.5249 78.9863 57.1541C78.9863 58.7833 79.0083 60.103 79.0263 60.103Z" fill="#E0E0E0"/>
<path d="M77.582 56.2529C78.6016 56.3061 79.6232 56.3061 80.6428 56.2529C79.6233 56.197 78.6015 56.197 77.582 56.2529Z" fill="#E0E0E0"/>
<path d="M77.5645 58.3602C78.5919 58.4161 79.6217 58.4161 80.6492 58.3602C79.6216 58.307 78.592 58.307 77.5645 58.3602Z" fill="#E0E0E0"/>
<path d="M77.5818 67.8086H80.6426V61.9087H77.5818V67.8086Z" fill="white"/>
<path d="M79.0263 67.8061C79.0482 67.8061 79.0682 66.4864 79.0682 64.8572C79.0682 63.228 79.0482 61.9062 79.0263 61.9062C79.0043 61.9062 78.9863 63.228 78.9863 64.8572C78.9863 66.4864 79.0083 67.8061 79.0263 67.8061Z" fill="#E0E0E0"/>
<path d="M77.582 63.956C78.6016 64.0092 79.6232 64.0092 80.6428 63.956C79.6233 63.9001 78.6015 63.9001 77.582 63.956Z" fill="#E0E0E0"/>
<path d="M77.5645 66.0654C78.592 66.1186 79.6216 66.1186 80.6492 66.0654C79.6217 66.0095 78.5919 66.0095 77.5645 66.0654Z" fill="#E0E0E0"/>
<path d="M77.5818 75.5117H80.6426V69.6118H77.5818V75.5117Z" fill="white"/>
<path d="M79.0263 75.5112C79.0482 75.5112 79.0682 74.1914 79.0682 72.5622C79.0682 70.933 79.0482 69.6133 79.0263 69.6133C79.0043 69.6133 78.9863 70.933 78.9863 72.5622C78.9863 74.1914 79.0083 75.5112 79.0263 75.5112Z" fill="#E0E0E0"/>
<path d="M77.582 71.6649C78.6015 71.7208 79.6233 71.7208 80.6428 71.6649C79.6232 71.6117 78.6016 71.6117 77.582 71.6649Z" fill="#E0E0E0"/>
<path d="M77.5645 73.7685C78.592 73.8217 79.6216 73.8217 80.6492 73.7685C79.6217 73.7126 78.5919 73.7126 77.5645 73.7685Z" fill="#E0E0E0"/>
<path d="M68.1665 86.1016H75.5039V43.5106H68.1665V86.1016Z" fill="#E0E0E0"/>
<path d="M70.1639 52.3945H73.2246V46.4946H70.1639V52.3945Z" fill="white"/>
<path d="M71.6064 52.4018C71.6283 52.4018 71.6463 51.0821 71.6463 49.4529C71.6463 47.8236 71.6283 46.5039 71.6064 46.5039C71.5844 46.5039 71.5645 47.8236 71.5645 49.4529C71.5645 51.0821 71.5824 52.4018 71.6064 52.4018Z" fill="#E0E0E0"/>
<path d="M70.1621 48.5477C71.1816 48.6036 72.2034 48.6036 73.2229 48.5477C72.2033 48.4945 71.1817 48.4945 70.1621 48.5477Z" fill="#E0E0E0"/>
<path d="M70.1465 50.6571C71.1746 50.713 72.2051 50.713 73.2332 50.6571C72.205 50.6039 71.1747 50.6039 70.1465 50.6571Z" fill="#E0E0E0"/>
<path d="M70.1639 60.1641H73.2246V54.2642H70.1639V60.1641Z" fill="white"/>
<path d="M71.6064 60.1635C71.6283 60.1635 71.6463 58.8438 71.6463 57.2146C71.6463 55.5854 71.6283 54.2656 71.6064 54.2656C71.5844 54.2656 71.5645 55.5854 71.5645 57.2146C71.5645 58.8438 71.5824 60.1635 71.6064 60.1635Z" fill="#E0E0E0"/>
<path d="M70.1621 56.3134C71.1816 56.3693 72.2034 56.3693 73.2229 56.3134C72.2033 56.2601 71.1817 56.2601 70.1621 56.3134Z" fill="#E0E0E0"/>
<path d="M70.1465 58.4247C71.1747 58.478 72.205 58.478 73.2332 58.4247C72.2051 58.3688 71.1746 58.3688 70.1465 58.4247Z" fill="#E0E0E0"/>
<path d="M70.1639 67.9297H73.2246V62.0298H70.1639V67.9297Z" fill="white"/>
<path d="M71.6064 67.933C71.6283 67.933 71.6463 66.6133 71.6463 64.9841C71.6463 63.3549 71.6283 62.0352 71.6064 62.0352C71.5844 62.0352 71.5645 63.3549 71.5645 64.9841C71.5645 66.6133 71.5824 67.933 71.6064 67.933Z" fill="#E0E0E0"/>
<path d="M70.1621 64.0829C71.1816 64.1388 72.2034 64.1388 73.2229 64.0829C72.2033 64.0297 71.1817 64.0297 70.1621 64.0829Z" fill="#E0E0E0"/>
<path d="M70.1465 66.1943C71.1747 66.2475 72.205 66.2475 73.2332 66.1943C72.2051 66.1384 71.1746 66.1384 70.1465 66.1943Z" fill="#E0E0E0"/>
<path d="M70.1639 75.6992H73.2246V69.7993H70.1639V75.6992Z" fill="white"/>
<path d="M71.6064 75.7026C71.6283 75.7026 71.6463 74.3828 71.6463 72.7536C71.6463 71.1244 71.6283 69.8047 71.6064 69.8047C71.5844 69.8047 71.5645 71.1244 71.5645 72.7536C71.5645 74.3828 71.5824 75.7026 71.6064 75.7026Z" fill="#E0E0E0"/>
<path d="M70.1621 71.8524C71.1816 71.9083 72.2034 71.9083 73.2229 71.8524C72.2033 71.7992 71.1817 71.7992 70.1621 71.8524Z" fill="#E0E0E0"/>
<path d="M70.1465 73.9638C71.1747 74.017 72.205 74.017 73.2332 73.9638C72.2051 73.9079 71.1746 73.9079 70.1465 73.9638Z" fill="#E0E0E0"/>
<path d="M77.5818 83.2188H80.6426V77.3189H77.5818V83.2188Z" fill="white"/>
<path d="M79.0263 83.2163C79.0482 83.2163 79.0682 81.8946 79.0682 80.2653C79.0682 78.6361 79.0482 77.3164 79.0263 77.3164C79.0043 77.3164 78.9863 78.6361 78.9863 80.2653C78.9863 81.8946 79.0083 83.2163 79.0263 83.2163Z" fill="#E0E0E0"/>
<path d="M77.582 79.3681C78.6015 79.424 79.6233 79.424 80.6428 79.3681C79.6232 79.3148 78.6016 79.3148 77.582 79.3681Z" fill="#E0E0E0"/>
<path d="M77.5645 81.4774C78.5919 81.5333 79.6217 81.5333 80.6492 81.4774C79.6216 81.4242 78.592 81.4242 77.5645 81.4774Z" fill="#E0E0E0"/>
<path d="M70.1639 83.4688H73.2246V77.5689H70.1639V83.4688Z" fill="white"/>
<path d="M71.6064 83.4682C71.6283 83.4682 71.6463 82.1485 71.6463 80.5193C71.6463 78.89 71.6283 77.5703 71.6064 77.5703C71.5844 77.5703 71.5645 78.89 71.5645 80.5193C71.5645 82.1485 71.5824 83.4682 71.6064 83.4682Z" fill="#E0E0E0"/>
<path d="M70.1621 79.622C71.1816 79.6779 72.2034 79.6779 73.2229 79.622C72.2033 79.5687 71.1817 79.5687 70.1621 79.622Z" fill="#E0E0E0"/>
<path d="M70.1465 81.7294C71.1747 81.7827 72.205 81.7827 73.2332 81.7294C72.2051 81.6735 71.1746 81.6735 70.1465 81.7294Z" fill="#E0E0E0"/>
<path d="M83.5973 86.082H89.627V60.5877H83.5973V86.082Z" fill="#EBEBEB"/>
<path d="M70.2691 13.185C70.3629 12.4962 69.3906 11.9292 68.6599 11.8713C68.3124 11.8433 67.9511 11.8952 67.6196 11.7814C66.9049 11.5319 66.6213 10.6074 65.9205 10.3139C65.3994 10.0943 64.7985 10.29 64.2933 10.5436C63.7882 10.7971 63.295 11.1186 62.722 11.1545C62.2309 11.1865 61.6978 11.0048 61.2665 11.2444C60.9471 11.424 60.7794 11.7934 60.4839 12.011C60.176 12.1995 59.8205 12.2958 59.4596 12.2886C59.0999 12.2794 58.7417 12.3376 58.4034 12.4603C58.076 12.61 57.8045 12.9554 57.8743 13.3088L70.2691 13.185Z" fill="#EBEBEB"/>
<path d="M41.539 5.60215C41.6548 4.76558 40.4748 4.07876 39.5884 4.00488C39.1671 3.97094 38.7278 4.03483 38.3265 3.89507C37.46 3.59359 37.1126 2.47351 36.2661 2.11612C35.6331 1.84858 34.9044 2.08617 34.2914 2.39564C33.6785 2.70511 33.0715 3.09245 32.3867 3.13637C31.7877 3.17431 31.1428 2.95269 30.6217 3.24419C30.2324 3.46182 30.0228 3.90905 29.6714 4.17459C29.32 4.44014 28.8627 4.48806 28.4295 4.51002C27.9962 4.53198 27.543 4.53797 27.1477 4.71966C26.7524 4.90135 26.4249 5.31863 26.5068 5.7479L41.539 5.60215Z" fill="#E0E0E0"/>
<path d="M14.979 16.7154C15.0948 15.8809 13.9148 15.192 13.0283 15.1182C12.605 15.0842 12.1678 15.1481 11.7665 15.0084C10.9 14.7069 10.5526 13.5848 9.70601 13.2294C9.0731 12.9619 8.34436 13.1995 7.73141 13.5089C7.11846 13.8184 6.51149 14.2057 5.82666 14.2497C5.22769 14.2876 4.5828 14.066 4.0617 14.3575C3.67236 14.5751 3.46272 15.0223 3.11132 15.2859C2.75993 15.5494 2.31269 15.5993 1.86745 15.6233C1.42221 15.6473 0.98297 15.6513 0.587648 15.8329C0.192326 16.0146 -0.137114 16.4319 -0.0532575 16.8612L14.979 16.7154Z" fill="#E0E0E0"/>
<path d="M44.8162 13.375H33.6992V19.8998H44.8162V13.375Z" fill="#E0E0E0"/>
<path d="M39.5486 13.1602H28.4316V19.685H39.5486V13.1602Z" fill="#EBEBEB"/>
<path d="M61.1886 19.3945H12.9453V22.024H61.1886V19.3945Z" fill="#E0E0E0"/>
<path d="M45.5218 12.1133H27.2891V13.5289H45.5218V12.1133Z" fill="#E0E0E0"/>
<path d="M49.4231 85.0333L15.4993 84.9894L15.4414 22.0273H49.4231V85.0333Z" fill="#EBEBEB"/>
<path d="M22.8994 26.0117H18.9941V33.0337H22.8994V26.0117Z" fill="#AEC2CB"/>
<path d="M22.8994 36.1719H18.9941V43.1938H22.8994V36.1719Z" fill="#AEC2CB"/>
<path d="M22.8994 46.3242H18.9941V53.3462H22.8994V46.3242Z" fill="#AEC2CB"/>
<path d="M22.8994 56.4844H18.9941V63.5063H22.8994V56.4844Z" fill="#AEC2CB"/>
<path d="M22.8994 65.9258H18.9941V72.9477H22.8994V65.9258Z" fill="#AEC2CB"/>
<path d="M45.3643 26.0117H41.459V33.0337H45.3643V26.0117Z" fill="#AEC2CB"/>
<path d="M34.2784 15.1484H30.7285V19.7326H34.2784V15.1484Z" fill="#AEC2CB"/>
<path d="M45.3643 36.1719H41.459V43.1938H45.3643V36.1719Z" fill="#AEC2CB"/>
<path d="M45.3643 46.3242H41.459V53.3462H45.3643V46.3242Z" fill="#AEC2CB"/>
<path d="M45.3643 56.4844H41.459V63.5063H45.3643V56.4844Z" fill="#AEC2CB"/>
<path d="M45.3643 65.9258H41.459V72.9477H45.3643V65.9258Z" fill="#AEC2CB"/>
<path d="M37.7838 22.0273H26.2695V85.0313H37.7838V22.0273Z" fill="#AEC2CB"/>
<g opacity="0.3">
<path d="M37.7838 41.5352L26.2695 51.1287V54.6347L37.7838 44.8834V41.5352Z" fill="white"/>
</g>
<g opacity="0.3">
<path d="M37.7838 23.2031L26.2695 32.7967V36.3027L37.7838 26.5514V23.2031Z" fill="white"/>
</g>
<g opacity="0.3">
<path d="M37.7838 49.2734L26.2695 58.867V65.9249L37.7838 56.2115V49.2734Z" fill="white"/>
</g>
<path d="M58.9255 21.4414H49.4238V84.9765H58.9255V21.4414Z" fill="#E0E0E0"/>
<path d="M59.085 84.9741C59.057 84.9741 59.0031 72.162 58.9652 56.3591C58.9273 40.5562 58.9173 27.7422 58.9472 27.7422C58.9772 27.7422 59.0291 40.5522 59.069 56.3591C59.109 72.166 59.1149 84.9741 59.085 84.9741Z" fill="#B3C0C7"/>
<path d="M56.5244 26.0117H52.6191V33.0337H56.5244V26.0117Z" fill="#B3C0C7"/>
<path d="M56.5244 36.1719H52.6191V43.1938H56.5244V36.1719Z" fill="#B3C0C7"/>
<path d="M56.5244 46.3242H52.6191V53.3462H56.5244V46.3242Z" fill="#B3C0C7"/>
<path d="M56.5244 56.4844H52.6191V63.5063H56.5244V56.4844Z" fill="#B3C0C7"/>
<path d="M56.5244 65.9258H52.6191V72.9477H56.5244V65.9258Z" fill="#B3C0C7"/>
<path d="M56.5244 75.8164H52.6191V82.8384H56.5244V75.8164Z" fill="#B3C0C7"/>
<path d="M38.5515 73.0938H25.3242V74.4155H38.5515V73.0938Z" fill="#EBEBEB"/>
<path d="M37.7838 33.4609H26.2695V34.2296H37.7838V33.4609Z" fill="#B3C0C7"/>
<path d="M37.7838 44.5664H26.2695V45.3351H37.7838V44.5664Z" fill="#B3C0C7"/>
<path d="M37.6939 64.8516H26.1797V65.6202H37.6939V64.8516Z" fill="#B3C0C7"/>
<path d="M38.2232 55.1641H26.709V55.9327H38.2232V55.1641Z" fill="#B3C0C7"/>
<path d="M35.5008 58.0041C35.5187 58.0261 33.7997 59.5275 31.6633 61.3584C29.527 63.1893 27.776 64.6547 27.756 64.6328C27.7361 64.6108 29.4571 63.1094 31.5954 61.2785C33.7338 59.4477 35.4808 57.9822 35.5008 58.0041Z" fill="#B3C0C7"/>
<path d="M35.5983 64.8245C35.6183 64.8464 33.8992 66.3478 31.7609 68.1787C29.6226 70.0096 27.8736 71.4751 27.8556 71.4531C27.8376 71.4311 29.5547 69.9297 31.693 68.1008C33.8314 66.272 35.5804 64.8025 35.5983 64.8245Z" fill="#B3C0C7"/>
<path d="M35.4583 47.9378C35.4762 47.9598 34.2164 49.0619 32.6431 50.3996C31.0698 51.7373 29.778 52.7955 29.758 52.7815C29.7381 52.7676 30.9999 51.6575 32.5752 50.3197C34.1505 48.982 35.4403 47.9159 35.4583 47.9378Z" fill="#B3C0C7"/>
<path d="M32.3108 49.1875C31.9703 49.5675 31.6055 49.925 31.2186 50.2577C30.8538 50.6158 30.4656 50.9493 30.0566 51.256C30.3955 50.8738 30.7604 50.5155 31.1488 50.1838C31.5121 49.8247 31.9004 49.4918 32.3108 49.1875Z" fill="#B3C0C7"/>
<path d="M28.3107 40.9805C28.2947 40.9565 30.0257 39.6348 32.178 38.0295C34.3303 36.4243 36.0893 35.1385 36.1053 35.1604C36.1213 35.1824 34.3922 36.5061 32.2399 38.1134C30.0876 39.7206 28.3286 41.0024 28.3107 40.9805Z" fill="#B3C0C7"/>
<path d="M30.6953 39.9709C30.8177 39.8604 30.9516 39.7634 31.0946 39.6814L32.0769 39.0185L33.0533 38.3437C33.182 38.2408 33.3212 38.1518 33.4686 38.0781C33.3565 38.1987 33.232 38.3071 33.0972 38.4016C32.8576 38.5912 32.5202 38.8408 32.1368 39.1044C31.7535 39.3679 31.3961 39.5895 31.1385 39.7433C31.0001 39.8361 30.8514 39.9125 30.6953 39.9709Z" fill="#B3C0C7"/>
<path d="M35.8367 24.3555C35.8367 24.3555 35.8127 24.3854 35.7588 24.4313C35.7049 24.4773 35.621 24.5511 35.5252 24.631L34.6567 25.3538L31.7836 27.7297L28.9225 30.1256L28.054 30.8503L27.8164 31.05C27.7605 31.0939 27.7306 31.1159 27.7266 31.1119C27.7493 31.0836 27.7747 31.0575 27.8024 31.034L28.028 30.8344C28.2397 30.6487 28.5272 30.3951 28.8746 30.0856C29.5954 29.4587 30.5976 28.6022 31.7177 27.6698C32.8378 26.7374 33.862 25.9088 34.6108 25.3158L35.5012 24.619L35.7468 24.4353C35.7731 24.4048 35.8033 24.378 35.8367 24.3555Z" fill="#B3C0C7"/>
<path d="M32.4136 25.7969C32.1672 26.0572 31.8956 26.2926 31.603 26.4997C31.3317 26.7331 31.0389 26.9403 30.7285 27.1186C30.9748 26.8587 31.2463 26.6239 31.5391 26.4178C31.8105 26.1839 32.1033 25.976 32.4136 25.7969Z" fill="#B3C0C7"/>
<path d="M21.7533 39.0781C21.5118 39.3759 21.2446 39.6518 20.9547 39.9027C20.6843 40.1777 20.3896 40.4276 20.0742 40.6494C20.32 40.3522 20.5905 40.0764 20.8828 39.8248C21.1497 39.55 21.4411 39.3001 21.7533 39.0781Z" fill="#B3C0C7"/>
<path d="M44.4632 49.125C44.2151 49.4673 43.9408 49.7897 43.6426 50.0894C43.3695 50.4129 43.0696 50.7128 42.7461 50.9858C42.9917 50.641 43.2662 50.3177 43.5667 50.0195C43.8401 49.6969 44.1399 49.3977 44.4632 49.125Z" fill="#B3C0C7"/>
<path d="M22.078 58.7539C21.8035 59.109 21.5025 59.4427 21.1775 59.7522C20.8762 60.0836 20.5498 60.3913 20.2012 60.6726C20.4756 60.3175 20.7766 59.9838 21.1016 59.6743C21.4024 59.3424 21.7288 59.0346 22.078 58.7539Z" fill="#B3C0C7"/>
<path d="M43.77 67.6797C43.5362 67.9969 43.275 68.2929 42.9893 68.5642C42.7291 68.8592 42.4431 69.1305 42.1348 69.3748C42.3692 69.0582 42.6304 68.7623 42.9154 68.4903C43.1762 68.1958 43.4622 67.9246 43.77 67.6797Z" fill="#B3C0C7"/>
<path d="M43.7039 68.8281C43.5598 69.0553 43.3866 69.2627 43.1888 69.4451C43.0136 69.6519 42.8122 69.8351 42.5898 69.9901C42.734 69.763 42.9071 69.5556 43.105 69.3732C43.2809 69.167 43.4821 68.9839 43.7039 68.8281Z" fill="#B3C0C7"/>
<path d="M45.3643 76.1094H41.459V83.1313H45.3643V76.1094Z" fill="#AEC2CB"/>
<path d="M22.8721 75.9922H18.9668V83.0141H22.8721V75.9922Z" fill="#AEC2CB"/>
<g opacity="0.3">
<path d="M27.3973 84.9917L37.7875 76.4843L37.7855 74.3359L36.1903 74.3799L26.2812 83.1029L26.3032 84.9877" fill="white"/>
</g>
<g opacity="0.3">
<path d="M29.75 84.9941L30.7084 85.0081L37.7902 78.8406L37.7822 78.3954L37.7842 77.9062L29.75 84.9941Z" fill="white"/>
</g>
<path d="M31.9367 85.0107C31.9087 85.0107 31.8848 82.8145 31.8848 80.0972C31.8848 77.3798 31.9087 75.1836 31.9367 75.1836C31.9646 75.1836 31.9886 77.3798 31.9886 80.0972C31.9886 82.8145 31.9666 85.0107 31.9367 85.0107Z" fill="#B3C0C7"/>
<path d="M31.3686 79.5039H30.6777V81.8878H31.3686V79.5039Z" fill="#EBEBEB"/>
<path d="M33.1225 79.5039H32.4316V81.8878H33.1225V79.5039Z" fill="#EBEBEB"/>
<path d="M61.2508 22.0246C61.2508 22.0525 50.4373 22.0765 37.0922 22.0765C23.7471 22.0765 12.9336 22.0525 12.9336 22.0246C12.9336 21.9966 23.7451 21.9727 37.0922 21.9727C50.4393 21.9727 61.2508 22.0006 61.2508 22.0246Z" fill="#B3C0C7"/>
<path d="M61.2508 19.4464C61.2508 19.4744 50.4373 19.4984 37.0922 19.4984C23.7471 19.4984 12.9336 19.4744 12.9336 19.4464C12.9336 19.4185 23.7451 19.3945 37.0922 19.3945C50.4393 19.3945 61.2508 19.4165 61.2508 19.4464Z" fill="#B3C0C7"/>
<path d="M45.66 13.5285C45.66 13.5564 41.561 13.5804 36.5057 13.5804C31.4504 13.5804 27.3594 13.5564 27.3594 13.5285C27.3594 13.5005 31.4564 13.4766 36.5137 13.4766C41.571 13.4766 45.66 13.4985 45.66 13.5285Z" fill="#B3C0C7"/>
<path d="M15.4993 84.9864C15.4713 84.9864 15.4194 70.9624 15.3835 53.6661C15.3476 36.3697 15.3436 22.3438 15.3735 22.3438C15.4035 22.3438 15.4534 36.3637 15.4873 53.6661C15.5213 70.9684 15.5272 84.9864 15.4993 84.9864Z" fill="#B3C0C7"/>
</g>
</g>
<defs>
<clipPath id="clip0_6_24">
<rect width="84" height="84" fill="white"/>
</clipPath>
</defs>
</svg>
