<svg width="101" height="58" viewBox="0 0 101 58" fill="none" xmlns="http://www.w3.org/2000/svg">
<g clip-path="url(#clip0_8_29)">
<path d="M72 0.5H29C13.2599 0.5 0.5 13.2599 0.5 29C0.5 44.7401 13.2599 57.5 29 57.5H72C87.7401 57.5 100.5 44.7401 100.5 29C100.5 13.2599 87.7401 0.5 72 0.5Z" fill="#FCFCFC"/>
<path d="M72 0.5H29C13.2599 0.5 0.5 13.2599 0.5 29C0.5 44.7401 13.2599 57.5 29 57.5H72C87.7401 57.5 100.5 44.7401 100.5 29C100.5 13.2599 87.7401 0.5 72 0.5Z" stroke="#A5A5A7"/>
<mask id="mask0_8_29" style="mask-type:luminance" maskUnits="userSpaceOnUse" x="24" y="18" width="20" height="11">
<path d="M44 29V18H24V29H44Z" fill="white"/>
</mask>
<g mask="url(#mask0_8_29)">
<path d="M24.3958 26.8203L33.2612 18.2788C33.3668 18.1774 33.4811 18.1055 33.6042 18.0629C33.7274 18.0203 33.8593 17.9993 34 18C34.1407 18 34.2726 18.0213 34.3958 18.0639C34.5189 18.1065 34.6332 18.1781 34.7388 18.2788L43.6306 26.8203C43.8769 27.0568 44 27.3525 44 27.7074C44 28.0622 43.8681 28.3664 43.6042 28.6198C43.3404 28.8733 43.0325 29 42.6807 29C42.3289 29 42.0211 28.8733 41.7573 28.6198L34 21.1682L26.2427 28.6198C25.9965 28.8564 25.6929 28.9747 25.3319 28.9747C24.971 28.9747 24.6589 28.8479 24.3958 28.5945C24.1319 28.341 24 28.0453 24 27.7074C24 27.3694 24.1319 27.0737 24.3958 26.8203Z" fill="#048A81"/>
</g>
<mask id="mask1_8_29" style="mask-type:luminance" maskUnits="userSpaceOnUse" x="24" y="29" width="20" height="11">
<path d="M44 40V29H24V40H44Z" fill="white"/>
</mask>
<g mask="url(#mask1_8_29)">
<path d="M24.3958 37.8203L33.2612 29.2788C33.3668 29.1774 33.4811 29.1055 33.6042 29.0629C33.7274 29.0203 33.8593 28.9993 34 29C34.1407 29 34.2726 29.0213 34.3958 29.0639C34.5189 29.1065 34.6332 29.1781 34.7388 29.2788L43.6306 37.8203C43.8769 38.0568 44 38.3525 44 38.7074C44 39.0622 43.8681 39.3664 43.6042 39.6198C43.3404 39.8733 43.0325 40 42.6807 40C42.3289 40 42.0211 39.8733 41.7573 39.6198L34 32.1682L26.2427 39.6198C25.9965 39.8564 25.6929 39.9747 25.3319 39.9747C24.971 39.9747 24.6589 39.8479 24.3958 39.5945C24.1319 39.341 24 39.0453 24 38.7074C24 38.3694 24.1319 38.0737 24.3958 37.8203Z" fill="#048A81"/>
</g>
</g>
<defs>
<clipPath id="clip0_8_29">
<rect width="101" height="58" fill="white"/>
</clipPath>
</defs>
</svg>
