<svg width="321" height="321" viewBox="0 0 321 321" fill="none" xmlns="http://www.w3.org/2000/svg">
<g clip-path="url(#clip0_3_2)">
<path d="M42.7408 164H15.5273V172.661H42.7408V164Z" fill="#EBEBEB"/>
<path d="M233.737 94.3516H206.523V103.012H233.737V94.3516Z" fill="#EBEBEB"/>
<path d="M27.5617 183.587C23.0261 183.664 11.5943 183.858 7.21357 183.904H0.348295H0V183.548V174.887V174.5H0.386994L13.9937 174.554C17.376 174.554 24.2103 174.655 27.6004 174.701H27.7862V174.887L27.6081 183.548L27.5617 183.587ZM27.5617 183.587L27.376 174.926L27.5617 175.111C24.1639 175.158 17.3451 175.228 13.955 175.259L0.348295 175.313L0.735289 174.926V183.587L0.379255 183.231L7.12069 183.269C11.4318 183.316 23.1268 183.509 27.5927 183.587H27.5617Z" fill="#EBEBEB"/>
<path d="M156.956 241.055C152.421 241.133 140.989 241.326 136.608 241.373H129.743H129.395V241.024V232.364V231.977H129.782L143.388 232.031C146.778 232.031 153.605 232.131 156.995 232.178H157.181V232.364L156.995 241.024L156.956 241.055ZM156.956 241.055L156.77 232.395L156.956 232.573C153.566 232.627 146.747 232.696 143.35 232.727L129.743 232.782L130.13 232.395V241.055L129.774 240.699H136.515C140.834 240.754 152.529 240.947 156.987 241.024L156.956 241.055Z" fill="#EBEBEB"/>
<path d="M141.778 251.978C137.243 252.055 125.811 252.249 121.43 252.295H114.565H114.216V251.947L114.178 243.286V242.961H114.565L128.171 243.015C131.562 243.015 138.388 243.116 141.778 243.162H141.964V243.348L141.778 252.009V251.978ZM141.778 251.978L141.592 243.317L141.778 243.495L134.975 243.58C130.656 243.642 119.031 243.688 114.565 243.704L114.952 243.317V251.978L114.596 251.622H121.337C125.648 251.676 137.351 251.87 141.809 251.947L141.778 251.978Z" fill="#EBEBEB"/>
<path d="M126.663 232.391H99.4492V241.052H126.663V232.391Z" fill="#EBEBEB"/>
<path d="M320.534 174.922H293.32V183.583H320.534V174.922Z" fill="#EBEBEB"/>
<path d="M305.354 13.8047H278.141V22.4656H305.354V13.8047Z" fill="#EBEBEB"/>
<path d="M320.532 33.3836C315.996 33.461 304.565 33.6545 300.184 33.7086H293.319H292.97V33.3526L292.932 24.6917V24.3047H293.319L306.925 24.3589C310.315 24.3589 317.142 24.4595 320.532 24.5137H320.718V24.6917L320.532 33.3526V33.3836ZM320.532 33.3836L320.346 24.6917L320.532 24.8774C317.134 24.9239 310.323 25.0013 306.925 25.0245L293.319 25.0787L293.706 24.6917V33.3526L293.35 33.0043H300.091C304.41 33.0507 316.105 33.252 320.563 33.3216L320.532 33.3836Z" fill="#EBEBEB"/>
<path d="M42.7414 22.4617C38.2058 22.5391 26.774 22.7326 22.3933 22.7868H15.528H15.1797V22.4307V13.7698V13.3828H15.5667L29.1734 13.437C32.5635 13.437 39.39 13.5376 42.7801 13.5918H42.9659V13.7698L42.7801 22.4307L42.7414 22.4617ZM42.7414 22.4617L42.5556 13.8008L42.7414 13.9865C39.3436 14.033 32.5248 14.1104 29.1347 14.1336L15.528 14.1878L15.915 13.8008V22.4617L15.5589 22.1134H22.3004C26.6115 22.1598 38.3064 22.3611 42.7724 22.4307L42.7414 22.4617Z" fill="#EBEBEB"/>
<path d="M3.66016 282.547C104.101 282.068 216.778 282.068 317.218 282.547C216.778 283.02 104.101 283.02 3.66016 282.547Z" fill="#263238"/>
<path d="M160.439 313.623C196.547 313.623 225.818 308.359 225.818 301.866C225.818 295.373 196.547 290.109 160.439 290.109C124.332 290.109 95.0605 295.373 95.0605 301.866C95.0605 308.359 124.332 313.623 160.439 313.623Z" fill="#455A64"/>
<path opacity="0.1" d="M225.818 301.859C225.818 303.329 224.324 304.73 221.584 306.03C173.837 297.516 144.998 303.577 125.06 311.75C107.011 309.653 95.0605 306.007 95.0605 301.859C95.0605 295.372 124.333 290.109 160.439 290.109C196.546 290.109 225.818 295.372 225.818 301.859Z" fill="black"/>
<path d="M92.7537 301.869C93.2258 297.163 103.806 294.903 107.692 293.835C136.53 287.643 166.515 287.906 195.748 290.917C239.022 295.839 239.146 307.875 195.748 313.03C166.499 316.01 136.515 316.048 107.668 309.934C103.675 308.835 93.2258 306.59 92.7305 301.9L92.7537 301.869ZM92.8311 301.869C93.2955 306.443 103.915 308.726 107.738 309.694C119.255 312.186 131.035 313.177 142.784 313.726C160.429 314.59 178.113 314.117 195.686 312.31C238.403 307.519 238.55 296.226 195.686 291.203C172.231 288.868 148.601 288.902 125.153 291.304C119.302 291.887 113.488 292.797 107.738 294.028C103.806 295.019 93.3187 297.279 92.8311 301.861V301.869Z" fill="#455A64"/>
<path d="M230.097 301.863C229.641 307.01 219.215 309.533 215.012 310.795C185.26 317.838 154.069 317.528 123.829 314.115C79.5877 308.573 79.4639 295.16 123.829 289.386C148.143 286.424 172.729 286.466 197.033 289.51C203.101 290.271 209.117 291.411 215.043 292.923C219.347 294.208 229.641 296.7 230.128 301.863H230.097ZM230.02 301.863C229.54 296.809 219.13 294.285 214.958 293.124C203.085 290.268 190.872 289.131 178.705 288.481C160.42 287.483 142.085 288.022 123.891 290.09C80.1914 295.508 80.0521 308.186 123.891 313.805C148.176 316.495 172.685 316.464 196.963 313.713C203.027 313.049 209.044 312.015 214.981 310.617C219.238 309.44 229.556 306.917 230.043 301.886L230.02 301.863Z" fill="#455A64"/>
<path d="M230.1 301.866C229.721 286.518 229.713 269.629 230.1 254.289C230.479 269.629 230.479 286.518 230.1 301.866Z" fill="#455A64"/>
<path d="M180.315 288.819C179.935 273.479 179.928 256.59 180.315 241.242C180.702 256.59 180.694 273.479 180.315 288.819Z" fill="#455A64"/>
<path d="M90.7805 301.87C90.4013 276.646 90.4013 248.341 90.7805 223.117C91.1598 248.341 91.1598 276.646 90.7805 301.87Z" fill="#455A64"/>
<path d="M223.727 296.765C223.348 277.802 223.34 256.517 223.727 237.547C224.106 256.517 224.098 277.794 223.727 296.765Z" fill="#455A64"/>
<path d="M126.174 285.515C125.787 274.021 125.795 261.947 126.174 250.438C126.561 261.947 126.569 274.021 126.174 285.515Z" fill="#455A64"/>
<path d="M199.14 291.036C198.761 276.957 198.761 261.469 199.14 247.391C199.527 261.469 199.519 276.957 199.14 291.036Z" fill="#455A64"/>
<path d="M104.217 295.21C103.838 276.24 103.83 254.963 104.217 235.992C104.596 254.955 104.589 276.24 104.217 295.21Z" fill="#455A64"/>
<path d="M230.1 231.891C230.494 237.774 230.494 243.677 230.1 249.561C229.701 243.677 229.701 237.774 230.1 231.891Z" fill="#455A64"/>
<path d="M114.356 267.844C114.75 273.727 114.75 279.63 114.356 285.514C113.957 279.631 113.957 273.727 114.356 267.844Z" fill="#455A64"/>
<path d="M214.721 258.016C215.116 263.902 215.116 269.807 214.721 275.694C214.322 269.808 214.322 263.902 214.721 258.016Z" fill="#455A64"/>
<path d="M137.917 270.031C138.316 275.915 138.316 281.818 137.917 287.701C137.522 281.818 137.522 275.915 137.917 270.031Z" fill="#455A64"/>
<path d="M191.98 268.734C192.378 274.62 192.378 280.526 191.98 286.412C191.585 280.526 191.585 274.62 191.98 268.734Z" fill="#455A64"/>
<path d="M187.281 310.562C189.139 310.33 203.395 308.464 195.95 306.003C191.894 304.68 185.702 304.316 181.43 303.836C186.345 304.107 191.314 304.207 196.066 305.639C197.057 305.941 199.44 306.924 198.07 308.178C197.024 308.883 195.839 309.355 194.595 309.563C192.185 310.074 189.74 310.407 187.281 310.562Z" fill="white"/>
<path d="M173.752 311.188C177.181 310.924 180.586 310.824 184.023 310.847C180.623 311.343 177.178 311.457 173.752 311.188Z" fill="white"/>
<path d="M155.098 309.875C157.408 310.002 159.707 310.289 161.978 310.734C159.654 310.817 157.331 310.527 155.098 309.875Z" fill="white"/>
<path d="M173.752 303.653C169.526 303.808 165.308 303.978 161.105 304.38C159 304.566 156.902 304.814 154.828 305.154C153.056 305.518 151.128 305.735 149.596 306.757C149.485 306.829 149.392 306.925 149.323 307.037C149.253 307.149 149.209 307.276 149.193 307.407C149.202 307.272 149.24 307.141 149.304 307.022C149.368 306.903 149.457 306.799 149.565 306.718C151.051 305.58 152.994 305.278 154.774 304.86C156.856 304.442 158.961 304.195 161.066 303.986C165.284 303.61 169.52 303.494 173.752 303.637V303.653Z" fill="white"/>
<path d="M183.496 309.252C184.672 309.074 195.105 307.936 189.602 306.644C186.29 305.823 182.675 305.707 179.277 305.32C183.147 305.491 187.249 305.32 190.972 306.706C194.068 308.71 184.486 309.244 183.496 309.252Z" fill="white"/>
<path d="M173.752 309.618C176.204 309.284 178.685 309.217 181.151 309.417C178.699 309.747 176.219 309.814 173.752 309.618Z" fill="white"/>
<path d="M160.322 308.858C161.989 308.754 163.662 308.922 165.276 309.353C163.609 309.453 161.937 309.285 160.322 308.858Z" fill="white"/>
<path d="M173.752 305.211C170.749 305.498 167.73 305.444 164.735 305.753C162.367 306.032 158.597 306.032 156.422 307.015C156.335 307.048 156.257 307.102 156.195 307.172C156.133 307.242 156.089 307.326 156.066 307.417C156.082 307.321 156.119 307.23 156.176 307.151C156.232 307.072 156.306 307.007 156.391 306.961C158.93 305.653 161.918 305.73 164.704 305.366C167.707 305.103 170.741 305.188 173.752 305.211Z" fill="white"/>
<path d="M210.578 173.291C210.578 173.291 219.247 188.376 225.091 196.727C230.934 205.078 237.351 223.282 238.589 225.047C239.827 226.812 241.995 314.427 241.995 314.427C241.995 314.427 227.8 316.192 224.828 316.355C221.855 316.517 207.699 320.178 207.699 320.178L236.337 317.856L224.913 320.178C224.913 320.178 243.968 319.35 244.882 319.272C245.795 319.195 252.521 319.613 252.846 319.373C253.171 319.133 254.177 317.663 253.883 317.051C253.589 316.44 248.217 314.187 248.217 314.187C248.217 314.187 249.998 228.577 249.882 227.075C249.765 225.573 251.43 223.329 250.47 221.835C249.51 220.341 246.344 218.94 245.872 217.872C245.4 216.804 240.919 188.221 240.454 175.38C240.276 169.707 213.465 165.334 210.578 173.291Z" fill="#FF855E"/>
<path opacity="0.7" d="M210.578 173.291C210.578 173.291 219.247 188.376 225.091 196.727C230.934 205.078 237.351 223.282 238.589 225.047C239.827 226.812 241.995 314.427 241.995 314.427C241.995 314.427 227.8 316.192 224.828 316.355C221.855 316.517 207.699 320.178 207.699 320.178L236.337 317.856L224.913 320.178C224.913 320.178 243.968 319.35 244.882 319.272C245.795 319.195 252.521 319.613 252.846 319.373C253.171 319.133 254.177 317.663 253.883 317.051C253.589 316.44 248.217 314.187 248.217 314.187C248.217 314.187 249.998 228.577 249.882 227.075C249.765 225.573 251.43 223.329 250.47 221.835C249.51 220.341 246.344 218.94 245.872 217.872C245.4 216.804 240.919 188.221 240.454 175.38C240.276 169.707 213.465 165.334 210.578 173.291Z" fill="white"/>
<path d="M242.335 194.629L214.092 179.288C212.002 175.79 210.578 173.305 210.578 173.305C213.465 165.326 240.268 169.706 240.485 175.388C240.663 180.31 241.429 187.531 242.335 194.629Z" fill="#FF855E"/>
<path d="M245.973 242.037C245.973 242.037 247.404 242.2 249.68 242.401C249.68 242.277 249.68 242.153 249.68 242.037H245.973ZM234.819 216.356C234.943 216.643 235.067 216.929 235.183 217.215C237.445 217.109 239.694 216.821 241.909 216.356H234.819ZM241.429 186.991C241.429 186.991 241.429 186.906 241.429 186.867H237.405C237.405 186.867 238.031 186.945 239.123 187.045L241.445 187.262C241.453 187.169 241.437 187.084 241.429 186.991ZM227.621 200.861C227.691 201 227.768 201.14 227.846 201.279C228.62 201.163 229.394 201.023 230.121 200.861H227.621ZM243.101 200.443H241.042C241.042 200.443 241.816 200.536 243.124 200.66L243.101 200.443ZM243.983 206.635H236.011C236.011 206.635 239.417 207.03 244.1 207.331C244.03 207.076 244.03 206.844 244.03 206.612L243.983 206.635ZM224.943 196.573L225.075 196.759L225.33 197.13L225.586 197.51C228.446 197.456 231.296 197.142 234.1 196.573H224.943ZM243.411 252.076C243.411 252.076 245.81 252.292 249.479 252.525C249.479 252.37 249.479 252.23 249.479 252.076H243.411ZM244.502 280.202C245.96 280.54 247.435 280.798 248.922 280.976C248.922 280.736 248.922 280.473 248.922 280.202H244.502ZM228.457 193.051C228.457 193.051 233.449 195.296 235.973 193.051H228.457ZM241.925 255.04C241.925 255.04 246.909 257.285 249.432 255.04H241.925ZM239.185 230.83C239.185 231.155 239.231 231.488 239.247 231.828C241.161 231.891 243.068 231.551 244.843 230.83H239.185ZM239.417 234.978C239.417 235.048 239.417 235.11 239.417 235.18L240.88 234.947L239.417 234.978ZM241.739 304.537C241.739 304.66 241.739 304.792 241.739 304.916C242.66 304.807 243.535 304.676 244.363 304.537H241.739ZM244.719 270.574C244.719 270.574 246.406 270.721 249.13 270.907C249.13 270.798 249.13 270.682 249.13 270.574H244.719ZM241.53 296.603C241.53 296.773 241.53 296.936 241.53 297.099C242.83 296.959 244.061 296.797 245.183 296.603H241.53ZM241.367 290.969V291.743C243.684 291.615 245.992 291.356 248.279 290.969H241.367Z" fill="#FF855E"/>
<path d="M228.279 173.29C228.279 173.29 241.491 189.721 247.335 198.057C253.178 206.393 266.143 223.266 267.389 225.031C268.635 226.795 287.373 314.442 287.373 314.442C287.373 314.442 273.178 316.207 270.206 316.369C267.234 316.532 253.07 320.193 253.07 320.193L281.708 317.871L270.291 320.193C270.291 320.193 289.347 319.364 290.26 319.287C291.174 319.21 297.9 319.628 298.225 319.388C298.55 319.148 299.548 317.677 299.254 317.066C298.96 316.454 293.596 314.202 293.596 314.202C293.596 314.202 278.859 228.591 278.712 227.09C278.565 225.588 280.26 223.343 279.301 221.85C278.341 220.356 275.167 218.955 274.695 217.887C274.223 216.819 258.658 188.235 258.186 175.395C257.962 169.706 231.174 165.333 228.279 173.29Z" fill="#FF855E"/>
<path opacity="0.7" d="M228.279 173.29C228.279 173.29 241.491 189.721 247.335 198.057C253.178 206.393 266.143 223.266 267.389 225.031C268.635 226.795 287.373 314.442 287.373 314.442C287.373 314.442 273.178 316.207 270.206 316.369C267.234 316.532 253.07 320.193 253.07 320.193L281.708 317.871L270.291 320.193C270.291 320.193 289.347 319.364 290.26 319.287C291.174 319.21 297.9 319.628 298.225 319.388C298.55 319.148 299.548 317.677 299.254 317.066C298.96 316.454 293.596 314.202 293.596 314.202C293.596 314.202 278.859 228.591 278.712 227.09C278.565 225.588 280.26 223.343 279.301 221.85C278.341 220.356 275.167 218.955 274.695 217.887C274.223 216.819 258.658 188.235 258.186 175.395C257.962 169.706 231.174 165.333 228.279 173.29Z" fill="white"/>
<path d="M281.181 242.042H278.634C278.634 242.042 279.602 242.151 281.22 242.298C281.243 242.213 281.227 242.127 281.181 242.042ZM260.802 216.361C260.998 216.609 261.184 216.867 261.359 217.135C263.091 216.999 264.811 216.74 266.506 216.361H260.802ZM260.469 186.083C260.464 186.065 260.464 186.047 260.469 186.029L260.399 185.828H256.413C256.413 185.828 257.567 185.959 259.463 186.137L260.546 186.23C260.525 186.183 260.509 186.134 260.5 186.083H260.469ZM248.31 199.512C248.464 199.736 248.635 199.976 248.813 200.208L248.906 200.34C251.005 200.22 253.093 199.944 255.152 199.512H248.31ZM270.508 209.713H267.257C267.257 209.713 268.565 209.868 270.678 210.046C270.647 209.937 270.593 209.829 270.539 209.713H270.508ZM246.212 196.555C246.444 196.872 246.669 197.182 246.878 197.484C249.658 197.421 252.427 197.11 255.152 196.555H246.212ZM282.969 252.507C282.868 252.352 282.752 252.212 282.636 252.058H276.088C276.088 252.058 278.836 252.305 282.984 252.561C282.984 252.561 283.023 252.522 283 252.507H282.969ZM289.439 290.115H285.678C285.678 290.115 287.125 290.239 289.494 290.409C289.509 290.316 289.494 290.215 289.47 290.115H289.439ZM292.411 307.313C292.411 307.173 292.357 307.026 292.334 306.879H287.164C288.916 307.277 290.692 307.562 292.481 307.731L292.411 307.313ZM290.144 294.155H284.114C286.153 294.612 288.223 294.917 290.306 295.068C290.275 294.805 290.221 294.48 290.175 294.17L290.144 294.155ZM262.133 190.727C262.071 190.572 262.017 190.425 261.963 190.27H251.854C254.643 190.936 257.502 191.264 260.368 191.245L261.049 191.207C261.452 191.207 261.823 191.145 262.241 191.091L262.133 190.727ZM274.617 255.045C274.617 255.045 279.61 257.29 282.133 255.045H274.617ZM235.516 182.438L236.29 183.413C237.88 183.499 239.476 183.395 241.042 183.103C241.43 183.032 241.813 182.933 242.187 182.809C242.513 182.71 242.831 182.588 243.139 182.445L235.516 182.438ZM268.944 230.835C268.998 231.059 269.053 231.284 269.114 231.516L269.161 231.717C271.986 231.957 275.291 231.903 277.535 230.835H268.944ZM269.927 234.984C269.927 235.138 270.005 235.309 270.043 235.471C271.305 235.34 272.497 235.177 273.596 234.984H269.927ZM286.103 270.587H277.419L277.884 270.626C279.029 270.719 282.133 270.974 286.189 271.191C286.173 270.982 286.134 270.811 286.103 270.579V270.587ZM278.557 273.683L278.627 273.992C279.323 273.9 279.981 273.799 280.624 273.683H278.557ZM285.051 303.536C285.097 303.763 285.144 303.979 285.19 304.186C287.094 304.031 288.867 303.822 290.453 303.536H285.051ZM279.772 279.186C279.826 279.418 279.873 279.65 279.927 279.883C282.056 279.72 284.037 279.496 285.794 279.186H279.772Z" fill="#FF855E"/>
<path d="M185.12 219.953C185.12 225.959 185.074 231.635 184.981 236.981C184.625 258.296 183.627 274.581 182.597 286.291C181.514 298.582 180.384 305.842 179.919 308.582C176.862 308.752 173.727 308.884 170.477 308.969C171.011 306.407 172.59 298.366 174.006 285.858C175.712 270.331 176.562 254.722 176.552 239.101C176.552 235.742 176.516 232.29 176.444 228.745C176.392 225.928 176.307 223.054 176.189 220.123C176.189 220.053 176.189 219.992 176.189 219.922L185.12 219.953Z" fill="#FF855E"/>
<path opacity="0.7" d="M185.12 219.953C185.12 225.959 185.074 231.635 184.981 236.981C184.625 258.296 183.627 274.581 182.597 286.291C181.514 298.582 180.384 305.842 179.919 308.582C176.862 308.752 173.727 308.884 170.477 308.969C171.011 306.407 172.59 298.366 174.006 285.858C175.712 270.331 176.562 254.722 176.552 239.101C176.552 235.742 176.516 232.29 176.444 228.745C176.392 225.928 176.307 223.054 176.189 220.123C176.189 220.053 176.189 219.992 176.189 219.922L185.12 219.953Z" fill="white"/>
<path d="M171.554 292.568C172.923 291.81 173.956 290.564 174.448 289.078C174.596 288.572 174.697 288.054 174.75 287.53C174.75 287.452 174.642 287.445 174.626 287.53C174.501 288.014 174.324 288.483 174.1 288.931C173.893 289.375 173.649 289.802 173.373 290.208C172.836 291.016 172.181 291.738 171.43 292.352C171.322 292.476 171.438 292.638 171.554 292.568Z" fill="#FF855E"/>
<path d="M174.649 284.392C175.361 284.06 175.955 283.52 176.352 282.844C176.548 282.515 176.704 282.164 176.817 281.799C176.946 281.448 177.004 281.074 176.987 280.7C176.987 280.638 176.894 280.646 176.871 280.7C176.724 281.017 176.631 281.358 176.476 281.683C176.32 282.003 176.136 282.308 175.926 282.596C175.725 282.875 175.516 283.146 175.292 283.37C175.052 283.645 174.793 283.904 174.518 284.144C174.485 284.162 174.46 284.191 174.45 284.227C174.439 284.262 174.442 284.301 174.46 284.334C174.477 284.367 174.507 284.391 174.543 284.402C174.578 284.413 174.617 284.409 174.649 284.392Z" fill="white"/>
<path d="M181.74 284.438C182.128 285.178 182.737 285.779 183.482 286.157C183.525 286.181 183.576 286.188 183.624 286.176C183.672 286.165 183.714 286.135 183.74 286.093C183.767 286.052 183.777 286.001 183.768 285.952C183.758 285.904 183.731 285.861 183.691 285.832C183.143 285.304 182.626 284.746 182.143 284.16C181.668 283.554 181.314 282.863 181.098 282.124C181.098 282.062 180.966 282.085 180.982 282.124C181.082 282.937 181.34 283.723 181.74 284.438Z" fill="#FF855E"/>
<path d="M179.79 278.13C179.856 278.472 179.947 278.808 180.061 279.137C180.18 279.746 180.532 280.285 181.044 280.638C181.299 280.77 181.462 280.39 181.229 280.243C181.021 280.091 180.858 279.885 180.757 279.647C180.623 279.396 180.501 279.138 180.394 278.873C180.285 278.587 180.169 278.301 180.076 278.007C179.983 277.712 179.898 277.395 179.79 277.101C179.79 277.085 179.783 277.069 179.772 277.057C179.76 277.046 179.744 277.039 179.728 277.039C179.712 277.039 179.696 277.046 179.684 277.057C179.673 277.069 179.666 277.085 179.666 277.101C179.669 277.448 179.71 277.793 179.79 278.13Z" fill="white"/>
<path d="M185.145 277.097C185.354 277.166 185.431 276.849 185.261 276.748C183.661 275.901 182.46 274.458 181.917 272.731C181.917 272.662 181.793 272.685 181.801 272.731C181.882 273.703 182.24 274.63 182.833 275.404C183.426 276.178 184.228 276.765 185.145 277.097Z" fill="#FF855E"/>
<path d="M182.77 272.279C182.917 272.434 183.18 272.194 183.049 272.031C182.256 271.13 181.842 269.957 181.896 268.757C181.896 268.741 181.889 268.725 181.877 268.713C181.866 268.702 181.85 268.695 181.834 268.695C181.817 268.695 181.802 268.702 181.79 268.713C181.778 268.725 181.772 268.741 181.772 268.757C181.661 269.382 181.693 270.023 181.866 270.633C182.039 271.243 182.348 271.806 182.77 272.279Z" fill="white"/>
<path d="M174.171 275.251C174.956 274.96 175.646 274.459 176.167 273.804C176.698 273.148 177.093 272.393 177.328 271.583C177.328 271.505 177.243 271.482 177.212 271.583C176.914 272.327 176.469 273.003 175.904 273.572C175.639 273.844 175.36 274.102 175.068 274.346C174.751 274.601 174.403 274.802 174.07 275.035C173.954 275.073 174.008 275.298 174.171 275.251Z" fill="#FF855E"/>
<path d="M174.866 277.096C175.23 276.803 175.559 276.471 175.849 276.105C176.13 275.734 176.388 275.346 176.623 274.944C176.626 274.931 176.625 274.918 176.62 274.906C176.615 274.894 176.607 274.883 176.595 274.876C176.584 274.869 176.571 274.866 176.558 274.867C176.545 274.868 176.532 274.874 176.522 274.882C175.981 275.623 175.364 276.305 174.68 276.918C174.657 276.943 174.644 276.976 174.645 277.01C174.645 277.044 174.66 277.076 174.684 277.1C174.709 277.123 174.742 277.136 174.776 277.136C174.81 277.135 174.842 277.121 174.866 277.096Z" fill="#FF855E"/>
<path d="M173.644 266.243C174.489 265.71 175.195 264.983 175.702 264.122C176.207 263.164 176.591 262.147 176.848 261.096C176.848 261.026 176.755 260.995 176.732 261.096C176.38 262.065 175.932 262.995 175.393 263.874C174.864 264.69 174.226 265.429 173.497 266.072C173.49 266.094 173.488 266.117 173.493 266.139C173.497 266.161 173.507 266.182 173.522 266.199C173.537 266.216 173.556 266.229 173.577 266.237C173.598 266.244 173.621 266.246 173.644 266.243Z" fill="#FF855E"/>
<path d="M174.125 268.631C174.712 268.183 175.204 267.622 175.572 266.982C175.93 266.338 176.191 265.644 176.346 264.923C176.346 264.846 176.254 264.83 176.23 264.923C175.988 265.595 175.654 266.23 175.24 266.812C174.85 267.387 174.412 267.928 173.932 268.43C173.8 268.53 173.986 268.739 174.125 268.631Z" fill="#FF855E"/>
<path d="M180.331 267.313C180.409 267.414 180.602 267.313 180.54 267.205C179.75 265.847 179.361 264.293 179.418 262.723C179.418 262.646 179.31 262.623 179.302 262.723C179.139 264.287 179.255 266.044 180.331 267.313Z" fill="white"/>
<path d="M184.432 261.206C184.464 261.226 184.501 261.235 184.539 261.231C184.576 261.227 184.611 261.211 184.638 261.186C184.665 261.16 184.683 261.127 184.69 261.09C184.696 261.053 184.69 261.015 184.672 260.982C183.982 260.022 183.349 259.022 182.776 257.987C182.221 256.928 181.79 255.808 181.491 254.651C181.491 254.581 181.375 254.612 181.375 254.651C181.496 257.152 182.594 259.506 184.432 261.206Z" fill="#FF855E"/>
<path d="M182.484 262.347C182.607 262.44 182.816 262.285 182.692 262.154C182.363 261.811 182.077 261.428 181.841 261.016C181.609 260.584 181.476 260.105 181.454 259.615C181.454 259.538 181.33 259.553 181.33 259.615C181.299 260.128 181.387 260.642 181.587 261.116C181.787 261.59 182.094 262.011 182.484 262.347Z" fill="white"/>
<path d="M177.211 256.489C178.809 254.72 179.643 252.391 179.533 250.01C179.533 249.948 179.424 249.941 179.417 250.01C179.048 252.268 178.261 254.436 177.095 256.403C177.041 256.481 177.149 256.551 177.211 256.489Z" fill="#FF855E"/>
<path d="M179.015 257.648C179.142 257.417 179.243 257.173 179.317 256.92C179.386 256.682 179.435 256.439 179.464 256.193C179.464 255.953 179.511 255.713 179.511 255.473C179.511 255.233 179.511 255.225 179.511 255.102C179.499 254.95 179.499 254.797 179.511 254.645C179.511 254.552 179.371 254.56 179.395 254.645C179.41 254.779 179.41 254.914 179.395 255.047L179.348 255.419C179.31 255.659 179.271 255.907 179.217 256.146C179.162 256.386 179.101 256.626 179.039 256.866C178.977 257.106 178.923 257.346 178.853 257.578C178.783 257.811 179.015 257.756 179.015 257.648Z" fill="white"/>
<path d="M185.114 248.906C185.261 248.976 185.408 248.767 185.276 248.667C183.92 247.424 182.961 245.808 182.521 244.023C182.521 243.961 182.397 243.984 182.405 244.023C182.737 245.927 183.248 248.04 185.114 248.906Z" fill="#FF855E"/>
<path d="M186.445 243.186C186.475 243.181 186.502 243.168 186.524 243.147C186.546 243.126 186.561 243.099 186.567 243.07C186.573 243.04 186.569 243.009 186.557 242.982C186.545 242.954 186.525 242.931 186.499 242.915C185.674 242.65 184.892 242.266 184.177 241.777C183.449 241.254 182.87 240.55 182.498 239.734C182.498 239.664 182.358 239.734 182.389 239.734C182.947 241.491 184.541 243.132 186.445 243.186Z" fill="#FF855E"/>
<path d="M172.822 247.13C174.117 246.288 175.217 245.179 176.046 243.875C176.875 242.572 177.415 241.106 177.628 239.576C177.632 239.566 177.633 239.556 177.631 239.546C177.63 239.536 177.627 239.527 177.621 239.519C177.615 239.511 177.608 239.504 177.599 239.499C177.59 239.495 177.58 239.492 177.57 239.492C177.56 239.492 177.55 239.495 177.541 239.499C177.533 239.504 177.525 239.511 177.519 239.519C177.514 239.527 177.51 239.536 177.509 239.546C177.507 239.556 177.509 239.566 177.512 239.576C176.739 242.491 175.045 245.078 172.682 246.952C172.671 246.973 172.666 246.997 172.668 247.021C172.671 247.044 172.68 247.067 172.694 247.086C172.709 247.105 172.729 247.119 172.751 247.127C172.774 247.134 172.798 247.136 172.822 247.13Z" fill="#FF855E"/>
<path d="M174.727 249.381C175.605 248.996 176.355 248.367 176.886 247.569C177.454 246.803 177.852 245.924 178.055 244.992C178.05 244.978 178.041 244.967 178.029 244.958C178.018 244.95 178.004 244.945 177.989 244.945C177.975 244.945 177.961 244.95 177.949 244.958C177.937 244.967 177.928 244.978 177.923 244.992C177.608 245.861 177.156 246.673 176.584 247.399C176.309 247.75 176.003 248.076 175.671 248.374C175.33 248.692 174.967 248.978 174.634 249.288C174.572 249.311 174.649 249.404 174.727 249.381Z" fill="white"/>
<path d="M175.47 252.883C176.155 252.163 176.577 251.233 176.67 250.244C176.67 250.166 176.569 250.151 176.554 250.244C176.435 250.701 176.269 251.144 176.058 251.567C175.829 251.985 175.57 252.386 175.284 252.767C175.269 252.792 175.264 252.821 175.27 252.85C175.277 252.878 175.294 252.902 175.319 252.918C175.344 252.933 175.373 252.938 175.402 252.932C175.43 252.925 175.455 252.908 175.47 252.883Z" fill="#FF855E"/>
<path d="M180.562 243.223C180.624 243.332 180.81 243.223 180.763 243.115C180.532 242.544 180.343 241.957 180.198 241.358C180.058 240.747 180.006 240.119 180.043 239.493C180.043 239.423 179.927 239.415 179.919 239.493C179.718 240.773 179.944 242.084 180.562 243.223Z" fill="#FF855E"/>
<path d="M185.596 235.313C185.782 235.367 185.851 235.104 185.697 235.011C184.979 234.629 184.337 234.12 183.8 233.51C183.266 232.868 182.927 232.086 182.825 231.257C182.825 231.241 182.818 231.225 182.807 231.213C182.795 231.202 182.78 231.195 182.763 231.195C182.747 231.195 182.731 231.202 182.719 231.213C182.708 231.225 182.701 231.241 182.701 231.257C182.779 232.96 183.878 234.872 185.596 235.313Z" fill="#FF855E"/>
<path d="M174.667 234.262C176.149 233.094 177.306 231.564 178.026 229.819C178.032 229.812 178.036 229.804 178.038 229.795C178.04 229.786 178.04 229.776 178.038 229.767C178.036 229.758 178.032 229.75 178.026 229.743C178.021 229.735 178.014 229.729 178.005 229.725C177.997 229.721 177.988 229.719 177.979 229.719C177.97 229.719 177.96 229.72 177.952 229.724C177.944 229.728 177.936 229.734 177.93 229.741C177.924 229.748 177.92 229.756 177.918 229.765C177.017 231.377 175.868 232.837 174.512 234.092C174.412 234.185 174.559 234.339 174.667 234.262Z" fill="#FF855E"/>
<path d="M175.556 235.79C176.338 234.917 176.961 233.913 177.398 232.826C177.399 232.812 177.396 232.799 177.389 232.788C177.383 232.777 177.372 232.768 177.36 232.763C177.348 232.758 177.335 232.756 177.322 232.759C177.309 232.762 177.298 232.769 177.289 232.779C176.716 233.778 176.02 234.691 175.385 235.643C175.374 235.666 175.37 235.692 175.375 235.717C175.38 235.743 175.394 235.766 175.413 235.783C175.433 235.799 175.457 235.809 175.483 235.811C175.509 235.812 175.534 235.805 175.556 235.79Z" fill="#FF855E"/>
<path d="M186.978 228.552C187.094 228.552 187.187 228.382 187.048 228.335C186.288 228.136 185.578 227.783 184.961 227.297C184.344 226.811 183.835 226.202 183.464 225.51C183.464 225.441 183.317 225.471 183.348 225.51C183.936 227.043 185.283 228.459 186.978 228.552Z" fill="#FF855E"/>
<path d="M184.588 225.434C184.789 225.697 185.012 225.943 185.253 226.169C185.501 226.396 185.773 226.594 186.066 226.758C186.182 226.827 186.275 226.634 186.159 226.564C185.89 226.399 185.632 226.218 185.385 226.022C185.129 225.83 184.895 225.609 184.688 225.365C184.634 225.31 184.534 225.372 184.588 225.434Z" fill="#FF855E"/>
<path d="M175.144 229.014C176.097 228.426 176.807 227.513 177.14 226.444C177.146 226.43 177.145 226.414 177.138 226.4C177.132 226.386 177.12 226.376 177.106 226.371C177.099 226.368 177.091 226.367 177.083 226.367C177.076 226.368 177.069 226.37 177.062 226.373C177.048 226.379 177.037 226.391 177.032 226.405C176.658 227.424 175.962 228.293 175.051 228.882C174.95 228.952 175.035 229.083 175.144 229.014Z" fill="#FF855E"/>
<path d="M182.559 296.163C182.577 296.179 182.599 296.192 182.622 296.2C182.645 296.208 182.669 296.211 182.694 296.21C182.718 296.208 182.742 296.202 182.764 296.191C182.786 296.181 182.806 296.166 182.822 296.147C182.838 296.129 182.851 296.108 182.859 296.085C182.867 296.061 182.87 296.037 182.869 296.013C182.867 295.988 182.861 295.964 182.85 295.942C182.84 295.92 182.825 295.9 182.807 295.884C182.013 295.06 181.313 294.152 180.717 293.175C180.141 292.17 179.746 291.073 179.548 289.932C179.548 289.863 179.424 289.87 179.432 289.932C179.525 292.27 180.562 294.801 182.559 296.163Z" fill="#FF855E"/>
<path d="M179.34 297.826C179.361 297.851 179.392 297.867 179.426 297.87C179.459 297.873 179.492 297.863 179.518 297.841C179.544 297.82 179.56 297.789 179.563 297.755C179.565 297.722 179.555 297.689 179.533 297.663C178.752 296.714 178.303 295.533 178.256 294.304C178.256 294.288 178.25 294.272 178.238 294.26C178.227 294.249 178.211 294.242 178.194 294.242C178.178 294.242 178.162 294.249 178.151 294.26C178.139 294.272 178.132 294.288 178.132 294.304C178.067 294.943 178.141 295.589 178.35 296.197C178.558 296.805 178.896 297.361 179.34 297.826Z" fill="white"/>
<path d="M173.714 299.444C175.322 297.582 176.324 295.274 176.586 292.827C176.586 292.757 176.485 292.734 176.47 292.827C175.751 295.096 174.764 297.271 173.528 299.305C173.459 299.383 173.598 299.553 173.714 299.444Z" fill="#FF855E"/>
<path d="M174.224 302.676C174.608 302.181 174.916 301.63 175.137 301.043C175.341 300.458 175.468 299.849 175.516 299.232C175.52 299.223 175.521 299.212 175.519 299.203C175.518 299.193 175.515 299.183 175.509 299.175C175.503 299.167 175.496 299.16 175.487 299.155C175.478 299.151 175.468 299.148 175.458 299.148C175.448 299.148 175.438 299.151 175.429 299.155C175.421 299.16 175.413 299.167 175.407 299.175C175.401 299.183 175.398 299.193 175.397 299.203C175.395 299.212 175.396 299.223 175.4 299.232C175.278 299.822 175.097 300.397 174.858 300.95C174.626 301.503 174.349 302.036 174.03 302.545C174.013 302.57 174.006 302.602 174.012 302.632C174.018 302.663 174.035 302.69 174.061 302.707C174.087 302.725 174.118 302.731 174.149 302.725C174.179 302.719 174.206 302.702 174.224 302.676Z" fill="white"/>
<path d="M170.075 300.217C170.895 299.765 171.613 299.149 172.184 298.407C172.755 297.665 173.168 296.814 173.395 295.906C173.395 295.891 173.39 295.878 173.38 295.867C173.369 295.857 173.356 295.852 173.341 295.852C173.327 295.852 173.313 295.857 173.303 295.867C173.293 295.878 173.287 295.891 173.287 295.906C172.946 296.747 172.476 297.53 171.894 298.228C171.304 298.899 170.648 299.508 169.936 300.047C169.929 300.067 169.928 300.09 169.932 300.111C169.936 300.132 169.946 300.152 169.959 300.169C169.973 300.186 169.991 300.199 170.011 300.208C170.031 300.216 170.053 300.219 170.075 300.217Z" fill="#FF855E"/>
<path d="M170.617 309.354C171.367 308.837 171.973 308.14 172.382 307.326C172.821 306.532 173.119 305.668 173.264 304.772C173.264 304.703 173.171 304.679 173.148 304.772C172.884 305.61 172.515 306.411 172.049 307.156C171.593 307.93 170.997 308.534 170.501 309.23C170.497 309.247 170.497 309.264 170.501 309.28C170.505 309.297 170.514 309.312 170.525 309.324C170.537 309.336 170.551 309.346 170.567 309.351C170.584 309.356 170.601 309.357 170.617 309.354Z" fill="white"/>
<path d="M180.562 307.668C180.671 307.73 180.833 307.591 180.725 307.482C179.851 306.66 179.093 305.723 178.473 304.696C177.861 303.649 177.473 302.487 177.335 301.283C177.33 301.271 177.323 301.26 177.312 301.253C177.302 301.246 177.289 301.242 177.277 301.242C177.264 301.242 177.252 301.246 177.241 301.253C177.231 301.26 177.223 301.271 177.219 301.283C177.304 303.721 178.411 306.406 180.562 307.668Z" fill="#FF855E"/>
<path d="M179.789 303.625C179.94 303.861 180.114 304.081 180.308 304.283C180.511 304.488 180.743 304.663 180.997 304.802C181.152 304.895 181.314 304.67 181.159 304.569C180.245 303.992 179.586 303.086 179.317 302.038C179.317 302.022 179.311 302.006 179.299 301.995C179.287 301.983 179.272 301.977 179.255 301.977C179.239 301.977 179.223 301.983 179.211 301.995C179.2 302.006 179.193 302.022 179.193 302.038C179.282 302.603 179.484 303.143 179.789 303.625Z" fill="#FF855E"/>
<path d="M275.493 180.166C292.018 182.573 307.451 168.487 311.554 159.903C315.656 151.32 318.473 139.532 317.32 136.583C316.167 133.634 308.349 149.145 308.349 149.145C308.349 149.145 316.035 122.497 313.349 118.526C310.664 114.555 297.591 143.874 297.591 143.874C297.591 143.874 303.403 123.085 300.617 122.659C296.105 121.97 287.312 148.255 287.312 148.255C287.312 148.255 289.897 137.342 287.212 137.984C282.916 139.021 269.418 179.284 275.493 180.166Z" fill="#263238"/>
<path d="M275.494 180.164C286.105 181.643 296.523 176.488 304.132 169.375C306.717 166.998 308.946 164.261 310.749 161.248C312.367 158.134 313.701 154.88 314.735 151.527C315.837 148.199 316.658 144.784 317.189 141.318C317.46 139.834 317.46 138.313 317.189 136.829C316.794 135.165 314.093 139.569 313.729 140.08C311.864 143.044 310.207 146.148 308.621 149.267L308.094 149.066C309.248 144.662 315.943 120.707 312.738 118.516C311.964 118.687 311.322 119.523 310.765 120.149C308.381 123.183 306.585 126.659 304.751 130.057C302.344 134.639 300.107 139.344 297.955 144.035L297.282 143.795C298.419 139.669 299.457 135.513 300.269 131.326C300.709 129.248 300.985 127.139 301.097 125.018C301.097 124.352 301.144 123.47 300.703 123.005C298.481 122.688 295.703 128.702 294.735 130.49C291.98 136.277 289.566 142.222 287.506 148.292L287.197 148.199C290.122 135.459 287.127 134.584 282.081 146.558C280.084 150.761 270.2 178.539 275.533 180.134L275.494 180.164ZM275.494 180.164C270.138 178.617 279.975 150.691 281.926 146.542C286.988 134.05 290.385 135.389 287.468 148.307L287.158 148.222C289.168 142.106 291.532 136.113 294.24 130.273C295.148 128.312 296.223 126.432 297.452 124.654C298.056 123.687 298.927 122.916 299.96 122.433C303.125 121.473 301.059 129.909 300.888 131.45C300.115 135.676 299.054 139.84 297.932 143.981L297.266 143.741C299.395 138.996 301.632 134.306 304.039 129.693C306.275 125.738 308.195 121.372 311.593 118.238C316.833 114.987 312.854 132.092 312.467 134.104C311.368 139.19 310.053 144.22 308.597 149.22L308.079 149.011C308.853 147.758 316.237 132.704 317.552 136.705C317.84 138.24 317.84 139.814 317.552 141.349C316.404 148.315 314.16 155.054 310.904 161.318C303.675 172.781 289.426 182.053 275.509 180.141L275.494 180.164Z" fill="#455A64"/>
<path d="M311.553 159.898C310.25 162.438 308.599 164.782 306.646 166.864C311.236 161.524 315.416 146.431 313.504 145.773C311.592 145.115 305.021 156.253 305.021 156.253C305.021 156.253 307.188 142.484 304.363 141.779C301.538 141.075 295.377 151.988 295.377 151.988C295.377 151.988 295.687 141.021 293.829 141.214C291.971 141.408 286.414 154.542 286.414 154.542C286.414 154.542 286.561 146.717 284.866 146.802C283.171 146.888 279.371 154.418 277.9 157.638C280.996 147.871 285.122 138.536 287.188 138.056C289.804 137.429 287.42 147.754 287.297 148.304C287.591 147.437 296.159 122.05 300.594 122.762C303.31 123.173 297.846 142.94 297.575 143.939C298.101 142.785 310.687 114.713 313.326 118.614C315.965 122.515 308.527 148.521 308.326 149.217C308.55 148.792 316.159 133.738 317.289 136.679C318.419 139.62 315.656 151.315 311.553 159.898Z" fill="#EBEBEB"/>
<path d="M176.198 217.218C171.701 221.126 168.458 230.128 169.704 231.831C170.95 233.533 174.186 225.29 174.186 225.29C174.186 225.29 170.625 243.255 173.946 243.131C176.105 243.053 178.102 233.533 178.102 233.533C178.102 233.533 178.837 248.285 182.583 247.465C185.47 246.823 183.357 233.456 183.357 233.456C183.357 233.456 186.159 241.064 188.319 240.182C190.478 239.299 186.159 228.015 186.159 228.015C186.159 228.015 188.319 232.341 189.518 231.335C190.718 230.329 188.025 219.872 185.091 217.225C182.158 214.578 176.198 217.218 176.198 217.218Z" fill="#EBEBEB"/>
<path d="M176.23 222.254C176.346 225.35 176.106 230.281 177.105 230.157C178.103 230.033 178.738 222.254 178.738 222.254C178.738 222.254 179.357 232.788 180.363 232.788C181.37 232.788 182.5 223.384 182.5 223.384C182.5 223.384 182.902 230.025 184.048 229.778C185.193 229.53 185.921 201.96 185.549 193.4C185.085 182.495 192.917 179.863 204.829 180.49C216.741 181.117 255.982 183.245 266.748 183.122C277.514 182.998 287.646 180.366 287.94 178.733C288.234 177.1 272.019 134.724 257.344 122.689C242.669 110.653 220.487 99.7553 192.654 101.644C164.822 103.532 159.079 110.932 161.935 132.859C163.483 144.77 172.5 169.043 175.286 191.225C177.02 205.018 175.959 215.134 176.23 222.254Z" fill="#263238"/>
<path d="M210.827 121.638C204.008 129.13 203.946 138.488 220.61 160.337C237.274 182.187 259.604 196.32 262.359 196.064C265.115 195.809 256.941 187.419 256.941 187.419C256.941 187.419 273.868 203.588 276.244 202.465C278.621 201.343 268.505 184.911 268.505 184.911C268.505 184.911 275.308 192.651 276.732 191.428C278.156 190.205 269.766 175.128 269.766 175.128C269.766 175.128 273.636 181.274 275.285 180.546C277.7 179.416 273.056 151.467 262.955 134.881C252.855 118.294 216.601 115.307 210.827 121.638Z" fill="#263238"/>
<path d="M210.826 121.64C205.509 127.167 205.71 134.171 208.612 140.851C211.283 147.197 215.238 152.909 219.317 158.428C227.59 169.446 237.383 179.236 248.403 187.507C252.021 190.313 255.871 192.807 259.912 194.96C261.213 195.548 263.736 196.856 262.172 194.186C260.591 191.815 258.776 189.609 256.754 187.599L257.188 187.22C261.228 191.005 265.338 194.736 269.657 198.195C271.393 199.674 273.291 200.952 275.315 202.003C275.694 202.174 276.181 202.236 276.212 202.104C276.324 201.759 276.324 201.388 276.212 201.044C275.593 198.851 274.723 196.737 273.62 194.743C271.932 191.477 270.082 188.273 268.202 185.115L268.798 184.674C270.697 186.95 272.855 188.997 275.229 190.773C275.586 190.99 276.181 191.338 276.507 191.191C276.723 190.316 276.104 189.055 275.825 188.157C273.974 183.746 271.865 179.449 269.51 175.285L270.021 174.983C270.555 175.835 274.842 182.197 275.438 179.736C275.682 178.005 275.682 176.249 275.438 174.519C274.91 169.819 274.046 165.164 272.853 160.587C270.477 151.462 267.374 142.375 262.412 134.318C259.796 130.379 255.903 127.445 251.747 125.247C243.341 120.897 233.813 118.854 224.378 118.614C222.012 118.56 219.645 118.707 217.304 119.055C214.982 119.465 212.521 119.968 210.81 121.656L210.826 121.64ZM210.826 121.64C212.529 119.945 215.029 119.427 217.312 119.001C219.658 118.644 222.029 118.483 224.402 118.521C237.459 118.838 254.765 122.871 262.675 134.14C267.714 142.221 270.856 151.307 273.295 160.456C273.829 162.53 279.85 186.702 272.807 179.527C271.575 178.218 270.471 176.796 269.51 175.278L270.013 174.968C272.405 179.146 274.548 183.462 276.429 187.894C276.885 188.899 277.147 189.98 277.203 191.082C276.336 194.449 269.239 186.222 268.202 185.138L268.798 184.697C270.469 187.592 278.302 199.999 276.708 202.499C274.765 205.076 259.045 189.612 256.747 187.576L257.188 187.22C259.217 189.273 261.032 191.526 262.606 193.946C265.601 199.906 255.121 192.793 253.736 191.88C236.567 180.199 222.16 164.907 211.523 147.073C206.925 139.039 203.38 129.225 210.803 121.64H210.826Z" fill="#455A64"/>
<path d="M268.505 184.899C268.783 185.348 278.628 201.331 276.244 202.438C273.861 203.545 258.149 188.545 257.011 187.469C257.785 188.243 264.944 195.805 262.328 196.045C260.169 196.246 245.981 187.593 231.934 173.336C238.125 179.133 249.952 186.587 251.872 186.494C253.791 186.401 251.949 180.859 251.872 180.627C252.189 180.882 262.785 189.373 265.254 188.707C267.723 188.042 263.381 176.974 263.381 176.974C263.381 176.974 268.868 182.392 270.114 182.074C271.361 181.757 266.407 169.52 266.244 169.18C266.368 169.311 270.765 174.017 272.212 173.599C274.534 172.926 273.474 162.523 273.474 162.523L273.644 162.887C275.881 172.361 276.492 179.915 275.254 180.503C273.744 181.215 270.192 175.859 269.782 175.178C270.362 176.239 278.086 190.209 276.747 191.432C275.408 192.655 268.799 185.186 268.505 184.899Z" fill="#EBEBEB"/>
<path d="M160.439 26.42C196.547 26.42 225.818 21.1563 225.818 14.6631C225.818 8.16998 196.547 2.90625 160.439 2.90625C124.332 2.90625 95.0605 8.16998 95.0605 14.6631C95.0605 21.1563 124.332 26.42 160.439 26.42Z" fill="#FF855E"/>
<path opacity="0.1" d="M95.0605 14.665C95.0605 13.1944 96.5543 11.7935 99.2943 10.4932C147.042 19.0071 175.88 12.9467 195.818 4.77344C213.844 6.88642 225.818 10.5164 225.818 14.665C225.818 21.151 196.546 26.4141 160.439 26.4141C124.333 26.4141 95.0605 21.151 95.0605 14.665Z" fill="black"/>
<path d="M92.7537 14.6627C93.2258 9.95681 103.806 7.69677 107.692 6.6364C136.53 0.444504 166.515 0.699918 195.748 3.71073C239.022 8.64103 239.146 20.6688 195.748 25.8313C166.499 28.8034 136.515 28.8421 107.668 22.7353C103.675 21.6363 93.2258 19.3995 92.7305 14.7014L92.7537 14.6627ZM92.8311 14.6627C93.2955 19.2447 103.915 21.5202 107.738 22.4877C119.255 24.9799 131.035 25.9706 142.784 26.5279C160.429 27.3891 178.114 26.913 195.686 25.1038C238.403 20.3128 238.55 9.02803 195.686 4.00485C172.231 1.67119 148.601 1.70231 125.153 4.09773C119.294 4.68655 113.473 5.59867 107.715 6.8299C103.783 7.82061 93.2955 10.0806 92.8079 14.6627H92.8311Z" fill="#FF855E"/>
<path d="M230.098 14.6607C229.672 19.8077 219.262 22.3619 215.044 23.5925C185.292 30.6358 154.1 30.3262 123.86 26.9206C79.619 21.3711 79.4951 7.95794 123.86 2.19173C148.174 -0.768921 172.76 -0.72993 197.064 2.30783C203.132 3.07313 209.147 4.21307 215.075 5.72112C219.378 7.00594 229.672 9.50592 230.16 14.6607H230.098ZM230.02 14.6607C229.54 9.60654 219.13 7.09108 214.958 5.9301C203.086 3.07408 190.872 1.93632 178.705 1.28617C160.421 0.291557 142.085 0.832666 123.891 2.9038C80.1917 8.32172 80.0524 20.9919 123.891 26.6188C148.176 29.3007 172.685 29.2696 196.963 26.5259C203.027 25.8628 209.044 24.8289 214.982 23.43C219.239 22.2535 229.556 19.7303 230.044 14.6916L230.02 14.6607Z" fill="#FF855E"/>
<path d="M90.7805 15.5938C91.1598 30.9419 91.1675 47.8303 90.7805 63.1708C90.4013 47.8303 90.4013 30.9419 90.7805 15.5938Z" fill="#FF855E"/>
<path d="M140.563 28.6328C140.942 43.981 140.95 60.8694 140.563 76.2098C140.176 60.8694 140.183 43.981 140.563 28.6328Z" fill="#FF855E"/>
<path d="M230.099 15.5938C230.478 40.818 230.478 69.1227 230.099 94.347C229.72 69.1227 229.72 40.818 230.099 15.5938Z" fill="#FF855E"/>
<path d="M97.1507 20.6953C97.5299 39.658 97.5377 60.9427 97.1507 79.9131C96.7714 60.9427 96.7792 39.6658 97.1507 20.6953Z" fill="#FF855E"/>
<path d="M194.703 31.9297C195.09 43.4234 195.083 55.4976 194.703 66.9991C194.316 55.4976 194.309 43.4234 194.703 31.9297Z" fill="#FF855E"/>
<path d="M121.778 26.4141C122.157 40.4852 122.157 55.9804 121.778 70.0592C121.391 55.9804 121.398 40.4852 121.778 26.4141Z" fill="#FF855E"/>
<path d="M216.662 22.2422C217.042 41.2049 217.049 62.4896 216.662 81.46C216.283 62.4973 216.291 41.2126 216.662 22.2422Z" fill="#FF855E"/>
<path d="M90.7804 85.5686C90.3857 79.6851 90.3857 73.7819 90.7804 67.8984C91.179 73.7817 91.179 79.6853 90.7804 85.5686Z" fill="#FF855E"/>
<path d="M206.523 49.5998C206.128 43.7164 206.128 37.8131 206.523 31.9297C206.921 37.813 206.921 43.7165 206.523 49.5998Z" fill="#FF855E"/>
<path d="M106.159 59.4358C105.765 53.5523 105.765 47.6491 106.159 41.7656C106.558 47.6489 106.558 53.5525 106.159 59.4358Z" fill="#FF855E"/>
<path d="M182.961 47.428C182.562 41.5447 182.562 35.6411 182.961 29.7578C183.356 35.6412 183.356 41.5445 182.961 47.428Z" fill="#FF855E"/>
<path d="M128.899 48.717C128.5 42.8337 128.5 36.9302 128.899 31.0469C129.293 36.9303 129.293 42.8336 128.899 48.717Z" fill="#FF855E"/>
<path d="M189.851 14.226C191.709 13.9938 205.958 12.1207 198.52 9.66717C194.464 8.33591 188.272 7.97213 184 7.5C188.915 7.76316 193.876 7.87152 198.636 9.30339C199.627 9.60525 202.011 10.5805 200.641 11.8421C199.595 12.547 198.41 13.0194 197.166 13.2275C194.755 13.7378 192.31 14.0715 189.851 14.226Z" fill="white"/>
<path d="M176.281 14.8457C179.71 14.5825 183.116 14.4742 186.552 14.5051C183.152 15.0014 179.707 15.1156 176.281 14.8457Z" fill="white"/>
<path d="M157.631 13.5312C159.942 13.6587 162.241 13.9457 164.512 14.3904C162.187 14.4736 159.864 14.1835 157.631 13.5312Z" fill="white"/>
<path d="M176.283 7.31136C172.057 7.46616 167.839 7.63643 163.636 8.03891C161.531 8.22466 159.434 8.47234 157.359 8.81289C155.587 9.16893 153.66 9.39338 152.119 10.415C152.012 10.4882 151.921 10.5833 151.853 10.694C151.785 10.8047 151.741 10.9286 151.725 11.0575C151.733 10.9245 151.77 10.7948 151.832 10.6773C151.895 10.5598 151.982 10.4571 152.088 10.3764C153.574 9.23859 155.525 8.93673 157.305 8.51878C159.387 8.10082 161.492 7.85315 163.598 7.63643C167.815 7.26371 172.052 7.14998 176.283 7.29588V7.31136Z" fill="white"/>
<path d="M186.029 12.9162C187.205 12.7382 197.639 11.6005 192.136 10.3002C188.823 9.48746 185.208 9.36362 181.811 8.98438C185.68 9.15464 189.783 8.98436 193.506 10.3698C196.601 12.3667 187.019 12.9085 186.029 12.9162Z" fill="white"/>
<path d="M176.283 13.2864C178.727 12.951 181.2 12.881 183.659 13.0774C181.209 13.4075 178.732 13.475 176.268 13.2787L176.283 13.2864Z" fill="white"/>
<path d="M162.854 12.5028C164.521 12.4063 166.193 12.5761 167.807 13.0059C166.14 13.1066 164.467 12.9367 162.854 12.5028Z" fill="white"/>
<path d="M176.281 8.87868C173.278 9.16506 170.26 9.11088 167.257 9.42047C164.896 9.69911 161.127 9.69137 158.944 10.6743C158.797 10.7672 158.619 10.8833 158.596 11.0768C158.613 10.9833 158.65 10.8947 158.705 10.8172C158.759 10.7396 158.831 10.675 158.913 10.6279C161.459 9.31985 164.447 9.39725 167.226 9.03348C170.236 8.77032 173.263 8.84772 176.281 8.87868Z" fill="white"/>
<path d="M181.336 10.6601C180.144 17.8349 178.495 26.612 177.234 33.1522C177.04 34.1429 176.862 35.0794 176.684 35.954C176.506 36.8286 176.344 37.7342 176.189 38.4927C176.189 38.5623 176.189 38.6242 176.15 38.6862C176.088 39.0267 176.019 39.3518 175.964 39.6536C175.91 39.9555 175.872 40.1026 175.833 40.3115C175.794 40.5205 175.779 40.567 175.756 40.6908L175.376 42.6025L166.561 41.5112V41.4106C166.622 41.0546 166.862 39.7852 167.218 37.8735C167.257 37.6955 167.288 37.5097 167.327 37.3162L167.42 36.8209C167.458 36.5732 167.505 36.3255 167.559 36.0469C167.706 35.2729 167.861 34.3828 168.031 33.454C169.208 27.0454 170.841 17.9123 172.064 10.2344C175.276 10.3273 178.372 10.4743 181.336 10.6601Z" fill="#FF855E"/>
<path opacity="0.7" d="M181.336 10.6601C180.144 17.8349 178.495 26.612 177.234 33.1522C177.04 34.1429 176.862 35.0794 176.684 35.954C176.506 36.8286 176.344 37.7342 176.189 38.4927C176.189 38.5623 176.189 38.6242 176.15 38.6862C176.088 39.0267 176.019 39.3518 175.964 39.6536C175.91 39.9555 175.872 40.1026 175.833 40.3115C175.794 40.5205 175.779 40.567 175.756 40.6908L175.376 42.6025L166.561 41.5112V41.4106C166.622 41.0546 166.862 39.7852 167.218 37.8735C167.257 37.6955 167.288 37.5097 167.327 37.3162L167.42 36.8209C167.458 36.5732 167.505 36.3255 167.559 36.0469C167.706 35.2729 167.861 34.3828 168.031 33.454C169.208 27.0454 170.841 17.9123 172.064 10.2344C175.276 10.3273 178.372 10.4743 181.336 10.6601Z" fill="white"/>
<path d="M176.692 35.9531C175.918 39.9624 175.376 42.6017 175.376 42.6017L166.561 41.5104C166.561 41.5104 166.963 39.3896 167.574 36.0924L176.692 35.9531Z" fill="#FF855E"/>
<path d="M180.346 30.1017C179.336 30.4081 178.408 30.9371 177.63 31.6497C177.255 32.0564 176.954 32.5252 176.74 33.0351C176.631 33.2983 176.515 33.5614 176.422 33.8091C176.299 34.1271 176.157 34.4372 175.997 34.7379C175.958 34.8075 176.066 34.8617 176.105 34.7921C176.229 34.5202 176.38 34.261 176.554 34.0181L177.065 33.337C177.363 32.9084 177.686 32.4975 178.032 32.1063C178.762 31.4159 179.582 30.8275 180.47 30.3571C180.49 30.3342 180.502 30.3061 180.506 30.2762C180.51 30.2463 180.505 30.2159 180.492 30.1888C180.479 30.1617 180.458 30.139 180.432 30.1235C180.406 30.1081 180.376 30.1005 180.346 30.1017Z" fill="#FF855E"/>
<path d="M179.411 28.0737C178.678 28.4984 178.038 29.0671 177.53 29.7455C177.28 30.0781 177.052 30.4272 176.849 30.7903C176.657 31.16 176.491 31.5428 176.354 31.9359C176.354 32.0055 176.439 32.0442 176.47 31.9823C176.667 31.6249 176.884 31.2786 177.12 30.9451C177.353 30.6061 177.612 30.2853 177.894 29.9854C178.425 29.3772 178.996 28.8057 179.604 28.2749C179.682 28.1743 179.527 27.9963 179.411 28.0737Z" fill="white"/>
<path d="M167.468 23.0047C167.274 22.9273 167.119 23.2292 167.274 23.353C168.899 24.6765 170.262 26.449 170.37 28.5852C170.37 28.6016 170.377 28.6173 170.388 28.6289C170.4 28.6406 170.416 28.6471 170.432 28.6471C170.448 28.6471 170.464 28.6406 170.476 28.6289C170.487 28.6173 170.494 28.6016 170.494 28.5852C170.718 26.3716 169.658 23.8251 167.468 23.0047Z" fill="#FF855E"/>
<path d="M173.35 22.4938C173.24 21.6964 172.877 20.9554 172.313 20.3808C172.289 20.3599 172.26 20.3471 172.228 20.3443C172.197 20.3415 172.165 20.3489 172.139 20.3654C172.112 20.3819 172.091 20.4066 172.079 20.4359C172.067 20.4651 172.065 20.4974 172.073 20.5279C172.367 21.2107 172.625 21.9082 172.847 22.6177C172.944 22.973 173.014 23.3353 173.056 23.7012C173.056 23.8947 173.056 24.0805 173.095 24.274C173.079 24.4413 173.079 24.6097 173.095 24.7771C173.101 24.7867 173.11 24.7945 173.12 24.8C173.13 24.8054 173.141 24.8082 173.153 24.8082C173.164 24.8082 173.176 24.8054 173.186 24.8C173.196 24.7945 173.205 24.7867 173.211 24.7771C173.357 24.4292 173.43 24.0553 173.428 23.678C173.447 23.2816 173.421 22.8843 173.35 22.4938Z" fill="white"/>
<path d="M180.942 17.2152C179.851 17.8022 178.915 18.6403 178.211 19.6604C177.507 20.6805 177.056 21.8533 176.895 23.082C176.895 23.1672 177.011 23.1981 177.042 23.1207C177.474 22.0306 178.027 20.9922 178.69 20.0248C179.386 19.0631 180.191 18.1852 181.09 17.4087C181.19 17.3003 181.059 17.161 180.942 17.2152Z" fill="#FF855E"/>
<path d="M178.605 15.833C178.058 16.2472 177.628 16.7967 177.359 17.4274C177.22 17.7291 177.109 18.0425 177.026 18.364C176.925 18.6955 176.871 19.0393 176.863 19.3856C176.863 19.463 176.972 19.4708 177.003 19.3856C177.103 19.0838 177.165 18.7664 177.281 18.4723C177.401 18.1605 177.543 17.8579 177.707 17.5667C178.009 17.0017 178.411 16.5064 178.767 15.9646C178.829 15.8872 178.698 15.7634 178.605 15.833Z" fill="white"/>
<path d="M173.551 15.8536C173.493 15.304 173.361 14.7648 173.156 14.2515C172.734 13.2352 172.014 12.3714 171.089 11.7747C170.981 11.7051 170.865 11.8676 170.958 11.9527C171.658 12.6217 172.237 13.4074 172.668 14.2747C172.878 14.7014 173.046 15.1472 173.171 15.606C173.241 15.8606 173.295 16.119 173.334 16.38C173.334 16.5889 173.458 16.9682 173.334 17.1539C173.287 17.2159 173.334 17.2933 173.419 17.2391C173.481 17.1672 173.528 17.0835 173.557 16.9931C173.587 16.9027 173.597 16.8074 173.589 16.7128C173.6 16.4258 173.587 16.1385 173.551 15.8536Z" fill="#FF855E"/>
<path d="M172.498 32.8625C172.457 32.3219 172.233 31.8113 171.863 31.4151C171.747 31.3145 171.523 31.4151 171.585 31.5854C171.796 32.0069 171.975 32.4442 172.119 32.8934C172.237 33.3638 172.264 33.8527 172.196 34.333C172.196 34.3949 172.281 34.4491 172.305 34.3795C172.492 33.8971 172.558 33.3763 172.498 32.8625Z" fill="white"/>
<path d="M168.552 32.5081C168.201 31.9307 167.732 31.4346 167.174 31.053C167.05 30.9679 166.95 31.1536 167.027 31.2465C167.43 31.7376 167.799 32.2547 168.134 32.7945C168.468 33.3271 168.768 33.8803 169.032 34.4508C169.032 34.5127 169.171 34.4508 169.163 34.4044C169.101 33.7352 168.892 33.0879 168.552 32.5081Z" fill="#FF855E"/>
<path d="M183.929 65.514C183.023 67.3715 185.237 74.6935 183.426 76.4736C178.441 81.3807 168.434 81.3807 162.915 80.3436C157.396 79.3064 148.078 75.6996 145.206 69.291C144.169 66.9691 148.883 60.9629 148.72 58.9041C148.558 56.8453 143.836 55.4289 145.268 48.3469C146.7 41.2649 154.401 37.8439 158.828 37.5807C166.867 37.2314 174.877 38.7355 182.241 41.977C186.266 43.8346 192.21 49.8175 190.972 56.9304C189.734 64.0434 184.827 63.6641 183.929 65.514Z" fill="#FF855E"/>
<path opacity="0.7" d="M183.929 65.514C183.023 67.3715 185.237 74.6935 183.426 76.4736C178.441 81.3807 168.434 81.3807 162.915 80.3436C157.396 79.3064 148.078 75.6996 145.206 69.291C144.169 66.9691 148.883 60.9629 148.72 58.9041C148.558 56.8453 143.836 55.4289 145.268 48.3469C146.7 41.2649 154.401 37.8439 158.828 37.5807C166.867 37.2314 174.877 38.7355 182.241 41.977C186.266 43.8346 192.21 49.8175 190.972 56.9304C189.734 64.0434 184.827 63.6641 183.929 65.514Z" fill="white"/>
<path d="M182.817 60.1424L150.379 54.0898C150.789 52.8824 161.161 47.6503 168.134 48.9583C175.108 50.2663 182.886 58.8731 182.817 60.1424Z" fill="#FF855E"/>
<path opacity="0.1" d="M182.817 60.1471L150.379 54.0945C150.706 53.644 151.136 53.2779 151.633 53.0264C153.555 52.5369 155.547 52.3773 157.523 52.5543C161.292 53.0961 164.017 55.2091 166.865 55.7431C169.713 56.2772 173.018 55.2942 176.725 56.1611C178.627 56.7178 180.421 57.589 182.035 58.7385C182.404 59.1387 182.673 59.6218 182.817 60.1471Z" fill="black"/>
<path d="M185.085 61.5554C184.954 61.7567 181.788 60.1003 179.041 60.1855C175.062 60.3093 171.007 64.752 165.357 63.6916C159.706 62.6313 157.547 57.0199 153.878 55.4564C151.355 54.3806 147.795 54.783 147.748 54.5354C147.702 54.2877 153.6 52.7862 157.346 53.328C161.092 53.8697 163.801 56.1994 166.634 56.7335C169.466 57.2676 172.826 56.1066 176.541 56.9425C180.256 57.7784 185.209 61.3465 185.085 61.5554Z" fill="#FF855E"/>
<path opacity="0.1" d="M162.916 61.4781C161.592 61.6871 160.067 58.7846 161.569 58.4673C163.07 58.15 163.62 61.3698 162.916 61.4781Z" fill="black"/>
<path opacity="0.1" d="M168.428 62.5182C169.589 63.1916 172.058 61.0399 170.75 60.1963C169.442 59.3526 167.816 62.1622 168.428 62.5182Z" fill="black"/>
<path d="M177.914 67.0802C177.914 67.1421 178.053 67.0338 178.061 66.9718C178.355 65.4626 178.936 63.783 180.383 63.5895C180.43 63.5895 180.445 63.5121 180.383 63.5044C178.704 63.3883 177.953 65.6019 177.914 67.0802Z" fill="#263238"/>
<path d="M179.687 69.7623C183.24 70.5827 184.254 65.01 180.956 64.2438C177.659 63.4775 176.692 69.0735 179.687 69.7623Z" fill="#263238"/>
<path d="M181.089 69.7503C181.67 69.5104 182.281 69.0228 182.916 69.077C183.55 69.1312 184.069 69.851 184.417 70.5475C184.417 70.6172 184.518 70.5476 184.533 70.5011C184.766 69.3788 184.533 68.1791 183.38 67.738C182.227 67.2968 181.321 68.2178 180.826 69.286C180.733 69.4949 180.857 69.8432 181.089 69.7503Z" fill="#263238"/>
<path d="M153.722 62.5321C153.722 62.5863 153.613 62.4393 153.621 62.3773C153.9 60.8294 153.962 59.0879 152.669 58.3758C152.623 58.3758 152.669 58.2752 152.669 58.2907C154.333 58.7783 154.248 61.139 153.722 62.5321Z" fill="#263238"/>
<path d="M151.098 64.383C147.492 63.8567 148.567 58.2995 151.919 58.7793C155.27 59.2592 154.132 64.8242 151.098 64.383Z" fill="#263238"/>
<path d="M149.798 63.8594C149.35 63.4337 148.955 62.7526 148.343 62.5746C147.732 62.3966 146.981 62.8919 146.408 63.4028C146.346 63.4492 146.3 63.4028 146.316 63.3176C146.509 62.1799 147.151 61.104 148.39 61.1582C149.628 61.2124 150.139 62.3502 150.209 63.5344C150.224 63.7588 149.984 64.0375 149.798 63.8594Z" fill="#263238"/>
<path d="M162.654 73.0085C162.004 74.9818 161.131 76.8747 160.053 78.6509C159.011 80.4393 157.753 82.0926 156.307 83.5735C156.253 83.6276 156.307 83.6896 156.377 83.6509C158.028 82.3239 159.445 80.7309 160.572 78.9373C161.643 77.1147 162.387 75.1186 162.77 73.0395C162.77 73.0257 162.766 73.0122 162.758 73.0012C162.749 72.9901 162.737 72.9822 162.724 72.9787C162.711 72.9751 162.697 72.9761 162.684 72.9815C162.671 72.9869 162.661 72.9964 162.654 73.0085Z" fill="#FF855E"/>
<path d="M163.977 75.8601C163.281 81.0613 160.711 85.9839 157.553 90.117C157.545 90.1251 157.538 90.1348 157.534 90.1454C157.53 90.156 157.527 90.1674 157.527 90.1789C157.527 90.1904 157.53 90.2018 157.534 90.2124C157.538 90.223 157.545 90.2327 157.553 90.2408C157.561 90.249 157.571 90.2554 157.581 90.2598C157.592 90.2642 157.603 90.2665 157.615 90.2665C157.626 90.2665 157.638 90.2642 157.648 90.2598C157.659 90.2554 157.669 90.249 157.677 90.2408C161.702 86.487 163.644 81.278 164.093 75.8679C164.101 75.8059 163.985 75.7673 163.977 75.8601Z" fill="#FF855E"/>
<path d="M162.669 77.2273C162.326 78.2783 161.877 79.2922 161.33 80.2536C160.794 81.2224 160.181 82.1464 159.496 83.0167C159.496 83.0631 159.496 83.1096 159.55 83.0709C160.37 82.2984 161.065 81.4027 161.609 80.4161C162.135 79.4183 162.53 78.3569 162.786 77.2582C162.786 77.2444 162.781 77.2309 162.773 77.2199C162.765 77.2089 162.753 77.201 162.74 77.1974C162.726 77.1938 162.712 77.1948 162.699 77.2003C162.687 77.2057 162.676 77.2152 162.669 77.2273Z" fill="white"/>
<path d="M168.899 82.607C167.501 80.8527 166.478 78.8293 165.896 76.6628C165.896 76.6086 165.788 76.6163 165.795 76.6628C165.881 77.8052 166.188 78.92 166.701 79.9445C167.24 80.9745 167.952 81.904 168.806 82.6921C168.868 82.7695 168.953 82.6767 168.899 82.607Z" fill="#FF855E"/>
<path d="M170.223 76.5398C169.875 75.8045 169.557 75.0769 169.279 74.3184C168.978 73.5736 168.775 72.7932 168.675 71.9965C168.675 71.9036 168.536 71.9113 168.52 71.9965C168.368 72.8243 168.432 73.6774 168.706 74.4732C169.011 75.2745 169.474 76.0062 170.068 76.6249C170.13 76.6636 170.269 76.6094 170.223 76.5398Z" fill="white"/>
<path d="M160.44 67.7698C160.309 67.9788 160.146 68.1568 160.022 68.3658L159.604 69.0004C159.326 69.4184 159.039 69.8208 158.761 70.2233C158.482 70.6258 158.211 70.9973 157.932 71.3998C157.654 71.8023 157.329 72.1738 157.058 72.6149C157.05 72.6323 157.047 72.6517 157.05 72.6707C157.053 72.6896 157.062 72.7071 157.076 72.7206C157.09 72.7342 157.107 72.7433 157.126 72.7465C157.145 72.7498 157.164 72.7471 157.182 72.7388C157.977 72.1171 158.664 71.3693 159.217 70.5252C159.507 70.1084 159.765 69.6713 159.991 69.2171C160.107 68.9849 160.216 68.7605 160.316 68.5283C160.417 68.2961 160.471 68.0562 160.556 67.8162C160.58 67.7466 160.479 67.7156 160.44 67.7698Z" fill="white"/>
<path d="M157.846 74.4356C157.662 74.6177 157.466 74.7859 157.257 74.9387C157.056 75.1167 156.839 75.287 156.623 75.4495C156.21 75.7533 155.778 76.0299 155.33 76.2777C154.427 76.787 153.479 77.2119 152.497 77.547C152.477 77.547 152.457 77.5552 152.443 77.5697C152.428 77.5842 152.42 77.6039 152.42 77.6244C152.42 77.645 152.428 77.6646 152.443 77.6792C152.457 77.6937 152.477 77.7018 152.497 77.7018C153.572 77.6191 154.614 77.2879 155.539 76.7343C155.995 76.4573 156.423 76.1358 156.816 75.7746C157.01 75.5966 157.203 75.4031 157.389 75.2018C157.575 75.0006 157.722 74.7375 157.907 74.5207C157.985 74.4588 157.892 74.3737 157.846 74.4356Z" fill="#FF855E"/>
<path d="M185.665 77.432C185.422 77.2192 185.163 77.0251 184.891 76.8515C184.597 76.6425 184.318 76.4103 184.039 76.1781C183.495 75.718 182.979 75.227 182.491 74.7075C182.009 74.1891 181.559 73.6411 181.145 73.0667C180.751 72.4749 180.395 71.8597 180.076 71.2246C180.038 71.1549 179.929 71.2246 179.945 71.2787C180.323 72.7151 181.037 74.0412 182.027 75.1487C182.512 75.6788 183.06 76.1468 183.66 76.5419C184.242 77.0038 184.914 77.3387 185.634 77.5248C185.643 77.5217 185.651 77.5166 185.657 77.5098C185.664 77.5031 185.669 77.4949 185.672 77.486C185.675 77.477 185.676 77.4675 185.675 77.4581C185.673 77.4488 185.67 77.4398 185.665 77.432Z" fill="#FF855E"/>
<path d="M178.472 75.0922C177.307 73.4631 176.514 71.5975 176.15 69.6278C176.14 69.6009 176.121 69.5783 176.096 69.5638C176.072 69.5493 176.043 69.5439 176.014 69.5485C175.986 69.553 175.96 69.5673 175.941 69.5888C175.922 69.6104 175.911 69.6378 175.91 69.6665C176.021 71.7385 176.895 73.6961 178.364 75.1618C178.418 75.216 178.511 75.1463 178.472 75.0922Z" fill="white"/>
<path d="M181.948 80.1393C180.967 79.4262 180.034 78.6506 179.154 77.8173C178.292 76.9442 177.5 76.0048 176.785 75.0077C176.776 74.993 176.764 74.9802 176.75 74.9701C176.736 74.96 176.72 74.9527 176.703 74.9488C176.686 74.9448 176.669 74.9442 176.652 74.9471C176.635 74.9499 176.618 74.956 176.603 74.9652C176.589 74.9743 176.576 74.9863 176.566 75.0004C176.556 75.0145 176.548 75.0304 176.544 75.0473C176.541 75.0642 176.54 75.0817 176.543 75.0988C176.546 75.1159 176.552 75.1323 176.561 75.1471C177.119 76.2854 177.886 77.3092 178.821 78.1656C179.716 79.0344 180.766 79.7275 181.917 80.2089C181.948 80.2631 181.994 80.178 181.948 80.1393Z" fill="#FF855E"/>
<path d="M152.213 65.8584C149.821 67.8732 146.825 69.0334 143.7 69.1556C143.599 69.1556 143.576 69.3104 143.7 69.3259C146.896 69.8212 150.464 68.6912 152.384 65.9823C152.392 65.9126 152.283 65.8042 152.213 65.8584Z" fill="#FF855E"/>
<path d="M154.952 64.5605C154.622 65.2686 154.212 65.9361 153.729 66.5496C153.259 67.1669 152.741 67.7466 152.181 68.2834C152.096 68.3608 152.181 68.4923 152.305 68.4382C153.002 68.0223 153.606 67.4662 154.077 66.8051C154.537 66.1381 154.873 65.3934 155.068 64.6069C155.083 64.545 155.021 64.4986 154.952 64.5605Z" fill="white"/>
<path d="M152.094 69.5689C151.344 70.4326 150.461 71.1719 149.478 71.7593C148.515 72.3669 147.473 72.8408 146.382 73.168C146.344 73.168 146.382 73.2376 146.382 73.2299C147.555 73.0904 148.683 72.6968 149.687 72.0767C150.677 71.4329 151.533 70.6052 152.211 69.6386C152.234 69.5689 152.141 69.5148 152.094 69.5689Z" fill="#FF855E"/>
<path d="M174.651 75.9767C174.323 75.3342 174.034 74.6725 173.784 73.9953C173.784 73.9179 173.661 73.9953 173.668 73.9953C173.796 74.7235 174.02 75.4315 174.334 76.1006C174.657 76.7592 175.086 77.3606 175.603 77.8808C175.642 77.9272 175.719 77.8808 175.681 77.8188C175.309 77.2461 174.976 76.6114 174.651 75.9767Z" fill="white"/>
<path d="M171.601 72.8256C170.404 70.9971 169.561 68.9596 169.117 66.8195C169.117 66.7576 169.024 66.7808 169.016 66.8195C168.945 67.9558 169.141 69.0931 169.589 70.1399C170.04 71.1739 170.693 72.1079 171.508 72.8875C171.519 72.8935 171.53 72.8965 171.542 72.8962C171.553 72.8959 171.565 72.8923 171.574 72.8858C171.584 72.8793 171.592 72.8702 171.597 72.8596C171.601 72.8489 171.603 72.8372 171.601 72.8256Z" fill="#FF855E"/>
<path d="M192.567 56.2506C191.714 57.1751 190.806 58.0486 189.85 58.8667C188.876 59.6769 187.815 60.3752 186.685 60.9487C186.607 60.9874 186.685 61.119 186.747 61.0958C189.261 60.332 191.381 58.6229 192.66 56.328C192.691 56.2661 192.614 56.2041 192.567 56.2506Z" fill="#FF855E"/>
<path d="M149.657 56.419C149.185 56.2797 148.682 56.21 148.202 56.0862C147.722 55.9623 147.235 55.8307 146.755 55.6759C146.275 55.5211 145.779 55.3586 145.3 55.1574C144.82 54.9561 144.386 54.7239 143.922 54.5382C143.904 54.5259 143.883 54.521 143.862 54.5246C143.841 54.5282 143.822 54.5401 143.81 54.5575C143.797 54.575 143.792 54.5966 143.796 54.6176C143.8 54.6387 143.812 54.6574 143.829 54.6698C144.616 55.3832 145.552 55.9121 146.569 56.2177C147.56 56.5735 148.622 56.6824 149.665 56.5351C149.727 56.4964 149.711 56.419 149.657 56.419Z" fill="#FF855E"/>
<path d="M147.012 53.8121C146.317 53.3006 145.677 52.7197 145.1 52.0783C144.549 51.4149 144.065 50.6995 143.653 49.9421C143.606 49.857 143.498 49.9421 143.513 50.004C143.692 50.9023 144.104 51.7375 144.709 52.4251C145.314 53.1128 146.089 53.6286 146.957 53.9204C146.971 53.924 146.986 53.9228 146.999 53.9169C147.012 53.911 147.022 53.9009 147.028 53.8882C147.035 53.8755 147.037 53.861 147.034 53.8472C147.03 53.8333 147.023 53.8209 147.012 53.8121Z" fill="#FF855E"/>
<path d="M191.283 49.9919C191.283 49.9223 191.152 49.9378 191.152 49.9919C191.202 51.1486 191.055 52.3053 190.718 53.413C190.406 54.5563 189.84 55.6145 189.062 56.5089C189.055 56.5208 189.052 56.5347 189.053 56.5485C189.055 56.5623 189.061 56.5752 189.071 56.585C189.081 56.5949 189.094 56.6011 189.107 56.6027C189.121 56.6044 189.135 56.6013 189.147 56.5941C189.594 56.1795 190.001 55.7234 190.362 55.2318C190.692 54.7161 190.952 54.1592 191.136 53.5755C191.538 52.4216 191.589 51.1748 191.283 49.9919Z" fill="#FF855E"/>
<path d="M157.815 38.4802C157.591 38.2411 157.329 38.0398 157.041 37.8843C156.752 37.7251 156.442 37.6079 156.12 37.536C156.076 37.5185 156.026 37.5193 155.983 37.5382C155.939 37.5571 155.905 37.5925 155.888 37.6366C155.87 37.6807 155.871 37.73 155.89 37.7735C155.909 37.8171 155.944 37.8513 155.988 37.8688C156.257 37.9934 156.516 38.1383 156.762 38.3022C157.002 38.4648 157.242 38.6196 157.466 38.8053C157.931 39.1883 158.329 39.6461 158.643 40.1598C158.653 40.1689 158.666 40.1748 158.679 40.1768C158.693 40.1788 158.707 40.1768 158.719 40.171C158.731 40.1653 158.742 40.156 158.749 40.1443C158.756 40.1327 158.759 40.1192 158.759 40.1056C158.585 39.4934 158.26 38.9346 157.815 38.4802Z" fill="#FF855E"/>
<path d="M147.799 41.2271C147.803 41.2013 147.798 41.175 147.786 41.1524C147.773 41.1298 147.753 41.1122 147.728 41.1023C147.704 41.0925 147.678 41.0911 147.653 41.0983C147.628 41.1054 147.606 41.1208 147.59 41.1419C147.106 42.0193 146.868 43.0116 146.902 44.0134C146.948 44.9983 147.212 45.9605 147.676 46.8307C147.684 46.8406 147.696 46.8475 147.709 46.8505C147.721 46.8534 147.735 46.8522 147.747 46.847C147.759 46.8418 147.769 46.833 147.776 46.8217C147.782 46.8105 147.785 46.7974 147.784 46.7843C147.274 44.9662 147.28 43.0423 147.799 41.2271Z" fill="#FF855E"/>
<path d="M149.148 45.7011C149.148 45.6436 149.125 45.5885 149.085 45.5478C149.044 45.5072 148.989 45.4844 148.931 45.4844C148.874 45.4844 148.819 45.5072 148.778 45.5478C148.738 45.5885 148.715 45.6436 148.715 45.7011C148.696 46.4037 148.824 47.1025 149.09 47.7529C149.357 48.4032 149.756 48.9908 150.263 49.4781C150.317 49.5246 150.394 49.4781 150.356 49.4008C149.699 48.2656 149.287 47.0052 149.148 45.7011Z" fill="white"/>
<path d="M166.445 42.1747C166.426 42.1454 166.396 42.1242 166.362 42.1147C166.328 42.1053 166.292 42.1084 166.26 42.1234C166.228 42.1384 166.203 42.1643 166.189 42.1964C166.174 42.2286 166.172 42.2648 166.182 42.2985C166.419 43.1597 166.611 44.033 166.755 44.9146C166.871 45.8165 166.871 46.7295 166.755 47.6313C166.755 47.6932 166.84 47.7474 166.871 47.6778C167.257 46.7961 167.421 45.8328 167.347 44.873C167.272 43.9131 166.963 42.9864 166.445 42.1747Z" fill="#FF855E"/>
<path d="M170.499 40.5413C169.908 41.2021 169.458 41.9763 169.176 42.8168C168.908 43.664 168.762 44.5448 168.742 45.4329C168.742 45.4493 168.749 45.4651 168.76 45.4767C168.772 45.4883 168.788 45.4948 168.804 45.4948C168.821 45.4948 168.836 45.4883 168.848 45.4767C168.86 45.4651 168.866 45.4493 168.866 45.4329C169.026 44.5869 169.272 43.7595 169.601 42.9639C169.919 42.1899 170.244 41.4159 170.623 40.6419C170.631 40.5568 170.499 40.4716 170.499 40.5413Z" fill="white"/>
<path d="M171.568 43.8941C171.008 44.662 170.583 45.5207 170.314 46.4327C170.314 46.4947 170.4 46.5411 170.423 46.4792C170.813 45.6314 171.266 44.8138 171.777 44.0334C171.847 43.925 171.661 43.778 171.568 43.8941Z" fill="#FF855E"/>
<path d="M179.481 39.6448C178.462 39.8254 177.505 40.2562 176.694 40.8987C175.907 41.5683 175.289 42.4142 174.891 43.3677C174.883 43.3821 174.881 43.3991 174.885 43.4151C174.889 43.4311 174.9 43.4446 174.914 43.4529C174.929 43.4611 174.946 43.4632 174.962 43.4589C174.978 43.4545 174.991 43.444 174.999 43.4296C175.538 42.5996 176.216 41.869 177.004 41.2702C177.766 40.6471 178.616 40.141 179.527 39.7687C179.544 39.7625 179.557 39.7501 179.564 39.7341C179.571 39.7182 179.572 39.7 179.566 39.6835C179.56 39.6671 179.547 39.6538 179.531 39.6466C179.515 39.6393 179.497 39.6387 179.481 39.6448Z" fill="#FF855E"/>
<path d="M188.838 53.5731C188.536 54.0839 188.196 54.5792 187.863 55.0669C187.533 55.5691 187.141 56.0269 186.694 56.4291C186.648 56.4291 186.694 56.5607 186.772 56.522C187.261 56.1552 187.714 55.7432 188.126 55.2913C188.532 54.8342 188.857 54.3106 189.086 53.7433C189.148 53.5421 188.931 53.4105 188.838 53.5731Z" fill="white"/>
<path d="M189.246 47.7103C189.199 47.5168 188.936 47.5865 188.928 47.7568C188.928 48.0664 188.928 48.376 188.928 48.6778C188.909 48.9895 188.87 49.2997 188.812 49.6066C188.689 50.2202 188.469 50.8105 188.162 51.3558C188.162 51.41 188.216 51.4797 188.263 51.4255C188.653 50.9013 188.947 50.3116 189.13 49.684C189.339 49.0473 189.379 48.3672 189.246 47.7103Z" fill="#FF855E"/>
<path d="M182.676 50.3805C182.247 51.5149 181.677 52.5913 180.981 53.5848C180.935 53.6467 180.981 53.7241 181.066 53.6699C181.997 52.8184 182.645 51.7032 182.924 50.4734C182.947 50.334 182.746 50.2257 182.676 50.3805Z" fill="white"/>
<path d="M181.786 46.4563C181.616 47.1065 181.453 47.7644 181.252 48.4145C181.049 49.0702 180.79 49.7072 180.478 50.3185C180.469 50.335 180.466 50.3544 180.471 50.3725C180.476 50.3907 180.489 50.406 180.505 50.4153C180.521 50.4245 180.541 50.4269 180.559 50.4218C180.577 50.4167 180.592 50.4046 180.602 50.3882C181.451 49.2579 181.985 47.9225 182.15 46.5183C182.173 46.2783 181.84 46.2551 181.786 46.4563Z" fill="#FF855E"/>
<path d="M179.317 43.7572C178.729 44.1615 178.238 44.69 177.877 45.3052C177.503 45.8993 177.222 46.5464 177.041 47.2247C177.04 47.2377 177.043 47.2508 177.05 47.2621C177.056 47.2734 177.066 47.2822 177.079 47.2874C177.091 47.2926 177.104 47.2938 177.117 47.2908C177.13 47.2879 177.141 47.281 177.15 47.2711C177.459 46.6583 177.824 46.0754 178.241 45.5296C178.643 44.9801 179.1 44.4848 179.518 43.9817C179.564 43.8424 179.448 43.6721 179.317 43.7572Z" fill="white"/>
<path d="M158.954 43.1592C158.635 42.218 158.021 41.4041 157.205 40.8373C157.143 40.7986 157.05 40.8914 157.097 40.9534C157.376 41.3283 157.634 41.7185 157.871 42.1221C158.126 42.5168 158.374 42.8961 158.59 43.345C159.018 44.1846 159.323 45.0812 159.496 46.0075C159.496 46.0239 159.502 46.0397 159.514 46.0513C159.526 46.0629 159.541 46.0694 159.558 46.0694C159.574 46.0694 159.59 46.0629 159.602 46.0513C159.613 46.0397 159.62 46.0239 159.62 46.0075C159.559 45.0276 159.334 44.0648 158.954 43.1592Z" fill="#FF855E"/>
<path d="M155.114 42.5329C154.971 42.2502 154.81 41.9763 154.634 41.7125C154.322 41.1592 153.878 40.6913 153.342 40.3503C153.319 40.3379 153.294 40.3334 153.268 40.3373C153.243 40.3412 153.22 40.3534 153.202 40.372C153.184 40.3905 153.173 40.4144 153.171 40.4399C153.168 40.4653 153.174 40.491 153.187 40.5128C153.504 40.9966 153.859 41.4547 154.247 41.8828C154.425 42.115 154.603 42.3394 154.774 42.5794C154.859 42.7032 154.944 42.827 155.021 42.9586C155.125 43.086 155.206 43.23 155.261 43.3843C155.261 43.4462 155.385 43.4385 155.377 43.3843C155.346 43.0862 155.256 42.7971 155.114 42.5329Z" fill="white"/>
<path d="M161.345 38.6663C160.8 37.7857 160.055 37.0459 159.17 36.5069C159.158 36.5004 159.144 36.4984 159.13 36.5012C159.116 36.504 159.103 36.5115 159.094 36.5223C159.085 36.5331 159.08 36.5467 159.08 36.5608C159.08 36.5749 159.084 36.5886 159.093 36.5998C159.841 37.2864 160.496 38.0669 161.043 38.9217C161.608 39.7635 162.024 40.6953 162.274 41.6771C162.274 41.7545 162.398 41.6771 162.39 41.6771C162.255 40.6119 161.899 39.5866 161.345 38.6663Z" fill="white"/>
<path d="M166.956 71.0332C166.631 70.3443 166.372 69.6265 166.182 68.8893C165.976 68.1622 165.831 67.4191 165.748 66.6679C165.743 66.6487 165.731 66.6319 165.715 66.62C165.699 66.608 165.679 66.6016 165.659 66.6016C165.639 66.6016 165.62 66.608 165.604 66.62C165.588 66.6319 165.576 66.6487 165.57 66.6679C165.485 67.4467 165.548 68.2346 165.756 68.9899C165.986 69.7461 166.356 70.4523 166.847 71.0719C166.901 71.1648 166.987 71.1261 166.956 71.0332Z" fill="white"/>
<path d="M164.007 67.6621C163.697 68.3199 163.321 68.9448 162.885 69.5274C162.466 70.1247 161.989 70.6794 161.461 71.1837C161.461 71.1837 161.461 71.2688 161.515 71.2456C162.178 70.8784 162.756 70.3745 163.21 69.7673C163.656 69.1538 163.965 68.4517 164.116 67.7085C164.131 67.6466 164.031 67.6001 164.007 67.6621Z" fill="#FF855E"/>
<path d="M88.9007 96.1772C89.3593 91.7919 91.0274 87.6204 93.7189 84.1281C96.4104 80.6358 100.019 77.96 104.143 76.3995C108.267 74.8389 112.743 74.4549 117.072 75.2904C121.402 76.1259 125.414 78.1479 128.66 81.1308L140.564 79.3816L134.605 89.6757C136.095 93.2983 136.656 97.2359 136.238 101.131C135.954 104.271 135.048 107.324 133.574 110.112C132.1 112.9 130.086 115.367 127.65 117.37C125.214 119.373 122.405 120.871 119.384 121.779C116.364 122.687 113.194 122.985 110.057 122.657C106.921 122.329 103.881 121.38 101.114 119.867C98.3475 118.354 95.909 116.306 93.9405 113.842C91.972 111.379 90.5128 108.548 89.6476 105.516C88.7824 102.483 88.5285 99.3087 88.9007 96.1772Z" fill="white"/>
<path d="M88.9001 96.1758C89.3588 91.7911 91.0194 87.6181 93.6988 84.1171C95.0003 82.3408 96.5665 80.7747 98.3428 79.4732C100.095 78.1434 102.026 77.0673 104.078 76.2766C106.133 75.4682 108.289 74.9473 110.487 74.7286C111.585 74.6268 112.69 74.6061 113.792 74.6667C114.898 74.6912 116.001 74.8051 117.089 75.0073C121.476 75.8146 125.553 77.8272 128.861 80.8199L128.575 80.7348L140.471 78.9082L141.33 78.7766L140.897 79.5506L134.976 89.8601V89.4576C136.364 92.8377 136.963 96.4899 136.728 100.136C136.492 103.783 135.428 107.328 133.617 110.501C131.806 113.675 129.294 116.393 126.274 118.45C123.254 120.507 119.805 121.849 116.189 122.372C112.572 122.896 108.884 122.588 105.405 121.472C101.925 120.356 98.7461 118.461 96.1091 115.931C93.4721 113.402 91.4466 110.304 90.1866 106.874C88.9267 103.444 88.4655 99.7722 88.8382 96.1371L88.9001 96.1758ZM88.9001 96.1758C88.5481 99.7685 89.0151 103.394 90.2658 106.78C91.5166 110.167 93.5186 113.225 96.1214 115.727C98.7392 118.194 101.875 120.045 105.301 121.145C108.727 122.196 112.346 122.461 115.889 121.919C119.415 121.394 122.775 120.071 125.711 118.049C128.617 116.015 131.047 113.374 132.832 110.309C134.586 107.226 135.618 103.786 135.85 100.247C136.075 96.7084 135.503 93.1645 134.178 89.8756L134.093 89.6666L134.209 89.4731L140.2 79.2023L140.626 79.8292L128.706 81.4623H128.544L128.428 81.354C125.25 78.3762 121.304 76.3444 117.035 75.4871C115.968 75.2705 114.886 75.1385 113.799 75.0924C112.717 75.015 111.631 75.015 110.549 75.0924C108.376 75.2563 106.236 75.7253 104.194 76.4856C102.137 77.2283 100.202 78.2716 98.4511 79.5815C96.6764 80.8514 95.1097 82.3894 93.8072 84.1403C91.0904 87.6214 89.3918 91.7875 88.9001 96.1758Z" fill="#263238"/>
<path d="M114.18 102.298V105.178C114.186 105.467 114.134 105.755 114.026 106.023C113.918 106.292 113.757 106.536 113.552 106.741C113.348 106.945 113.104 107.106 112.835 107.214C112.566 107.322 112.279 107.374 111.989 107.368C111.408 107.368 110.85 107.138 110.438 106.727C110.026 106.316 109.793 105.759 109.791 105.178V100.534C109.791 100.487 109.838 100.487 109.838 100.449C109.838 100.41 109.791 100.402 109.791 100.356C109.82 99.7873 110.063 99.2507 110.47 98.8532C110.878 98.4557 111.42 98.2267 111.989 98.2118C112.664 98.2383 113.337 98.1284 113.968 97.8884C114.599 97.6485 115.176 97.2837 115.662 96.8157C116.149 96.3477 116.536 95.7862 116.801 95.165C117.065 94.5437 117.202 93.8755 117.202 93.2002C117.202 92.525 117.065 91.8568 116.801 91.2355C116.536 90.6142 116.149 90.0528 115.662 89.5848C115.176 89.1168 114.599 88.752 113.968 88.5121C113.337 88.2721 112.664 88.1622 111.989 88.1887C111.121 88.1869 110.266 88.4133 109.513 88.8452C108.759 89.2772 108.132 89.8995 107.694 90.65C107.546 90.9019 107.35 91.1219 107.117 91.2975C106.883 91.473 106.617 91.6004 106.335 91.6724C106.052 91.7444 105.757 91.7595 105.468 91.7169C105.18 91.6742 104.902 91.5746 104.652 91.4239C104.403 91.2793 104.186 91.0867 104.012 90.8574C103.838 90.628 103.711 90.3665 103.639 90.0879C103.567 89.8093 103.551 89.5192 103.592 89.2344C103.633 88.9495 103.73 88.6757 103.878 88.4286C104.659 87.0828 105.763 85.9522 107.089 85.1382C108.415 84.3241 109.923 83.8522 111.476 83.7648C113.03 83.6774 114.581 83.9773 115.99 84.6374C117.399 85.2976 118.622 86.2973 119.55 87.547C120.477 88.7966 121.079 90.257 121.303 91.797C121.526 93.337 121.364 94.9084 120.83 96.37C120.296 97.8317 119.407 99.1379 118.244 100.171C117.081 101.205 115.679 101.933 114.164 102.291L114.18 102.298ZM114.18 112.097V112.871C114.186 113.161 114.134 113.448 114.026 113.717C113.918 113.985 113.757 114.229 113.552 114.434C113.348 114.639 113.104 114.8 112.835 114.908C112.566 115.016 112.279 115.068 111.989 115.062C111.408 115.062 110.85 114.831 110.438 114.42C110.026 114.01 109.793 113.453 109.791 112.871V112.097C109.801 111.518 110.036 110.966 110.447 110.557C110.857 110.148 111.41 109.915 111.989 109.907C112.278 109.904 112.564 109.958 112.831 110.067C113.098 110.176 113.341 110.337 113.545 110.541C113.749 110.745 113.91 110.988 114.019 111.255C114.128 111.522 114.183 111.809 114.18 112.097Z" fill="#FF855E"/>
</g>
<defs>
<clipPath id="clip0_3_2">
<rect width="321" height="321" fill="white"/>
</clipPath>
</defs>
</svg>
