<svg width="12" height="12" viewBox="0 0 6 11" fill="none" xmlns="http://www.w3.org/2000/svg">
<path d="M4.81106 10.6859L0.152082 5.89855C0.0967827 5.84156 0.0575201 5.77982 0.0342943 5.71333C0.0110685 5.64684 -0.000360023 5.5756 8.64055e-06 5.49961C8.64055e-06 5.42362 0.0116215 5.35238 0.0348473 5.28589C0.0580731 5.2194 0.0971514 5.15766 0.152082 5.10066L4.81106 0.299082C4.94009 0.1661 5.10138 0.0996094 5.29493 0.0996094C5.48848 0.0996094 5.65438 0.170849 5.79263 0.31333C5.93088 0.45581 6 0.622037 6 0.81201C6 1.00198 5.93088 1.16821 5.79263 1.31069L1.72812 5.49961L5.79263 9.68853C5.92166 9.82151 5.98618 9.98546 5.98618 10.1804C5.98618 10.3753 5.91705 10.5438 5.7788 10.6859C5.64055 10.8284 5.47926 10.8996 5.29493 10.8996C5.1106 10.8996 4.94931 10.8284 4.81106 10.6859Z" fill="#3C2E10"/>
</svg>
