<svg width="12" height="12" viewBox="0 0 6 11" fill="none" xmlns="http://www.w3.org/2000/svg">
<path d="M1.18894 0.313135L5.84792 5.10047C5.90322 5.15746 5.94248 5.2192 5.96571 5.28569C5.98893 5.35219 6.00036 5.42342 5.99999 5.49941C5.99999 5.5754 5.98838 5.64664 5.96515 5.71313C5.94193 5.77963 5.90285 5.84137 5.84792 5.89836L1.18894 10.6999C1.05991 10.8329 0.898615 10.8994 0.705068 10.8994C0.511519 10.8994 0.345621 10.8282 0.207373 10.6857C0.0691237 10.5432 0 10.377 0 10.187C0 9.99704 0.0691237 9.83081 0.207373 9.68833L4.27188 5.49941L0.207373 1.3105C0.0783405 1.17752 0.0138245 1.01357 0.0138245 0.818655C0.0138245 0.623742 0.0829487 0.455235 0.221198 0.313135C0.359446 0.170655 0.520736 0.0994148 0.705068 0.0994148C0.889399 0.0994148 1.05069 0.170655 1.18894 0.313135Z" fill="#3C2E10"/>
</svg>
