<svg width="20" height="16" viewBox="0 0 20 16" fill="none" xmlns="http://www.w3.org/2000/svg">
<path d="M7.35057 0.502584C7.35057 0.502584 4.58226 0.695562 2.77182 2.17046C2.76332 2.17391 2.75313 2.17908 2.74464 2.18425C2.43045 2.47888 2.19438 2.93548 1.90226 3.59023C1.61014 4.24498 1.30104 5.08753 1.01912 6.03002C0.456963 7.91673 0.000106257 10.2325 0.000106257 12.4121C-0.00159199 12.4896 0.01709 12.5654 0.0544535 12.6326C0.689637 13.7646 1.8581 14.4487 2.94844 14.8794C4.03879 15.3102 5.04591 15.4825 5.55711 15.4997C5.70147 15.5049 5.83904 15.4377 5.92396 15.3205L6.98373 13.8318C7.838 14.0369 8.84003 14.1764 10 14.1764C11.16 14.1764 12.162 14.0369 13.0163 13.8318L14.076 15.3205C14.161 15.4377 14.2985 15.5049 14.4429 15.4997C14.9541 15.4825 15.9612 15.3102 17.0516 14.8794C18.1419 14.4487 19.3104 13.7646 19.9455 12.6326C19.9829 12.5654 20.0016 12.4896 19.9999 12.4121C19.9999 10.2325 19.543 7.91673 18.9809 6.03002C18.699 5.08753 18.3899 4.24498 18.0977 3.59023C17.8056 2.93548 17.5696 2.47888 17.2554 2.18425C17.2469 2.17908 17.2367 2.17391 17.2282 2.17046C15.4177 0.695562 12.6494 0.502584 12.6494 0.502584C12.6172 0.499139 12.5866 0.499139 12.5543 0.502584C12.4032 0.523261 12.2758 0.623196 12.2147 0.764483C12.2147 0.764483 12.0669 1.09358 11.9701 1.56396C11.1226 1.42612 10.4093 1.38477 10 1.38477C9.5907 1.38477 8.87739 1.42612 8.02991 1.56396C7.93311 1.09358 7.78535 0.764483 7.78535 0.764483C7.71062 0.592181 7.53569 0.487077 7.35057 0.502584ZM7.07884 1.45369C7.1111 1.54329 7.13318 1.62771 7.16036 1.72937C6.18041 1.96026 5.10705 2.3376 4.10332 2.96994C3.94538 3.03714 3.84178 3.19221 3.83668 3.36624C3.83329 3.53854 3.93009 3.69878 4.08294 3.77459C4.23749 3.84868 4.42092 3.82628 4.55169 3.71429C6.56593 2.44787 9.12875 2.26695 10 2.26695C10.8713 2.26695 13.4341 2.44787 15.4483 3.71429C15.5791 3.82628 15.7625 3.84868 15.9171 3.77459C16.0699 3.69878 16.1667 3.53854 16.1633 3.36624C16.1582 3.19221 16.0546 3.03714 15.8967 2.96994C14.893 2.3376 13.8196 1.96026 12.8396 1.72937C12.8668 1.62771 12.8889 1.54329 12.9212 1.45369C13.4171 1.51572 15.3447 1.77934 16.6575 2.8321C16.7425 2.91136 17.038 3.35245 17.3097 3.9624C17.5814 4.57235 17.8668 5.36666 18.1385 6.27814C18.6684 8.05629 19.0964 10.2497 19.1167 12.2605C18.6225 13.072 17.6952 13.675 16.7391 14.0524C15.8695 14.3953 15.0577 14.5486 14.6331 14.59L13.8994 13.5837C14.2731 13.4614 14.6093 13.3287 14.9048 13.1978C16.002 12.7084 16.5896 12.1915 16.5896 12.1915C16.7696 12.0278 16.7849 11.747 16.6236 11.5644C16.4622 11.3817 16.1854 11.3662 16.0054 11.5299C16.0054 11.5299 15.5502 11.952 14.5516 12.3983C14.1847 12.562 13.7398 12.7239 13.2337 12.867C13.1165 12.8532 12.9993 12.8876 12.9076 12.9634C12.0975 13.1633 11.1345 13.2943 10 13.2943C8.85701 13.2943 7.89235 13.1512 7.07884 12.9497C6.98712 12.8876 6.87503 12.8618 6.76634 12.8807C6.25853 12.7377 5.81696 12.562 5.44842 12.3983C4.44979 11.952 3.99463 11.5299 3.99463 11.5299C3.89612 11.4368 3.76026 11.3972 3.62778 11.4196C3.45965 11.4455 3.32038 11.5678 3.27453 11.7349C3.22697 11.9003 3.28132 12.0795 3.4104 12.1915C3.4104 12.1915 3.99803 12.7084 5.09516 13.1978C5.39067 13.3287 5.72695 13.4614 6.10058 13.5837L5.3669 14.59C4.94231 14.5486 4.1305 14.3953 3.26094 14.0524C2.30477 13.675 1.37747 13.072 0.883249 12.2605C0.903629 10.2497 1.33161 8.05629 1.8615 6.27814C2.13324 5.36666 2.41856 4.57235 2.6903 3.9624C2.96203 3.35245 3.25754 2.91136 3.34246 2.8321C4.65529 1.77934 6.58292 1.51572 7.07884 1.45369ZM7.17394 6.67788C6.06492 6.67788 5.21744 7.69963 5.21744 8.88334C5.21744 10.0671 6.06492 11.0888 7.17394 11.0888C8.28297 11.0888 9.13044 10.0671 9.13044 8.88334C9.13044 7.69963 8.28297 6.67788 7.17394 6.67788ZM12.8261 6.67788C11.717 6.67788 10.8696 7.69963 10.8696 8.88334C10.8696 10.0671 11.717 11.0888 12.8261 11.0888C13.9351 11.0888 14.7826 10.0671 14.7826 8.88334C14.7826 7.69963 13.9351 6.67788 12.8261 6.67788ZM7.17394 7.56006C7.74629 7.56006 8.26089 8.11832 8.26089 8.88334C8.26089 9.64836 7.74629 10.2066 7.17394 10.2066C6.6016 10.2066 6.087 9.64836 6.087 8.88334C6.087 8.11832 6.6016 7.56006 7.17394 7.56006ZM12.8261 7.56006C13.3984 7.56006 13.913 8.11832 13.913 8.88334C13.913 9.64836 13.3984 10.2066 12.8261 10.2066C12.2537 10.2066 11.7391 9.64836 11.7391 8.88334C11.7391 8.11832 12.2537 7.56006 12.8261 7.56006Z" fill="#090A0A" stroke="black" stroke-width="0.5"/>
</svg>
