<svg width="13" height="13" viewBox="0 0 11 11" fill="none" xmlns="http://www.w3.org/2000/svg">
<path d="M9.81106 10.5863L5.15208 5.79894C5.09678 5.74195 5.05752 5.68021 5.03429 5.61372C5.01107 5.54723 4.99964 5.47599 5.00001 5.4C5.00001 5.32401 5.01162 5.25277 5.03485 5.18628C5.05807 5.11979 5.09715 5.05805 5.15208 5.00105L9.81106 0.199472C9.94009 0.0664907 10.1014 0 10.2949 0C10.4885 0 10.6544 0.0712401 10.7926 0.21372C10.9309 0.3562 11 0.522427 11 0.712401C11 0.902375 10.9309 1.0686 10.7926 1.21108L6.72812 5.4L10.7926 9.58892C10.9217 9.7219 10.9862 9.88585 10.9862 10.0808C10.9862 10.2757 10.9171 10.4442 10.7788 10.5863C10.6406 10.7288 10.4793 10.8 10.2949 10.8C10.1106 10.8 9.94931 10.7288 9.81106 10.5863Z" fill="#3C2E10"/>
<path d="M4.81106 10.5863L0.152082 5.79894C0.0967827 5.74195 0.0575201 5.68021 0.0342943 5.61372C0.0110685 5.54723 -0.000360023 5.47599 8.64055e-06 5.4C8.64055e-06 5.32401 0.0116215 5.25277 0.0348473 5.18628C0.0580731 5.11979 0.0971514 5.05805 0.152082 5.00105L4.81106 0.199472C4.94009 0.0664907 5.10138 0 5.29493 0C5.48848 0 5.65438 0.0712401 5.79263 0.21372C5.93088 0.3562 6 0.522427 6 0.712401C6 0.902375 5.93088 1.0686 5.79263 1.21108L1.72812 5.4L5.79263 9.58892C5.92166 9.7219 5.98618 9.88585 5.98618 10.0808C5.98618 10.2757 5.91705 10.4442 5.7788 10.5863C5.64055 10.7288 5.47926 10.8 5.29493 10.8C5.1106 10.8 4.94931 10.7288 4.81106 10.5863Z" fill="#3C2E10"/>
</svg>
