<svg width="13" height="13" viewBox="0 0 11 11" fill="none" xmlns="http://www.w3.org/2000/svg">
<path d="M1.18894 0.413721L5.84792 5.20106C5.90322 5.25805 5.94248 5.31979 5.96571 5.38628C5.98893 5.45277 6.00036 5.52401 5.99999 5.6C5.99999 5.67599 5.98838 5.74723 5.96515 5.81372C5.94193 5.88021 5.90285 5.94195 5.84792 5.99895L1.18894 10.8005C1.05991 10.9335 0.898615 11 0.705068 11C0.511519 11 0.345621 10.9288 0.207373 10.7863C0.0691237 10.6438 0 10.4776 0 10.2876C0 10.0976 0.0691237 9.9314 0.207373 9.78892L4.27188 5.6L0.207373 1.41108C0.0783405 1.2781 0.0138245 1.11415 0.0138245 0.919241C0.0138245 0.724328 0.0829487 0.555821 0.221198 0.413721C0.359446 0.271241 0.520736 0.200001 0.705068 0.200001C0.889399 0.200001 1.05069 0.271241 1.18894 0.413721Z" fill="#3C2E10"/>
<path d="M6.18894 0.413721L10.8479 5.20106C10.9032 5.25805 10.9425 5.31979 10.9657 5.38628C10.9889 5.45277 11.0004 5.52401 11 5.6C11 5.67599 10.9884 5.74723 10.9652 5.81372C10.9419 5.88021 10.9028 5.94195 10.8479 5.99895L6.18894 10.8005C6.05991 10.9335 5.89862 11 5.70507 11C5.51152 11 5.34562 10.9288 5.20737 10.7863C5.06912 10.6438 5 10.4776 5 10.2876C5 10.0976 5.06912 9.9314 5.20737 9.78892L9.27188 5.6L5.20737 1.41108C5.07834 1.2781 5.01382 1.11415 5.01382 0.919241C5.01382 0.724328 5.08295 0.555821 5.2212 0.413721C5.35945 0.271241 5.52074 0.200001 5.70507 0.200001C5.8894 0.200001 6.05069 0.271241 6.18894 0.413721Z" fill="#3C2E10"/>
</svg>
