<svg width="50" height="50" viewBox="0 0 50 50" fill="none" xmlns="http://www.w3.org/2000/svg">
<mask id="mask0_212_669" style="mask-type:alpha" maskUnits="userSpaceOnUse" x="0" y="0" width="50" height="50">
<path fill-rule="evenodd" clip-rule="evenodd" d="M25 0C11.1929 0 0 11.1929 0 25C0 38.8071 11.1929 50 25 50C38.8071 50 50 38.8071 50 25C50 11.1929 38.8071 0 25 0ZM25 2C12.2975 2 2 12.2975 2 25C2 37.7025 12.2975 48 25 48C37.7025 48 48 37.7025 48 25C48 12.2975 37.7025 2 25 2Z" fill="white"/>
</mask>
<g mask="url(#mask0_212_669)">
<rect width="50" height="50" fill="#EBEBEB"/>
</g>
<mask id="mask1_212_669" style="mask-type:alpha" maskUnits="userSpaceOnUse" x="21" y="16" width="9" height="18">
<path fill-rule="evenodd" clip-rule="evenodd" d="M26.7189 33.4001V25.7366H29.1983L29.5667 22.7517H26.7189V20.8439C26.7189 19.9809 26.9499 19.3904 28.1428 19.3904H29.6667V16.7169C29.4044 16.678 28.4988 16.6001 27.4496 16.6001C25.2512 16.6001 23.7523 17.9952 23.7523 20.5519V22.7582H21.2667V25.7431H23.7523V33.4001H26.7189Z" fill="white"/>
</mask>
<g mask="url(#mask1_212_669)">
<rect x="13.8" y="13.8" width="22.4" height="22.4" fill="#20A6FC"/>
</g>
</svg>
