<svg width="41" height="39" viewBox="0 0 41 39" fill="none" xmlns="http://www.w3.org/2000/svg">
<path fill-rule="evenodd" clip-rule="evenodd" d="M0.791672 2.96651C0.791672 2.11344 1.13862 1.29531 1.75619 0.692096C2.37377 0.0888846 3.21138 -0.249996 4.08476 -0.249996H36.9117C37.3445 -0.250686 37.7732 -0.167986 38.1733 -0.0066289C38.5733 0.154728 38.9369 0.391572 39.2431 0.690343C39.5493 0.989115 39.7922 1.34395 39.9578 1.73452C40.1234 2.1251 40.2086 2.54375 40.2083 2.96651V35.03C40.2088 35.4529 40.1239 35.8716 39.9585 36.2624C39.7931 36.6532 39.5505 37.0082 39.2445 37.3073C38.9384 37.6064 38.575 37.8436 38.1751 38.0053C37.7751 38.1671 37.3464 38.2502 36.9135 38.25H4.08476C3.65215 38.25 3.22379 38.1668 2.82413 38.005C2.42448 37.8433 2.06137 37.6062 1.75556 37.3073C1.44975 37.0084 1.20722 36.6537 1.04183 36.2632C0.876441 35.8728 0.791437 35.4543 0.791672 35.0318V2.96651ZM16.3935 14.429H21.7309V17.047C22.5013 15.542 24.4721 14.1875 27.4338 14.1875C33.1115 14.1875 34.4571 17.1853 34.4571 22.6855V32.874H28.7112V23.9385C28.7112 20.806 27.9408 19.0385 25.9843 19.0385C23.2699 19.0385 22.1412 20.9443 22.1412 23.9385V32.874H16.3935V14.429ZM6.53934 32.6343H12.287V14.1875H6.53934V32.6325V32.6343ZM13.1094 8.17101C13.1202 8.65168 13.0326 9.12963 12.8518 9.57681C12.671 10.024 12.4005 10.4314 12.0563 10.7751C11.7121 11.1188 11.3011 11.3918 10.8473 11.5783C10.3936 11.7647 9.90631 11.8607 9.41407 11.8607C8.92183 11.8607 8.43454 11.7647 7.98082 11.5783C7.52709 11.3918 7.11606 11.1188 6.77184 10.7751C6.42763 10.4314 6.15716 10.024 5.97633 9.57681C5.79549 9.12963 5.70792 8.65168 5.71876 8.17101C5.74003 7.2275 6.1387 6.32964 6.82938 5.66971C7.52007 5.00977 8.44787 4.64024 9.41407 4.64024C10.3803 4.64024 11.3081 5.00977 11.9988 5.66971C12.6894 6.32964 13.0881 7.2275 13.1094 8.17101Z" fill="#5B7DF5"/>
</svg>
