<svg width="20" height="20" viewBox="0 0 20 20" fill="none" xmlns="http://www.w3.org/2000/svg">
<path d="M13.3334 6.66663C14.6595 6.66663 15.9313 7.19341 16.8689 8.13109C17.8066 9.06877 18.3334 10.3405 18.3334 11.6666V17.5H15.0001V11.6666C15.0001 11.2246 14.8245 10.8007 14.5119 10.4881C14.1994 10.1756 13.7754 9.99996 13.3334 9.99996C12.8914 9.99996 12.4675 10.1756 12.1549 10.4881C11.8423 10.8007 11.6667 11.2246 11.6667 11.6666V17.5H8.33342V11.6666C8.33342 10.3405 8.8602 9.06877 9.79788 8.13109C10.7356 7.19341 12.0073 6.66663 13.3334 6.66663Z" stroke="#090A0A" stroke-width="1.5" stroke-linecap="round" stroke-linejoin="round"/>
<path d="M5.00008 7.49996H1.66675V17.5H5.00008V7.49996Z" stroke="#090A0A" stroke-width="1.5" stroke-linecap="round" stroke-linejoin="round"/>
<path d="M3.33341 4.99996C4.25389 4.99996 5.00008 4.25377 5.00008 3.33329C5.00008 2.41282 4.25389 1.66663 3.33341 1.66663C2.41294 1.66663 1.66675 2.41282 1.66675 3.33329C1.66675 4.25377 2.41294 4.99996 3.33341 4.99996Z" stroke="#090A0A" stroke-width="1.5" stroke-linecap="round" stroke-linejoin="round"/>
</svg>
