<svg width="39" height="39" viewBox="0 0 39 39" fill="none" xmlns="http://www.w3.org/2000/svg">
<path fill-rule="evenodd" clip-rule="evenodd" d="M38.2843 35.0277L27.6067 24.3459C29.5207 21.7354 30.546 18.5794 30.5317 15.3425C30.4952 6.893 23.6611 0.0489574 15.2117 0.000155214C11.1681 -0.0181394 7.28525 1.58148 4.42798 4.44268C1.57071 7.30387 -0.0235809 11.189 0.000263669 15.2324C0.0367836 23.6827 6.87151 30.5274 15.3217 30.5762C18.5718 30.5902 21.7394 29.553 24.3516 27.6191L24.3627 27.6108L35.0306 38.2842C35.6074 38.8893 36.4668 39.1343 37.276 38.9241C38.0851 38.714 38.7167 38.0818 38.9262 37.2725C39.1356 36.4632 38.8899 35.604 38.2843 35.0277ZM15.3106 27.5174C8.55085 27.4786 3.08316 22.0034 3.05348 15.2436C3.03524 12.0092 4.31078 8.90177 6.59616 6.61298C8.88154 4.3242 11.9871 3.04404 15.2215 3.05748C21.9813 3.09636 27.449 8.57151 27.4786 15.3313C27.4969 18.5657 26.2213 21.6732 23.9359 23.9619C21.6506 26.2507 18.545 27.5309 15.3106 27.5174Z" fill="white"/>
</svg>
