<svg width="127" height="38" viewBox="0 0 127 38" fill="none" xmlns="http://www.w3.org/2000/svg">
<path d="M17.8256 19.8389C17.8256 20.7336 17.7258 21.6564 17.5264 22.6071C17.3269 23.5578 16.9849 24.4246 16.5004 25.2075C16.0445 25.9904 15.4317 26.6336 14.6623 27.1369C13.9213 27.6402 13.0094 27.8918 11.9265 27.8918C11.385 27.8918 10.8578 27.8219 10.3448 27.6821C9.86036 27.5703 9.37589 27.4025 8.89142 27.1788C8.89142 28.4091 8.86293 29.6115 8.80593 30.7859C8.74893 31.9882 8.72044 33.2046 8.72044 34.4349C8.72044 35.2737 8.62069 35.9308 8.4212 36.4062C8.25022 36.9095 7.96523 37.273 7.56626 37.4967C7.19578 37.7204 6.71131 37.8602 6.11285 37.9161C5.54289 37.972 4.87318 38 4.10373 38C3.81875 38 3.49102 37.986 3.12055 37.9581C2.77857 37.9581 2.43659 37.9021 2.09461 37.7903C1.78113 37.6784 1.5104 37.5107 1.28242 37.287C1.08293 37.0912 0.983186 36.7976 0.983186 36.4062C0.983186 36.0147 1.11143 35.6512 1.36791 35.3157C1.65289 34.9801 1.95212 34.7005 2.2656 34.4768C2.2656 31.2892 2.27985 28.1295 2.30835 24.9978C2.33685 21.8381 2.3511 18.6645 2.3511 15.4768C2.3511 15.2531 2.33685 15.0294 2.30835 14.8057C2.30835 14.5541 2.2941 14.3164 2.2656 14.0927C1.66714 14.0368 1.13993 13.8131 0.683956 13.4216C0.227985 13.0302 0 12.5269 0 11.9117C0 11.2686 0.242234 10.7653 0.726703 10.4018C1.23967 10.0383 1.83813 9.77263 2.52209 9.60486C3.20604 9.43709 3.90425 9.33922 4.6167 9.31126C5.35765 9.25533 5.97036 9.22737 6.45483 9.22737C7.11029 9.22737 7.68025 9.33922 8.16472 9.56291C8.64919 9.75865 8.96267 10.22 9.10516 10.947C10.0171 10.1641 11.0715 9.77263 12.2685 9.77263C13.6649 9.77263 14.7335 10.1082 15.4745 10.7792C16.2439 11.4503 16.7997 12.2892 17.1416 13.2958C17.4836 14.3024 17.6831 15.3929 17.7401 16.5673C17.7971 17.7417 17.8256 18.8322 17.8256 19.8389ZM11.2425 17.6998C11.2425 17.532 11.2283 17.2943 11.1998 16.9868C11.1713 16.6792 11.1143 16.3856 11.0288 16.106C10.9718 15.7984 10.8578 15.5467 10.6868 15.351C10.5443 15.1273 10.3448 15.0155 10.0883 15.0155C9.86036 15.0155 9.64663 15.0993 9.44714 15.2671C9.24765 15.4069 9.09091 15.5607 8.97692 15.7285C8.97692 16.9588 8.99117 18.1751 9.01966 19.3775C9.07666 20.5798 9.10516 21.7962 9.10516 23.0265L9.57538 23.0684C9.94585 23.0684 10.2308 22.9286 10.4303 22.649C10.6583 22.3414 10.8293 21.9919 10.9433 21.6004C11.0573 21.209 11.1285 20.8035 11.157 20.3841C11.214 19.9367 11.2425 19.5872 11.2425 19.3355V17.6998ZM11.5845 11.3664C11.0715 11.702 10.4446 12.1354 9.70362 12.6667C8.96267 13.17 8.22172 13.7152 7.48076 14.3024C6.73981 14.8617 6.04161 15.4349 5.38615 16.0221C4.73069 16.5813 4.21773 17.0846 3.84725 17.532L3.8045 17.7417V17.9095L3.93274 17.7837C5.12967 16.5254 6.48333 15.379 7.99373 14.3444C9.50413 13.3098 10.9575 12.3032 12.3539 11.3245L11.5845 11.3664ZM8.46395 24.4945L7.86549 24.2009C7.18153 24.7042 6.45483 25.2634 5.68538 25.8786C4.94443 26.4658 4.28897 27.0809 3.71901 27.7241V28.3532C4.43146 27.6821 5.20091 27.039 6.02736 26.4238C6.8823 25.7807 7.6945 25.1516 8.46395 24.5364V24.4945ZM9.19065 25.585C9.64662 25.1376 10.1596 24.7322 10.7296 24.3687C11.328 23.9772 11.9407 23.6137 12.5677 23.2781C13.1946 22.9426 13.8074 22.6071 14.4058 22.2715C15.0328 21.936 15.617 21.5725 16.1585 21.181L16.2439 20.5519C15.503 20.9993 14.7763 21.4606 14.0638 21.936C13.3799 22.3834 12.6674 22.8168 11.9265 23.2362C11.6985 23.6277 11.385 23.9492 10.986 24.2009C10.6156 24.4525 10.1881 24.5923 9.70362 24.6203L8.76318 25.2914L9.19065 25.585ZM3.67626 23.2781C4.24622 22.7189 4.85893 22.1177 5.51439 21.4746C6.16985 20.8035 6.82531 20.2303 7.48076 19.755V19.0839C7.36677 19.1118 7.12454 19.2796 6.75406 19.5872C6.38359 19.8948 5.98461 20.2443 5.55714 20.6358C5.15817 20.9993 4.77344 21.3628 4.40296 21.7263C4.03249 22.0618 3.79025 22.2855 3.67626 22.3974V23.2781ZM10.5586 26.1302L15.8592 22.8587V22.3135C15.4317 22.621 14.9473 22.9146 14.4058 23.1943C13.8644 23.4739 13.3229 23.7535 12.7814 24.0331C12.2685 24.3127 11.7555 24.6063 11.2425 24.9139C10.7581 25.2215 10.3306 25.557 9.9601 25.9205L10.5586 26.1302ZM3.67626 25.0397C4.33172 24.4525 4.97293 23.8793 5.59989 23.3201C6.22685 22.7609 6.86805 22.2016 7.52351 21.6424C7.49501 21.5026 7.48076 21.3628 7.48076 21.223C7.48076 21.0831 7.48076 20.9433 7.48076 20.8035C6.85381 21.3628 6.22685 21.9639 5.59989 22.6071C4.97293 23.2502 4.33172 23.8094 3.67626 24.2848V25.0397ZM7.22428 29.947C6.65432 30.3664 6.07011 30.7999 5.47165 31.2472C4.87318 31.6946 4.31747 32.156 3.8045 32.6313V33.3444C4.37447 32.9249 4.94443 32.5195 5.51439 32.128C6.11285 31.7366 6.66857 31.3032 7.18153 30.8278L7.22428 30.0309V29.947ZM3.76176 31.6247C4.33172 31.1494 4.91593 30.688 5.51439 30.2406C6.11285 29.7932 6.69707 29.3179 7.26703 28.8146L7.30978 27.9338C6.79681 28.521 6.2126 29.0383 5.55714 29.4857C4.90168 29.933 4.30322 30.4363 3.76176 30.9956V31.6247ZM12.7387 20.3841C13.3086 19.9926 13.8786 19.6291 14.4486 19.2936C15.047 18.9581 15.6312 18.6085 16.2012 18.245L16.1585 17.4062C15.56 17.7697 14.99 18.1611 14.4486 18.5806C13.9071 19 13.3514 19.3915 12.7814 19.755L12.7387 20.3841ZM3.71901 26.6336C4.23198 26.0743 4.83044 25.5291 5.51439 24.9978C6.22685 24.4386 6.89655 23.9213 7.52351 23.4459V22.6909C6.89655 23.1943 6.28384 23.7535 5.68538 24.3687C5.08692 24.9838 4.45996 25.5291 3.8045 26.0044L3.71901 26.0464V26.6336ZM7.43802 17.4062C6.86805 17.8815 6.19835 18.4268 5.4289 19.0419C4.68795 19.6291 4.11798 20.2303 3.71901 20.8455L3.67626 21.3488C4.33172 20.8734 4.94443 20.3422 5.51439 19.755C6.11285 19.1678 6.75406 18.6365 7.43802 18.1611V17.4062ZM7.43802 15.9382C6.78256 16.4415 6.1556 16.9588 5.55714 17.4901C4.98718 17.9934 4.38872 18.5246 3.76176 19.0839L3.71901 19.6711C4.37447 19.2796 5.00143 18.7623 5.59989 18.1192C6.19835 17.4761 6.81106 16.9169 7.43802 16.4415V15.9382ZM7.26703 26.5077C6.66857 26.9551 6.05586 27.4165 5.4289 27.8918C4.80194 28.3672 4.23198 28.8845 3.71901 29.4437V29.989C4.34597 29.5136 4.94443 28.9823 5.51439 28.3951C6.08436 27.8079 6.68282 27.3046 7.30978 26.8852L7.26703 26.5077ZM12.7387 16.777L12.7814 17.3642C13.2944 16.9728 13.8216 16.6093 14.3631 16.2737C14.9045 15.9382 15.446 15.5747 15.9875 15.1832L15.8592 14.5121L12.7387 16.777ZM15.0898 12.5408C15.0328 12.457 14.9615 12.3731 14.876 12.2892C14.7905 12.2053 14.6908 12.1354 14.5768 12.0795C14.2063 12.443 13.7646 12.8344 13.2516 13.2539C12.7387 13.6453 12.2685 13.9669 11.841 14.2185L12.1402 14.638C12.6817 14.4143 13.1661 14.0787 13.5936 13.6313C14.0211 13.156 14.5198 12.7925 15.0898 12.5408ZM12.4822 21.9779C13.1091 21.5865 13.7219 21.195 14.3203 20.8035C14.9473 20.4121 15.5885 20.0206 16.2439 19.6291V19.1258C15.6455 19.5453 15.0185 19.9367 14.3631 20.3002C13.7361 20.6358 13.1376 21.0412 12.5677 21.5166L12.4822 21.9779ZM3.84725 34.8962C4.38872 34.4489 4.94443 34.0294 5.51439 33.638C6.08436 33.2465 6.64007 32.8271 7.18153 32.3797V31.8344C6.61157 32.2539 6.02736 32.6593 5.4289 33.0508C4.85893 33.4702 4.33172 33.9316 3.84725 34.4349V34.8962ZM15.4745 13.2119C14.933 13.5475 14.4201 13.911 13.9356 14.3024C13.4796 14.6939 12.9952 15.0574 12.4822 15.3929L12.6104 15.8543C13.1234 15.4908 13.6221 15.1413 14.1066 14.8057C14.6196 14.4422 15.1325 14.0787 15.6455 13.7152L15.4745 13.2119ZM7.56626 11.2826C6.9678 11.8138 6.31234 12.3311 5.59989 12.8344C4.91593 13.3377 4.34597 13.9249 3.89 14.596V14.9735C4.45996 14.3863 5.05842 13.8271 5.68538 13.2958C6.34084 12.7645 6.9678 12.2333 7.56626 11.702V11.2826ZM3.89 16.3996C4.48846 15.8124 5.12967 15.2531 5.81362 14.7219C6.49758 14.1626 7.16729 13.6174 7.82274 13.0861C7.76575 13.0302 7.723 12.9742 7.6945 12.9183C7.666 12.8624 7.62326 12.8065 7.56626 12.7506C6.9393 13.3098 6.31234 13.855 5.68538 14.3863C5.05842 14.9176 4.45996 15.4768 3.89 16.064V16.3996ZM13.4226 11.4923C13.2801 11.5762 13.0522 11.716 12.7387 11.9117C12.4537 12.1074 12.1545 12.3171 11.841 12.5408C11.5275 12.7366 11.2283 12.9323 10.9433 13.128C10.6868 13.2958 10.5301 13.4216 10.4731 13.5055L11.1998 13.7572C11.6557 13.4216 12.0975 13.0721 12.5249 12.7086C12.9524 12.3171 13.3941 11.9676 13.8501 11.66L13.4226 11.4923ZM15.389 24.0751C14.762 24.4106 14.1208 24.7461 13.4654 25.0817C12.8384 25.4172 12.2542 25.8227 11.7127 26.298L12.4822 26.2561C12.8812 26.0044 13.2801 25.7667 13.6791 25.543C14.1066 25.3194 14.5198 25.0817 14.9188 24.83L15.389 24.0751ZM12.8242 18.7483C13.3941 18.4128 13.9356 18.0353 14.4486 17.6159C14.99 17.1965 15.5457 16.833 16.1157 16.5254L16.073 16.0221C15.503 16.4135 14.933 16.791 14.3631 17.1545C13.8216 17.518 13.2944 17.9375 12.7814 18.4128L12.8242 18.7483ZM3.67626 36.4481C4.24622 35.9728 4.83044 35.5254 5.4289 35.106C6.02736 34.6865 6.61157 34.2391 7.18153 33.7638V33.3444C6.52608 33.8756 5.85637 34.379 5.17241 34.8543C4.48846 35.3576 3.81875 35.8889 3.16329 36.4481H3.67626ZM4.6167 10.9051C4.27472 11.1288 3.96124 11.3804 3.67626 11.66C3.41978 11.9117 3.16329 12.1913 2.90681 12.4989L3.37703 12.6247L3.41978 12.6667H3.46253C3.77601 12.3591 4.08948 12.0515 4.40296 11.7439C4.71644 11.4084 5.04417 11.1008 5.38615 10.8212L4.6167 10.9051ZM5.55714 36.4062C5.81362 36.2104 6.07011 36.0007 6.32659 35.777C6.58307 35.5533 6.86805 35.3716 7.18153 35.2318V34.7285C7.12454 34.7285 6.98205 34.7984 6.75406 34.9382C6.55457 35.106 6.32659 35.2877 6.07011 35.4834C5.81362 35.7071 5.55714 35.9029 5.30066 36.0706C5.07267 36.2664 4.93018 36.3922 4.87318 36.4481L5.55714 36.4062ZM6.62582 10.8212C6.54033 10.8771 6.38359 11.0169 6.1556 11.2406C5.92762 11.4364 5.68538 11.6461 5.4289 11.8698C5.11542 12.1494 4.78769 12.443 4.44571 12.7506L3.93274 13.2958C4.38872 12.8205 4.88743 12.401 5.4289 12.0375C5.97036 11.6461 6.48333 11.2406 6.9678 10.8212H6.62582ZM1.92363 12.415C2.09461 12.1913 2.27985 11.9816 2.47934 11.7859C2.67883 11.5901 2.87831 11.3804 3.0778 11.1567C3.0208 11.1847 2.92106 11.1987 2.77857 11.1987C2.57908 11.3664 2.3796 11.5342 2.18011 11.702C2.00912 11.8698 1.83813 12.0515 1.66714 12.2472L1.92363 12.415Z" fill="black"/>
<path d="M26.5206 28.3532C25.1812 28.3532 24.0271 28.0736 23.0581 27.5143C22.1177 26.9831 21.334 26.284 20.707 25.4172C20.0801 24.5224 19.6098 23.5158 19.2964 22.3974C19.0114 21.2789 18.8689 20.1464 18.8689 19C18.8689 17.9375 19.0399 16.805 19.3819 15.6026C19.7523 14.4003 20.2653 13.2958 20.9208 12.2892C21.6047 11.2826 22.4454 10.4577 23.4428 9.81457C24.4403 9.14349 25.5802 8.80795 26.8626 8.80795C27.6891 8.80795 28.4728 8.96174 29.2137 9.26931C29.9547 9.57689 30.6101 10.0103 31.1801 10.5695C31.7501 11.1008 32.1918 11.7299 32.5053 12.457C32.8472 13.184 33.0182 13.9529 33.0182 14.7638C33.0182 15.351 32.9185 15.9662 32.719 16.6093C32.5195 17.2244 32.2203 17.7976 31.8213 18.3289C31.4508 18.8322 30.9949 19.2517 30.4534 19.5872C29.9119 19.8948 29.2992 20.0486 28.6153 20.0486C28.1023 20.0486 27.6178 19.9367 27.1619 19.713C26.7059 19.4614 26.3639 19.0979 26.1359 18.6225V18.8322C26.1359 19.2517 26.1787 19.741 26.2642 20.3002C26.3782 20.8315 26.5349 21.3348 26.7344 21.8102C26.9624 22.2575 27.2473 22.649 27.5893 22.9845C27.9598 23.2921 28.4158 23.4459 28.9572 23.4459C29.3277 23.4459 29.6269 23.3061 29.8549 23.0265C30.0829 22.7469 30.2966 22.4393 30.4961 22.1038C30.7241 21.7682 30.9521 21.4606 31.1801 21.181C31.4366 20.9014 31.7786 20.7616 32.206 20.7616C32.776 20.7616 33.1892 20.9713 33.4457 21.3907C33.7022 21.8102 33.8304 22.2575 33.8304 22.7329C33.8304 23.5717 33.5882 24.3407 33.1037 25.0397C32.6478 25.7108 32.0493 26.298 31.3083 26.8013C30.5959 27.2767 29.8122 27.6542 28.9572 27.9338C28.1023 28.2134 27.2901 28.3532 26.5206 28.3532ZM26.2642 16.8609C26.4636 16.6652 26.6346 16.5394 26.7771 16.4834C26.9481 16.3996 27.1049 16.3436 27.2473 16.3157C27.4183 16.2877 27.5893 16.2737 27.7603 16.2737C27.9598 16.2458 28.1735 16.2038 28.4015 16.1479C28.601 15.8683 28.7008 15.5607 28.7008 15.2252C28.7008 14.8337 28.6295 14.5401 28.487 14.3444C28.3445 14.1207 28.0738 13.9389 27.6748 13.7991H27.6321C27.4041 13.911 27.2046 14.0927 27.0336 14.3444C26.8911 14.596 26.7629 14.8756 26.6489 15.1832C26.5634 15.4628 26.4779 15.7564 26.3924 16.064C26.3354 16.3716 26.2927 16.6372 26.2642 16.8609ZM24.5543 18.3709C24.5828 18.2311 24.597 18.0912 24.597 17.9514C24.597 17.7837 24.597 17.6299 24.597 17.4901C23.9416 18.1052 23.2719 18.7064 22.5879 19.2936C21.9039 19.8528 21.2627 20.468 20.6643 21.1391L20.7498 21.5585C21.3482 20.9713 21.9752 20.44 22.6306 19.9647C23.3146 19.4614 23.9558 18.9301 24.5543 18.3709ZM27.8031 10.5276C27.1476 10.8631 26.5064 11.2686 25.8794 11.7439C25.281 12.1913 24.6968 12.6806 24.1268 13.2119C23.5568 13.7432 22.9869 14.2745 22.4169 14.8057C21.8754 15.337 21.334 15.8543 20.7925 16.3576L20.6643 16.819C21.3197 16.1759 21.9752 15.5607 22.6306 14.9735C23.2861 14.3584 23.9558 13.7712 24.6398 13.2119C25.2097 12.7366 25.7939 12.3171 26.3924 11.9536C26.9909 11.5622 27.5751 11.1428 28.145 10.6954L28.2305 10.6115L27.8031 10.5276ZM21.1772 22.9845C21.7472 22.4812 22.3172 22.0059 22.8871 21.5585C23.4571 21.0831 24.0413 20.6078 24.6398 20.1325L24.597 19.4614C23.9986 19.9367 23.3716 20.4121 22.7161 20.8874C22.0892 21.3348 21.505 21.8381 20.9635 22.3974L21.1772 22.9845ZM20.4505 18.5806C21.391 17.6858 22.3599 16.791 23.3574 15.8962C24.3548 15.0015 25.2667 14.0648 26.0932 13.0861C25.0672 13.8131 24.0983 14.624 23.1864 15.5188C22.3029 16.3856 21.4052 17.2524 20.4933 18.1192L20.4505 18.5806ZM24.939 15.4349C24.198 16.1339 23.4571 16.8469 22.7161 17.574C21.9752 18.273 21.22 18.9581 20.4505 19.6291L20.4933 20.0905C21.1487 19.4194 21.8327 18.7763 22.5452 18.1611C23.2861 17.546 24.0271 16.9308 24.768 16.3157L24.939 15.4349ZM23.4856 25.8786C23.9131 25.5151 24.3548 25.1795 24.8108 24.872C25.2667 24.5364 25.7227 24.1869 26.1787 23.8234C26.1217 23.7675 26.0647 23.6976 26.0077 23.6137C25.9507 23.5298 25.9079 23.4459 25.8794 23.362C25.452 23.7815 24.9817 24.1589 24.4688 24.4945C23.9558 24.83 23.4713 25.1935 23.0154 25.585L23.4856 25.8786ZM22.4169 25.0397C22.9014 24.5923 23.4001 24.2009 23.9131 23.8653C24.4545 23.5018 24.9675 23.1104 25.452 22.6909L25.1955 22.1457C24.825 22.5651 24.3263 23.0265 23.6993 23.5298C23.1009 24.0052 22.5737 24.3966 22.1177 24.7042L22.4169 25.0397ZM21.6902 24.0331C22.2032 23.5857 22.7589 23.1523 23.3574 22.7329C23.9843 22.2855 24.4973 21.8102 24.8963 21.3068L24.8108 21.0132C23.6423 21.908 22.5452 22.8168 21.5192 23.7395L21.6902 24.0331ZM24.8963 26.5077C25.2667 26.1722 25.6372 25.8646 26.0077 25.585C26.4067 25.2774 26.8056 24.9698 27.2046 24.6623L26.7771 24.3687C26.3782 24.6762 25.9649 24.9978 25.5375 25.3333C25.11 25.6409 24.6825 25.9485 24.255 26.2561L24.8963 26.5077ZM31.9495 23.8234C31.9495 23.8514 31.9495 23.8653 31.9495 23.8653C31.978 23.8374 31.9923 23.8094 31.9923 23.7815C31.9923 23.7535 32.0065 23.7255 32.035 23.6976L32.206 23.1523C31.4936 23.7675 30.7811 24.3547 30.0687 24.9139C29.3562 25.4452 28.6295 26.0044 27.8886 26.5916L28.7862 26.2561C29.2992 25.8087 29.8264 25.4032 30.3679 25.0397C30.9379 24.6762 31.4651 24.2708 31.9495 23.8234ZM28.1023 24.9978C27.7033 25.2215 27.3043 25.4871 26.9054 25.7947C26.5349 26.1023 26.1929 26.4099 25.8794 26.7174L26.4779 26.7594C26.8199 26.4518 27.1619 26.1582 27.5038 25.8786C27.8458 25.599 28.202 25.3194 28.5725 25.0397L28.1023 24.9978ZM31.0946 16.5673C30.5816 16.819 30.0829 17.0986 29.5984 17.4062C29.114 17.7138 28.6438 18.0353 28.1878 18.3709L28.5725 18.4547C28.9145 18.2031 29.2565 17.9794 29.5984 17.7837C29.9689 17.56 30.3536 17.3363 30.7526 17.1126L31.0946 16.5673ZM26.2214 10.4437C25.9934 10.6674 25.623 10.975 25.11 11.3664C24.6255 11.7299 24.1126 12.1214 23.5711 12.5408C23.0581 12.9323 22.5879 13.3238 22.1604 13.7152C21.733 14.0787 21.4765 14.3723 21.391 14.596C22.2459 13.9249 23.0724 13.2119 23.8703 12.457C24.6683 11.702 25.5232 11.0309 26.4352 10.4437H26.2214ZM29.9832 11.6181C29.5557 11.8138 29.1282 12.0935 28.7008 12.457L29.2137 12.7086C29.4132 12.5688 29.5842 12.429 29.7267 12.2892C29.8977 12.1494 30.0829 12.0096 30.2824 11.8698L29.9832 11.6181ZM31.3083 13.6313L30.1542 14.3863L30.2397 14.8477C30.4106 14.7079 30.5959 14.582 30.7954 14.4702C31.0234 14.3584 31.2371 14.2465 31.4366 14.1347L31.3083 13.6313ZM30.7954 12.4989C30.5959 12.6387 30.4106 12.7785 30.2397 12.9183C30.0972 13.0581 29.9262 13.184 29.7267 13.2958L29.8977 13.5894C30.0972 13.4776 30.2824 13.3657 30.4534 13.2539C30.6244 13.1141 30.7954 12.9742 30.9664 12.8344L30.7954 12.4989ZM31.4793 15.0155C31.2513 15.0714 31.0376 15.1832 30.8381 15.351C30.6386 15.5188 30.4391 15.6726 30.2397 15.8124L30.1542 16.1898C30.5246 15.9662 30.9379 15.7564 31.3938 15.5607L31.4793 15.0155ZM29.0855 10.989C28.772 11.2127 28.4443 11.4364 28.1023 11.66C27.7888 11.8558 27.4753 12.0655 27.1619 12.2892L27.7603 12.1634C28.0168 12.0235 28.259 11.8558 28.487 11.66C28.7435 11.4364 29 11.2406 29.2565 11.0728L29.0855 10.989Z" fill="black"/>
<path d="M60.2666 9.14349C60.8935 9.14349 61.4492 9.32524 61.9337 9.68874C62.4467 10.0522 62.7032 10.5695 62.7032 11.2406C62.7032 11.716 62.5322 12.1494 62.1902 12.5408C61.8767 12.9043 61.4777 13.142 60.9933 13.2539C60.8793 13.5894 60.6513 14.1626 60.3093 14.9735C59.9673 15.7844 59.5541 16.6932 59.0697 17.6998C58.6137 18.7064 58.115 19.7689 57.5735 20.8874C57.032 21.9779 56.5048 22.9845 55.9919 23.9073C55.5074 24.83 55.0657 25.6129 54.6667 26.2561C54.2677 26.8992 53.9827 27.2627 53.8117 27.3466C53.5268 27.4864 53.2275 27.5563 52.9141 27.5563C52.5151 27.5563 52.1589 27.4584 51.8454 27.2627C51.6744 27.1508 51.4036 26.7734 51.0332 26.1302C50.6912 25.4871 50.2922 24.7182 49.8363 23.8234C49.4088 22.9007 48.9528 21.894 48.4683 20.8035C47.9839 19.713 47.5137 18.6645 47.0577 17.6578C46.6302 16.6512 46.2455 15.7425 45.9035 14.9316C45.5615 14.1207 45.305 13.5195 45.1341 13.128C44.6211 13.0721 44.1224 12.9323 43.6379 12.7086C43.1819 12.457 42.9539 12.0096 42.9539 11.3664C42.9539 10.7513 43.1962 10.262 43.6806 9.89846C44.1651 9.53495 44.7493 9.26932 45.4333 9.10155C46.1172 8.93377 46.8012 8.84989 47.4852 8.84989C48.1976 8.84989 48.7676 8.90581 49.195 9.01766C49.3375 8.96174 49.4943 8.94776 49.6653 8.97572C49.8647 8.97572 50.0357 8.97572 50.1782 8.97572C50.5202 8.97572 50.8622 9.00368 51.2042 9.0596C51.5746 9.11553 51.9024 9.22737 52.1874 9.39514C52.5008 9.53495 52.7573 9.74467 52.9568 10.0243C53.1563 10.2759 53.256 10.5975 53.256 10.989C53.256 11.4084 53.0993 11.7859 52.7858 12.1214C52.5008 12.457 52.1731 12.7086 51.8026 12.8764C52.2871 13.8271 52.7431 14.7498 53.1705 15.6446C53.598 16.5394 54.111 17.4341 54.7094 18.3289C55.1369 17.4621 55.5216 16.5813 55.8636 15.6865C56.2056 14.7638 56.5333 13.855 56.8468 12.9603C56.3908 12.8764 55.9349 12.6946 55.4789 12.415C55.0514 12.1074 54.8377 11.688 54.8377 11.1567C54.8377 10.6814 54.9802 10.3179 55.2651 10.0662C55.5501 9.78661 55.8921 9.59088 56.2911 9.47903C56.7186 9.33922 57.1603 9.25533 57.6162 9.22737C58.0722 9.19941 58.4712 9.18543 58.8132 9.18543L60.2666 9.14349ZM55.6071 21.1391C54.9517 21.5305 54.2677 21.95 53.5553 22.3974C52.8713 22.8447 52.2301 23.3061 51.6316 23.7815L51.8026 24.1589C52.3441 23.7675 52.8856 23.404 53.427 23.0684C53.9685 22.7049 54.5384 22.3834 55.1369 22.1038L55.6071 21.1391ZM47.2714 13.9669C47.4139 13.7991 47.6704 13.5475 48.0409 13.2119C48.4113 12.8484 48.7818 12.4849 49.1523 12.1214C49.5513 11.7579 49.9075 11.4364 50.221 11.1567C50.5345 10.8492 50.7197 10.6534 50.7767 10.5695L50.3492 10.5276C49.7793 11.0309 49.2378 11.5482 48.7248 12.0795C48.2119 12.6107 47.6704 13.142 47.1004 13.6733L47.1859 13.7572L47.2714 13.9669ZM56.4621 19.3775C56.4051 19.4334 56.3053 19.5033 56.1628 19.5872C56.0204 19.6711 55.8636 19.7689 55.6926 19.8808C55.5501 19.9926 55.4076 20.0905 55.2651 20.1744C55.1227 20.2303 55.0372 20.2583 55.0087 20.2583L54.8377 20.3841H54.7522C54.1537 20.7756 53.5553 21.181 52.9568 21.6004C52.3583 21.9919 51.7884 22.4253 51.2469 22.9007L51.2897 23.0684C52.0876 22.4533 52.8998 21.894 53.7262 21.3907C54.5812 20.8874 55.4219 20.3561 56.2483 19.7969L56.4621 19.3775ZM52.5721 17.9095C52.0021 18.1332 51.5176 18.4547 51.1187 18.8742C50.7197 19.2936 50.2637 19.6291 49.7508 19.8808L49.9217 20.2163C50.0072 20.1884 50.107 20.1185 50.221 20.0066C50.62 19.699 51.0474 19.4194 51.5034 19.1678C51.9594 18.8882 52.3868 18.5806 52.7858 18.245L52.7431 18.1192L52.5721 17.9095ZM50.8194 14.5541C50.4205 14.9176 50.0072 15.2811 49.5798 15.6446C49.1808 16.0081 48.7818 16.3856 48.3828 16.777L48.5111 17.1126C48.8816 16.7491 49.2948 16.3856 49.7508 16.0221C50.2067 15.6586 50.6484 15.351 51.0759 15.0993L50.8194 14.5541ZM49.4088 19.2097C49.8932 18.9021 50.335 18.5666 50.7339 18.2031C51.1329 17.8116 51.6031 17.4901 52.1446 17.2384L51.9309 16.819C51.4464 17.1266 50.9904 17.4621 50.563 17.8256C50.1355 18.1611 49.708 18.5247 49.2805 18.9161L49.4088 19.2097ZM48.9386 18.1611C49.3945 17.8256 49.822 17.4901 50.221 17.1545C50.62 16.791 51.0759 16.4555 51.5889 16.1479L51.4179 15.8124C50.9334 16.1199 50.4775 16.4555 50.05 16.819C49.651 17.1545 49.2378 17.518 48.8103 17.9095L48.9386 18.1611ZM50.9049 22.1876C51.3894 21.7962 51.8739 21.4327 52.3583 21.0971C52.8428 20.7336 53.3415 20.3841 53.8545 20.0486C53.7975 20.0206 53.7547 19.9787 53.7262 19.9227C53.7262 19.8668 53.712 19.8109 53.6835 19.755C53.2275 20.1464 52.7431 20.5099 52.2301 20.8455C51.7171 21.1531 51.2327 21.5026 50.7767 21.894L50.9049 22.1876ZM53.2133 18.9161C52.7288 19.2796 52.2301 19.6152 51.7171 19.9227C51.2327 20.2303 50.7482 20.5798 50.2637 20.9713L50.392 21.181C50.8764 20.8175 51.3752 20.482 51.8881 20.1744C52.4011 19.8668 52.8713 19.5033 53.2988 19.0839L53.2133 18.9161ZM48.0836 16.0221C48.4541 15.6306 48.8531 15.2531 49.2805 14.8896C49.708 14.5261 50.107 14.1486 50.4775 13.7572L50.3492 13.4216C49.9502 13.8131 49.5513 14.2046 49.1523 14.596C48.7818 14.9875 48.4113 15.3929 48.0409 15.8124L48.0836 16.0221ZM47.7416 14.9735L50.0072 12.6667L49.9645 12.415C49.5655 12.7785 49.1665 13.156 48.7676 13.5475C48.3971 13.9389 48.0124 14.3304 47.6134 14.7219L47.7416 14.9735ZM49.1096 10.5695H48.7248C48.3259 10.9051 47.9696 11.2546 47.6561 11.6181C47.3427 11.9536 47.0007 12.3171 46.6302 12.7086L46.7584 12.9183L49.1096 10.5695ZM58.5567 12.6247C58.9842 12.401 59.3974 12.1913 59.7964 11.9956C60.2238 11.7999 60.6513 11.6041 61.0788 11.4084L61.1215 11.3664L61.036 11.0309C60.7225 11.2826 60.3236 11.5202 59.8391 11.7439C59.3546 11.9397 58.9272 12.1494 58.5567 12.3731V12.6247ZM54.5384 23.2781C54.1395 23.5298 53.7405 23.8094 53.3415 24.117C52.9426 24.3966 52.5436 24.6483 52.1446 24.872L52.1874 24.9978C52.5293 24.7741 52.8571 24.5644 53.1705 24.3687C53.5125 24.1729 53.883 24.0191 54.282 23.9073L54.5384 23.2781ZM46.0745 11.702L46.2882 11.9117C46.6587 11.4643 47.0719 11.0169 47.5279 10.5695H47.2714L46.0745 11.702ZM58.3002 11.6181C58.3287 11.6181 58.4142 11.5762 58.5567 11.4923C58.7277 11.4084 58.8987 11.3245 59.0697 11.2406C59.2691 11.1288 59.4544 11.0309 59.6254 10.947C59.7964 10.8352 59.9103 10.7653 59.9673 10.7373H59.7536L59.4116 10.7792C59.1836 10.9191 58.9699 11.0449 58.7704 11.1567C58.5994 11.2686 58.4142 11.3944 58.2147 11.5342L58.3002 11.6181ZM45.8608 10.6115C45.7183 10.7513 45.5615 10.9051 45.3905 11.0728C45.2196 11.2127 45.0628 11.3664 44.9203 11.5342H45.1341C45.305 11.3664 45.4618 11.1987 45.6043 11.0309C45.7753 10.8631 45.9605 10.7093 46.16 10.5695L45.8608 10.6115ZM53.769 24.9139C53.313 25.1656 52.9141 25.4312 52.5721 25.7108L52.6576 25.7947C52.9426 25.599 53.2418 25.4312 53.5553 25.2914L53.769 24.9139ZM51.5889 10.8631C51.5034 10.975 51.4179 11.0868 51.3324 11.1987C51.2469 11.2826 51.1329 11.3525 50.9904 11.4084C51.2754 11.3525 51.5176 11.2127 51.7171 10.989L51.5889 10.8631ZM58.8987 14.2605L57.7872 14.8896L57.7445 14.9735L58.7704 14.4702L58.8987 14.2605ZM56.8468 17.3223V17.3642C56.9038 17.3642 57.0178 17.3223 57.1888 17.2384C57.3598 17.1545 57.4738 17.0986 57.5308 17.0706L57.6162 16.8609L56.8895 17.2804L56.8468 17.3223ZM59.4116 13.0022C59.2406 13.1141 59.0697 13.2119 58.8987 13.2958C58.7277 13.3797 58.5709 13.4776 58.4284 13.5894L59.3689 13.128L59.4116 13.0022ZM56.3338 18.5386C56.4478 18.4827 56.5618 18.4268 56.6758 18.3709C56.7898 18.287 56.9038 18.2031 57.0178 18.1192L56.3766 18.4547L56.3338 18.5386ZM58.172 15.6446C57.9725 15.7844 57.7445 15.9242 57.488 16.064L58.172 15.7285V15.6446ZM57.1033 11.4084L57.1888 11.3245L57.0605 11.3664L57.1033 11.4084Z" fill="black"/>
<path d="M63.4967 25.585C63.4967 25.1096 63.6392 24.7182 63.9241 24.4106C64.2376 24.0751 64.5938 23.8374 64.9928 23.6976C64.8788 22.0758 64.8646 20.44 64.9501 18.7903C65.0641 17.1405 65.0356 15.5188 64.8646 13.9249C64.4656 13.7572 64.1236 13.5195 63.8386 13.2119C63.5537 12.8764 63.4112 12.4849 63.4112 12.0375C63.4112 11.6181 63.5394 11.2686 63.7959 10.989C64.0524 10.6814 64.3516 10.4437 64.6936 10.2759C65.0641 10.1082 65.463 9.98234 65.8905 9.89846C66.318 9.81457 66.7027 9.77263 67.0447 9.77263C67.4722 9.77263 68.0136 9.80059 68.6691 9.85651C69.3245 9.91244 69.9515 10.0243 70.55 10.1921C71.1484 10.3598 71.6614 10.6255 72.0889 10.989C72.5448 11.3245 72.7728 11.7859 72.7728 12.3731C72.7728 12.8205 72.6303 13.2259 72.3453 13.5894C72.0889 13.9249 71.7611 14.1906 71.3622 14.3863C71.3337 15.1692 71.3194 15.9522 71.3194 16.7351C71.3194 17.4901 71.3194 18.259 71.3194 19.0419L71.3622 23.6556C71.7611 23.7675 72.0889 23.9912 72.3453 24.3267C72.6303 24.6343 72.7728 24.9978 72.7728 25.4172C72.7728 25.8926 72.5876 26.298 72.2171 26.6336C71.8466 26.9411 71.3906 27.1788 70.8492 27.3466C70.3077 27.5423 69.752 27.6681 69.182 27.7241C68.6121 27.8079 68.1419 27.8499 67.7714 27.8499C67.3724 27.8499 66.9307 27.8219 66.4462 27.766C65.9618 27.738 65.4915 27.6542 65.0356 27.5143C64.6081 27.3745 64.2376 27.1508 63.9241 26.8433C63.6392 26.5357 63.4967 26.1163 63.4967 25.585ZM68.1134 9.14349C67.6289 9.14349 67.2014 9.03164 66.8309 8.80795C66.4605 8.55629 66.147 8.24871 65.8905 7.88521C65.634 7.52171 65.4345 7.13024 65.292 6.71082C65.1496 6.26343 65.0783 5.83002 65.0783 5.4106C65.0783 4.59971 65.3205 3.83076 65.805 3.10375C66.2895 2.37675 66.9449 1.9014 67.7714 1.6777L67.9424 1.71965C68.1704 1.66372 68.3413 1.63576 68.4553 1.63576C68.9683 1.63576 69.4243 1.74761 69.8232 1.9713C70.2507 2.16703 70.6069 2.43267 70.8919 2.76821C71.2054 3.10375 71.4334 3.49522 71.5759 3.94261C71.7469 4.38999 71.8324 4.85136 71.8324 5.32671C71.8324 5.80206 71.7326 6.27741 71.5331 6.75276C71.3336 7.20015 71.0629 7.60559 70.7209 7.9691C70.379 8.3326 69.98 8.6262 69.524 8.84989C69.0965 9.04562 68.6263 9.14349 68.1134 9.14349ZM69.7378 19.6711C69.2248 20.1464 68.6833 20.6078 68.1134 21.0552C67.5719 21.5026 67.0589 21.9779 66.5745 22.4812V22.7329C67.0589 22.3135 67.5719 21.908 68.1134 21.5166C68.6548 21.0971 69.1963 20.6917 69.7378 20.3002V19.6711ZM69.866 11.6181C69.296 12.0375 68.7261 12.4709 68.1561 12.9183C67.5861 13.3377 67.0447 13.7851 66.5317 14.2605V14.638C67.1872 14.1626 67.8141 13.6733 68.4126 13.17C69.0396 12.6667 69.6665 12.1773 70.2935 11.702L69.866 11.6181ZM66.5317 20.1325C67.1017 19.6571 67.6289 19.1818 68.1134 18.7064C68.6263 18.2311 69.1678 17.7837 69.7378 17.3642V17.0706C69.1678 17.4621 68.5978 17.8675 68.0279 18.287C67.4579 18.6784 66.9592 19.1538 66.5317 19.713V20.1325ZM66.6172 24.1589C66.6742 24.0751 66.8594 23.9073 67.1729 23.6556C67.5149 23.404 67.8711 23.1383 68.2416 22.8587C68.6121 22.5791 68.9398 22.3274 69.2248 22.1038C69.5383 21.8521 69.7235 21.7263 69.7805 21.7263V21.3068C69.2105 21.6424 68.6548 22.0338 68.1134 22.4812C67.5719 22.9007 67.0589 23.3341 66.5745 23.7815L66.6172 24.1589ZM66.5745 15.8543C67.3439 15.2951 68.0849 14.7079 68.7973 14.0927C69.5383 13.4776 70.322 12.9183 71.1484 12.415L71.0629 12.1634C70.6639 12.387 70.2792 12.6667 69.9087 13.0022C69.5383 13.3377 69.1678 13.6733 68.7973 14.0088C68.4268 14.3444 68.0564 14.6659 67.6859 14.9735C67.3154 15.2811 66.9449 15.5188 66.5745 15.6865V15.8543ZM65.805 26.1302C66.375 25.571 67.0019 25.0537 67.6859 24.5784C68.3698 24.0751 69.0538 23.5997 69.7378 23.1523V22.7748C69.4528 22.9985 69.125 23.2642 68.7546 23.5717C68.4126 23.8793 68.0564 24.1869 67.6859 24.4945C67.3154 24.8021 66.9449 25.0957 66.5745 25.3753C66.204 25.6269 65.862 25.8366 65.5485 26.0044L65.805 26.1302ZM69.7378 14.3444C69.1963 14.7638 68.6406 15.1972 68.0706 15.6446C67.5292 16.064 67.0304 16.5254 66.5745 17.0287V17.3223C67.1159 16.9588 67.6431 16.5254 68.1561 16.0221C68.6976 15.5188 69.2248 15.0574 69.7378 14.638V14.3444ZM70.0797 4.57174C69.5953 4.99117 69.125 5.4106 68.6691 5.83002C68.2416 6.24945 67.8141 6.69684 67.3867 7.17219L67.5149 7.29801C67.9139 6.87859 68.3556 6.5011 68.8401 6.16556C69.353 5.80206 69.809 5.4106 70.208 4.99117L70.0797 4.57174ZM66.7455 5.28477C67.1159 4.92127 67.4864 4.58573 67.8569 4.27815C68.2559 3.97057 68.6121 3.62105 68.9256 3.22958L68.7118 3.18764L68.2844 3.31347C68.0564 3.53716 67.8141 3.77483 67.5576 4.02649C67.3297 4.25018 67.1017 4.47388 66.8737 4.69757C66.8737 4.72553 66.8594 4.78146 66.8309 4.86534C66.8025 4.92127 66.7739 4.92127 66.7455 4.86534V5.28477ZM68.3698 11.4503C68.0564 11.702 67.7286 11.9676 67.3867 12.2472C67.0447 12.4989 66.7027 12.7366 66.3607 12.9603L66.4462 13.2539C66.8167 12.9463 67.1729 12.6527 67.5149 12.3731C67.8854 12.0935 68.2701 11.7999 68.6691 11.4923L68.3698 11.4503ZM69.5668 3.69095C69.1108 4.11038 68.6548 4.5298 68.1989 4.94923C67.7429 5.36865 67.3012 5.81604 66.8737 6.29139L66.9592 6.5011C67.3867 6.02575 67.8284 5.57837 68.2844 5.15894C68.7403 4.71155 69.2105 4.29213 69.695 3.90066L69.5668 3.69095ZM69.7378 18.3709C69.1678 18.7903 68.6121 19.2517 68.0706 19.755C67.5576 20.2583 67.0589 20.7476 66.5745 21.223V21.3907C67.0589 20.8874 67.5719 20.426 68.1134 20.0066C68.6548 19.5592 69.1678 19.0979 69.6523 18.6225L69.7378 18.5386V18.3709ZM69.695 15.6865C69.2105 16.078 68.7403 16.4834 68.2844 16.9029C67.8284 17.2943 67.3724 17.7138 66.9164 18.1611C67.3439 17.7697 67.7856 17.4062 68.2416 17.0706C68.7261 16.7351 69.2105 16.3996 69.695 16.064V15.6865ZM67.1302 26.298C67.8996 25.4871 68.7546 24.8021 69.695 24.2428L69.7378 24.1589V24.0751C69.2248 24.4106 68.7261 24.7601 68.2416 25.1236C67.7571 25.4871 67.2869 25.8786 66.8309 26.298H67.1302ZM68.8401 26.1722C69.0681 25.9765 69.296 25.8087 69.524 25.6689C69.752 25.5291 69.98 25.3613 70.208 25.1656L69.9087 25.0397C69.6523 25.2075 69.3815 25.4032 69.0965 25.6269C68.8401 25.8227 68.5978 26.0324 68.3698 26.2561L68.8401 26.1722ZM66.66 11.3245C66.4605 11.5202 66.2467 11.702 66.0187 11.8698C65.7908 12.0375 65.5913 12.2333 65.4203 12.457L65.5485 12.4989H65.7195C65.976 12.3591 66.2182 12.1773 66.4462 11.9536C66.7027 11.702 66.9592 11.4923 67.2157 11.3245H66.66ZM68.8401 7.3819C69.0111 7.1582 69.182 6.96247 69.353 6.7947C69.524 6.59897 69.7235 6.4312 69.9515 6.29139L70.037 6.12362L69.9942 6.16556C69.7093 6.38926 69.4243 6.61295 69.1393 6.83664C68.8828 7.06034 68.6406 7.29801 68.4126 7.54967H68.4553L68.8401 7.3819ZM66.5317 18.5386L66.8737 18.2031L66.5317 18.4967V18.5386ZM71.1057 25.543L70.9347 25.6689L71.1057 25.585V25.543Z" fill="black"/>
<path d="M73.5573 25.585C73.5573 25.1096 73.6998 24.7182 73.9848 24.4106C74.2982 24.0751 74.6545 23.8374 75.0534 23.6976C74.9395 22.0758 74.9252 20.44 75.0107 18.7903C75.1247 17.1405 75.0962 15.5188 74.9252 13.9249C74.5262 13.7572 74.1842 13.5195 73.8993 13.2119C73.6143 12.8764 73.4718 12.4849 73.4718 12.0375C73.4718 11.6181 73.6 11.2686 73.8565 10.989C74.113 10.6814 74.4122 10.4437 74.7542 10.2759C75.1247 10.1082 75.5237 9.98234 75.9511 9.89846C76.3786 9.81457 76.7633 9.77263 77.1053 9.77263C77.5328 9.77263 78.0742 9.80059 78.7297 9.85651C79.3852 9.91244 80.0121 10.0243 80.6106 10.1921C81.209 10.3598 81.722 10.6255 82.1495 10.989C82.6055 11.3245 82.8334 11.7859 82.8334 12.3731C82.8334 12.8205 82.6909 13.2259 82.406 13.5894C82.1495 13.9249 81.8218 14.1906 81.4228 14.3863C81.3943 15.1692 81.38 15.9522 81.38 16.7351C81.38 17.4901 81.38 18.259 81.38 19.0419L81.4228 23.6556C81.8218 23.7675 82.1495 23.9912 82.406 24.3267C82.6909 24.6343 82.8334 24.9978 82.8334 25.4172C82.8334 25.8926 82.6482 26.298 82.2777 26.6336C81.9072 26.9411 81.4513 27.1788 80.9098 27.3466C80.3683 27.5423 79.8126 27.6681 79.2427 27.7241C78.6727 27.8079 78.2025 27.8499 77.832 27.8499C77.433 27.8499 76.9913 27.8219 76.5068 27.766C76.0224 27.738 75.5522 27.6542 75.0962 27.5143C74.6687 27.3745 74.2982 27.1508 73.9848 26.8433C73.6998 26.5357 73.5573 26.1163 73.5573 25.585ZM78.174 9.14349C77.6895 9.14349 77.262 9.03164 76.8916 8.80795C76.5211 8.55629 76.2076 8.24871 75.9511 7.88521C75.6946 7.52171 75.4952 7.13024 75.3527 6.71082C75.2102 6.26343 75.1389 5.83002 75.1389 5.4106C75.1389 4.59971 75.3812 3.83076 75.8656 3.10375C76.3501 2.37675 77.0056 1.9014 77.832 1.6777L78.003 1.71965C78.231 1.66372 78.402 1.63576 78.516 1.63576C79.0289 1.63576 79.4849 1.74761 79.8839 1.9713C80.3113 2.16703 80.6676 2.43267 80.9526 2.76821C81.266 3.10375 81.494 3.49522 81.6365 3.94261C81.8075 4.38999 81.893 4.85136 81.893 5.32671C81.893 5.80206 81.7933 6.27741 81.5938 6.75276C81.3943 7.20015 81.1236 7.60559 80.7816 7.9691C80.4396 8.3326 80.0406 8.6262 79.5846 8.84989C79.1572 9.04562 78.687 9.14349 78.174 9.14349ZM79.7984 19.6711C79.2854 20.1464 78.744 20.6078 78.174 21.0552C77.6325 21.5026 77.1196 21.9779 76.6351 22.4812V22.7329C77.1196 22.3135 77.6325 21.908 78.174 21.5166C78.7155 21.0971 79.2569 20.6917 79.7984 20.3002V19.6711ZM79.9266 11.6181C79.3567 12.0375 78.7867 12.4709 78.2167 12.9183C77.6468 13.3377 77.1053 13.7851 76.5923 14.2605V14.638C77.2478 14.1626 77.8748 13.6733 78.4732 13.17C79.1002 12.6667 79.7271 12.1773 80.3541 11.702L79.9266 11.6181ZM76.5923 20.1325C77.1623 19.6571 77.6895 19.1818 78.174 18.7064C78.687 18.2311 79.2284 17.7837 79.7984 17.3642V17.0706C79.2284 17.4621 78.6585 17.8675 78.0885 18.287C77.5185 18.6784 77.0198 19.1538 76.5923 19.713V20.1325ZM76.6778 24.1589C76.7348 24.0751 76.9201 23.9073 77.2335 23.6556C77.5755 23.404 77.9317 23.1383 78.3022 22.8587C78.6727 22.5791 79.0004 22.3274 79.2854 22.1038C79.5989 21.8521 79.7841 21.7263 79.8411 21.7263V21.3068C79.2712 21.6424 78.7155 22.0338 78.174 22.4812C77.6325 22.9007 77.1196 23.3341 76.6351 23.7815L76.6778 24.1589ZM76.6351 15.8543C77.4045 15.2951 78.1455 14.7079 78.8579 14.0927C79.5989 13.4776 80.3826 12.9183 81.209 12.415L81.1236 12.1634C80.7246 12.387 80.3399 12.6667 79.9694 13.0022C79.5989 13.3377 79.2284 13.6733 78.8579 14.0088C78.4875 14.3444 78.117 14.6659 77.7465 14.9735C77.376 15.2811 77.0056 15.5188 76.6351 15.6865V15.8543ZM75.8656 26.1302C76.4356 25.571 77.0626 25.0537 77.7465 24.5784C78.4305 24.0751 79.1144 23.5997 79.7984 23.1523V22.7748C79.5134 22.9985 79.1857 23.2642 78.8152 23.5717C78.4732 23.8793 78.117 24.1869 77.7465 24.4945C77.376 24.8021 77.0056 25.0957 76.6351 25.3753C76.2646 25.6269 75.9226 25.8366 75.6092 26.0044L75.8656 26.1302ZM79.7984 14.3444C79.2569 14.7638 78.7012 15.1972 78.1312 15.6446C77.5898 16.064 77.0911 16.5254 76.6351 17.0287V17.3223C77.1766 16.9588 77.7038 16.5254 78.2167 16.0221C78.7582 15.5188 79.2854 15.0574 79.7984 14.638V14.3444ZM80.1404 4.57174C79.6559 4.99117 79.1857 5.4106 78.7297 5.83002C78.3022 6.24945 77.8748 6.69684 77.4473 7.17219L77.5755 7.29801C77.9745 6.87859 78.4162 6.5011 78.9007 6.16556C79.4137 5.80206 79.8696 5.4106 80.2686 4.99117L80.1404 4.57174ZM76.8061 5.28477C77.1766 4.92127 77.547 4.58573 77.9175 4.27815C78.3165 3.97057 78.6727 3.62105 78.9862 3.22958L78.7724 3.18764L78.345 3.31347C78.117 3.53716 77.8748 3.77483 77.6183 4.02649C77.3903 4.25018 77.1623 4.47388 76.9343 4.69757C76.9343 4.72553 76.9201 4.78146 76.8916 4.86534C76.8631 4.92127 76.8346 4.92127 76.8061 4.86534V5.28477ZM78.4305 11.4503C78.117 11.702 77.7893 11.9676 77.4473 12.2472C77.1053 12.4989 76.7633 12.7366 76.4214 12.9603L76.5068 13.2539C76.8773 12.9463 77.2335 12.6527 77.5755 12.3731C77.946 12.0935 78.3307 11.7999 78.7297 11.4923L78.4305 11.4503ZM79.6274 3.69095C79.1714 4.11038 78.7155 4.5298 78.2595 4.94923C77.8035 5.36865 77.3618 5.81604 76.9343 6.29139L77.0198 6.5011C77.4473 6.02575 77.889 5.57837 78.345 5.15894C78.8009 4.71155 79.2712 4.29213 79.7556 3.90066L79.6274 3.69095ZM79.7984 18.3709C79.2284 18.7903 78.6727 19.2517 78.1312 19.755C77.6183 20.2583 77.1196 20.7476 76.6351 21.223V21.3907C77.1196 20.8874 77.6325 20.426 78.174 20.0066C78.7155 19.5592 79.2284 19.0979 79.7129 18.6225L79.7984 18.5386V18.3709ZM79.7556 15.6865C79.2712 16.078 78.8009 16.4834 78.345 16.9029C77.889 17.2943 77.433 17.7138 76.9771 18.1611C77.4045 17.7697 77.8463 17.4062 78.3022 17.0706C78.7867 16.7351 79.2712 16.3996 79.7556 16.064V15.6865ZM77.1908 26.298C77.9603 25.4871 78.8152 24.8021 79.7556 24.2428L79.7984 24.1589V24.0751C79.2854 24.4106 78.7867 24.7601 78.3022 25.1236C77.8178 25.4871 77.3475 25.8786 76.8916 26.298H77.1908ZM78.9007 26.1722C79.1287 25.9765 79.3567 25.8087 79.5846 25.6689C79.8126 25.5291 80.0406 25.3613 80.2686 25.1656L79.9694 25.0397C79.7129 25.2075 79.4422 25.4032 79.1572 25.6269C78.9007 25.8227 78.6585 26.0324 78.4305 26.2561L78.9007 26.1722ZM76.7206 11.3245C76.5211 11.5202 76.3074 11.702 76.0794 11.8698C75.8514 12.0375 75.6519 12.2333 75.4809 12.457L75.6092 12.4989H75.7802C76.0366 12.3591 76.2789 12.1773 76.5068 11.9536C76.7633 11.702 77.0198 11.4923 77.2763 11.3245H76.7206ZM78.9007 7.3819C79.0717 7.1582 79.2427 6.96247 79.4137 6.7947C79.5846 6.59897 79.7841 6.4312 80.0121 6.29139L80.0976 6.12362L80.0549 6.16556C79.7699 6.38926 79.4849 6.61295 79.1999 6.83664C78.9434 7.06034 78.7012 7.29801 78.4732 7.54967H78.516L78.9007 7.3819ZM76.5923 18.5386L76.9343 18.2031L76.5923 18.4967V18.5386ZM81.1663 25.543L80.9953 25.6689L81.1663 25.585V25.543Z" fill="black"/>
<path d="M93.9704 8.766C94.3124 8.766 94.5831 8.84989 94.7826 9.01766C95.0106 9.15747 95.1816 9.3532 95.2956 9.60486C95.4381 9.82855 95.5236 10.0802 95.5521 10.3598C95.6091 10.6394 95.6376 10.9191 95.6376 11.1987C95.6376 11.7579 95.5236 12.2053 95.2956 12.5408C95.0961 12.8764 94.8111 13.142 94.4407 13.3377C94.0987 13.5335 93.6997 13.6733 93.2437 13.7572C92.8163 13.8411 92.3745 13.9249 91.9186 14.0088C91.9471 14.5681 91.9328 15.1133 91.8758 15.6446C91.8473 16.1479 91.8331 16.6792 91.8331 17.2384C91.8331 18.2171 91.8616 19.2097 91.9186 20.2163C91.9756 21.195 92.0041 22.1737 92.0041 23.1523C92.2035 22.9845 92.4173 22.8308 92.6453 22.6909C92.8733 22.5511 93.1155 22.4812 93.372 22.4812C93.8279 22.4812 94.1842 22.677 94.4407 23.0684C94.7256 23.4599 94.8681 23.8514 94.8681 24.2428C94.8681 24.7182 94.7399 25.1935 94.4834 25.6689C94.2554 26.1442 93.9419 26.5776 93.543 26.9691C93.144 27.3326 92.7023 27.6262 92.2178 27.8499C91.7333 28.1015 91.2489 28.2274 90.7644 28.2274C89.311 28.2274 88.2138 27.8219 87.4728 27.011C86.7319 26.2001 86.1904 25.2075 85.8485 24.0331C85.535 22.8587 85.364 21.6284 85.3355 20.3422C85.307 19.0559 85.2927 17.9375 85.2927 16.9868C85.2927 16.4555 85.2927 15.9242 85.2927 15.3929C85.2927 14.8337 85.3212 14.3024 85.3782 13.7991C84.8083 13.6873 84.3808 13.4356 84.0958 13.0441C83.8108 12.6247 83.6683 12.1354 83.6683 11.5762C83.6683 11.0728 83.8393 10.6255 84.1813 10.234C84.4948 9.84253 84.908 9.57689 85.421 9.43709L85.4637 4.36203C85.0933 4.27815 84.7513 4.11038 84.4378 3.85872C84.0958 3.60706 83.9248 3.2855 83.9248 2.89404C83.9248 2.39073 84.1956 1.95732 84.737 1.59382C85.307 1.23032 85.9624 0.936719 86.7034 0.713025C87.4443 0.461369 88.1853 0.279618 88.9263 0.167771C89.6672 0.0559236 90.2229 0 90.5934 0C91.1634 0 91.6478 0.167771 92.0468 0.503312C92.4743 0.838854 92.688 1.30022 92.688 1.88742C92.688 2.5585 92.46 3.18764 92.0041 3.77484C92.0325 3.91464 92.0183 4.05445 91.9613 4.19426C91.9328 4.30611 91.9186 4.43194 91.9186 4.57174L91.9613 9.68874H92.3033C92.5598 9.46505 92.802 9.25534 93.03 9.0596C93.2865 8.86387 93.6 8.766 93.9704 8.766ZM87.1736 23.1104C87.6866 22.7748 88.2423 22.3694 88.8408 21.894C89.4392 21.4187 89.9522 20.9433 90.3797 20.468V19.6711C89.8097 20.1464 89.2397 20.6078 88.6698 21.0552C88.1283 21.4746 87.6011 21.9639 87.0881 22.5232L87.1309 22.6071L87.1736 23.1104ZM90.7644 1.63576C90.1089 2.16704 89.4677 2.71229 88.8408 3.27152C88.2423 3.8028 87.6438 4.36203 87.0454 4.94923V5.53642C87.2449 5.28477 87.5156 5.00515 87.8576 4.69757C88.1995 4.36203 88.5558 4.02649 88.9263 3.69095C89.3252 3.35541 89.71 3.04783 90.0804 2.76821C90.4794 2.46063 90.8214 2.23694 91.1064 2.09713V1.76159L90.8071 1.63576H90.7644ZM90.3797 7.84327C90.1517 7.98308 89.7669 8.26269 89.2255 8.68212C88.684 9.10155 88.1283 9.56291 87.5583 10.0662C87.0169 10.5416 86.5182 10.975 86.0622 11.3664C85.6347 11.7579 85.421 11.9956 85.421 12.0795C85.421 12.1634 85.4637 12.2053 85.5492 12.2053C86.3757 11.5622 87.1736 10.8911 87.9431 10.1921C88.741 9.49301 89.5532 8.80795 90.3797 8.13687V7.84327ZM90.4652 3.52318C89.9807 4.08241 89.4107 4.59971 88.7553 5.07506C88.1283 5.55041 87.5441 6.05372 87.0026 6.58499V7.0883C87.4871 6.61295 88.0143 6.1376 88.5843 5.66225C89.1542 5.1869 89.7384 4.7535 90.3369 4.36203L90.4652 3.52318ZM91.1491 11.4923L91.0209 11.4503C90.3084 12.0096 89.596 12.6107 88.8835 13.2539C88.1995 13.869 87.5298 14.4982 86.8744 15.1413V15.5188C87.5868 14.8197 88.3135 14.1486 89.0545 13.5055C89.8239 12.8624 90.5791 12.1773 91.3201 11.4503L91.1491 11.4923ZM90.2942 16.4834C89.7527 17.0427 89.1827 17.56 88.5843 18.0353C88.0143 18.5107 87.4586 19.028 86.9171 19.5872C86.9171 19.6711 86.9171 19.755 86.9171 19.8389C86.9456 19.9227 86.9599 20.0066 86.9599 20.0905C87.5013 19.5592 88.0428 19.0419 88.5843 18.5386C89.1542 18.0074 89.7242 17.504 90.2942 17.0287V16.4834ZM86.8744 18.5386C87.1309 18.3988 87.4016 18.1891 87.6866 17.9095C88.0001 17.6299 88.2993 17.3363 88.5843 17.0287C88.8978 16.7211 89.197 16.4135 89.482 16.106C89.7954 15.7984 90.0947 15.5467 90.3797 15.351V14.8477C89.8097 15.379 89.197 15.9242 88.5415 16.4834C87.8861 17.0147 87.3304 17.6019 86.8744 18.245V18.5386ZM87.0026 21.4746C87.4871 20.9993 88.0571 20.5379 88.7125 20.0905C89.368 19.6431 89.8952 19.1678 90.2942 18.6645V18.0773C89.7242 18.5806 89.1542 19.0839 88.5843 19.5872C88.0143 20.0905 87.4871 20.6218 87.0026 21.181V21.4746ZM90.3797 9.14349C89.9522 9.6468 89.368 10.1781 88.627 10.7373C87.8861 11.2686 87.2734 11.7719 86.7889 12.2472L86.9171 12.457C87.4871 11.9816 88.0428 11.4923 88.5843 10.989C89.1542 10.4857 89.7527 10.0383 90.3797 9.6468V9.14349ZM87.5156 24.3687C87.9146 23.9213 88.3848 23.5158 88.9263 23.1523C89.4677 22.7609 89.9664 22.3694 90.4224 21.9779V21.5166C89.9379 21.936 89.425 22.3414 88.8835 22.7329C88.3705 23.1244 87.8718 23.5438 87.3874 23.9912L87.5156 24.3687ZM86.9171 13.9669C87.4871 13.4636 88.0856 12.9742 88.7125 12.4989C89.3395 11.9956 89.9094 11.4643 90.4224 10.9051C90.3939 10.8492 90.3797 10.7513 90.3797 10.6115C89.7812 11.0589 89.197 11.5202 88.627 11.9956C88.0571 12.4709 87.4871 12.9463 86.9171 13.4216V13.9669ZM90.2942 13.5475C89.7242 14.0787 89.14 14.582 88.5415 15.0574C87.9716 15.5327 87.4016 16.05 86.8316 16.6093V17.0287C87.3446 16.4695 87.9431 15.9382 88.627 15.4349C89.3395 14.9316 89.8952 14.3723 90.2942 13.7572V13.5475ZM86.9599 9.56291L87.0881 9.43709C87.5726 8.96174 88.0856 8.51435 88.627 8.09492C89.197 7.64753 89.7812 7.25607 90.3797 6.92053V6.5011C89.7527 6.92053 89.1542 7.3819 88.5843 7.88521C88.0428 8.38852 87.5013 8.90581 86.9599 9.43709V9.56291ZM88.1141 25.2075C88.513 24.8999 88.8978 24.5923 89.2682 24.2848C89.6387 23.9492 90.0234 23.6137 90.4224 23.2781V22.9845C90.3369 23.0684 90.1659 23.2222 89.9094 23.4459C89.653 23.6416 89.3822 23.8653 89.0972 24.117C88.8123 24.3407 88.5558 24.5504 88.3278 24.7461C88.0998 24.9419 87.9716 25.0397 87.9431 25.0397L88.1141 25.2075ZM89.2255 1.84548C89.14 1.9014 89.0402 1.94334 88.9263 1.9713C88.8123 1.99926 88.6983 2.02723 88.5843 2.05519L87.0026 3.56512C87.0026 3.62105 87.0026 3.66299 87.0026 3.69095C87.0311 3.71891 87.0454 3.76085 87.0454 3.81678C87.3874 3.45327 87.7436 3.11773 88.1141 2.81016C88.4845 2.47461 88.855 2.15305 89.2255 1.84548ZM87.0026 8.34658C87.5156 7.84327 88.0428 7.35394 88.5843 6.87859C89.1257 6.37528 89.7242 5.94187 90.3797 5.57837V5.32671C89.7812 5.7741 89.1827 6.23547 88.5843 6.71082C88.0143 7.18617 87.4871 7.70346 87.0026 8.26269V8.34658ZM93.9277 10.3598C93.7852 10.4996 93.6284 10.6394 93.4575 10.7792C93.315 10.9191 93.144 11.0309 92.9445 11.1148C92.7165 11.3664 92.46 11.6041 92.175 11.8278C91.8901 12.0235 91.6336 12.2472 91.4056 12.4989L91.8331 12.3731C92.2035 12.0375 92.5455 11.702 92.859 11.3664C93.201 11.0309 93.5714 10.7093 93.9704 10.4018L93.9277 10.3598ZM90.7644 26.6336C91.0494 26.4099 91.3058 26.1442 91.5338 25.8366C91.7618 25.5291 92.0183 25.2634 92.3033 25.0397H92.2605C91.9471 25.2634 91.6336 25.5011 91.3201 25.7528C91.0351 26.0044 90.7644 26.284 90.5079 26.5916L90.7644 26.6336ZM89.653 26.3819C89.8809 26.1023 90.1089 25.8506 90.3369 25.6269C90.5934 25.3753 90.8499 25.1376 91.1064 24.9139L91.0636 24.872C90.7786 25.0957 90.5079 25.3333 90.2514 25.585C89.9949 25.8087 89.7527 26.0464 89.5247 26.298L89.653 26.3819ZM88.8408 25.8786C89.1257 25.571 89.4107 25.2914 89.6957 25.0397C89.9807 24.7601 90.2799 24.4945 90.5934 24.2428H90.5506C90.2372 24.4665 89.9237 24.7042 89.6102 24.9558C89.3252 25.2075 89.026 25.4731 88.7125 25.7528L88.8408 25.8786ZM93.2865 12.1214C93.486 12.0655 93.6569 11.9956 93.7994 11.9117C93.9419 11.7999 94.0274 11.6321 94.0559 11.4084L93.2865 12.1214ZM86.8744 2.39073L86.4042 2.89404L86.5324 2.93598L87.1309 2.34879L86.8744 2.39073ZM93.2865 24.4106L93.3292 24.2428C93.2152 24.2708 93.1155 24.3267 93.03 24.4106C92.9445 24.4945 92.8732 24.5644 92.8162 24.6203L93.2865 24.4106ZM92.5598 24.7881V24.83L92.8162 24.6203L92.5598 24.7881Z" fill="black"/>
<path d="M103.987 28.0596C102.676 28.0596 101.479 27.8219 100.397 27.3466C99.3136 26.8712 98.3732 26.2141 97.5752 25.3753C96.8058 24.5364 96.2073 23.5717 95.7798 22.4812C95.3524 21.3628 95.1386 20.1744 95.1386 18.9161C95.1386 17.6299 95.3239 16.3716 95.6943 15.1413C96.0933 13.911 96.6633 12.8065 97.4042 11.8278C98.1452 10.8492 99.0571 10.0662 100.14 9.47903C101.251 8.86387 102.534 8.55629 103.987 8.55629C105.355 8.55629 106.538 8.82193 107.535 9.3532C108.561 9.85651 109.416 10.5416 110.1 11.4084C110.784 12.2472 111.283 13.2399 111.596 14.3863C111.938 15.5048 112.109 16.6792 112.109 17.9095C112.109 19.2237 111.967 20.496 111.682 21.7263C111.397 22.9286 110.927 24.0051 110.271 24.9558C109.644 25.8786 108.818 26.6336 107.792 27.2208C106.766 27.78 105.498 28.0596 103.987 28.0596ZM104.5 12.2892C104.044 12.3731 103.688 12.7226 103.432 13.3377C103.204 13.9529 103.033 14.6519 102.919 15.4349C102.805 16.2178 102.733 16.9868 102.705 17.7417C102.705 18.4967 102.705 19.0559 102.705 19.4194C102.705 20.2862 102.748 21.167 102.833 22.0618C102.947 22.9286 103.289 23.7255 103.859 24.4525L104.116 24.2848C104.429 23.5298 104.643 22.7609 104.757 21.9779C104.899 21.195 104.985 20.3981 105.013 19.5872C105.07 18.7763 105.084 17.9654 105.056 17.1545C105.027 16.3436 105.013 15.5327 105.013 14.7219C105.013 14.4143 104.985 13.9949 104.928 13.4636C104.871 12.9043 104.728 12.5129 104.5 12.2892ZM103.816 10.1501C103.389 10.4857 102.847 10.933 102.192 11.4923C101.536 12.0235 100.881 12.5968 100.226 13.2119C99.5701 13.7991 98.9431 14.3863 98.3447 14.9735C97.7462 15.5327 97.3045 16.0221 97.0195 16.4415L96.9768 16.7351C97.8887 15.9522 98.7721 15.1553 99.6271 14.3444C100.482 13.5335 101.38 12.7645 102.32 12.0375C102.548 11.702 102.776 11.4364 103.004 11.2406C103.261 11.0449 103.574 10.8771 103.945 10.7373C104.144 10.5416 104.372 10.3598 104.629 10.1921L103.816 10.1501ZM97.105 21.3907C97.219 21.2509 97.4897 20.9993 97.9172 20.6358C98.3732 20.2443 98.8291 19.8389 99.2851 19.4194C99.7696 19 100.197 18.6365 100.568 18.3289C100.938 17.9934 101.137 17.7976 101.166 17.7417V17.1965C100.425 17.7557 99.6841 18.3429 98.9431 18.9581C98.2022 19.5453 97.5467 20.2024 96.9768 20.9294L97.105 21.3907ZM110.271 15.4768C109.673 15.9522 109.046 16.4135 108.39 16.8609C107.763 17.2804 107.165 17.7697 106.595 18.3289V18.7483C107.165 18.301 107.778 17.8536 108.433 17.4062C109.088 16.9588 109.744 16.5813 110.399 16.2737C110.371 16.1339 110.357 15.9382 110.357 15.6865L110.271 15.4768ZM109.929 21.0132C110.072 20.7896 110.143 20.5519 110.143 20.3002C109.487 20.6078 108.846 20.9573 108.219 21.3488C107.621 21.7123 107.022 22.1038 106.424 22.5232L106.338 23.0265C106.908 22.635 107.493 22.2995 108.091 22.0199C108.718 21.7123 109.331 21.3767 109.929 21.0132ZM96.8058 19.8808C97.4327 19.1538 98.1309 18.4967 98.9004 17.9095C99.6983 17.2943 100.468 16.7071 101.209 16.1479L101.294 15.4768C100.496 16.1199 99.7268 16.777 98.9859 17.4481C98.2734 18.1192 97.5467 18.8043 96.8058 19.5033V19.8808ZM105.697 24.83C106.21 24.4386 106.823 24.0611 107.535 23.6976C108.248 23.3341 108.903 23.0545 109.502 22.8587C109.559 22.7189 109.587 22.5791 109.587 22.4393C109.616 22.2995 109.658 22.1597 109.715 22.0199C109.43 22.1597 109.088 22.3414 108.689 22.5651C108.291 22.7609 107.892 22.9845 107.493 23.2362C107.094 23.4599 106.723 23.7116 106.381 23.9912C106.068 24.2708 105.84 24.5504 105.697 24.83ZM109.886 14.0927L106.595 16.777V17.2384C107.165 16.7631 107.735 16.3157 108.305 15.8962C108.903 15.4768 109.502 15.0574 110.1 14.638L109.886 14.0927ZM110.485 17.1545C109.829 17.546 109.16 17.9654 108.476 18.4128C107.792 18.8322 107.165 19.2936 106.595 19.7969V20.1325C107.279 19.7689 107.934 19.3635 108.561 18.9161C109.217 18.4408 109.858 17.9934 110.485 17.574V17.1545ZM96.8058 18.4128C97.4612 17.6578 98.2022 16.9169 99.0286 16.1898C99.8551 15.4628 100.682 14.8197 101.508 14.2605C101.536 14.1486 101.551 14.0368 101.551 13.9249C101.551 13.8131 101.579 13.7013 101.636 13.5894C100.867 14.3164 100.026 15.0434 99.1141 15.7704C98.2307 16.4974 97.4612 17.2664 96.8058 18.0773V18.4128ZM97.5325 22.5232C98.1024 22.0478 98.7009 21.5585 99.3279 21.0552C99.9548 20.5239 100.525 19.9787 101.038 19.4194V18.9161C100.468 19.4194 99.8408 19.9507 99.1569 20.5099C98.5014 21.0692 97.9172 21.6284 97.4042 22.1876L97.5325 22.5232ZM110.357 19.2517C110.357 19.1957 110.357 19.0839 110.357 18.9161C110.385 18.7483 110.428 18.6365 110.485 18.5806C109.829 18.972 109.145 19.3915 108.433 19.8389C107.749 20.2583 107.122 20.7057 106.552 21.181V21.4327C107.122 21.0692 107.763 20.7196 108.476 20.3841C109.217 20.0206 109.844 19.6431 110.357 19.2517ZM98.1737 23.5717C98.6012 23.0964 99.0714 22.649 99.5843 22.2296C100.126 21.8102 100.653 21.4047 101.166 21.0132L101.08 20.5099C100.568 20.9853 100.04 21.4327 99.4988 21.8521C98.9574 22.2715 98.4444 22.7329 97.9599 23.2362L98.1737 23.5717ZM108.561 24.6203C108.647 24.5085 108.718 24.3966 108.775 24.2848C108.86 24.1729 108.946 24.0471 109.031 23.9073C108.291 24.2708 107.592 24.6483 106.937 25.0397C106.281 25.4312 105.626 25.8646 104.97 26.34L105.441 26.2561C105.925 25.9485 106.424 25.6549 106.937 25.3753C107.478 25.0957 108.02 24.844 108.561 24.6203ZM102.149 10.3598C101.893 10.6674 101.536 11.0029 101.08 11.3664C100.625 11.702 100.154 12.0655 99.6698 12.457C99.1854 12.8205 98.7436 13.2119 98.3447 13.6313C97.9457 14.0228 97.675 14.4003 97.5325 14.7638V14.8477C98.3874 14.1766 99.1854 13.4356 99.9263 12.6247C100.696 11.8138 101.508 11.0449 102.363 10.3179L102.149 10.3598ZM109.373 13.0441C108.86 13.3797 108.376 13.7432 107.92 14.1347C107.464 14.5261 107.037 14.9455 106.638 15.3929V15.6865C107.094 15.2951 107.592 14.9176 108.134 14.5541C108.675 14.1626 109.145 13.7572 109.544 13.3377L109.373 13.0441ZM98.9431 24.4106C99.2851 24.0191 99.6556 23.6556 100.055 23.3201C100.482 22.9566 100.895 22.621 101.294 22.3135L101.251 21.9779C100.796 22.3135 100.354 22.677 99.9263 23.0684C99.4988 23.4319 99.0856 23.8094 98.6866 24.2009L98.9431 24.4106ZM108.732 12.2472C108.362 12.4989 107.991 12.7506 107.621 13.0022C107.279 13.2539 106.937 13.5195 106.595 13.7991C106.623 13.855 106.638 13.9809 106.638 14.1766C107.322 13.5614 108.063 12.9603 108.86 12.3731L108.732 12.2472ZM107.877 11.5342C107.649 11.7299 107.407 11.9117 107.151 12.0795C106.894 12.2193 106.652 12.3731 106.424 12.5408L106.509 12.8764C106.766 12.6527 107.022 12.457 107.279 12.2892C107.564 12.1214 107.835 11.9257 108.091 11.702L107.877 11.5342ZM100.61 25.6269C100.81 25.4032 101.009 25.2075 101.209 25.0397C101.437 24.844 101.665 24.6483 101.893 24.4525L101.764 24.2009C101.707 24.2568 101.608 24.3547 101.465 24.4945C101.323 24.6343 101.18 24.7881 101.038 24.9558C100.895 25.0957 100.753 25.2355 100.61 25.3753C100.496 25.4871 100.439 25.543 100.439 25.543L100.61 25.6269ZM106.125 11.7439C106.296 11.6041 106.467 11.4783 106.638 11.3664C106.809 11.2546 106.994 11.1428 107.193 11.0309L106.809 10.7792L105.996 11.5342L106.125 11.7439ZM99.6698 25.0817C99.9833 24.83 100.268 24.5504 100.525 24.2428C100.81 23.9073 101.137 23.6277 101.508 23.404L101.465 23.2362C101.152 23.5158 100.81 23.8094 100.439 24.117C100.097 24.3966 99.7981 24.6902 99.5416 24.9978L99.6698 25.0817ZM103.261 26.4658L103.902 26.0883C103.816 26.1163 103.674 26.1163 103.474 26.0883C103.303 26.0324 103.189 25.9765 103.132 25.9205L102.577 26.3819L103.261 26.4658ZM101.636 26.0883C101.779 25.9485 101.921 25.8366 102.064 25.7528C102.235 25.6689 102.377 25.557 102.491 25.4172L102.32 25.2075C101.95 25.4871 101.65 25.7528 101.422 26.0044L101.636 26.0883ZM105.697 10.3598L105.099 10.8212L105.355 10.947L105.954 10.4437L105.697 10.3598Z" fill="black"/>
<path d="M120.844 16.3576C120.759 16.5533 120.673 16.8609 120.588 17.2804C120.531 17.6718 120.474 18.0912 120.417 18.5386C120.388 18.986 120.36 19.4194 120.331 19.8389C120.303 20.2583 120.289 20.5798 120.289 20.8035V23.7395C120.716 23.8514 121.101 24.0471 121.443 24.3267C121.813 24.6063 121.999 24.9838 121.999 25.4592C121.999 26.0184 121.799 26.4518 121.4 26.7594C121.001 27.039 120.517 27.2487 119.947 27.3885C119.377 27.5283 118.793 27.6122 118.194 27.6402C117.596 27.6681 117.111 27.6821 116.741 27.6821C116.399 27.6821 115.985 27.6681 115.501 27.6402C115.017 27.6402 114.546 27.5843 114.09 27.4724C113.663 27.3606 113.292 27.1788 112.979 26.9272C112.665 26.6755 112.509 26.312 112.509 25.8366C112.509 25.4172 112.637 25.0537 112.893 24.7461C113.15 24.4386 113.478 24.2149 113.877 24.0751C113.877 22.2296 113.848 20.4121 113.791 18.6225C113.763 16.833 113.691 15.0155 113.577 13.17C113.121 13.0302 112.694 12.8065 112.295 12.4989C111.896 12.1913 111.697 11.7579 111.697 11.1987C111.697 10.6115 111.924 10.1641 112.38 9.85651C112.865 9.52097 113.435 9.2833 114.09 9.14349C114.774 9.00368 115.458 8.91979 116.142 8.89183C116.826 8.86387 117.382 8.84989 117.809 8.84989C118.55 8.84989 119.135 9.04562 119.562 9.43709C119.989 9.82855 120.274 10.3738 120.417 11.0728C120.844 10.5136 121.329 10.0383 121.87 9.6468C122.44 9.25533 123.096 9.0596 123.837 9.0596C124.863 9.0596 125.646 9.43709 126.188 10.1921C126.729 10.9191 127 11.7439 127 12.6667C127 12.9742 126.957 13.3377 126.872 13.7572C126.786 14.1486 126.644 14.5261 126.444 14.8896C126.245 15.2252 126.003 15.5188 125.718 15.7704C125.433 15.9941 125.091 16.106 124.692 16.106C124.464 16.106 124.25 16.064 124.05 15.9801C123.851 15.8683 123.651 15.7564 123.452 15.6446C123.253 15.5327 123.067 15.4349 122.896 15.351C122.754 15.2391 122.64 15.1832 122.554 15.1832C122.155 15.1832 121.828 15.337 121.571 15.6446C121.343 15.9242 121.101 16.1619 120.844 16.3576ZM115.458 24.4945C116.028 24.0191 116.584 23.5438 117.125 23.0684C117.667 22.5651 118.194 22.0618 118.707 21.5585V20.9294C118.137 21.4047 117.567 21.8801 116.997 22.3554C116.456 22.8028 115.943 23.3061 115.458 23.8653V24.4945ZM123.794 10.6954C123.11 11.2546 122.455 11.9117 121.828 12.6667C121.229 13.4216 120.645 14.1207 120.075 14.7638L120.203 14.7219C120.944 14.0787 121.657 13.4216 122.341 12.7506C123.025 12.0795 123.737 11.4224 124.478 10.7792L123.794 10.6954ZM115.373 18.3289C116.057 17.6299 116.741 16.9169 117.425 16.1898C118.137 15.4628 118.864 14.7638 119.605 14.0927C119.548 14.0648 119.505 14.0368 119.476 14.0088C119.448 13.9809 119.405 13.9669 119.348 13.9669C118.607 14.61 117.909 15.2811 117.254 15.9801C116.627 16.6512 116 17.3503 115.373 18.0773V18.3289ZM118.921 11.5342C118.265 11.9816 117.624 12.5129 116.997 13.128C116.37 13.7152 115.8 14.3024 115.287 14.8896V15.3929C115.857 14.7778 116.47 14.1906 117.125 13.6313C117.809 13.0442 118.422 12.443 118.964 11.8278L118.921 11.5342ZM119.348 15.8543C119.377 15.7425 119.448 15.5747 119.562 15.351V15.3091C118.907 16.0081 118.208 16.6932 117.467 17.3642C116.726 18.0074 116.042 18.6924 115.416 19.4194V19.9647L119.348 15.8543ZM118.793 19C118.251 19.5872 117.71 20.1884 117.168 20.8035C116.655 21.4187 116.085 21.9779 115.458 22.4812V22.7329C115.971 22.2296 116.541 21.7542 117.168 21.3068C117.824 20.8315 118.351 20.3142 118.75 19.755L118.793 19.2097V19ZM115.373 16.9029C115.943 16.2597 116.527 15.6306 117.125 15.0155C117.724 14.3723 118.351 13.7712 119.006 13.2119V12.8764C118.351 13.4636 117.724 14.0648 117.125 14.6799C116.527 15.2671 115.928 15.8823 115.33 16.5254L115.373 16.9029ZM119.006 17.3223C118.892 17.4621 118.636 17.7277 118.237 18.1192C117.866 18.5107 117.467 18.9301 117.04 19.3775C116.641 19.7969 116.27 20.1884 115.928 20.5519C115.615 20.9154 115.458 21.1251 115.458 21.181V21.4327L115.501 21.3488C116.156 20.8175 116.726 20.2163 117.211 19.5453C117.724 18.8742 118.308 18.273 118.964 17.7417L119.006 17.3223ZM115.416 26.0464C115.957 25.5151 116.484 25.0118 116.997 24.5364C117.539 24.0331 118.123 23.5578 118.75 23.1104C118.75 23.0265 118.736 22.9426 118.707 22.8587C118.707 22.7748 118.707 22.7049 118.707 22.649C118.109 23.2082 117.496 23.7815 116.869 24.3687C116.27 24.9279 115.643 25.4592 114.988 25.9625L115.416 26.0464ZM125.076 11.3245C124.677 11.688 124.278 12.0655 123.879 12.457C123.509 12.8205 123.124 13.1979 122.725 13.5894C122.782 13.5894 122.854 13.5894 122.939 13.5894C123.053 13.5894 123.139 13.6174 123.195 13.6733L125.205 11.66L125.076 11.3245ZM116.869 10.5276C116.156 11.0029 115.529 11.5482 114.988 12.1634L115.031 12.2053L115.116 12.457C115.515 12.1214 115.9 11.7999 116.27 11.4923C116.669 11.1567 117.068 10.8212 117.467 10.4857L116.869 10.5276ZM125.418 12.5828C125.162 12.8344 124.905 13.0861 124.649 13.3377C124.421 13.5894 124.179 13.8271 123.922 14.0508C124.008 14.1626 124.122 14.2325 124.264 14.2605C124.435 14.0648 124.606 13.897 124.777 13.7572C124.977 13.5894 125.176 13.4216 125.376 13.2539L125.418 12.5828ZM118.493 10.6115C117.98 11.1148 117.425 11.5901 116.826 12.0375C116.256 12.4849 115.715 12.9742 115.202 13.5055V13.7991C115.743 13.2678 116.285 12.7366 116.826 12.2053C117.396 11.674 117.995 11.1987 118.622 10.7792L118.493 10.6115ZM116.869 26.0883C117.182 25.8087 117.496 25.5291 117.809 25.2494C118.123 24.9698 118.436 24.6902 118.75 24.4106V24.117C117.923 24.7601 117.168 25.4172 116.484 26.0883H116.869ZM118.835 25.9625C119.063 25.7388 119.306 25.543 119.562 25.3753L119.519 25.3333L119.049 25.1656C118.878 25.3054 118.707 25.4452 118.536 25.585C118.394 25.7248 118.251 25.8786 118.109 26.0464L118.835 25.9625ZM114.86 10.6954C114.717 10.8352 114.561 10.989 114.39 11.1567C114.219 11.2965 114.062 11.4503 113.919 11.6181L114.304 11.702H114.347C114.603 11.3664 114.945 11.0169 115.373 10.6534L114.86 10.6954Z" fill="black"/>
</svg>
